%TF.GenerationSoftware,KiCad,Pcbnew,8.0.8*%
%TF.CreationDate,2025-03-21T11:13:22+02:00*%
%TF.ProjectId,Adacel,41646163-656c-42e6-9b69-6361645f7063,rev?*%
%TF.SameCoordinates,Original*%
%TF.FileFunction,Soldermask,Bot*%
%TF.FilePolarity,Negative*%
%FSLAX46Y46*%
G04 Gerber Fmt 4.6, Leading zero omitted, Abs format (unit mm)*
G04 Created by KiCad (PCBNEW 8.0.8) date 2025-03-21 11:13:22*
%MOMM*%
%LPD*%
G01*
G04 APERTURE LIST*
%ADD10C,2.000000*%
%ADD11R,1.700000X1.700000*%
%ADD12O,1.700000X1.700000*%
%ADD13C,2.700000*%
%ADD14R,1.800000X1.800000*%
%ADD15C,1.800000*%
%ADD16C,2.400000*%
%ADD17O,2.400000X2.400000*%
%ADD18C,1.600000*%
%ADD19R,1.600000X1.600000*%
%ADD20R,2.400000X1.600000*%
%ADD21O,2.400000X1.600000*%
%ADD22C,2.340000*%
%ADD23R,1.500000X1.500000*%
G04 APERTURE END LIST*
D10*
X108000000Y-66618000D03*
X115500000Y-66618000D03*
D11*
X160782000Y-73660000D03*
D12*
X160782000Y-71120000D03*
X160782000Y-68580000D03*
X160782000Y-66040000D03*
D13*
X161500000Y-47500000D03*
D14*
X108966000Y-84074000D03*
D15*
X108966000Y-86614000D03*
D16*
X115062000Y-55880000D03*
D17*
X120142000Y-55880000D03*
D14*
X160782000Y-57658000D03*
D15*
X158242000Y-57658000D03*
D18*
X149098000Y-71882000D03*
X149098000Y-74382000D03*
D13*
X103500000Y-96500000D03*
D14*
X108000000Y-58540000D03*
D15*
X108000000Y-56000000D03*
D13*
X103500000Y-47500000D03*
D19*
X110490000Y-76500000D03*
D18*
X107990000Y-76500000D03*
D20*
X127500000Y-75040000D03*
D21*
X127500000Y-72500000D03*
X127500000Y-69960000D03*
X127500000Y-67420000D03*
X119880000Y-67420000D03*
X119880000Y-69960000D03*
X119880000Y-72500000D03*
X119880000Y-75040000D03*
D13*
X161500000Y-96500000D03*
D16*
X132842000Y-69596000D03*
D17*
X132842000Y-74676000D03*
D22*
X138724000Y-70652000D03*
X141224000Y-73152000D03*
X138724000Y-75652000D03*
D18*
X144526000Y-93980000D03*
D23*
X147066000Y-93980000D03*
D18*
X149606000Y-93980000D03*
D10*
X158698000Y-86324000D03*
X152198000Y-86324000D03*
X158698000Y-81824000D03*
X152198000Y-81824000D03*
D16*
X148082000Y-53848000D03*
D17*
X153162000Y-53848000D03*
D11*
X108370000Y-48770000D03*
D12*
X108370000Y-46230000D03*
X110910000Y-48770000D03*
X110910000Y-46230000D03*
X113450000Y-48770000D03*
X113450000Y-46230000D03*
X115990000Y-48770000D03*
X115990000Y-46230000D03*
X118530000Y-48770000D03*
X118530000Y-46230000D03*
X121070000Y-48770000D03*
X121070000Y-46230000D03*
X123610000Y-48770000D03*
X123610000Y-46230000D03*
X126150000Y-48770000D03*
X126150000Y-46230000D03*
X128690000Y-48770000D03*
X128690000Y-46230000D03*
X131230000Y-48770000D03*
X131230000Y-46230000D03*
X133770000Y-48770000D03*
X133770000Y-46230000D03*
X136310000Y-48770000D03*
X136310000Y-46230000D03*
X138850000Y-48770000D03*
X138850000Y-46230000D03*
X141390000Y-48770000D03*
X141390000Y-46230000D03*
X143930000Y-48770000D03*
X143930000Y-46230000D03*
X146470000Y-48770000D03*
X146470000Y-46230000D03*
X149010000Y-48770000D03*
X149010000Y-46230000D03*
X151550000Y-48770000D03*
X151550000Y-46230000D03*
X154090000Y-48770000D03*
X154090000Y-46230000D03*
X156630000Y-48770000D03*
X156630000Y-46230000D03*
M02*
