%TF.GenerationSoftware,KiCad,Pcbnew,8.0.8*%
%TF.CreationDate,2025-05-07T16:47:23+03:00*%
%TF.ProjectId,Adacel,41646163-656c-42e6-9b69-6361645f7063,rev?*%
%TF.SameCoordinates,Original*%
%TF.FileFunction,Legend,Top*%
%TF.FilePolarity,Positive*%
%FSLAX46Y46*%
G04 Gerber Fmt 4.6, Leading zero omitted, Abs format (unit mm)*
G04 Created by KiCad (PCBNEW 8.0.8) date 2025-05-07 16:47:23*
%MOMM*%
%LPD*%
G01*
G04 APERTURE LIST*
%ADD10C,0.150000*%
%ADD11C,0.120000*%
%ADD12C,2.700000*%
%ADD13R,1.800000X1.800000*%
%ADD14C,1.800000*%
%ADD15C,1.600000*%
%ADD16O,1.600000X1.600000*%
%ADD17C,2.000000*%
%ADD18R,1.600000X1.600000*%
%ADD19R,2.400000X1.600000*%
%ADD20O,2.400000X1.600000*%
%ADD21C,2.340000*%
%ADD22R,1.500000X1.500000*%
%ADD23R,1.700000X1.700000*%
%ADD24O,1.700000X1.700000*%
G04 APERTURE END LIST*
D10*
X113380819Y-86082094D02*
X112380819Y-86082094D01*
X112380819Y-86082094D02*
X112380819Y-85843999D01*
X112380819Y-85843999D02*
X112428438Y-85701142D01*
X112428438Y-85701142D02*
X112523676Y-85605904D01*
X112523676Y-85605904D02*
X112618914Y-85558285D01*
X112618914Y-85558285D02*
X112809390Y-85510666D01*
X112809390Y-85510666D02*
X112952247Y-85510666D01*
X112952247Y-85510666D02*
X113142723Y-85558285D01*
X113142723Y-85558285D02*
X113237961Y-85605904D01*
X113237961Y-85605904D02*
X113333200Y-85701142D01*
X113333200Y-85701142D02*
X113380819Y-85843999D01*
X113380819Y-85843999D02*
X113380819Y-86082094D01*
X113380819Y-84558285D02*
X113380819Y-85129713D01*
X113380819Y-84843999D02*
X112380819Y-84843999D01*
X112380819Y-84843999D02*
X112523676Y-84939237D01*
X112523676Y-84939237D02*
X112618914Y-85034475D01*
X112618914Y-85034475D02*
X112666533Y-85129713D01*
X117181333Y-53964819D02*
X116848000Y-53488628D01*
X116609905Y-53964819D02*
X116609905Y-52964819D01*
X116609905Y-52964819D02*
X116990857Y-52964819D01*
X116990857Y-52964819D02*
X117086095Y-53012438D01*
X117086095Y-53012438D02*
X117133714Y-53060057D01*
X117133714Y-53060057D02*
X117181333Y-53155295D01*
X117181333Y-53155295D02*
X117181333Y-53298152D01*
X117181333Y-53298152D02*
X117133714Y-53393390D01*
X117133714Y-53393390D02*
X117086095Y-53441009D01*
X117086095Y-53441009D02*
X116990857Y-53488628D01*
X116990857Y-53488628D02*
X116609905Y-53488628D01*
X118086095Y-52964819D02*
X117609905Y-52964819D01*
X117609905Y-52964819D02*
X117562286Y-53441009D01*
X117562286Y-53441009D02*
X117609905Y-53393390D01*
X117609905Y-53393390D02*
X117705143Y-53345771D01*
X117705143Y-53345771D02*
X117943238Y-53345771D01*
X117943238Y-53345771D02*
X118038476Y-53393390D01*
X118038476Y-53393390D02*
X118086095Y-53441009D01*
X118086095Y-53441009D02*
X118133714Y-53536247D01*
X118133714Y-53536247D02*
X118133714Y-53774342D01*
X118133714Y-53774342D02*
X118086095Y-53869580D01*
X118086095Y-53869580D02*
X118038476Y-53917200D01*
X118038476Y-53917200D02*
X117943238Y-53964819D01*
X117943238Y-53964819D02*
X117705143Y-53964819D01*
X117705143Y-53964819D02*
X117609905Y-53917200D01*
X117609905Y-53917200D02*
X117562286Y-53869580D01*
X159286905Y-59786819D02*
X159286905Y-58786819D01*
X159286905Y-58786819D02*
X159525000Y-58786819D01*
X159525000Y-58786819D02*
X159667857Y-58834438D01*
X159667857Y-58834438D02*
X159763095Y-58929676D01*
X159763095Y-58929676D02*
X159810714Y-59024914D01*
X159810714Y-59024914D02*
X159858333Y-59215390D01*
X159858333Y-59215390D02*
X159858333Y-59358247D01*
X159858333Y-59358247D02*
X159810714Y-59548723D01*
X159810714Y-59548723D02*
X159763095Y-59643961D01*
X159763095Y-59643961D02*
X159667857Y-59739200D01*
X159667857Y-59739200D02*
X159525000Y-59786819D01*
X159525000Y-59786819D02*
X159286905Y-59786819D01*
X160239286Y-58882057D02*
X160286905Y-58834438D01*
X160286905Y-58834438D02*
X160382143Y-58786819D01*
X160382143Y-58786819D02*
X160620238Y-58786819D01*
X160620238Y-58786819D02*
X160715476Y-58834438D01*
X160715476Y-58834438D02*
X160763095Y-58882057D01*
X160763095Y-58882057D02*
X160810714Y-58977295D01*
X160810714Y-58977295D02*
X160810714Y-59072533D01*
X160810714Y-59072533D02*
X160763095Y-59215390D01*
X160763095Y-59215390D02*
X160191667Y-59786819D01*
X160191667Y-59786819D02*
X160810714Y-59786819D01*
X150092580Y-74080666D02*
X150140200Y-74128285D01*
X150140200Y-74128285D02*
X150187819Y-74271142D01*
X150187819Y-74271142D02*
X150187819Y-74366380D01*
X150187819Y-74366380D02*
X150140200Y-74509237D01*
X150140200Y-74509237D02*
X150044961Y-74604475D01*
X150044961Y-74604475D02*
X149949723Y-74652094D01*
X149949723Y-74652094D02*
X149759247Y-74699713D01*
X149759247Y-74699713D02*
X149616390Y-74699713D01*
X149616390Y-74699713D02*
X149425914Y-74652094D01*
X149425914Y-74652094D02*
X149330676Y-74604475D01*
X149330676Y-74604475D02*
X149235438Y-74509237D01*
X149235438Y-74509237D02*
X149187819Y-74366380D01*
X149187819Y-74366380D02*
X149187819Y-74271142D01*
X149187819Y-74271142D02*
X149235438Y-74128285D01*
X149235438Y-74128285D02*
X149283057Y-74080666D01*
X149521152Y-73223523D02*
X150187819Y-73223523D01*
X149140200Y-73461618D02*
X149854485Y-73699713D01*
X149854485Y-73699713D02*
X149854485Y-73080666D01*
X107211905Y-61668819D02*
X107211905Y-60668819D01*
X107211905Y-60668819D02*
X107450000Y-60668819D01*
X107450000Y-60668819D02*
X107592857Y-60716438D01*
X107592857Y-60716438D02*
X107688095Y-60811676D01*
X107688095Y-60811676D02*
X107735714Y-60906914D01*
X107735714Y-60906914D02*
X107783333Y-61097390D01*
X107783333Y-61097390D02*
X107783333Y-61240247D01*
X107783333Y-61240247D02*
X107735714Y-61430723D01*
X107735714Y-61430723D02*
X107688095Y-61525961D01*
X107688095Y-61525961D02*
X107592857Y-61621200D01*
X107592857Y-61621200D02*
X107450000Y-61668819D01*
X107450000Y-61668819D02*
X107211905Y-61668819D01*
X108116667Y-60668819D02*
X108735714Y-60668819D01*
X108735714Y-60668819D02*
X108402381Y-61049771D01*
X108402381Y-61049771D02*
X108545238Y-61049771D01*
X108545238Y-61049771D02*
X108640476Y-61097390D01*
X108640476Y-61097390D02*
X108688095Y-61145009D01*
X108688095Y-61145009D02*
X108735714Y-61240247D01*
X108735714Y-61240247D02*
X108735714Y-61478342D01*
X108735714Y-61478342D02*
X108688095Y-61573580D01*
X108688095Y-61573580D02*
X108640476Y-61621200D01*
X108640476Y-61621200D02*
X108545238Y-61668819D01*
X108545238Y-61668819D02*
X108259524Y-61668819D01*
X108259524Y-61668819D02*
X108164286Y-61621200D01*
X108164286Y-61621200D02*
X108116667Y-61573580D01*
X110891333Y-63915580D02*
X110843714Y-63963200D01*
X110843714Y-63963200D02*
X110700857Y-64010819D01*
X110700857Y-64010819D02*
X110605619Y-64010819D01*
X110605619Y-64010819D02*
X110462762Y-63963200D01*
X110462762Y-63963200D02*
X110367524Y-63867961D01*
X110367524Y-63867961D02*
X110319905Y-63772723D01*
X110319905Y-63772723D02*
X110272286Y-63582247D01*
X110272286Y-63582247D02*
X110272286Y-63439390D01*
X110272286Y-63439390D02*
X110319905Y-63248914D01*
X110319905Y-63248914D02*
X110367524Y-63153676D01*
X110367524Y-63153676D02*
X110462762Y-63058438D01*
X110462762Y-63058438D02*
X110605619Y-63010819D01*
X110605619Y-63010819D02*
X110700857Y-63010819D01*
X110700857Y-63010819D02*
X110843714Y-63058438D01*
X110843714Y-63058438D02*
X110891333Y-63106057D01*
X111272286Y-63106057D02*
X111319905Y-63058438D01*
X111319905Y-63058438D02*
X111415143Y-63010819D01*
X111415143Y-63010819D02*
X111653238Y-63010819D01*
X111653238Y-63010819D02*
X111748476Y-63058438D01*
X111748476Y-63058438D02*
X111796095Y-63106057D01*
X111796095Y-63106057D02*
X111843714Y-63201295D01*
X111843714Y-63201295D02*
X111843714Y-63296533D01*
X111843714Y-63296533D02*
X111796095Y-63439390D01*
X111796095Y-63439390D02*
X111224667Y-64010819D01*
X111224667Y-64010819D02*
X111843714Y-64010819D01*
X105039333Y-77413580D02*
X104991714Y-77461200D01*
X104991714Y-77461200D02*
X104848857Y-77508819D01*
X104848857Y-77508819D02*
X104753619Y-77508819D01*
X104753619Y-77508819D02*
X104610762Y-77461200D01*
X104610762Y-77461200D02*
X104515524Y-77365961D01*
X104515524Y-77365961D02*
X104467905Y-77270723D01*
X104467905Y-77270723D02*
X104420286Y-77080247D01*
X104420286Y-77080247D02*
X104420286Y-76937390D01*
X104420286Y-76937390D02*
X104467905Y-76746914D01*
X104467905Y-76746914D02*
X104515524Y-76651676D01*
X104515524Y-76651676D02*
X104610762Y-76556438D01*
X104610762Y-76556438D02*
X104753619Y-76508819D01*
X104753619Y-76508819D02*
X104848857Y-76508819D01*
X104848857Y-76508819D02*
X104991714Y-76556438D01*
X104991714Y-76556438D02*
X105039333Y-76604057D01*
X105372667Y-76508819D02*
X105991714Y-76508819D01*
X105991714Y-76508819D02*
X105658381Y-76889771D01*
X105658381Y-76889771D02*
X105801238Y-76889771D01*
X105801238Y-76889771D02*
X105896476Y-76937390D01*
X105896476Y-76937390D02*
X105944095Y-76985009D01*
X105944095Y-76985009D02*
X105991714Y-77080247D01*
X105991714Y-77080247D02*
X105991714Y-77318342D01*
X105991714Y-77318342D02*
X105944095Y-77413580D01*
X105944095Y-77413580D02*
X105896476Y-77461200D01*
X105896476Y-77461200D02*
X105801238Y-77508819D01*
X105801238Y-77508819D02*
X105515524Y-77508819D01*
X105515524Y-77508819D02*
X105420286Y-77461200D01*
X105420286Y-77461200D02*
X105372667Y-77413580D01*
X121666095Y-76824819D02*
X121666095Y-77634342D01*
X121666095Y-77634342D02*
X121713714Y-77729580D01*
X121713714Y-77729580D02*
X121761333Y-77777200D01*
X121761333Y-77777200D02*
X121856571Y-77824819D01*
X121856571Y-77824819D02*
X122047047Y-77824819D01*
X122047047Y-77824819D02*
X122142285Y-77777200D01*
X122142285Y-77777200D02*
X122189904Y-77729580D01*
X122189904Y-77729580D02*
X122237523Y-77634342D01*
X122237523Y-77634342D02*
X122237523Y-76824819D01*
X122666095Y-76920057D02*
X122713714Y-76872438D01*
X122713714Y-76872438D02*
X122808952Y-76824819D01*
X122808952Y-76824819D02*
X123047047Y-76824819D01*
X123047047Y-76824819D02*
X123142285Y-76872438D01*
X123142285Y-76872438D02*
X123189904Y-76920057D01*
X123189904Y-76920057D02*
X123237523Y-77015295D01*
X123237523Y-77015295D02*
X123237523Y-77110533D01*
X123237523Y-77110533D02*
X123189904Y-77253390D01*
X123189904Y-77253390D02*
X122618476Y-77824819D01*
X122618476Y-77824819D02*
X123237523Y-77824819D01*
X130135333Y-65478819D02*
X129802000Y-65002628D01*
X129563905Y-65478819D02*
X129563905Y-64478819D01*
X129563905Y-64478819D02*
X129944857Y-64478819D01*
X129944857Y-64478819D02*
X130040095Y-64526438D01*
X130040095Y-64526438D02*
X130087714Y-64574057D01*
X130087714Y-64574057D02*
X130135333Y-64669295D01*
X130135333Y-64669295D02*
X130135333Y-64812152D01*
X130135333Y-64812152D02*
X130087714Y-64907390D01*
X130087714Y-64907390D02*
X130040095Y-64955009D01*
X130040095Y-64955009D02*
X129944857Y-65002628D01*
X129944857Y-65002628D02*
X129563905Y-65002628D01*
X130468667Y-64478819D02*
X131087714Y-64478819D01*
X131087714Y-64478819D02*
X130754381Y-64859771D01*
X130754381Y-64859771D02*
X130897238Y-64859771D01*
X130897238Y-64859771D02*
X130992476Y-64907390D01*
X130992476Y-64907390D02*
X131040095Y-64955009D01*
X131040095Y-64955009D02*
X131087714Y-65050247D01*
X131087714Y-65050247D02*
X131087714Y-65288342D01*
X131087714Y-65288342D02*
X131040095Y-65383580D01*
X131040095Y-65383580D02*
X130992476Y-65431200D01*
X130992476Y-65431200D02*
X130897238Y-65478819D01*
X130897238Y-65478819D02*
X130611524Y-65478819D01*
X130611524Y-65478819D02*
X130516286Y-65431200D01*
X130516286Y-65431200D02*
X130468667Y-65383580D01*
X137366761Y-67079819D02*
X137033428Y-66603628D01*
X136795333Y-67079819D02*
X136795333Y-66079819D01*
X136795333Y-66079819D02*
X137176285Y-66079819D01*
X137176285Y-66079819D02*
X137271523Y-66127438D01*
X137271523Y-66127438D02*
X137319142Y-66175057D01*
X137319142Y-66175057D02*
X137366761Y-66270295D01*
X137366761Y-66270295D02*
X137366761Y-66413152D01*
X137366761Y-66413152D02*
X137319142Y-66508390D01*
X137319142Y-66508390D02*
X137271523Y-66556009D01*
X137271523Y-66556009D02*
X137176285Y-66603628D01*
X137176285Y-66603628D02*
X136795333Y-66603628D01*
X137652476Y-66079819D02*
X137985809Y-67079819D01*
X137985809Y-67079819D02*
X138319142Y-66079819D01*
X139176285Y-67079819D02*
X138604857Y-67079819D01*
X138890571Y-67079819D02*
X138890571Y-66079819D01*
X138890571Y-66079819D02*
X138795333Y-66222676D01*
X138795333Y-66222676D02*
X138700095Y-66317914D01*
X138700095Y-66317914D02*
X138604857Y-66365533D01*
X147764667Y-91847200D02*
X147907524Y-91894819D01*
X147907524Y-91894819D02*
X148145619Y-91894819D01*
X148145619Y-91894819D02*
X148240857Y-91847200D01*
X148240857Y-91847200D02*
X148288476Y-91799580D01*
X148288476Y-91799580D02*
X148336095Y-91704342D01*
X148336095Y-91704342D02*
X148336095Y-91609104D01*
X148336095Y-91609104D02*
X148288476Y-91513866D01*
X148288476Y-91513866D02*
X148240857Y-91466247D01*
X148240857Y-91466247D02*
X148145619Y-91418628D01*
X148145619Y-91418628D02*
X147955143Y-91371009D01*
X147955143Y-91371009D02*
X147859905Y-91323390D01*
X147859905Y-91323390D02*
X147812286Y-91275771D01*
X147812286Y-91275771D02*
X147764667Y-91180533D01*
X147764667Y-91180533D02*
X147764667Y-91085295D01*
X147764667Y-91085295D02*
X147812286Y-90990057D01*
X147812286Y-90990057D02*
X147859905Y-90942438D01*
X147859905Y-90942438D02*
X147955143Y-90894819D01*
X147955143Y-90894819D02*
X148193238Y-90894819D01*
X148193238Y-90894819D02*
X148336095Y-90942438D01*
X148669429Y-90894819D02*
X148907524Y-91894819D01*
X148907524Y-91894819D02*
X149098000Y-91180533D01*
X149098000Y-91180533D02*
X149288476Y-91894819D01*
X149288476Y-91894819D02*
X149526572Y-90894819D01*
X149859905Y-90990057D02*
X149907524Y-90942438D01*
X149907524Y-90942438D02*
X150002762Y-90894819D01*
X150002762Y-90894819D02*
X150240857Y-90894819D01*
X150240857Y-90894819D02*
X150336095Y-90942438D01*
X150336095Y-90942438D02*
X150383714Y-90990057D01*
X150383714Y-90990057D02*
X150431333Y-91085295D01*
X150431333Y-91085295D02*
X150431333Y-91180533D01*
X150431333Y-91180533D02*
X150383714Y-91323390D01*
X150383714Y-91323390D02*
X149812286Y-91894819D01*
X149812286Y-91894819D02*
X150431333Y-91894819D01*
X150864667Y-89711200D02*
X151007524Y-89758819D01*
X151007524Y-89758819D02*
X151245619Y-89758819D01*
X151245619Y-89758819D02*
X151340857Y-89711200D01*
X151340857Y-89711200D02*
X151388476Y-89663580D01*
X151388476Y-89663580D02*
X151436095Y-89568342D01*
X151436095Y-89568342D02*
X151436095Y-89473104D01*
X151436095Y-89473104D02*
X151388476Y-89377866D01*
X151388476Y-89377866D02*
X151340857Y-89330247D01*
X151340857Y-89330247D02*
X151245619Y-89282628D01*
X151245619Y-89282628D02*
X151055143Y-89235009D01*
X151055143Y-89235009D02*
X150959905Y-89187390D01*
X150959905Y-89187390D02*
X150912286Y-89139771D01*
X150912286Y-89139771D02*
X150864667Y-89044533D01*
X150864667Y-89044533D02*
X150864667Y-88949295D01*
X150864667Y-88949295D02*
X150912286Y-88854057D01*
X150912286Y-88854057D02*
X150959905Y-88806438D01*
X150959905Y-88806438D02*
X151055143Y-88758819D01*
X151055143Y-88758819D02*
X151293238Y-88758819D01*
X151293238Y-88758819D02*
X151436095Y-88806438D01*
X151769429Y-88758819D02*
X152007524Y-89758819D01*
X152007524Y-89758819D02*
X152198000Y-89044533D01*
X152198000Y-89044533D02*
X152388476Y-89758819D01*
X152388476Y-89758819D02*
X152626572Y-88758819D01*
X153531333Y-89758819D02*
X152959905Y-89758819D01*
X153245619Y-89758819D02*
X153245619Y-88758819D01*
X153245619Y-88758819D02*
X153150381Y-88901676D01*
X153150381Y-88901676D02*
X153055143Y-88996914D01*
X153055143Y-88996914D02*
X152959905Y-89044533D01*
X159615333Y-76361009D02*
X159758190Y-76408628D01*
X159758190Y-76408628D02*
X159805809Y-76456247D01*
X159805809Y-76456247D02*
X159853428Y-76551485D01*
X159853428Y-76551485D02*
X159853428Y-76694342D01*
X159853428Y-76694342D02*
X159805809Y-76789580D01*
X159805809Y-76789580D02*
X159758190Y-76837200D01*
X159758190Y-76837200D02*
X159662952Y-76884819D01*
X159662952Y-76884819D02*
X159282000Y-76884819D01*
X159282000Y-76884819D02*
X159282000Y-75884819D01*
X159282000Y-75884819D02*
X159615333Y-75884819D01*
X159615333Y-75884819D02*
X159710571Y-75932438D01*
X159710571Y-75932438D02*
X159758190Y-75980057D01*
X159758190Y-75980057D02*
X159805809Y-76075295D01*
X159805809Y-76075295D02*
X159805809Y-76170533D01*
X159805809Y-76170533D02*
X159758190Y-76265771D01*
X159758190Y-76265771D02*
X159710571Y-76313390D01*
X159710571Y-76313390D02*
X159615333Y-76361009D01*
X159615333Y-76361009D02*
X159282000Y-76361009D01*
X160282000Y-76884819D02*
X160282000Y-76218152D01*
X160282000Y-76408628D02*
X160329619Y-76313390D01*
X160329619Y-76313390D02*
X160377238Y-76265771D01*
X160377238Y-76265771D02*
X160472476Y-76218152D01*
X160472476Y-76218152D02*
X160567714Y-76218152D01*
X161329619Y-76884819D02*
X161329619Y-75884819D01*
X161329619Y-76837200D02*
X161234381Y-76884819D01*
X161234381Y-76884819D02*
X161043905Y-76884819D01*
X161043905Y-76884819D02*
X160948667Y-76837200D01*
X160948667Y-76837200D02*
X160901048Y-76789580D01*
X160901048Y-76789580D02*
X160853429Y-76694342D01*
X160853429Y-76694342D02*
X160853429Y-76408628D01*
X160853429Y-76408628D02*
X160901048Y-76313390D01*
X160901048Y-76313390D02*
X160948667Y-76265771D01*
X160948667Y-76265771D02*
X161043905Y-76218152D01*
X161043905Y-76218152D02*
X161234381Y-76218152D01*
X161234381Y-76218152D02*
X161329619Y-76265771D01*
X162329619Y-76884819D02*
X161758191Y-76884819D01*
X162043905Y-76884819D02*
X162043905Y-75884819D01*
X162043905Y-75884819D02*
X161948667Y-76027676D01*
X161948667Y-76027676D02*
X161853429Y-76122914D01*
X161853429Y-76122914D02*
X161758191Y-76170533D01*
X150201333Y-51424819D02*
X149868000Y-50948628D01*
X149629905Y-51424819D02*
X149629905Y-50424819D01*
X149629905Y-50424819D02*
X150010857Y-50424819D01*
X150010857Y-50424819D02*
X150106095Y-50472438D01*
X150106095Y-50472438D02*
X150153714Y-50520057D01*
X150153714Y-50520057D02*
X150201333Y-50615295D01*
X150201333Y-50615295D02*
X150201333Y-50758152D01*
X150201333Y-50758152D02*
X150153714Y-50853390D01*
X150153714Y-50853390D02*
X150106095Y-50901009D01*
X150106095Y-50901009D02*
X150010857Y-50948628D01*
X150010857Y-50948628D02*
X149629905Y-50948628D01*
X151058476Y-50758152D02*
X151058476Y-51424819D01*
X150820381Y-50377200D02*
X150582286Y-51091485D01*
X150582286Y-51091485D02*
X151201333Y-51091485D01*
D11*
X110511000Y-82784000D02*
X107421000Y-82784000D01*
X108965952Y-88334000D02*
G75*
G02*
X107421170Y-82784000I48J2990000D01*
G01*
X110510830Y-82784000D02*
G75*
G02*
X108966048Y-88334000I-1544830J-2560000D01*
G01*
X111466000Y-85344000D02*
G75*
G02*
X106466000Y-85344000I-2500000J0D01*
G01*
X106466000Y-85344000D02*
G75*
G02*
X111466000Y-85344000I2500000J0D01*
G01*
X114078000Y-54510000D02*
X120618000Y-54510000D01*
X114078000Y-54840000D02*
X114078000Y-54510000D01*
X114078000Y-56920000D02*
X114078000Y-57250000D01*
X114078000Y-57250000D02*
X120618000Y-57250000D01*
X120618000Y-54510000D02*
X120618000Y-54840000D01*
X120618000Y-57250000D02*
X120618000Y-56920000D01*
X162585000Y-56917000D02*
X162585000Y-53827000D01*
X157035000Y-55371952D02*
G75*
G02*
X162585000Y-53827170I2990000J-48D01*
G01*
X162585000Y-56916830D02*
G75*
G02*
X157035000Y-55372048I-2560000J1544830D01*
G01*
X162525000Y-55372000D02*
G75*
G02*
X157525000Y-55372000I-2500000J0D01*
G01*
X157525000Y-55372000D02*
G75*
G02*
X162525000Y-55372000I2500000J0D01*
G01*
X145569000Y-71274000D02*
X145569000Y-76514000D01*
X148309000Y-71274000D02*
X145569000Y-71274000D01*
X148309000Y-71274000D02*
X148309000Y-76514000D01*
X148309000Y-76514000D02*
X145569000Y-76514000D01*
X106455000Y-59830000D02*
X109545000Y-59830000D01*
X106455170Y-59830000D02*
G75*
G02*
X107999952Y-54280000I1544830J2560000D01*
G01*
X108000048Y-54280000D02*
G75*
G02*
X109544830Y-59830000I-48J-2990000D01*
G01*
X110500000Y-57270000D02*
G75*
G02*
X105500000Y-57270000I-2500000J0D01*
G01*
X105500000Y-57270000D02*
G75*
G02*
X110500000Y-57270000I2500000J0D01*
G01*
X105788000Y-64686000D02*
X105788000Y-69426000D01*
X105788000Y-64686000D02*
X116328000Y-64686000D01*
X105788000Y-69426000D02*
X116328000Y-69426000D01*
X116328000Y-64686000D02*
X116328000Y-69426000D01*
X106639000Y-76784000D02*
X106639000Y-76216000D01*
X106679000Y-77018000D02*
X106679000Y-75982000D01*
X106719000Y-77177000D02*
X106719000Y-75823000D01*
X106759000Y-77305000D02*
X106759000Y-75695000D01*
X106799000Y-77415000D02*
X106799000Y-75585000D01*
X106839000Y-77511000D02*
X106839000Y-75489000D01*
X106879000Y-77598000D02*
X106879000Y-75402000D01*
X106919000Y-77678000D02*
X106919000Y-75322000D01*
X106959000Y-75460000D02*
X106959000Y-75249000D01*
X106959000Y-77751000D02*
X106959000Y-77540000D01*
X106999000Y-75460000D02*
X106999000Y-75181000D01*
X106999000Y-77819000D02*
X106999000Y-77540000D01*
X107039000Y-75460000D02*
X107039000Y-75117000D01*
X107039000Y-77883000D02*
X107039000Y-77540000D01*
X107079000Y-75460000D02*
X107079000Y-75057000D01*
X107079000Y-77943000D02*
X107079000Y-77540000D01*
X107119000Y-75460000D02*
X107119000Y-75000000D01*
X107119000Y-78000000D02*
X107119000Y-77540000D01*
X107159000Y-75460000D02*
X107159000Y-74946000D01*
X107159000Y-78054000D02*
X107159000Y-77540000D01*
X107199000Y-75460000D02*
X107199000Y-74895000D01*
X107199000Y-78105000D02*
X107199000Y-77540000D01*
X107239000Y-75460000D02*
X107239000Y-74847000D01*
X107239000Y-78153000D02*
X107239000Y-77540000D01*
X107279000Y-75460000D02*
X107279000Y-74801000D01*
X107279000Y-78199000D02*
X107279000Y-77540000D01*
X107319000Y-75460000D02*
X107319000Y-74757000D01*
X107319000Y-78243000D02*
X107319000Y-77540000D01*
X107359000Y-75460000D02*
X107359000Y-74715000D01*
X107359000Y-78285000D02*
X107359000Y-77540000D01*
X107399000Y-75460000D02*
X107399000Y-74674000D01*
X107399000Y-78326000D02*
X107399000Y-77540000D01*
X107439000Y-75460000D02*
X107439000Y-74636000D01*
X107439000Y-78364000D02*
X107439000Y-77540000D01*
X107479000Y-75460000D02*
X107479000Y-74599000D01*
X107479000Y-78401000D02*
X107479000Y-77540000D01*
X107519000Y-75460000D02*
X107519000Y-74563000D01*
X107519000Y-78437000D02*
X107519000Y-77540000D01*
X107559000Y-75460000D02*
X107559000Y-74529000D01*
X107559000Y-78471000D02*
X107559000Y-77540000D01*
X107599000Y-75460000D02*
X107599000Y-74496000D01*
X107599000Y-78504000D02*
X107599000Y-77540000D01*
X107639000Y-75460000D02*
X107639000Y-74465000D01*
X107639000Y-78535000D02*
X107639000Y-77540000D01*
X107679000Y-75460000D02*
X107679000Y-74435000D01*
X107679000Y-78565000D02*
X107679000Y-77540000D01*
X107719000Y-75460000D02*
X107719000Y-74405000D01*
X107719000Y-78595000D02*
X107719000Y-77540000D01*
X107759000Y-75460000D02*
X107759000Y-74378000D01*
X107759000Y-78622000D02*
X107759000Y-77540000D01*
X107799000Y-75460000D02*
X107799000Y-74351000D01*
X107799000Y-78649000D02*
X107799000Y-77540000D01*
X107839000Y-75460000D02*
X107839000Y-74325000D01*
X107839000Y-78675000D02*
X107839000Y-77540000D01*
X107879000Y-75460000D02*
X107879000Y-74300000D01*
X107879000Y-78700000D02*
X107879000Y-77540000D01*
X107919000Y-75460000D02*
X107919000Y-74276000D01*
X107919000Y-78724000D02*
X107919000Y-77540000D01*
X107959000Y-75460000D02*
X107959000Y-74253000D01*
X107959000Y-78747000D02*
X107959000Y-77540000D01*
X107999000Y-75460000D02*
X107999000Y-74232000D01*
X107999000Y-78768000D02*
X107999000Y-77540000D01*
X108039000Y-75460000D02*
X108039000Y-74210000D01*
X108039000Y-78790000D02*
X108039000Y-77540000D01*
X108079000Y-75460000D02*
X108079000Y-74190000D01*
X108079000Y-78810000D02*
X108079000Y-77540000D01*
X108119000Y-75460000D02*
X108119000Y-74171000D01*
X108119000Y-78829000D02*
X108119000Y-77540000D01*
X108159000Y-75460000D02*
X108159000Y-74152000D01*
X108159000Y-78848000D02*
X108159000Y-77540000D01*
X108199000Y-75460000D02*
X108199000Y-74135000D01*
X108199000Y-78865000D02*
X108199000Y-77540000D01*
X108239000Y-75460000D02*
X108239000Y-74118000D01*
X108239000Y-78882000D02*
X108239000Y-77540000D01*
X108279000Y-75460000D02*
X108279000Y-74102000D01*
X108279000Y-78898000D02*
X108279000Y-77540000D01*
X108319000Y-75460000D02*
X108319000Y-74086000D01*
X108319000Y-78914000D02*
X108319000Y-77540000D01*
X108359000Y-75460000D02*
X108359000Y-74072000D01*
X108359000Y-78928000D02*
X108359000Y-77540000D01*
X108399000Y-75460000D02*
X108399000Y-74058000D01*
X108399000Y-78942000D02*
X108399000Y-77540000D01*
X108439000Y-75460000D02*
X108439000Y-74045000D01*
X108439000Y-78955000D02*
X108439000Y-77540000D01*
X108479000Y-75460000D02*
X108479000Y-74032000D01*
X108479000Y-78968000D02*
X108479000Y-77540000D01*
X108519000Y-75460000D02*
X108519000Y-74020000D01*
X108519000Y-78980000D02*
X108519000Y-77540000D01*
X108560000Y-75460000D02*
X108560000Y-74009000D01*
X108560000Y-78991000D02*
X108560000Y-77540000D01*
X108600000Y-75460000D02*
X108600000Y-73999000D01*
X108600000Y-79001000D02*
X108600000Y-77540000D01*
X108640000Y-75460000D02*
X108640000Y-73989000D01*
X108640000Y-79011000D02*
X108640000Y-77540000D01*
X108680000Y-75460000D02*
X108680000Y-73980000D01*
X108680000Y-79020000D02*
X108680000Y-77540000D01*
X108720000Y-75460000D02*
X108720000Y-73972000D01*
X108720000Y-79028000D02*
X108720000Y-77540000D01*
X108760000Y-75460000D02*
X108760000Y-73964000D01*
X108760000Y-79036000D02*
X108760000Y-77540000D01*
X108800000Y-75460000D02*
X108800000Y-73957000D01*
X108800000Y-79043000D02*
X108800000Y-77540000D01*
X108840000Y-75460000D02*
X108840000Y-73950000D01*
X108840000Y-79050000D02*
X108840000Y-77540000D01*
X108880000Y-75460000D02*
X108880000Y-73944000D01*
X108880000Y-79056000D02*
X108880000Y-77540000D01*
X108920000Y-75460000D02*
X108920000Y-73939000D01*
X108920000Y-79061000D02*
X108920000Y-77540000D01*
X108960000Y-75460000D02*
X108960000Y-73935000D01*
X108960000Y-79065000D02*
X108960000Y-77540000D01*
X109000000Y-75460000D02*
X109000000Y-73931000D01*
X109000000Y-79069000D02*
X109000000Y-77540000D01*
X109040000Y-79073000D02*
X109040000Y-73927000D01*
X109080000Y-79076000D02*
X109080000Y-73924000D01*
X109120000Y-79078000D02*
X109120000Y-73922000D01*
X109160000Y-79079000D02*
X109160000Y-73921000D01*
X109200000Y-79080000D02*
X109200000Y-73920000D01*
X109240000Y-79080000D02*
X109240000Y-73920000D01*
X111794775Y-78225000D02*
X111794775Y-77725000D01*
X112044775Y-77975000D02*
X111544775Y-77975000D01*
X111860000Y-76500000D02*
G75*
G02*
X106620000Y-76500000I-2620000J0D01*
G01*
X106620000Y-76500000D02*
G75*
G02*
X111860000Y-76500000I2620000J0D01*
G01*
X117178000Y-66030000D02*
X117178000Y-76430000D01*
X117178000Y-76430000D02*
X127678000Y-76430000D01*
X120178000Y-66090000D02*
X120178000Y-76370000D01*
X120178000Y-76370000D02*
X121428000Y-76370000D01*
X123428000Y-76370000D02*
X124678000Y-76370000D01*
X124678000Y-66090000D02*
X120178000Y-66090000D01*
X124678000Y-76370000D02*
X124678000Y-66090000D01*
X127678000Y-66030000D02*
X117178000Y-66030000D01*
X127678000Y-76430000D02*
X127678000Y-66030000D01*
X121428000Y-76370000D02*
G75*
G02*
X123428000Y-76370000I1000000J0D01*
G01*
X128932000Y-67342000D02*
X128932000Y-73882000D01*
X128932000Y-73882000D02*
X129262000Y-73882000D01*
X129262000Y-67342000D02*
X128932000Y-67342000D01*
X131342000Y-67342000D02*
X131672000Y-67342000D01*
X131672000Y-67342000D02*
X131672000Y-73882000D01*
X131672000Y-73882000D02*
X131342000Y-73882000D01*
X143233000Y-73025000D02*
G75*
G02*
X132693000Y-73025000I-5270000J0D01*
G01*
X132693000Y-73025000D02*
G75*
G02*
X143233000Y-73025000I5270000J0D01*
G01*
X141956000Y-92620000D02*
X152176000Y-92620000D01*
X152176000Y-95340000D01*
X141956000Y-95340000D01*
X141956000Y-92620000D01*
X148698000Y-84304000D02*
X148698000Y-85804000D01*
X149948000Y-88304000D02*
X154448000Y-88304000D01*
X154448000Y-81804000D02*
X149948000Y-81804000D01*
X155698000Y-85804000D02*
X155698000Y-84304000D01*
X159452000Y-72390000D02*
X159452000Y-64710000D01*
X159452000Y-74990000D02*
X159452000Y-73660000D01*
X160782000Y-74990000D02*
X159452000Y-74990000D01*
X162112000Y-64710000D02*
X159452000Y-64710000D01*
X162112000Y-72390000D02*
X159452000Y-72390000D01*
X162112000Y-72390000D02*
X162112000Y-64710000D01*
X147098000Y-51970000D02*
X153638000Y-51970000D01*
X147098000Y-52300000D02*
X147098000Y-51970000D01*
X147098000Y-54380000D02*
X147098000Y-54710000D01*
X147098000Y-54710000D02*
X153638000Y-54710000D01*
X153638000Y-51970000D02*
X153638000Y-52300000D01*
X153638000Y-54710000D02*
X153638000Y-54380000D01*
%LPC*%
D12*
X161500000Y-47500000D03*
D13*
X108966000Y-84074000D03*
D14*
X108966000Y-86614000D03*
D15*
X113538000Y-55880000D03*
D16*
X121158000Y-55880000D03*
D13*
X161295000Y-55372000D03*
D14*
X158755000Y-55372000D03*
D15*
X146939000Y-72644000D03*
X146939000Y-75144000D03*
D12*
X103500000Y-96500000D03*
D13*
X108000000Y-58540000D03*
D14*
X108000000Y-56000000D03*
D12*
X103500000Y-47500000D03*
D17*
X107308000Y-67056000D03*
X114808000Y-67056000D03*
D18*
X110490000Y-76500000D03*
D15*
X107990000Y-76500000D03*
D19*
X126238000Y-75040000D03*
D20*
X126238000Y-72500000D03*
X126238000Y-69960000D03*
X126238000Y-67420000D03*
X118618000Y-67420000D03*
X118618000Y-69960000D03*
X118618000Y-72500000D03*
X118618000Y-75040000D03*
D12*
X161500000Y-96500000D03*
D15*
X130302000Y-66802000D03*
D16*
X130302000Y-74422000D03*
D21*
X135462000Y-75525000D03*
X140462000Y-73025000D03*
X135462000Y-70525000D03*
D15*
X144526000Y-93980000D03*
D22*
X147066000Y-93980000D03*
D15*
X149606000Y-93980000D03*
D17*
X155448000Y-87304000D03*
X148948000Y-87304000D03*
X155448000Y-82804000D03*
X148948000Y-82804000D03*
D23*
X160782000Y-73660000D03*
D24*
X160782000Y-71120000D03*
X160782000Y-68580000D03*
X160782000Y-66040000D03*
D15*
X146558000Y-53340000D03*
D16*
X154178000Y-53340000D03*
D23*
X108370000Y-48770000D03*
D24*
X108370000Y-46230000D03*
X110910000Y-48770000D03*
X110910000Y-46230000D03*
X113450000Y-48770000D03*
X113450000Y-46230000D03*
X115990000Y-48770000D03*
X115990000Y-46230000D03*
X118530000Y-48770000D03*
X118530000Y-46230000D03*
X121070000Y-48770000D03*
X121070000Y-46230000D03*
X123610000Y-48770000D03*
X123610000Y-46230000D03*
X126150000Y-48770000D03*
X126150000Y-46230000D03*
X128690000Y-48770000D03*
X128690000Y-46230000D03*
X131230000Y-48770000D03*
X131230000Y-46230000D03*
X133770000Y-48770000D03*
X133770000Y-46230000D03*
X136310000Y-48770000D03*
X136310000Y-46230000D03*
X138850000Y-48770000D03*
X138850000Y-46230000D03*
X141390000Y-48770000D03*
X141390000Y-46230000D03*
X143930000Y-48770000D03*
X143930000Y-46230000D03*
X146470000Y-48770000D03*
X146470000Y-46230000D03*
X149010000Y-48770000D03*
X149010000Y-46230000D03*
X151550000Y-48770000D03*
X151550000Y-46230000D03*
X154090000Y-48770000D03*
X154090000Y-46230000D03*
X156630000Y-48770000D03*
X156630000Y-46230000D03*
%LPD*%
M02*
