%TF.GenerationSoftware,KiCad,Pcbnew,8.0.8*%
%TF.CreationDate,2025-05-07T16:47:23+03:00*%
%TF.ProjectId,Adacel,41646163-656c-42e6-9b69-6361645f7063,rev?*%
%TF.SameCoordinates,Original*%
%TF.FileFunction,Copper,L2,Bot*%
%TF.FilePolarity,Positive*%
%FSLAX46Y46*%
G04 Gerber Fmt 4.6, Leading zero omitted, Abs format (unit mm)*
G04 Created by KiCad (PCBNEW 8.0.8) date 2025-05-07 16:47:23*
%MOMM*%
%LPD*%
G01*
G04 APERTURE LIST*
%TA.AperFunction,ComponentPad*%
%ADD10R,1.800000X1.800000*%
%TD*%
%TA.AperFunction,ComponentPad*%
%ADD11C,1.800000*%
%TD*%
%TA.AperFunction,ComponentPad*%
%ADD12C,1.600000*%
%TD*%
%TA.AperFunction,ComponentPad*%
%ADD13O,1.600000X1.600000*%
%TD*%
%TA.AperFunction,ComponentPad*%
%ADD14C,2.000000*%
%TD*%
%TA.AperFunction,ComponentPad*%
%ADD15R,1.600000X1.600000*%
%TD*%
%TA.AperFunction,ComponentPad*%
%ADD16R,2.400000X1.600000*%
%TD*%
%TA.AperFunction,ComponentPad*%
%ADD17O,2.400000X1.600000*%
%TD*%
%TA.AperFunction,ComponentPad*%
%ADD18C,2.340000*%
%TD*%
%TA.AperFunction,ComponentPad*%
%ADD19R,1.500000X1.500000*%
%TD*%
%TA.AperFunction,ComponentPad*%
%ADD20R,1.700000X1.700000*%
%TD*%
%TA.AperFunction,ComponentPad*%
%ADD21O,1.700000X1.700000*%
%TD*%
%TA.AperFunction,Conductor*%
%ADD22C,0.400000*%
%TD*%
%TA.AperFunction,Conductor*%
%ADD23C,0.254000*%
%TD*%
G04 APERTURE END LIST*
D10*
X108966000Y-84074000D03*
D11*
X108966000Y-86614000D03*
D12*
X113538000Y-55880000D03*
D13*
X121158000Y-55880000D03*
D10*
X161295000Y-55372000D03*
D11*
X158755000Y-55372000D03*
D12*
X146939000Y-72644000D03*
X146939000Y-75144000D03*
D10*
X108000000Y-58540000D03*
D11*
X108000000Y-56000000D03*
D14*
X107308000Y-67056000D03*
X114808000Y-67056000D03*
D15*
X110490000Y-76500000D03*
D12*
X107990000Y-76500000D03*
D16*
X126238000Y-75040000D03*
D17*
X126238000Y-72500000D03*
X126238000Y-69960000D03*
X126238000Y-67420000D03*
X118618000Y-67420000D03*
X118618000Y-69960000D03*
X118618000Y-72500000D03*
X118618000Y-75040000D03*
D12*
X130302000Y-66802000D03*
D13*
X130302000Y-74422000D03*
D18*
X135462000Y-75525000D03*
X140462000Y-73025000D03*
X135462000Y-70525000D03*
D12*
X144526000Y-93980000D03*
D19*
X147066000Y-93980000D03*
D12*
X149606000Y-93980000D03*
D14*
X155448000Y-87304000D03*
X148948000Y-87304000D03*
X155448000Y-82804000D03*
X148948000Y-82804000D03*
D20*
X160782000Y-73660000D03*
D21*
X160782000Y-71120000D03*
X160782000Y-68580000D03*
X160782000Y-66040000D03*
D12*
X146558000Y-53340000D03*
D13*
X154178000Y-53340000D03*
D20*
X108370000Y-48770000D03*
D21*
X108370000Y-46230000D03*
X110910000Y-48770000D03*
X110910000Y-46230000D03*
X113450000Y-48770000D03*
X113450000Y-46230000D03*
X115990000Y-48770000D03*
X115990000Y-46230000D03*
X118530000Y-48770000D03*
X118530000Y-46230000D03*
X121070000Y-48770000D03*
X121070000Y-46230000D03*
X123610000Y-48770000D03*
X123610000Y-46230000D03*
X126150000Y-48770000D03*
X126150000Y-46230000D03*
X128690000Y-48770000D03*
X128690000Y-46230000D03*
X131230000Y-48770000D03*
X131230000Y-46230000D03*
X133770000Y-48770000D03*
X133770000Y-46230000D03*
X136310000Y-48770000D03*
X136310000Y-46230000D03*
X138850000Y-48770000D03*
X138850000Y-46230000D03*
X141390000Y-48770000D03*
X141390000Y-46230000D03*
X143930000Y-48770000D03*
X143930000Y-46230000D03*
X146470000Y-48770000D03*
X146470000Y-46230000D03*
X149010000Y-48770000D03*
X149010000Y-46230000D03*
X151550000Y-48770000D03*
X151550000Y-46230000D03*
X154090000Y-48770000D03*
X154090000Y-46230000D03*
X156630000Y-48770000D03*
X156630000Y-46230000D03*
D22*
X137922000Y-52070000D02*
X150622000Y-64770000D01*
X150622000Y-64770000D02*
X158048000Y-64770000D01*
X159318000Y-66040000D02*
X160782000Y-66040000D01*
X114210000Y-52070000D02*
X137922000Y-52070000D01*
X158048000Y-64770000D02*
X159318000Y-66040000D01*
X110910000Y-48770000D02*
X114210000Y-52070000D01*
X139192000Y-51308000D02*
X151384000Y-63500000D01*
X160782000Y-68104000D02*
X161004000Y-68104000D01*
X162560000Y-66802000D02*
X160782000Y-68580000D01*
X162560000Y-64516000D02*
X162560000Y-66802000D01*
X113450000Y-48770000D02*
X115988000Y-51308000D01*
X115988000Y-51308000D02*
X139192000Y-51308000D01*
X151384000Y-63500000D02*
X161544000Y-63500000D01*
X161544000Y-63500000D02*
X162560000Y-64516000D01*
D23*
X103124000Y-56642000D02*
X103124000Y-86614000D01*
X110744000Y-94234000D02*
X144272000Y-94234000D01*
X106934000Y-52832000D02*
X103124000Y-56642000D01*
X103124000Y-86614000D02*
X110744000Y-94234000D01*
X106934000Y-45720000D02*
X106934000Y-52832000D01*
X128690000Y-46230000D02*
X128399000Y-46230000D01*
X107696000Y-44958000D02*
X106934000Y-45720000D01*
X127127000Y-44958000D02*
X107696000Y-44958000D01*
X128399000Y-46230000D02*
X127127000Y-44958000D01*
X144272000Y-94234000D02*
X144526000Y-93980000D01*
X139573000Y-47498000D02*
X138176000Y-47498000D01*
X149606000Y-93980000D02*
X154686000Y-93980000D01*
X162052000Y-62230000D02*
X151638000Y-62230000D01*
X134874000Y-44958000D02*
X133770000Y-46062000D01*
X137606807Y-45658807D02*
X136906000Y-44958000D01*
X162814000Y-85852000D02*
X162814000Y-69850000D01*
X163322000Y-69342000D02*
X163322000Y-63500000D01*
X136906000Y-44958000D02*
X134874000Y-44958000D01*
X140139881Y-50731881D02*
X140139881Y-48064881D01*
X138176000Y-47498000D02*
X137606807Y-46928807D01*
X133770000Y-46062000D02*
X133770000Y-46230000D01*
X162814000Y-69850000D02*
X163322000Y-69342000D01*
X151638000Y-62230000D02*
X140139881Y-50731881D01*
X163322000Y-63500000D02*
X162052000Y-62230000D01*
X154686000Y-93980000D02*
X162814000Y-85852000D01*
X137606807Y-46928807D02*
X137606807Y-45658807D01*
X140139881Y-48064881D02*
X139573000Y-47498000D01*
D22*
X154686000Y-71120000D02*
X160782000Y-71120000D01*
X111506000Y-52832000D02*
X121920000Y-52832000D01*
X108370000Y-46230000D02*
X109633194Y-47493194D01*
X124206000Y-55118000D02*
X138684000Y-55118000D01*
X121920000Y-52832000D02*
X124206000Y-55118000D01*
X109633194Y-47493194D02*
X109633194Y-50959194D01*
X138684000Y-55118000D02*
X154686000Y-71120000D01*
X109633194Y-50959194D02*
X111506000Y-52832000D01*
D23*
X129540000Y-69977000D02*
X129540000Y-67564000D01*
X127017000Y-72500000D02*
X129540000Y-69977000D01*
X126238000Y-72500000D02*
X127017000Y-72500000D01*
X129540000Y-67564000D02*
X130302000Y-66802000D01*
D22*
X135509000Y-80899000D02*
X147066000Y-92456000D01*
X135462000Y-75525000D02*
X135509000Y-75572000D01*
X147066000Y-94394000D02*
X146960000Y-94500000D01*
X147066000Y-92456000D02*
X147066000Y-94394000D01*
X135509000Y-75572000D02*
X135509000Y-80899000D01*
%TA.AperFunction,Conductor*%
G36*
X126488000Y-69644314D02*
G01*
X126483606Y-69639920D01*
X126392394Y-69587259D01*
X126290661Y-69560000D01*
X126185339Y-69560000D01*
X126083606Y-69587259D01*
X125992394Y-69639920D01*
X125988000Y-69644314D01*
X125988000Y-67735686D01*
X125992394Y-67740080D01*
X126083606Y-67792741D01*
X126185339Y-67820000D01*
X126290661Y-67820000D01*
X126392394Y-67792741D01*
X126483606Y-67740080D01*
X126488000Y-67735686D01*
X126488000Y-69644314D01*
G37*
%TD.AperFunction*%
%TA.AperFunction,Conductor*%
G36*
X107432956Y-49805216D02*
G01*
X107441766Y-49808865D01*
X107441769Y-49808867D01*
X107441772Y-49808867D01*
X107441773Y-49808868D01*
X107500247Y-49820499D01*
X107500250Y-49820500D01*
X107500252Y-49820500D01*
X109108694Y-49820500D01*
X109175733Y-49840185D01*
X109221488Y-49892989D01*
X109232694Y-49944500D01*
X109232694Y-51011920D01*
X109259987Y-51113783D01*
X109267323Y-51126489D01*
X109312714Y-51205107D01*
X109312715Y-51205108D01*
X109312716Y-51205109D01*
X111181179Y-53073571D01*
X111181189Y-53073582D01*
X111185519Y-53077912D01*
X111185520Y-53077913D01*
X111260087Y-53152480D01*
X111351413Y-53205207D01*
X111453273Y-53232501D01*
X111453275Y-53232501D01*
X111566323Y-53232501D01*
X111566339Y-53232500D01*
X121702745Y-53232500D01*
X121769784Y-53252185D01*
X121790426Y-53268819D01*
X123960087Y-55438480D01*
X124051412Y-55491207D01*
X124153273Y-55518500D01*
X124258727Y-55518500D01*
X138466745Y-55518500D01*
X138533784Y-55538185D01*
X138554426Y-55554819D01*
X154365519Y-71365912D01*
X154365520Y-71365913D01*
X154440087Y-71440480D01*
X154531413Y-71493207D01*
X154633273Y-71520500D01*
X154738727Y-71520500D01*
X159730599Y-71520500D01*
X159797638Y-71540185D01*
X159839957Y-71586046D01*
X159904315Y-71706450D01*
X159911486Y-71715188D01*
X160035589Y-71866410D01*
X160116872Y-71933116D01*
X160195550Y-71997685D01*
X160343267Y-72076642D01*
X160393111Y-72125605D01*
X160408571Y-72193743D01*
X160384739Y-72259422D01*
X160329181Y-72301791D01*
X160284813Y-72310000D01*
X159884155Y-72310000D01*
X159824627Y-72316401D01*
X159824620Y-72316403D01*
X159689913Y-72366645D01*
X159689906Y-72366649D01*
X159574812Y-72452809D01*
X159574809Y-72452812D01*
X159488649Y-72567906D01*
X159488645Y-72567913D01*
X159438403Y-72702620D01*
X159438401Y-72702627D01*
X159432000Y-72762155D01*
X159432000Y-73410000D01*
X160348988Y-73410000D01*
X160316075Y-73467007D01*
X160282000Y-73594174D01*
X160282000Y-73725826D01*
X160316075Y-73852993D01*
X160348988Y-73910000D01*
X159432000Y-73910000D01*
X159432000Y-74557844D01*
X159438401Y-74617372D01*
X159438403Y-74617379D01*
X159488645Y-74752086D01*
X159488649Y-74752093D01*
X159574809Y-74867187D01*
X159574812Y-74867190D01*
X159689906Y-74953350D01*
X159689913Y-74953354D01*
X159824620Y-75003596D01*
X159824627Y-75003598D01*
X159884155Y-75009999D01*
X159884172Y-75010000D01*
X160532000Y-75010000D01*
X160532000Y-74093012D01*
X160589007Y-74125925D01*
X160716174Y-74160000D01*
X160847826Y-74160000D01*
X160974993Y-74125925D01*
X161032000Y-74093012D01*
X161032000Y-75010000D01*
X161679828Y-75010000D01*
X161679844Y-75009999D01*
X161739372Y-75003598D01*
X161739379Y-75003596D01*
X161874086Y-74953354D01*
X161874093Y-74953350D01*
X161989187Y-74867190D01*
X161989190Y-74867187D01*
X162075350Y-74752093D01*
X162075354Y-74752086D01*
X162125596Y-74617379D01*
X162125598Y-74617372D01*
X162131999Y-74557844D01*
X162132000Y-74557827D01*
X162132000Y-73910000D01*
X161215012Y-73910000D01*
X161247925Y-73852993D01*
X161282000Y-73725826D01*
X161282000Y-73594174D01*
X161247925Y-73467007D01*
X161215012Y-73410000D01*
X162132000Y-73410000D01*
X162132000Y-72762172D01*
X162131999Y-72762155D01*
X162125598Y-72702627D01*
X162125596Y-72702620D01*
X162075354Y-72567913D01*
X162075350Y-72567906D01*
X161989190Y-72452812D01*
X161989187Y-72452809D01*
X161874093Y-72366649D01*
X161874086Y-72366645D01*
X161739379Y-72316403D01*
X161739372Y-72316401D01*
X161679844Y-72310000D01*
X161279187Y-72310000D01*
X161212148Y-72290315D01*
X161166393Y-72237511D01*
X161156449Y-72168353D01*
X161185474Y-72104797D01*
X161220733Y-72076642D01*
X161368450Y-71997685D01*
X161528410Y-71866410D01*
X161659685Y-71706450D01*
X161757232Y-71523954D01*
X161817300Y-71325934D01*
X161837583Y-71120000D01*
X161817300Y-70914066D01*
X161757232Y-70716046D01*
X161659685Y-70533550D01*
X161598528Y-70459029D01*
X161528410Y-70373589D01*
X161408764Y-70275400D01*
X161368450Y-70242315D01*
X161185954Y-70144768D01*
X160987934Y-70084700D01*
X160987932Y-70084699D01*
X160987934Y-70084699D01*
X160782000Y-70064417D01*
X160576067Y-70084699D01*
X160378043Y-70144769D01*
X160267898Y-70203643D01*
X160195550Y-70242315D01*
X160195548Y-70242316D01*
X160195547Y-70242317D01*
X160035589Y-70373589D01*
X159904317Y-70533547D01*
X159839957Y-70653954D01*
X159790994Y-70703798D01*
X159730599Y-70719500D01*
X154903255Y-70719500D01*
X154836216Y-70699815D01*
X154815574Y-70683181D01*
X138929915Y-54797522D01*
X138929913Y-54797520D01*
X138884250Y-54771156D01*
X138838589Y-54744793D01*
X138787657Y-54731146D01*
X138736727Y-54717500D01*
X138736726Y-54717500D01*
X124423255Y-54717500D01*
X124356216Y-54697815D01*
X124335574Y-54681181D01*
X122336574Y-52682181D01*
X122303089Y-52620858D01*
X122308073Y-52551166D01*
X122349945Y-52495233D01*
X122415409Y-52470816D01*
X122424255Y-52470500D01*
X137704745Y-52470500D01*
X137771784Y-52490185D01*
X137792426Y-52506819D01*
X150376087Y-65090480D01*
X150467412Y-65143207D01*
X150569273Y-65170500D01*
X157830745Y-65170500D01*
X157897784Y-65190185D01*
X157918426Y-65206819D01*
X159072087Y-66360480D01*
X159163412Y-66413207D01*
X159265273Y-66440500D01*
X159370727Y-66440500D01*
X159730599Y-66440500D01*
X159797638Y-66460185D01*
X159839957Y-66506046D01*
X159904315Y-66626450D01*
X159925105Y-66651783D01*
X160035589Y-66786410D01*
X160094144Y-66834464D01*
X160195550Y-66917685D01*
X160378046Y-67015232D01*
X160576066Y-67075300D01*
X160576065Y-67075300D01*
X160594529Y-67077118D01*
X160782000Y-67095583D01*
X160987934Y-67075300D01*
X161185954Y-67015232D01*
X161368450Y-66917685D01*
X161528410Y-66786410D01*
X161659685Y-66626450D01*
X161757232Y-66443954D01*
X161817300Y-66245934D01*
X161837583Y-66040000D01*
X161817300Y-65834066D01*
X161757232Y-65636046D01*
X161659685Y-65453550D01*
X161607702Y-65390209D01*
X161528410Y-65293589D01*
X161402410Y-65190185D01*
X161368450Y-65162315D01*
X161185954Y-65064768D01*
X160987934Y-65004700D01*
X160987932Y-65004699D01*
X160987934Y-65004699D01*
X160782000Y-64984417D01*
X160576067Y-65004699D01*
X160378043Y-65064769D01*
X160267898Y-65123643D01*
X160195550Y-65162315D01*
X160195548Y-65162316D01*
X160195547Y-65162317D01*
X160035589Y-65293589D01*
X159904317Y-65453547D01*
X159839957Y-65573954D01*
X159790994Y-65623798D01*
X159730599Y-65639500D01*
X159535255Y-65639500D01*
X159468216Y-65619815D01*
X159447574Y-65603181D01*
X158293915Y-64449522D01*
X158293913Y-64449520D01*
X158248250Y-64423156D01*
X158202589Y-64396793D01*
X158151657Y-64383146D01*
X158100727Y-64369500D01*
X158100726Y-64369500D01*
X150839255Y-64369500D01*
X150772216Y-64349815D01*
X150751574Y-64333181D01*
X138338574Y-51920181D01*
X138305089Y-51858858D01*
X138310073Y-51789166D01*
X138351945Y-51733233D01*
X138417409Y-51708816D01*
X138426255Y-51708500D01*
X138974745Y-51708500D01*
X139041784Y-51728185D01*
X139062426Y-51744819D01*
X151059179Y-63741571D01*
X151059189Y-63741582D01*
X151138088Y-63820481D01*
X151183750Y-63846843D01*
X151183752Y-63846845D01*
X151218421Y-63866861D01*
X151229412Y-63873207D01*
X151331273Y-63900501D01*
X151331276Y-63900501D01*
X151444323Y-63900501D01*
X151444339Y-63900500D01*
X161326745Y-63900500D01*
X161393784Y-63920185D01*
X161414426Y-63936819D01*
X162123181Y-64645574D01*
X162156666Y-64706897D01*
X162159500Y-64733255D01*
X162159500Y-66584744D01*
X162139815Y-66651783D01*
X162123181Y-66672425D01*
X161242255Y-67553350D01*
X161180932Y-67586835D01*
X161118579Y-67584330D01*
X161046961Y-67562605D01*
X160987934Y-67544700D01*
X160987932Y-67544699D01*
X160987934Y-67544699D01*
X160782000Y-67524417D01*
X160576067Y-67544699D01*
X160378043Y-67604769D01*
X160267898Y-67663643D01*
X160195550Y-67702315D01*
X160195548Y-67702316D01*
X160195547Y-67702317D01*
X160035589Y-67833589D01*
X159904317Y-67993547D01*
X159904315Y-67993550D01*
X159865643Y-68065898D01*
X159806769Y-68176043D01*
X159746699Y-68374067D01*
X159726417Y-68580000D01*
X159746699Y-68785932D01*
X159746700Y-68785934D01*
X159806768Y-68983954D01*
X159904315Y-69166450D01*
X159904317Y-69166452D01*
X160035589Y-69326410D01*
X160107124Y-69385116D01*
X160195550Y-69457685D01*
X160378046Y-69555232D01*
X160576066Y-69615300D01*
X160576065Y-69615300D01*
X160594529Y-69617118D01*
X160782000Y-69635583D01*
X160987934Y-69615300D01*
X161185954Y-69555232D01*
X161368450Y-69457685D01*
X161528410Y-69326410D01*
X161659685Y-69166450D01*
X161757232Y-68983954D01*
X161817300Y-68785934D01*
X161837583Y-68580000D01*
X161817300Y-68374066D01*
X161777668Y-68243418D01*
X161777045Y-68173553D01*
X161808646Y-68119745D01*
X162782819Y-67145571D01*
X162844142Y-67112087D01*
X162913834Y-67117071D01*
X162969767Y-67158943D01*
X162994184Y-67224407D01*
X162994500Y-67233253D01*
X162994500Y-69154983D01*
X162974815Y-69222022D01*
X162958181Y-69242664D01*
X162551936Y-69648908D01*
X162551934Y-69648911D01*
X162508819Y-69723589D01*
X162508819Y-69723590D01*
X162486843Y-69805606D01*
X162486500Y-69806885D01*
X162486500Y-85664983D01*
X162466815Y-85732022D01*
X162450181Y-85752664D01*
X154586664Y-93616181D01*
X154525341Y-93649666D01*
X154498983Y-93652500D01*
X150639725Y-93652500D01*
X150572686Y-93632815D01*
X150530367Y-93586953D01*
X150441913Y-93421467D01*
X150441909Y-93421460D01*
X150316883Y-93269116D01*
X150164539Y-93144090D01*
X150164532Y-93144086D01*
X149990733Y-93051188D01*
X149990727Y-93051186D01*
X149802132Y-92993976D01*
X149802129Y-92993975D01*
X149606000Y-92974659D01*
X149409870Y-92993975D01*
X149221266Y-93051188D01*
X149047467Y-93144086D01*
X149047460Y-93144090D01*
X148895116Y-93269116D01*
X148770090Y-93421460D01*
X148770086Y-93421467D01*
X148677188Y-93595266D01*
X148619975Y-93783870D01*
X148600659Y-93980000D01*
X148619975Y-94176129D01*
X148677188Y-94364733D01*
X148770086Y-94538532D01*
X148770090Y-94538539D01*
X148895116Y-94690883D01*
X149047460Y-94815909D01*
X149047467Y-94815913D01*
X149221266Y-94908811D01*
X149221269Y-94908811D01*
X149221273Y-94908814D01*
X149409868Y-94966024D01*
X149606000Y-94985341D01*
X149802132Y-94966024D01*
X149990727Y-94908814D01*
X150164538Y-94815910D01*
X150316883Y-94690883D01*
X150441910Y-94538538D01*
X150530367Y-94373047D01*
X150579329Y-94323203D01*
X150639725Y-94307500D01*
X154729114Y-94307500D01*
X154729116Y-94307500D01*
X154812410Y-94285181D01*
X154887090Y-94242065D01*
X156760319Y-92368836D01*
X156821642Y-92335351D01*
X156853121Y-92337602D01*
X156849779Y-92314353D01*
X156878804Y-92250797D01*
X156884836Y-92244319D01*
X157051155Y-92078000D01*
X163076065Y-86053090D01*
X163119181Y-85978410D01*
X163141500Y-85895116D01*
X163141500Y-85808884D01*
X163141500Y-70037017D01*
X163161185Y-69969978D01*
X163177819Y-69949336D01*
X163337172Y-69789983D01*
X163584065Y-69543090D01*
X163598613Y-69517891D01*
X163649180Y-69469676D01*
X163717787Y-69456453D01*
X163782652Y-69482421D01*
X163823180Y-69539335D01*
X163830000Y-69579892D01*
X163830000Y-92332000D01*
X163810315Y-92399039D01*
X163757511Y-92444794D01*
X163706000Y-92456000D01*
X156972517Y-92456000D01*
X156971975Y-92455841D01*
X156972000Y-92456517D01*
X156972000Y-98936000D01*
X156952315Y-99003039D01*
X156899511Y-99048794D01*
X156848000Y-99060000D01*
X107312000Y-99060000D01*
X107244961Y-99040315D01*
X107199206Y-98987511D01*
X107188000Y-98936000D01*
X107188000Y-92202000D01*
X100962000Y-92202000D01*
X100894961Y-92182315D01*
X100849206Y-92129511D01*
X100838000Y-92078000D01*
X100838000Y-51178000D01*
X100857685Y-51110961D01*
X100910489Y-51065206D01*
X100962000Y-51054000D01*
X106482500Y-51054000D01*
X106549539Y-51073685D01*
X106595294Y-51126489D01*
X106606500Y-51178000D01*
X106606500Y-52644983D01*
X106586815Y-52712022D01*
X106570181Y-52732664D01*
X102861936Y-56440908D01*
X102861934Y-56440911D01*
X102818819Y-56515589D01*
X102818819Y-56515590D01*
X102796500Y-56598884D01*
X102796500Y-86570884D01*
X102796500Y-86657116D01*
X102818819Y-86740410D01*
X102861935Y-86815090D01*
X110542910Y-94496065D01*
X110617590Y-94539181D01*
X110700884Y-94561500D01*
X110787116Y-94561500D01*
X143650287Y-94561500D01*
X143717326Y-94581185D01*
X143746140Y-94606835D01*
X143815116Y-94690883D01*
X143967460Y-94815909D01*
X143967467Y-94815913D01*
X144141266Y-94908811D01*
X144141269Y-94908811D01*
X144141273Y-94908814D01*
X144329868Y-94966024D01*
X144526000Y-94985341D01*
X144722132Y-94966024D01*
X144910727Y-94908814D01*
X145084538Y-94815910D01*
X145236883Y-94690883D01*
X145361910Y-94538538D01*
X145454814Y-94364727D01*
X145512024Y-94176132D01*
X145531341Y-93980000D01*
X145512024Y-93783868D01*
X145454814Y-93595273D01*
X145454811Y-93595269D01*
X145454811Y-93595266D01*
X145361913Y-93421467D01*
X145361909Y-93421460D01*
X145236883Y-93269116D01*
X145084539Y-93144090D01*
X145084532Y-93144086D01*
X144910733Y-93051188D01*
X144910727Y-93051186D01*
X144722132Y-92993976D01*
X144722129Y-92993975D01*
X144526000Y-92974659D01*
X144329870Y-92993975D01*
X144141266Y-93051188D01*
X143967467Y-93144086D01*
X143967460Y-93144090D01*
X143815116Y-93269116D01*
X143690090Y-93421460D01*
X143690086Y-93421467D01*
X143597188Y-93595266D01*
X143539975Y-93783871D01*
X143538914Y-93794651D01*
X143512755Y-93859439D01*
X143455721Y-93899799D01*
X143415511Y-93906500D01*
X110931017Y-93906500D01*
X110863978Y-93886815D01*
X110843336Y-93870181D01*
X103587149Y-86613994D01*
X107561202Y-86613994D01*
X107561202Y-86614005D01*
X107580361Y-86845218D01*
X107637317Y-87070135D01*
X107730516Y-87282609D01*
X107814811Y-87411633D01*
X108523861Y-86702584D01*
X108546667Y-86787694D01*
X108605910Y-86890306D01*
X108689694Y-86974090D01*
X108792306Y-87033333D01*
X108877414Y-87056138D01*
X108167201Y-87766351D01*
X108197649Y-87790050D01*
X108401697Y-87900476D01*
X108401706Y-87900479D01*
X108621139Y-87975811D01*
X108849993Y-88014000D01*
X109082007Y-88014000D01*
X109310860Y-87975811D01*
X109530293Y-87900479D01*
X109530301Y-87900476D01*
X109734355Y-87790047D01*
X109764797Y-87766351D01*
X109764798Y-87766350D01*
X109054585Y-87056137D01*
X109139694Y-87033333D01*
X109242306Y-86974090D01*
X109326090Y-86890306D01*
X109385333Y-86787694D01*
X109408137Y-86702585D01*
X110117186Y-87411634D01*
X110201484Y-87282606D01*
X110294682Y-87070135D01*
X110351638Y-86845218D01*
X110370798Y-86614005D01*
X110370798Y-86613994D01*
X110351638Y-86382781D01*
X110294682Y-86157864D01*
X110201483Y-85945390D01*
X110117186Y-85816364D01*
X109408137Y-86525413D01*
X109385333Y-86440306D01*
X109326090Y-86337694D01*
X109242306Y-86253910D01*
X109139694Y-86194667D01*
X109054584Y-86171861D01*
X109764797Y-85461647D01*
X109764797Y-85461645D01*
X109734360Y-85437955D01*
X109734349Y-85437948D01*
X109678187Y-85407555D01*
X109628596Y-85358336D01*
X109613488Y-85290119D01*
X109637658Y-85224563D01*
X109693434Y-85182482D01*
X109737204Y-85174500D01*
X109885750Y-85174500D01*
X109885751Y-85174499D01*
X109900568Y-85171552D01*
X109944229Y-85162868D01*
X109944229Y-85162867D01*
X109944231Y-85162867D01*
X110010552Y-85118552D01*
X110054867Y-85052231D01*
X110054867Y-85052229D01*
X110054868Y-85052229D01*
X110066499Y-84993752D01*
X110066500Y-84993750D01*
X110066500Y-83154249D01*
X110066499Y-83154247D01*
X110054868Y-83095770D01*
X110054867Y-83095769D01*
X110010552Y-83029447D01*
X109944230Y-82985132D01*
X109944229Y-82985131D01*
X109885752Y-82973500D01*
X109885748Y-82973500D01*
X108046252Y-82973500D01*
X108046247Y-82973500D01*
X107987770Y-82985131D01*
X107987769Y-82985132D01*
X107921447Y-83029447D01*
X107877132Y-83095769D01*
X107877131Y-83095770D01*
X107865500Y-83154247D01*
X107865500Y-84993752D01*
X107877131Y-85052229D01*
X107877132Y-85052230D01*
X107921447Y-85118552D01*
X107987769Y-85162867D01*
X107987770Y-85162868D01*
X108046247Y-85174499D01*
X108046250Y-85174500D01*
X108194796Y-85174500D01*
X108261835Y-85194185D01*
X108307590Y-85246989D01*
X108317534Y-85316147D01*
X108288509Y-85379703D01*
X108253813Y-85407555D01*
X108197652Y-85437947D01*
X108167200Y-85461647D01*
X108877415Y-86171861D01*
X108792306Y-86194667D01*
X108689694Y-86253910D01*
X108605910Y-86337694D01*
X108546667Y-86440306D01*
X108523861Y-86525414D01*
X107814812Y-85816365D01*
X107730516Y-85945391D01*
X107730514Y-85945395D01*
X107637317Y-86157864D01*
X107580361Y-86382781D01*
X107561202Y-86613994D01*
X103587149Y-86613994D01*
X103487819Y-86514664D01*
X103454334Y-86453341D01*
X103451500Y-86426983D01*
X103451500Y-76499997D01*
X106685034Y-76499997D01*
X106685034Y-76500002D01*
X106704858Y-76726599D01*
X106704860Y-76726610D01*
X106763730Y-76946317D01*
X106763735Y-76946331D01*
X106859863Y-77152478D01*
X106910974Y-77225472D01*
X107590000Y-76546446D01*
X107590000Y-76552661D01*
X107617259Y-76654394D01*
X107669920Y-76745606D01*
X107744394Y-76820080D01*
X107835606Y-76872741D01*
X107937339Y-76900000D01*
X107943553Y-76900000D01*
X107264526Y-77579025D01*
X107337513Y-77630132D01*
X107337521Y-77630136D01*
X107543668Y-77726264D01*
X107543682Y-77726269D01*
X107763389Y-77785139D01*
X107763400Y-77785141D01*
X107989998Y-77804966D01*
X107990002Y-77804966D01*
X108216599Y-77785141D01*
X108216610Y-77785139D01*
X108436317Y-77726269D01*
X108436331Y-77726264D01*
X108642478Y-77630136D01*
X108715471Y-77579024D01*
X108036447Y-76900000D01*
X108042661Y-76900000D01*
X108144394Y-76872741D01*
X108235606Y-76820080D01*
X108310080Y-76745606D01*
X108362741Y-76654394D01*
X108390000Y-76552661D01*
X108390000Y-76546447D01*
X109069024Y-77225471D01*
X109120136Y-77152478D01*
X109216264Y-76946331D01*
X109216269Y-76946317D01*
X109245725Y-76836387D01*
X109282090Y-76776726D01*
X109344937Y-76746197D01*
X109414312Y-76754492D01*
X109468190Y-76798977D01*
X109489465Y-76865529D01*
X109489500Y-76868480D01*
X109489500Y-77319752D01*
X109501131Y-77378229D01*
X109501132Y-77378230D01*
X109545447Y-77444552D01*
X109611769Y-77488867D01*
X109611770Y-77488868D01*
X109670247Y-77500499D01*
X109670250Y-77500500D01*
X109670252Y-77500500D01*
X111309750Y-77500500D01*
X111309751Y-77500499D01*
X111324568Y-77497552D01*
X111368229Y-77488868D01*
X111368229Y-77488867D01*
X111368231Y-77488867D01*
X111434552Y-77444552D01*
X111478867Y-77378231D01*
X111478867Y-77378229D01*
X111478868Y-77378229D01*
X111490499Y-77319752D01*
X111490500Y-77319750D01*
X111490500Y-75680249D01*
X111490499Y-75680247D01*
X111478868Y-75621770D01*
X111478867Y-75621769D01*
X111434552Y-75555447D01*
X111368230Y-75511132D01*
X111368229Y-75511131D01*
X111309752Y-75499500D01*
X111309748Y-75499500D01*
X109670252Y-75499500D01*
X109670247Y-75499500D01*
X109611770Y-75511131D01*
X109611769Y-75511132D01*
X109545447Y-75555447D01*
X109501132Y-75621769D01*
X109501131Y-75621770D01*
X109489500Y-75680247D01*
X109489500Y-76131519D01*
X109469815Y-76198558D01*
X109417011Y-76244313D01*
X109347853Y-76254257D01*
X109284297Y-76225232D01*
X109246523Y-76166454D01*
X109245725Y-76163613D01*
X109216268Y-76053679D01*
X109216264Y-76053668D01*
X109120136Y-75847521D01*
X109120132Y-75847513D01*
X109069025Y-75774526D01*
X108390000Y-76453551D01*
X108390000Y-76447339D01*
X108362741Y-76345606D01*
X108310080Y-76254394D01*
X108235606Y-76179920D01*
X108144394Y-76127259D01*
X108042661Y-76100000D01*
X108036445Y-76100000D01*
X108715472Y-75420974D01*
X108642478Y-75369863D01*
X108436331Y-75273735D01*
X108436317Y-75273730D01*
X108216610Y-75214860D01*
X108216599Y-75214858D01*
X107990002Y-75195034D01*
X107989998Y-75195034D01*
X107763400Y-75214858D01*
X107763389Y-75214860D01*
X107543682Y-75273730D01*
X107543673Y-75273734D01*
X107337516Y-75369866D01*
X107337512Y-75369868D01*
X107264526Y-75420973D01*
X107264526Y-75420974D01*
X107943553Y-76100000D01*
X107937339Y-76100000D01*
X107835606Y-76127259D01*
X107744394Y-76179920D01*
X107669920Y-76254394D01*
X107617259Y-76345606D01*
X107590000Y-76447339D01*
X107590000Y-76453552D01*
X106910974Y-75774526D01*
X106910973Y-75774526D01*
X106859868Y-75847512D01*
X106859866Y-75847516D01*
X106763734Y-76053673D01*
X106763730Y-76053682D01*
X106704860Y-76273389D01*
X106704858Y-76273400D01*
X106685034Y-76499997D01*
X103451500Y-76499997D01*
X103451500Y-75138543D01*
X117217499Y-75138543D01*
X117255947Y-75331829D01*
X117255950Y-75331839D01*
X117331364Y-75513907D01*
X117331371Y-75513920D01*
X117440860Y-75677781D01*
X117440863Y-75677785D01*
X117580214Y-75817136D01*
X117580218Y-75817139D01*
X117744079Y-75926628D01*
X117744092Y-75926635D01*
X117883918Y-75984552D01*
X117926165Y-76002051D01*
X117926169Y-76002051D01*
X117926170Y-76002052D01*
X118119456Y-76040500D01*
X118119459Y-76040500D01*
X119116543Y-76040500D01*
X119246582Y-76014632D01*
X119309835Y-76002051D01*
X119491914Y-75926632D01*
X119655782Y-75817139D01*
X119795139Y-75677782D01*
X119904632Y-75513914D01*
X119980051Y-75331835D01*
X120003319Y-75214860D01*
X120018500Y-75138543D01*
X120018500Y-74941456D01*
X119980052Y-74748170D01*
X119980051Y-74748169D01*
X119980051Y-74748165D01*
X119925878Y-74617379D01*
X119904635Y-74566092D01*
X119904628Y-74566079D01*
X119795139Y-74402218D01*
X119795136Y-74402214D01*
X119655785Y-74262863D01*
X119655781Y-74262860D01*
X119592006Y-74220247D01*
X124837500Y-74220247D01*
X124837500Y-75859752D01*
X124849131Y-75918229D01*
X124849132Y-75918230D01*
X124893447Y-75984552D01*
X124959769Y-76028867D01*
X124959770Y-76028868D01*
X125018247Y-76040499D01*
X125018250Y-76040500D01*
X125018252Y-76040500D01*
X127457750Y-76040500D01*
X127457751Y-76040499D01*
X127472568Y-76037552D01*
X127516229Y-76028868D01*
X127516229Y-76028867D01*
X127516231Y-76028867D01*
X127582552Y-75984552D01*
X127626867Y-75918231D01*
X127626867Y-75918229D01*
X127626868Y-75918229D01*
X127638499Y-75859752D01*
X127638500Y-75859750D01*
X127638500Y-75524994D01*
X134086803Y-75524994D01*
X134086803Y-75525005D01*
X134105558Y-75751346D01*
X134161314Y-75971524D01*
X134230838Y-76130024D01*
X134252550Y-76179521D01*
X134376776Y-76369663D01*
X134530604Y-76536765D01*
X134530607Y-76536767D01*
X134530610Y-76536770D01*
X134709830Y-76676263D01*
X134709836Y-76676267D01*
X134709839Y-76676269D01*
X134909590Y-76784369D01*
X135024764Y-76823908D01*
X135081778Y-76864292D01*
X135107909Y-76929091D01*
X135108500Y-76941188D01*
X135108500Y-80951726D01*
X135135793Y-81053589D01*
X135162156Y-81099250D01*
X135188520Y-81144913D01*
X135188522Y-81144915D01*
X146629181Y-92585574D01*
X146662666Y-92646897D01*
X146665500Y-92673255D01*
X146665500Y-92905500D01*
X146645815Y-92972539D01*
X146593011Y-93018294D01*
X146541500Y-93029500D01*
X146296247Y-93029500D01*
X146237770Y-93041131D01*
X146237769Y-93041132D01*
X146171447Y-93085447D01*
X146127132Y-93151769D01*
X146127131Y-93151770D01*
X146115500Y-93210247D01*
X146115500Y-94749752D01*
X146127131Y-94808229D01*
X146127132Y-94808230D01*
X146171447Y-94874552D01*
X146237769Y-94918867D01*
X146237770Y-94918868D01*
X146296247Y-94930499D01*
X146296250Y-94930500D01*
X146296252Y-94930500D01*
X147835750Y-94930500D01*
X147835751Y-94930499D01*
X147850568Y-94927552D01*
X147894229Y-94918868D01*
X147894229Y-94918867D01*
X147894231Y-94918867D01*
X147960552Y-94874552D01*
X148004867Y-94808231D01*
X148004867Y-94808229D01*
X148004868Y-94808229D01*
X148016499Y-94749752D01*
X148016500Y-94749750D01*
X148016500Y-93210249D01*
X148016499Y-93210247D01*
X148004868Y-93151770D01*
X148004867Y-93151769D01*
X147960552Y-93085447D01*
X147894230Y-93041132D01*
X147894229Y-93041131D01*
X147835752Y-93029500D01*
X147835748Y-93029500D01*
X147590500Y-93029500D01*
X147523461Y-93009815D01*
X147477706Y-92957011D01*
X147466500Y-92905500D01*
X147466500Y-92403275D01*
X147466500Y-92403273D01*
X147439207Y-92301413D01*
X147439207Y-92301412D01*
X147386480Y-92210087D01*
X142480392Y-87303999D01*
X147742357Y-87303999D01*
X147742357Y-87304000D01*
X147762884Y-87525535D01*
X147762885Y-87525537D01*
X147823769Y-87739523D01*
X147823775Y-87739538D01*
X147922938Y-87938683D01*
X147922943Y-87938691D01*
X148057020Y-88116238D01*
X148221437Y-88266123D01*
X148221439Y-88266125D01*
X148410595Y-88383245D01*
X148410596Y-88383245D01*
X148410599Y-88383247D01*
X148618060Y-88463618D01*
X148836757Y-88504500D01*
X148836759Y-88504500D01*
X149059241Y-88504500D01*
X149059243Y-88504500D01*
X149277940Y-88463618D01*
X149485401Y-88383247D01*
X149674562Y-88266124D01*
X149838981Y-88116236D01*
X149973058Y-87938689D01*
X150072229Y-87739528D01*
X150133115Y-87525536D01*
X150153643Y-87304000D01*
X150153643Y-87303999D01*
X154242357Y-87303999D01*
X154242357Y-87304000D01*
X154262884Y-87525535D01*
X154262885Y-87525537D01*
X154323769Y-87739523D01*
X154323775Y-87739538D01*
X154422938Y-87938683D01*
X154422943Y-87938691D01*
X154557020Y-88116238D01*
X154721437Y-88266123D01*
X154721439Y-88266125D01*
X154910595Y-88383245D01*
X154910596Y-88383245D01*
X154910599Y-88383247D01*
X155118060Y-88463618D01*
X155336757Y-88504500D01*
X155336759Y-88504500D01*
X155559241Y-88504500D01*
X155559243Y-88504500D01*
X155777940Y-88463618D01*
X155985401Y-88383247D01*
X156174562Y-88266124D01*
X156338981Y-88116236D01*
X156473058Y-87938689D01*
X156572229Y-87739528D01*
X156633115Y-87525536D01*
X156653643Y-87304000D01*
X156633115Y-87082464D01*
X156572229Y-86868472D01*
X156560650Y-86845218D01*
X156473061Y-86669316D01*
X156473056Y-86669308D01*
X156338979Y-86491761D01*
X156174562Y-86341876D01*
X156174560Y-86341874D01*
X155985404Y-86224754D01*
X155985398Y-86224752D01*
X155777940Y-86144382D01*
X155559243Y-86103500D01*
X155336757Y-86103500D01*
X155118060Y-86144382D01*
X154988260Y-86194667D01*
X154910601Y-86224752D01*
X154910595Y-86224754D01*
X154721439Y-86341874D01*
X154721437Y-86341876D01*
X154557020Y-86491761D01*
X154422943Y-86669308D01*
X154422938Y-86669316D01*
X154323775Y-86868461D01*
X154323769Y-86868476D01*
X154262885Y-87082462D01*
X154262884Y-87082464D01*
X154242357Y-87303999D01*
X150153643Y-87303999D01*
X150133115Y-87082464D01*
X150072229Y-86868472D01*
X150060650Y-86845218D01*
X149973061Y-86669316D01*
X149973056Y-86669308D01*
X149838979Y-86491761D01*
X149674562Y-86341876D01*
X149674560Y-86341874D01*
X149485404Y-86224754D01*
X149485398Y-86224752D01*
X149277940Y-86144382D01*
X149059243Y-86103500D01*
X148836757Y-86103500D01*
X148618060Y-86144382D01*
X148488260Y-86194667D01*
X148410601Y-86224752D01*
X148410595Y-86224754D01*
X148221439Y-86341874D01*
X148221437Y-86341876D01*
X148057020Y-86491761D01*
X147922943Y-86669308D01*
X147922938Y-86669316D01*
X147823775Y-86868461D01*
X147823769Y-86868476D01*
X147762885Y-87082462D01*
X147762884Y-87082464D01*
X147742357Y-87303999D01*
X142480392Y-87303999D01*
X137980392Y-82803999D01*
X147742357Y-82803999D01*
X147742357Y-82804000D01*
X147762884Y-83025535D01*
X147762885Y-83025537D01*
X147823769Y-83239523D01*
X147823775Y-83239538D01*
X147922938Y-83438683D01*
X147922943Y-83438691D01*
X148057020Y-83616238D01*
X148221437Y-83766123D01*
X148221439Y-83766125D01*
X148410595Y-83883245D01*
X148410596Y-83883245D01*
X148410599Y-83883247D01*
X148618060Y-83963618D01*
X148836757Y-84004500D01*
X148836759Y-84004500D01*
X149059241Y-84004500D01*
X149059243Y-84004500D01*
X149277940Y-83963618D01*
X149485401Y-83883247D01*
X149674562Y-83766124D01*
X149838981Y-83616236D01*
X149973058Y-83438689D01*
X150072229Y-83239528D01*
X150133115Y-83025536D01*
X150153643Y-82804000D01*
X150153643Y-82803999D01*
X154242357Y-82803999D01*
X154242357Y-82804000D01*
X154262884Y-83025535D01*
X154262885Y-83025537D01*
X154323769Y-83239523D01*
X154323775Y-83239538D01*
X154422938Y-83438683D01*
X154422943Y-83438691D01*
X154557020Y-83616238D01*
X154721437Y-83766123D01*
X154721439Y-83766125D01*
X154910595Y-83883245D01*
X154910596Y-83883245D01*
X154910599Y-83883247D01*
X155118060Y-83963618D01*
X155336757Y-84004500D01*
X155336759Y-84004500D01*
X155559241Y-84004500D01*
X155559243Y-84004500D01*
X155777940Y-83963618D01*
X155985401Y-83883247D01*
X156174562Y-83766124D01*
X156338981Y-83616236D01*
X156473058Y-83438689D01*
X156572229Y-83239528D01*
X156633115Y-83025536D01*
X156653643Y-82804000D01*
X156633115Y-82582464D01*
X156572229Y-82368472D01*
X156572224Y-82368461D01*
X156473061Y-82169316D01*
X156473056Y-82169308D01*
X156338979Y-81991761D01*
X156174562Y-81841876D01*
X156174560Y-81841874D01*
X155985404Y-81724754D01*
X155985398Y-81724752D01*
X155777940Y-81644382D01*
X155559243Y-81603500D01*
X155336757Y-81603500D01*
X155118060Y-81644382D01*
X154986864Y-81695207D01*
X154910601Y-81724752D01*
X154910595Y-81724754D01*
X154721439Y-81841874D01*
X154721437Y-81841876D01*
X154557020Y-81991761D01*
X154422943Y-82169308D01*
X154422938Y-82169316D01*
X154323775Y-82368461D01*
X154323769Y-82368476D01*
X154262885Y-82582462D01*
X154262884Y-82582464D01*
X154242357Y-82803999D01*
X150153643Y-82803999D01*
X150133115Y-82582464D01*
X150072229Y-82368472D01*
X150072224Y-82368461D01*
X149973061Y-82169316D01*
X149973056Y-82169308D01*
X149838979Y-81991761D01*
X149674562Y-81841876D01*
X149674560Y-81841874D01*
X149485404Y-81724754D01*
X149485398Y-81724752D01*
X149277940Y-81644382D01*
X149059243Y-81603500D01*
X148836757Y-81603500D01*
X148618060Y-81644382D01*
X148486864Y-81695207D01*
X148410601Y-81724752D01*
X148410595Y-81724754D01*
X148221439Y-81841874D01*
X148221437Y-81841876D01*
X148057020Y-81991761D01*
X147922943Y-82169308D01*
X147922938Y-82169316D01*
X147823775Y-82368461D01*
X147823769Y-82368476D01*
X147762885Y-82582462D01*
X147762884Y-82582464D01*
X147742357Y-82803999D01*
X137980392Y-82803999D01*
X135945819Y-80769426D01*
X135912334Y-80708103D01*
X135909500Y-80681745D01*
X135909500Y-76908918D01*
X135929185Y-76841879D01*
X135981989Y-76796124D01*
X135993230Y-76791639D01*
X136014410Y-76784369D01*
X136214161Y-76676269D01*
X136393396Y-76536765D01*
X136547224Y-76369663D01*
X136671450Y-76179521D01*
X136762685Y-75971526D01*
X136818441Y-75751350D01*
X136829178Y-75621770D01*
X136837197Y-75525005D01*
X136837197Y-75524994D01*
X136818441Y-75298653D01*
X136818441Y-75298650D01*
X136779278Y-75144000D01*
X145933659Y-75144000D01*
X145952975Y-75340129D01*
X145952976Y-75340132D01*
X146009055Y-75525000D01*
X146010188Y-75528733D01*
X146103086Y-75702532D01*
X146103090Y-75702539D01*
X146228116Y-75854883D01*
X146380460Y-75979909D01*
X146380467Y-75979913D01*
X146554266Y-76072811D01*
X146554269Y-76072811D01*
X146554273Y-76072814D01*
X146742868Y-76130024D01*
X146939000Y-76149341D01*
X147135132Y-76130024D01*
X147323727Y-76072814D01*
X147359521Y-76053682D01*
X147497532Y-75979913D01*
X147497538Y-75979910D01*
X147649883Y-75854883D01*
X147774910Y-75702538D01*
X147867814Y-75528727D01*
X147925024Y-75340132D01*
X147944341Y-75144000D01*
X147925024Y-74947868D01*
X147867814Y-74759273D01*
X147867811Y-74759269D01*
X147867811Y-74759266D01*
X147774913Y-74585467D01*
X147774909Y-74585460D01*
X147649883Y-74433116D01*
X147497539Y-74308090D01*
X147497532Y-74308086D01*
X147323733Y-74215188D01*
X147323727Y-74215186D01*
X147135132Y-74157976D01*
X147135129Y-74157975D01*
X146939000Y-74138659D01*
X146742870Y-74157975D01*
X146554266Y-74215188D01*
X146380467Y-74308086D01*
X146380460Y-74308090D01*
X146228116Y-74433116D01*
X146103090Y-74585460D01*
X146103086Y-74585467D01*
X146010188Y-74759266D01*
X145952975Y-74947870D01*
X145933659Y-75144000D01*
X136779278Y-75144000D01*
X136762685Y-75078474D01*
X136671450Y-74870479D01*
X136547224Y-74680337D01*
X136393396Y-74513235D01*
X136393391Y-74513231D01*
X136393389Y-74513229D01*
X136214169Y-74373736D01*
X136214163Y-74373732D01*
X136014411Y-74265631D01*
X136014406Y-74265629D01*
X135799593Y-74191884D01*
X135596387Y-74157975D01*
X135575563Y-74154500D01*
X135348437Y-74154500D01*
X135327613Y-74157975D01*
X135124406Y-74191884D01*
X134909593Y-74265629D01*
X134909588Y-74265631D01*
X134709836Y-74373732D01*
X134709830Y-74373736D01*
X134530610Y-74513229D01*
X134530607Y-74513232D01*
X134530604Y-74513234D01*
X134530604Y-74513235D01*
X134434040Y-74618132D01*
X134376776Y-74680337D01*
X134252548Y-74870482D01*
X134161314Y-75078475D01*
X134105558Y-75298653D01*
X134086803Y-75524994D01*
X127638500Y-75524994D01*
X127638500Y-74422000D01*
X129296659Y-74422000D01*
X129315975Y-74618129D01*
X129373188Y-74806733D01*
X129466086Y-74980532D01*
X129466090Y-74980539D01*
X129591116Y-75132883D01*
X129743460Y-75257909D01*
X129743467Y-75257913D01*
X129917266Y-75350811D01*
X129917269Y-75350811D01*
X129917273Y-75350814D01*
X130105868Y-75408024D01*
X130302000Y-75427341D01*
X130498132Y-75408024D01*
X130686727Y-75350814D01*
X130706718Y-75340129D01*
X130784319Y-75298650D01*
X130860538Y-75257910D01*
X131012883Y-75132883D01*
X131137910Y-74980538D01*
X131230814Y-74806727D01*
X131288024Y-74618132D01*
X131307341Y-74422000D01*
X131288024Y-74225868D01*
X131230814Y-74037273D01*
X131230811Y-74037269D01*
X131230811Y-74037266D01*
X131137913Y-73863467D01*
X131137909Y-73863460D01*
X131012883Y-73711116D01*
X130860539Y-73586090D01*
X130860532Y-73586086D01*
X130686733Y-73493188D01*
X130686727Y-73493186D01*
X130498132Y-73435976D01*
X130498129Y-73435975D01*
X130302000Y-73416659D01*
X130105870Y-73435975D01*
X129917266Y-73493188D01*
X129743467Y-73586086D01*
X129743460Y-73586090D01*
X129591116Y-73711116D01*
X129466090Y-73863460D01*
X129466086Y-73863467D01*
X129373188Y-74037266D01*
X129315975Y-74225870D01*
X129296659Y-74422000D01*
X127638500Y-74422000D01*
X127638500Y-74220249D01*
X127638499Y-74220247D01*
X127626868Y-74161770D01*
X127626867Y-74161769D01*
X127582552Y-74095447D01*
X127516230Y-74051132D01*
X127516229Y-74051131D01*
X127457752Y-74039500D01*
X127457748Y-74039500D01*
X125018252Y-74039500D01*
X125018247Y-74039500D01*
X124959770Y-74051131D01*
X124959769Y-74051132D01*
X124893447Y-74095447D01*
X124849132Y-74161769D01*
X124849131Y-74161770D01*
X124837500Y-74220247D01*
X119592006Y-74220247D01*
X119491920Y-74153371D01*
X119491907Y-74153364D01*
X119309839Y-74077950D01*
X119309829Y-74077947D01*
X119116543Y-74039500D01*
X119116541Y-74039500D01*
X118119459Y-74039500D01*
X118119457Y-74039500D01*
X117926170Y-74077947D01*
X117926160Y-74077950D01*
X117744092Y-74153364D01*
X117744079Y-74153371D01*
X117580218Y-74262860D01*
X117580214Y-74262863D01*
X117440863Y-74402214D01*
X117440860Y-74402218D01*
X117331371Y-74566079D01*
X117331364Y-74566092D01*
X117255950Y-74748160D01*
X117255947Y-74748170D01*
X117217500Y-74941456D01*
X117217500Y-74941459D01*
X117217500Y-75138541D01*
X117217500Y-75138543D01*
X117217499Y-75138543D01*
X103451500Y-75138543D01*
X103451500Y-72598543D01*
X117217499Y-72598543D01*
X117255947Y-72791829D01*
X117255950Y-72791839D01*
X117331364Y-72973907D01*
X117331371Y-72973920D01*
X117440860Y-73137781D01*
X117440863Y-73137785D01*
X117580214Y-73277136D01*
X117580218Y-73277139D01*
X117744079Y-73386628D01*
X117744092Y-73386635D01*
X117926160Y-73462049D01*
X117926165Y-73462051D01*
X117926169Y-73462051D01*
X117926170Y-73462052D01*
X118119456Y-73500500D01*
X118119459Y-73500500D01*
X119116543Y-73500500D01*
X119262201Y-73471526D01*
X119309835Y-73462051D01*
X119491914Y-73386632D01*
X119655782Y-73277139D01*
X119795139Y-73137782D01*
X119904632Y-72973914D01*
X119980051Y-72791835D01*
X120018500Y-72598541D01*
X120018500Y-72401459D01*
X120018500Y-72401456D01*
X119980052Y-72208170D01*
X119980051Y-72208169D01*
X119980051Y-72208165D01*
X119966555Y-72175583D01*
X119904635Y-72026092D01*
X119904628Y-72026079D01*
X119795139Y-71862218D01*
X119795136Y-71862214D01*
X119655785Y-71722863D01*
X119655781Y-71722860D01*
X119491920Y-71613371D01*
X119491907Y-71613364D01*
X119309839Y-71537950D01*
X119309829Y-71537947D01*
X119116543Y-71499500D01*
X119116541Y-71499500D01*
X118119459Y-71499500D01*
X118119457Y-71499500D01*
X117926170Y-71537947D01*
X117926160Y-71537950D01*
X117744092Y-71613364D01*
X117744079Y-71613371D01*
X117580218Y-71722860D01*
X117580214Y-71722863D01*
X117440863Y-71862214D01*
X117440860Y-71862218D01*
X117331371Y-72026079D01*
X117331364Y-72026092D01*
X117255950Y-72208160D01*
X117255947Y-72208170D01*
X117217500Y-72401456D01*
X117217500Y-72401459D01*
X117217500Y-72598541D01*
X117217500Y-72598543D01*
X117217499Y-72598543D01*
X103451500Y-72598543D01*
X103451500Y-67055999D01*
X106102357Y-67055999D01*
X106102357Y-67056000D01*
X106122884Y-67277535D01*
X106122885Y-67277537D01*
X106183769Y-67491523D01*
X106183775Y-67491538D01*
X106282938Y-67690683D01*
X106282943Y-67690691D01*
X106417020Y-67868238D01*
X106581437Y-68018123D01*
X106581439Y-68018125D01*
X106770595Y-68135245D01*
X106770596Y-68135245D01*
X106770599Y-68135247D01*
X106978060Y-68215618D01*
X107196757Y-68256500D01*
X107196759Y-68256500D01*
X107419241Y-68256500D01*
X107419243Y-68256500D01*
X107637940Y-68215618D01*
X107845401Y-68135247D01*
X108034562Y-68018124D01*
X108198981Y-67868236D01*
X108333058Y-67690689D01*
X108432229Y-67491528D01*
X108493115Y-67277536D01*
X108513643Y-67056000D01*
X108513642Y-67055994D01*
X113302859Y-67055994D01*
X113302859Y-67056005D01*
X113323385Y-67303729D01*
X113323387Y-67303738D01*
X113384412Y-67544717D01*
X113484267Y-67772367D01*
X113584562Y-67925881D01*
X114325037Y-67185408D01*
X114342075Y-67248993D01*
X114407901Y-67363007D01*
X114500993Y-67456099D01*
X114615007Y-67521925D01*
X114678591Y-67538962D01*
X113937943Y-68279609D01*
X113984768Y-68316055D01*
X113984771Y-68316057D01*
X114203385Y-68434364D01*
X114203396Y-68434369D01*
X114438506Y-68515083D01*
X114683707Y-68556000D01*
X114932293Y-68556000D01*
X115177493Y-68515083D01*
X115412603Y-68434369D01*
X115412614Y-68434364D01*
X115631230Y-68316056D01*
X115631236Y-68316051D01*
X115678055Y-68279610D01*
X115678056Y-68279609D01*
X114937408Y-67538962D01*
X115000993Y-67521925D01*
X115115007Y-67456099D01*
X115208099Y-67363007D01*
X115273925Y-67248993D01*
X115290962Y-67185409D01*
X116031435Y-67925882D01*
X116131733Y-67772364D01*
X116231587Y-67544717D01*
X116292612Y-67303738D01*
X116292614Y-67303729D01*
X116303695Y-67170000D01*
X116941391Y-67170000D01*
X118302314Y-67170000D01*
X118297920Y-67174394D01*
X118245259Y-67265606D01*
X118218000Y-67367339D01*
X118218000Y-67472661D01*
X118245259Y-67574394D01*
X118297920Y-67665606D01*
X118302314Y-67670000D01*
X116941391Y-67670000D01*
X116950009Y-67724413D01*
X117013244Y-67919029D01*
X117106140Y-68101349D01*
X117226417Y-68266894D01*
X117226417Y-68266895D01*
X117371104Y-68411582D01*
X117536650Y-68531859D01*
X117718968Y-68624755D01*
X117913582Y-68687990D01*
X118102268Y-68717875D01*
X118165403Y-68747804D01*
X118202334Y-68807116D01*
X118201336Y-68876978D01*
X118162726Y-68935211D01*
X118107062Y-68961965D01*
X117926170Y-68997947D01*
X117926160Y-68997950D01*
X117744092Y-69073364D01*
X117744079Y-69073371D01*
X117580218Y-69182860D01*
X117580214Y-69182863D01*
X117440863Y-69322214D01*
X117440860Y-69322218D01*
X117331371Y-69486079D01*
X117331364Y-69486092D01*
X117255950Y-69668160D01*
X117255947Y-69668170D01*
X117217500Y-69861456D01*
X117217500Y-69861459D01*
X117217500Y-70058541D01*
X117217500Y-70058543D01*
X117217499Y-70058543D01*
X117255947Y-70251829D01*
X117255950Y-70251839D01*
X117331364Y-70433907D01*
X117331371Y-70433920D01*
X117440860Y-70597781D01*
X117440863Y-70597785D01*
X117580214Y-70737136D01*
X117580218Y-70737139D01*
X117744079Y-70846628D01*
X117744092Y-70846635D01*
X117926160Y-70922049D01*
X117926165Y-70922051D01*
X117926169Y-70922051D01*
X117926170Y-70922052D01*
X118119456Y-70960500D01*
X118119459Y-70960500D01*
X119116543Y-70960500D01*
X119246582Y-70934632D01*
X119309835Y-70922051D01*
X119491914Y-70846632D01*
X119655782Y-70737139D01*
X119795139Y-70597782D01*
X119904632Y-70433914D01*
X119980051Y-70251835D01*
X120013297Y-70084699D01*
X120018500Y-70058543D01*
X120018500Y-69861456D01*
X119980052Y-69668170D01*
X119980051Y-69668169D01*
X119980051Y-69668165D01*
X119944204Y-69581621D01*
X119904635Y-69486092D01*
X119904628Y-69486079D01*
X119795139Y-69322218D01*
X119795136Y-69322214D01*
X119655785Y-69182863D01*
X119655781Y-69182860D01*
X119491920Y-69073371D01*
X119491907Y-69073364D01*
X119309839Y-68997950D01*
X119309829Y-68997947D01*
X119128937Y-68961965D01*
X119067026Y-68929580D01*
X119032452Y-68868864D01*
X119036192Y-68799095D01*
X119077059Y-68742423D01*
X119133731Y-68717875D01*
X119322417Y-68687990D01*
X119517031Y-68624755D01*
X119699349Y-68531859D01*
X119864894Y-68411582D01*
X119864895Y-68411582D01*
X120009582Y-68266895D01*
X120009582Y-68266894D01*
X120129859Y-68101349D01*
X120222755Y-67919029D01*
X120285990Y-67724413D01*
X120294609Y-67670000D01*
X118933686Y-67670000D01*
X118938080Y-67665606D01*
X118990741Y-67574394D01*
X119018000Y-67472661D01*
X119018000Y-67367339D01*
X118990741Y-67265606D01*
X118938080Y-67174394D01*
X118933686Y-67170000D01*
X120294609Y-67170000D01*
X124561391Y-67170000D01*
X125922314Y-67170000D01*
X125917920Y-67174394D01*
X125865259Y-67265606D01*
X125838000Y-67367339D01*
X125838000Y-67472661D01*
X125865259Y-67574394D01*
X125917920Y-67665606D01*
X125922314Y-67670000D01*
X124561391Y-67670000D01*
X124570009Y-67724413D01*
X124633244Y-67919029D01*
X124726140Y-68101349D01*
X124846417Y-68266894D01*
X124846417Y-68266895D01*
X124991104Y-68411582D01*
X125156650Y-68531859D01*
X125250179Y-68579515D01*
X125300975Y-68627490D01*
X125317770Y-68695311D01*
X125295232Y-68761446D01*
X125250179Y-68800485D01*
X125156650Y-68848140D01*
X124991105Y-68968417D01*
X124991104Y-68968417D01*
X124846417Y-69113104D01*
X124846417Y-69113105D01*
X124726140Y-69278650D01*
X124633244Y-69460970D01*
X124570009Y-69655586D01*
X124561391Y-69710000D01*
X125922314Y-69710000D01*
X125917920Y-69714394D01*
X125865259Y-69805606D01*
X125838000Y-69907339D01*
X125838000Y-70012661D01*
X125865259Y-70114394D01*
X125917920Y-70205606D01*
X125922314Y-70210000D01*
X124561391Y-70210000D01*
X124570009Y-70264413D01*
X124633244Y-70459029D01*
X124726140Y-70641349D01*
X124846417Y-70806894D01*
X124846417Y-70806895D01*
X124991104Y-70951582D01*
X125156650Y-71071859D01*
X125338968Y-71164755D01*
X125533582Y-71227990D01*
X125722268Y-71257875D01*
X125785403Y-71287804D01*
X125822334Y-71347116D01*
X125821336Y-71416978D01*
X125782726Y-71475211D01*
X125727062Y-71501965D01*
X125546170Y-71537947D01*
X125546160Y-71537950D01*
X125364092Y-71613364D01*
X125364079Y-71613371D01*
X125200218Y-71722860D01*
X125200214Y-71722863D01*
X125060863Y-71862214D01*
X125060860Y-71862218D01*
X124951371Y-72026079D01*
X124951364Y-72026092D01*
X124875950Y-72208160D01*
X124875947Y-72208170D01*
X124837500Y-72401456D01*
X124837500Y-72401459D01*
X124837500Y-72598541D01*
X124837500Y-72598543D01*
X124837499Y-72598543D01*
X124875947Y-72791829D01*
X124875950Y-72791839D01*
X124951364Y-72973907D01*
X124951371Y-72973920D01*
X125060860Y-73137781D01*
X125060863Y-73137785D01*
X125200214Y-73277136D01*
X125200218Y-73277139D01*
X125364079Y-73386628D01*
X125364092Y-73386635D01*
X125546160Y-73462049D01*
X125546165Y-73462051D01*
X125546169Y-73462051D01*
X125546170Y-73462052D01*
X125739456Y-73500500D01*
X125739459Y-73500500D01*
X126736543Y-73500500D01*
X126882201Y-73471526D01*
X126929835Y-73462051D01*
X127111914Y-73386632D01*
X127275782Y-73277139D01*
X127415139Y-73137782D01*
X127490501Y-73024994D01*
X139086803Y-73024994D01*
X139086803Y-73025005D01*
X139105558Y-73251346D01*
X139161314Y-73471524D01*
X139230838Y-73630024D01*
X139252550Y-73679521D01*
X139376776Y-73869663D01*
X139530604Y-74036765D01*
X139530607Y-74036767D01*
X139530610Y-74036770D01*
X139709830Y-74176263D01*
X139709836Y-74176267D01*
X139709839Y-74176269D01*
X139909590Y-74284369D01*
X140124409Y-74358116D01*
X140348437Y-74395500D01*
X140348438Y-74395500D01*
X140575562Y-74395500D01*
X140575563Y-74395500D01*
X140799591Y-74358116D01*
X141014410Y-74284369D01*
X141214161Y-74176269D01*
X141232790Y-74161770D01*
X141340481Y-74077950D01*
X141393396Y-74036765D01*
X141547224Y-73869663D01*
X141671450Y-73679521D01*
X141762685Y-73471526D01*
X141818441Y-73251350D01*
X141836888Y-73028733D01*
X141837197Y-73025005D01*
X141837197Y-73024994D01*
X141818441Y-72798653D01*
X141818441Y-72798650D01*
X141779278Y-72644000D01*
X145933659Y-72644000D01*
X145952975Y-72840129D01*
X145952976Y-72840132D01*
X146009055Y-73025000D01*
X146010188Y-73028733D01*
X146103086Y-73202532D01*
X146103090Y-73202539D01*
X146228116Y-73354883D01*
X146380460Y-73479909D01*
X146380467Y-73479913D01*
X146554266Y-73572811D01*
X146554269Y-73572811D01*
X146554273Y-73572814D01*
X146742868Y-73630024D01*
X146939000Y-73649341D01*
X147135132Y-73630024D01*
X147323727Y-73572814D01*
X147497538Y-73479910D01*
X147649883Y-73354883D01*
X147774910Y-73202538D01*
X147867814Y-73028727D01*
X147925024Y-72840132D01*
X147944341Y-72644000D01*
X147925024Y-72447868D01*
X147867814Y-72259273D01*
X147867811Y-72259269D01*
X147867811Y-72259266D01*
X147774913Y-72085467D01*
X147774909Y-72085460D01*
X147649883Y-71933116D01*
X147497539Y-71808090D01*
X147497532Y-71808086D01*
X147323733Y-71715188D01*
X147323727Y-71715186D01*
X147135132Y-71657976D01*
X147135129Y-71657975D01*
X146939000Y-71638659D01*
X146742870Y-71657975D01*
X146554266Y-71715188D01*
X146380467Y-71808086D01*
X146380460Y-71808090D01*
X146228116Y-71933116D01*
X146103090Y-72085460D01*
X146103086Y-72085467D01*
X146010188Y-72259266D01*
X145952975Y-72447870D01*
X145933659Y-72644000D01*
X141779278Y-72644000D01*
X141762685Y-72578474D01*
X141671450Y-72370479D01*
X141547224Y-72180337D01*
X141393396Y-72013235D01*
X141393391Y-72013231D01*
X141393389Y-72013229D01*
X141214169Y-71873736D01*
X141214163Y-71873732D01*
X141014411Y-71765631D01*
X141014406Y-71765629D01*
X140799593Y-71691884D01*
X140596387Y-71657975D01*
X140575563Y-71654500D01*
X140348437Y-71654500D01*
X140327613Y-71657975D01*
X140124406Y-71691884D01*
X139909593Y-71765629D01*
X139909588Y-71765631D01*
X139709836Y-71873732D01*
X139709830Y-71873736D01*
X139530610Y-72013229D01*
X139530607Y-72013232D01*
X139530604Y-72013234D01*
X139530604Y-72013235D01*
X139387808Y-72168353D01*
X139376776Y-72180337D01*
X139252548Y-72370482D01*
X139161314Y-72578475D01*
X139105558Y-72798653D01*
X139086803Y-73024994D01*
X127490501Y-73024994D01*
X127524632Y-72973914D01*
X127600051Y-72791835D01*
X127638500Y-72598541D01*
X127638500Y-72401459D01*
X127638500Y-72395367D01*
X127640787Y-72395367D01*
X127651901Y-72336741D01*
X127674605Y-72305548D01*
X129455160Y-70524995D01*
X133787317Y-70524995D01*
X133787317Y-70525004D01*
X133806021Y-70774597D01*
X133806021Y-70774599D01*
X133861714Y-71018607D01*
X133861720Y-71018626D01*
X133953163Y-71251618D01*
X134078311Y-71468382D01*
X134116800Y-71516645D01*
X134860958Y-70772487D01*
X134885978Y-70832890D01*
X134957112Y-70939351D01*
X135047649Y-71029888D01*
X135154110Y-71101022D01*
X135214510Y-71126041D01*
X134470402Y-71870148D01*
X134624651Y-71975313D01*
X134624664Y-71975320D01*
X134850167Y-72083916D01*
X134850165Y-72083916D01*
X135089346Y-72157694D01*
X135089352Y-72157696D01*
X135336843Y-72194999D01*
X135336852Y-72195000D01*
X135587148Y-72195000D01*
X135587156Y-72194999D01*
X135834647Y-72157696D01*
X135834653Y-72157694D01*
X136073833Y-72083916D01*
X136299334Y-71975322D01*
X136299335Y-71975321D01*
X136453596Y-71870148D01*
X135709488Y-71126041D01*
X135769890Y-71101022D01*
X135876351Y-71029888D01*
X135966888Y-70939351D01*
X136038022Y-70832890D01*
X136063041Y-70772489D01*
X136807198Y-71516646D01*
X136807199Y-71516645D01*
X136845681Y-71468392D01*
X136845688Y-71468381D01*
X136970836Y-71251618D01*
X137062279Y-71018626D01*
X137062285Y-71018607D01*
X137117978Y-70774599D01*
X137117978Y-70774597D01*
X137136683Y-70525004D01*
X137136683Y-70524995D01*
X137117978Y-70275402D01*
X137117978Y-70275400D01*
X137062285Y-70031392D01*
X137062279Y-70031373D01*
X136970836Y-69798381D01*
X136845685Y-69581613D01*
X136807199Y-69533352D01*
X136063041Y-70277510D01*
X136038022Y-70217110D01*
X135966888Y-70110649D01*
X135876351Y-70020112D01*
X135769890Y-69948978D01*
X135709487Y-69923958D01*
X136453596Y-69179850D01*
X136299342Y-69074682D01*
X136299334Y-69074677D01*
X136073832Y-68966083D01*
X136073834Y-68966083D01*
X135834653Y-68892305D01*
X135834647Y-68892303D01*
X135587156Y-68855000D01*
X135336843Y-68855000D01*
X135089352Y-68892303D01*
X135089346Y-68892305D01*
X134850166Y-68966083D01*
X134624661Y-69074680D01*
X134624660Y-69074681D01*
X134470402Y-69179849D01*
X135214511Y-69923958D01*
X135154110Y-69948978D01*
X135047649Y-70020112D01*
X134957112Y-70110649D01*
X134885978Y-70217110D01*
X134860958Y-70277511D01*
X134116800Y-69533353D01*
X134078308Y-69581621D01*
X133953163Y-69798381D01*
X133861720Y-70031373D01*
X133861714Y-70031392D01*
X133806021Y-70275400D01*
X133806021Y-70275402D01*
X133787317Y-70524995D01*
X129455160Y-70524995D01*
X129802065Y-70178090D01*
X129845181Y-70103410D01*
X129867500Y-70020116D01*
X129867500Y-69933884D01*
X129867500Y-67882910D01*
X129887185Y-67815871D01*
X129939989Y-67770116D01*
X130009147Y-67760172D01*
X130027496Y-67764250D01*
X130105868Y-67788024D01*
X130302000Y-67807341D01*
X130498132Y-67788024D01*
X130686727Y-67730814D01*
X130698703Y-67724413D01*
X130860532Y-67637913D01*
X130860538Y-67637910D01*
X131012883Y-67512883D01*
X131137910Y-67360538D01*
X131230814Y-67186727D01*
X131288024Y-66998132D01*
X131307341Y-66802000D01*
X131288024Y-66605868D01*
X131230814Y-66417273D01*
X131230811Y-66417269D01*
X131230811Y-66417266D01*
X131137913Y-66243467D01*
X131137909Y-66243460D01*
X131012883Y-66091116D01*
X130860539Y-65966090D01*
X130860532Y-65966086D01*
X130686733Y-65873188D01*
X130686727Y-65873186D01*
X130498132Y-65815976D01*
X130498129Y-65815975D01*
X130302000Y-65796659D01*
X130105870Y-65815975D01*
X129917266Y-65873188D01*
X129743467Y-65966086D01*
X129743460Y-65966090D01*
X129591116Y-66091116D01*
X129466090Y-66243460D01*
X129466086Y-66243467D01*
X129373188Y-66417266D01*
X129315975Y-66605870D01*
X129296659Y-66802000D01*
X129315976Y-66998134D01*
X129370447Y-67177698D01*
X129371071Y-67247565D01*
X129339547Y-67301297D01*
X129338988Y-67301857D01*
X129338910Y-67301935D01*
X129277933Y-67362911D01*
X129234819Y-67437589D01*
X129212500Y-67520885D01*
X129212500Y-69789983D01*
X129192815Y-69857022D01*
X129176181Y-69877664D01*
X127380831Y-71673013D01*
X127319508Y-71706498D01*
X127249816Y-71701514D01*
X127224259Y-71688434D01*
X127111920Y-71613371D01*
X127111907Y-71613364D01*
X126929839Y-71537950D01*
X126929829Y-71537947D01*
X126748937Y-71501965D01*
X126687026Y-71469580D01*
X126652452Y-71408864D01*
X126656192Y-71339095D01*
X126697059Y-71282423D01*
X126753731Y-71257875D01*
X126942417Y-71227990D01*
X127137031Y-71164755D01*
X127319349Y-71071859D01*
X127484894Y-70951582D01*
X127484895Y-70951582D01*
X127629582Y-70806895D01*
X127629582Y-70806894D01*
X127749859Y-70641349D01*
X127842755Y-70459029D01*
X127905990Y-70264413D01*
X127914609Y-70210000D01*
X126553686Y-70210000D01*
X126558080Y-70205606D01*
X126610741Y-70114394D01*
X126638000Y-70012661D01*
X126638000Y-69907339D01*
X126610741Y-69805606D01*
X126558080Y-69714394D01*
X126553686Y-69710000D01*
X127914609Y-69710000D01*
X127905990Y-69655586D01*
X127842755Y-69460970D01*
X127749859Y-69278650D01*
X127629582Y-69113105D01*
X127629582Y-69113104D01*
X127484895Y-68968417D01*
X127319349Y-68848140D01*
X127225820Y-68800485D01*
X127175024Y-68752511D01*
X127158229Y-68684690D01*
X127180766Y-68618555D01*
X127225820Y-68579515D01*
X127319349Y-68531859D01*
X127484894Y-68411582D01*
X127484895Y-68411582D01*
X127629582Y-68266895D01*
X127629582Y-68266894D01*
X127749859Y-68101349D01*
X127842755Y-67919029D01*
X127905990Y-67724413D01*
X127914609Y-67670000D01*
X126553686Y-67670000D01*
X126558080Y-67665606D01*
X126610741Y-67574394D01*
X126638000Y-67472661D01*
X126638000Y-67367339D01*
X126610741Y-67265606D01*
X126558080Y-67174394D01*
X126553686Y-67170000D01*
X127914609Y-67170000D01*
X127905990Y-67115586D01*
X127842755Y-66920970D01*
X127749859Y-66738650D01*
X127629582Y-66573105D01*
X127629582Y-66573104D01*
X127484895Y-66428417D01*
X127319349Y-66308140D01*
X127137031Y-66215244D01*
X126942417Y-66152009D01*
X126740317Y-66120000D01*
X126488000Y-66120000D01*
X126488000Y-67104314D01*
X126483606Y-67099920D01*
X126392394Y-67047259D01*
X126290661Y-67020000D01*
X126185339Y-67020000D01*
X126083606Y-67047259D01*
X125992394Y-67099920D01*
X125988000Y-67104314D01*
X125988000Y-66120000D01*
X125735683Y-66120000D01*
X125533582Y-66152009D01*
X125338968Y-66215244D01*
X125156650Y-66308140D01*
X124991105Y-66428417D01*
X124991104Y-66428417D01*
X124846417Y-66573104D01*
X124846417Y-66573105D01*
X124726140Y-66738650D01*
X124633244Y-66920970D01*
X124570009Y-67115586D01*
X124561391Y-67170000D01*
X120294609Y-67170000D01*
X120285990Y-67115586D01*
X120222755Y-66920970D01*
X120129859Y-66738650D01*
X120009582Y-66573105D01*
X120009582Y-66573104D01*
X119864895Y-66428417D01*
X119699349Y-66308140D01*
X119517031Y-66215244D01*
X119322417Y-66152009D01*
X119120317Y-66120000D01*
X118868000Y-66120000D01*
X118868000Y-67104314D01*
X118863606Y-67099920D01*
X118772394Y-67047259D01*
X118670661Y-67020000D01*
X118565339Y-67020000D01*
X118463606Y-67047259D01*
X118372394Y-67099920D01*
X118368000Y-67104314D01*
X118368000Y-66120000D01*
X118115683Y-66120000D01*
X117913582Y-66152009D01*
X117718968Y-66215244D01*
X117536650Y-66308140D01*
X117371105Y-66428417D01*
X117371104Y-66428417D01*
X117226417Y-66573104D01*
X117226417Y-66573105D01*
X117106140Y-66738650D01*
X117013244Y-66920970D01*
X116950009Y-67115586D01*
X116941391Y-67170000D01*
X116303695Y-67170000D01*
X116313141Y-67056005D01*
X116313141Y-67055994D01*
X116292614Y-66808270D01*
X116292612Y-66808261D01*
X116231587Y-66567282D01*
X116131732Y-66339632D01*
X116031435Y-66186116D01*
X115290962Y-66926590D01*
X115273925Y-66863007D01*
X115208099Y-66748993D01*
X115115007Y-66655901D01*
X115000993Y-66590075D01*
X114937409Y-66573037D01*
X115678055Y-65832389D01*
X115678055Y-65832388D01*
X115631236Y-65795947D01*
X115631231Y-65795944D01*
X115412614Y-65677635D01*
X115412603Y-65677630D01*
X115177493Y-65596916D01*
X114932293Y-65556000D01*
X114683707Y-65556000D01*
X114438506Y-65596916D01*
X114203396Y-65677630D01*
X114203385Y-65677635D01*
X113984770Y-65795943D01*
X113937943Y-65832389D01*
X114678591Y-66573037D01*
X114615007Y-66590075D01*
X114500993Y-66655901D01*
X114407901Y-66748993D01*
X114342075Y-66863007D01*
X114325037Y-66926591D01*
X113584563Y-66186117D01*
X113484267Y-66339633D01*
X113484265Y-66339637D01*
X113384412Y-66567282D01*
X113323387Y-66808261D01*
X113323385Y-66808270D01*
X113302859Y-67055994D01*
X108513642Y-67055994D01*
X108493115Y-66834464D01*
X108493114Y-66834462D01*
X108485659Y-66808261D01*
X108432229Y-66620472D01*
X108432224Y-66620461D01*
X108333061Y-66421316D01*
X108333056Y-66421308D01*
X108198979Y-66243761D01*
X108034562Y-66093876D01*
X108034560Y-66093874D01*
X107845404Y-65976754D01*
X107845398Y-65976752D01*
X107637940Y-65896382D01*
X107419243Y-65855500D01*
X107196757Y-65855500D01*
X106978060Y-65896382D01*
X106846864Y-65947207D01*
X106770601Y-65976752D01*
X106770595Y-65976754D01*
X106581439Y-66093874D01*
X106581437Y-66093876D01*
X106417020Y-66243761D01*
X106282943Y-66421308D01*
X106282938Y-66421316D01*
X106183775Y-66620461D01*
X106183769Y-66620476D01*
X106122885Y-66834462D01*
X106122884Y-66834464D01*
X106102357Y-67055999D01*
X103451500Y-67055999D01*
X103451500Y-57592155D01*
X106600000Y-57592155D01*
X106600000Y-58290000D01*
X107624722Y-58290000D01*
X107580667Y-58366306D01*
X107550000Y-58480756D01*
X107550000Y-58599244D01*
X107580667Y-58713694D01*
X107624722Y-58790000D01*
X106600000Y-58790000D01*
X106600000Y-59487844D01*
X106606401Y-59547372D01*
X106606403Y-59547379D01*
X106656645Y-59682086D01*
X106656649Y-59682093D01*
X106742809Y-59797187D01*
X106742812Y-59797190D01*
X106857906Y-59883350D01*
X106857913Y-59883354D01*
X106992620Y-59933596D01*
X106992627Y-59933598D01*
X107052155Y-59939999D01*
X107052172Y-59940000D01*
X107750000Y-59940000D01*
X107750000Y-58915277D01*
X107826306Y-58959333D01*
X107940756Y-58990000D01*
X108059244Y-58990000D01*
X108173694Y-58959333D01*
X108250000Y-58915277D01*
X108250000Y-59940000D01*
X108947828Y-59940000D01*
X108947844Y-59939999D01*
X109007372Y-59933598D01*
X109007379Y-59933596D01*
X109142086Y-59883354D01*
X109142093Y-59883350D01*
X109257187Y-59797190D01*
X109257190Y-59797187D01*
X109343350Y-59682093D01*
X109343354Y-59682086D01*
X109393596Y-59547379D01*
X109393598Y-59547372D01*
X109399999Y-59487844D01*
X109400000Y-59487827D01*
X109400000Y-58790000D01*
X108375278Y-58790000D01*
X108419333Y-58713694D01*
X108450000Y-58599244D01*
X108450000Y-58480756D01*
X108419333Y-58366306D01*
X108375278Y-58290000D01*
X109400000Y-58290000D01*
X109400000Y-57592172D01*
X109399999Y-57592155D01*
X109393598Y-57532627D01*
X109393596Y-57532620D01*
X109343354Y-57397913D01*
X109343350Y-57397906D01*
X109257190Y-57282812D01*
X109257187Y-57282809D01*
X109142093Y-57196649D01*
X109142086Y-57196645D01*
X109007379Y-57146403D01*
X109007372Y-57146401D01*
X108947844Y-57140000D01*
X108685141Y-57140000D01*
X108618102Y-57120315D01*
X108572347Y-57067511D01*
X108562403Y-56998353D01*
X108591428Y-56934797D01*
X108619864Y-56910573D01*
X108666039Y-56881982D01*
X108666038Y-56881982D01*
X108666041Y-56881981D01*
X108816764Y-56744579D01*
X108939673Y-56581821D01*
X109030582Y-56399250D01*
X109086397Y-56203083D01*
X109105215Y-56000000D01*
X109094096Y-55880000D01*
X112532659Y-55880000D01*
X112551975Y-56076129D01*
X112609188Y-56264733D01*
X112702086Y-56438532D01*
X112702090Y-56438539D01*
X112827116Y-56590883D01*
X112979460Y-56715909D01*
X112979467Y-56715913D01*
X113153266Y-56808811D01*
X113153269Y-56808811D01*
X113153273Y-56808814D01*
X113341868Y-56866024D01*
X113538000Y-56885341D01*
X113734132Y-56866024D01*
X113922727Y-56808814D01*
X114096538Y-56715910D01*
X114248883Y-56590883D01*
X114373910Y-56438538D01*
X114466814Y-56264727D01*
X114524024Y-56076132D01*
X114543341Y-55880000D01*
X120152659Y-55880000D01*
X120171975Y-56076129D01*
X120229188Y-56264733D01*
X120322086Y-56438532D01*
X120322090Y-56438539D01*
X120447116Y-56590883D01*
X120599460Y-56715909D01*
X120599467Y-56715913D01*
X120773266Y-56808811D01*
X120773269Y-56808811D01*
X120773273Y-56808814D01*
X120961868Y-56866024D01*
X121158000Y-56885341D01*
X121354132Y-56866024D01*
X121542727Y-56808814D01*
X121716538Y-56715910D01*
X121868883Y-56590883D01*
X121993910Y-56438538D01*
X122086814Y-56264727D01*
X122144024Y-56076132D01*
X122163341Y-55880000D01*
X122144024Y-55683868D01*
X122086814Y-55495273D01*
X122086811Y-55495269D01*
X122086811Y-55495266D01*
X121993913Y-55321467D01*
X121993909Y-55321460D01*
X121868883Y-55169116D01*
X121716539Y-55044090D01*
X121716532Y-55044086D01*
X121542733Y-54951188D01*
X121542727Y-54951186D01*
X121354132Y-54893976D01*
X121354129Y-54893975D01*
X121158000Y-54874659D01*
X120961870Y-54893975D01*
X120773266Y-54951188D01*
X120599467Y-55044086D01*
X120599460Y-55044090D01*
X120447116Y-55169116D01*
X120322090Y-55321460D01*
X120322086Y-55321467D01*
X120229188Y-55495266D01*
X120171975Y-55683870D01*
X120152659Y-55880000D01*
X114543341Y-55880000D01*
X114524024Y-55683868D01*
X114466814Y-55495273D01*
X114466811Y-55495269D01*
X114466811Y-55495266D01*
X114373913Y-55321467D01*
X114373909Y-55321460D01*
X114248883Y-55169116D01*
X114096539Y-55044090D01*
X114096532Y-55044086D01*
X113922733Y-54951188D01*
X113922727Y-54951186D01*
X113734132Y-54893976D01*
X113734129Y-54893975D01*
X113538000Y-54874659D01*
X113341870Y-54893975D01*
X113153266Y-54951188D01*
X112979467Y-55044086D01*
X112979460Y-55044090D01*
X112827116Y-55169116D01*
X112702090Y-55321460D01*
X112702086Y-55321467D01*
X112609188Y-55495266D01*
X112551975Y-55683870D01*
X112532659Y-55880000D01*
X109094096Y-55880000D01*
X109086397Y-55796917D01*
X109030582Y-55600750D01*
X109017801Y-55575083D01*
X108978061Y-55495273D01*
X108939673Y-55418179D01*
X108816764Y-55255421D01*
X108816762Y-55255418D01*
X108666041Y-55118019D01*
X108666039Y-55118017D01*
X108492642Y-55010655D01*
X108492635Y-55010651D01*
X108342959Y-54952667D01*
X108302456Y-54936976D01*
X108101976Y-54899500D01*
X107898024Y-54899500D01*
X107697544Y-54936976D01*
X107697541Y-54936976D01*
X107697541Y-54936977D01*
X107507364Y-55010651D01*
X107507357Y-55010655D01*
X107333960Y-55118017D01*
X107333958Y-55118019D01*
X107183237Y-55255418D01*
X107060327Y-55418178D01*
X106969422Y-55600739D01*
X106969417Y-55600752D01*
X106913602Y-55796917D01*
X106894785Y-55999999D01*
X106894785Y-56000000D01*
X106913602Y-56203082D01*
X106969417Y-56399247D01*
X106969422Y-56399260D01*
X107060327Y-56581821D01*
X107183237Y-56744581D01*
X107333958Y-56881980D01*
X107333960Y-56881982D01*
X107380136Y-56910573D01*
X107426772Y-56962601D01*
X107437876Y-57031583D01*
X107409923Y-57095617D01*
X107351788Y-57134373D01*
X107314859Y-57140000D01*
X107052155Y-57140000D01*
X106992627Y-57146401D01*
X106992620Y-57146403D01*
X106857913Y-57196645D01*
X106857906Y-57196649D01*
X106742812Y-57282809D01*
X106742809Y-57282812D01*
X106656649Y-57397906D01*
X106656645Y-57397913D01*
X106606403Y-57532620D01*
X106606401Y-57532627D01*
X106600000Y-57592155D01*
X103451500Y-57592155D01*
X103451500Y-56829017D01*
X103471185Y-56761978D01*
X103487819Y-56741336D01*
X105335180Y-54893975D01*
X107196065Y-53033090D01*
X107239181Y-52958410D01*
X107261500Y-52875116D01*
X107261500Y-52788884D01*
X107261500Y-49919776D01*
X107281185Y-49852737D01*
X107333989Y-49806982D01*
X107403147Y-49797038D01*
X107432956Y-49805216D01*
G37*
%TD.AperFunction*%
%TA.AperFunction,Conductor*%
G36*
X148151632Y-44908047D02*
G01*
X148218571Y-44928063D01*
X148264064Y-44981093D01*
X148273665Y-45050299D01*
X148244326Y-45113711D01*
X148222140Y-45133620D01*
X148138922Y-45191890D01*
X148138920Y-45191891D01*
X147971891Y-45358920D01*
X147971886Y-45358926D01*
X147836400Y-45552420D01*
X147836399Y-45552422D01*
X147736570Y-45766507D01*
X147736567Y-45766514D01*
X147703841Y-45888650D01*
X147667476Y-45948310D01*
X147604629Y-45978839D01*
X147535253Y-45970544D01*
X147481375Y-45926059D01*
X147465406Y-45892552D01*
X147445232Y-45826046D01*
X147347685Y-45643550D01*
X147265597Y-45543525D01*
X147216410Y-45483589D01*
X147098677Y-45386969D01*
X147056450Y-45352315D01*
X146873954Y-45254768D01*
X146675934Y-45194700D01*
X146675932Y-45194699D01*
X146675934Y-45194699D01*
X146470000Y-45174417D01*
X146264067Y-45194699D01*
X146066043Y-45254769D01*
X145975012Y-45303427D01*
X145883550Y-45352315D01*
X145883548Y-45352316D01*
X145883547Y-45352317D01*
X145723589Y-45483589D01*
X145610610Y-45621257D01*
X145592315Y-45643550D01*
X145554307Y-45714657D01*
X145494769Y-45826043D01*
X145434699Y-46024067D01*
X145414417Y-46230000D01*
X145434699Y-46435932D01*
X145434700Y-46435934D01*
X145494768Y-46633954D01*
X145592315Y-46816450D01*
X145592317Y-46816452D01*
X145723589Y-46976410D01*
X145801520Y-47040365D01*
X145883550Y-47107685D01*
X146066046Y-47205232D01*
X146264066Y-47265300D01*
X146264065Y-47265300D01*
X146282529Y-47267118D01*
X146470000Y-47285583D01*
X146675934Y-47265300D01*
X146873954Y-47205232D01*
X147056450Y-47107685D01*
X147216410Y-46976410D01*
X147347685Y-46816450D01*
X147445232Y-46633954D01*
X147465406Y-46567446D01*
X147503702Y-46509010D01*
X147567514Y-46480553D01*
X147636581Y-46491112D01*
X147688975Y-46537336D01*
X147703841Y-46571349D01*
X147736567Y-46693486D01*
X147736570Y-46693492D01*
X147836399Y-46907578D01*
X147971894Y-47101082D01*
X148138917Y-47268105D01*
X148332421Y-47403600D01*
X148546507Y-47503429D01*
X148546516Y-47503433D01*
X148668649Y-47536158D01*
X148728310Y-47572523D01*
X148758839Y-47635369D01*
X148750545Y-47704745D01*
X148706059Y-47758623D01*
X148672552Y-47774593D01*
X148606046Y-47794767D01*
X148476918Y-47863789D01*
X148423550Y-47892315D01*
X148423548Y-47892316D01*
X148423547Y-47892317D01*
X148263589Y-48023589D01*
X148132317Y-48183547D01*
X148034769Y-48366043D01*
X147974699Y-48564067D01*
X147954417Y-48770000D01*
X147974699Y-48975932D01*
X147974700Y-48975934D01*
X148034768Y-49173954D01*
X148132315Y-49356450D01*
X148132317Y-49356452D01*
X148263589Y-49516410D01*
X148325156Y-49566936D01*
X148423550Y-49647685D01*
X148606046Y-49745232D01*
X148804066Y-49805300D01*
X148804065Y-49805300D01*
X148821143Y-49806982D01*
X149010000Y-49825583D01*
X149215934Y-49805300D01*
X149413954Y-49745232D01*
X149596450Y-49647685D01*
X149756410Y-49516410D01*
X149887685Y-49356450D01*
X149985232Y-49173954D01*
X150045300Y-48975934D01*
X150065583Y-48770000D01*
X150494417Y-48770000D01*
X150514699Y-48975932D01*
X150514700Y-48975934D01*
X150574768Y-49173954D01*
X150672315Y-49356450D01*
X150672317Y-49356452D01*
X150803589Y-49516410D01*
X150865156Y-49566936D01*
X150963550Y-49647685D01*
X151146046Y-49745232D01*
X151344066Y-49805300D01*
X151344065Y-49805300D01*
X151361143Y-49806982D01*
X151550000Y-49825583D01*
X151755934Y-49805300D01*
X151953954Y-49745232D01*
X152136450Y-49647685D01*
X152296410Y-49516410D01*
X152427685Y-49356450D01*
X152525232Y-49173954D01*
X152585300Y-48975934D01*
X152605583Y-48770000D01*
X152585300Y-48564066D01*
X152525232Y-48366046D01*
X152427685Y-48183550D01*
X152352897Y-48092420D01*
X152296410Y-48023589D01*
X152146121Y-47900252D01*
X152136450Y-47892315D01*
X151953954Y-47794768D01*
X151755934Y-47734700D01*
X151755932Y-47734699D01*
X151755934Y-47734699D01*
X151550000Y-47714417D01*
X151344067Y-47734699D01*
X151209736Y-47775448D01*
X151146050Y-47794767D01*
X151146043Y-47794769D01*
X151035898Y-47853643D01*
X150963550Y-47892315D01*
X150963548Y-47892316D01*
X150963547Y-47892317D01*
X150803589Y-48023589D01*
X150672317Y-48183547D01*
X150574769Y-48366043D01*
X150514699Y-48564067D01*
X150494417Y-48770000D01*
X150065583Y-48770000D01*
X150045300Y-48564066D01*
X149985232Y-48366046D01*
X149887685Y-48183550D01*
X149812897Y-48092420D01*
X149756410Y-48023589D01*
X149606121Y-47900252D01*
X149596450Y-47892315D01*
X149413954Y-47794768D01*
X149347447Y-47774593D01*
X149289009Y-47736296D01*
X149260553Y-47672484D01*
X149271113Y-47603417D01*
X149317337Y-47551023D01*
X149351350Y-47536158D01*
X149473483Y-47503433D01*
X149473492Y-47503429D01*
X149687578Y-47403600D01*
X149881082Y-47268105D01*
X150048105Y-47101082D01*
X150183600Y-46907578D01*
X150283429Y-46693492D01*
X150283433Y-46693483D01*
X150316158Y-46571350D01*
X150352522Y-46511690D01*
X150415369Y-46481160D01*
X150484745Y-46489454D01*
X150538623Y-46533939D01*
X150554593Y-46567447D01*
X150574768Y-46633954D01*
X150672315Y-46816450D01*
X150672317Y-46816452D01*
X150803589Y-46976410D01*
X150881520Y-47040365D01*
X150963550Y-47107685D01*
X151146046Y-47205232D01*
X151344066Y-47265300D01*
X151344065Y-47265300D01*
X151362529Y-47267118D01*
X151550000Y-47285583D01*
X151755934Y-47265300D01*
X151953954Y-47205232D01*
X152136450Y-47107685D01*
X152296410Y-46976410D01*
X152427685Y-46816450D01*
X152525232Y-46633954D01*
X152585300Y-46435934D01*
X152605583Y-46230000D01*
X153034417Y-46230000D01*
X153054699Y-46435932D01*
X153054700Y-46435934D01*
X153114768Y-46633954D01*
X153212315Y-46816450D01*
X153212317Y-46816452D01*
X153343589Y-46976410D01*
X153421520Y-47040365D01*
X153503550Y-47107685D01*
X153686046Y-47205232D01*
X153884066Y-47265300D01*
X153884065Y-47265300D01*
X153902529Y-47267118D01*
X154090000Y-47285583D01*
X154295934Y-47265300D01*
X154493954Y-47205232D01*
X154676450Y-47107685D01*
X154836410Y-46976410D01*
X154967685Y-46816450D01*
X155065232Y-46633954D01*
X155125300Y-46435934D01*
X155145583Y-46230000D01*
X155125300Y-46024066D01*
X155065232Y-45826046D01*
X154967685Y-45643550D01*
X154885597Y-45543525D01*
X154836410Y-45483589D01*
X154718677Y-45386969D01*
X154676450Y-45352315D01*
X154493954Y-45254768D01*
X154295934Y-45194700D01*
X154295932Y-45194699D01*
X154295934Y-45194699D01*
X154202169Y-45185464D01*
X154137382Y-45159302D01*
X154097023Y-45102268D01*
X154096363Y-45087487D01*
X154070885Y-45142555D01*
X154011920Y-45180038D01*
X153989730Y-45184292D01*
X153884067Y-45194699D01*
X153686043Y-45254769D01*
X153595012Y-45303427D01*
X153503550Y-45352315D01*
X153503548Y-45352316D01*
X153503547Y-45352317D01*
X153343589Y-45483589D01*
X153230610Y-45621257D01*
X153212315Y-45643550D01*
X153174307Y-45714657D01*
X153114769Y-45826043D01*
X153054699Y-46024067D01*
X153034417Y-46230000D01*
X152605583Y-46230000D01*
X152585300Y-46024066D01*
X152525232Y-45826046D01*
X152427685Y-45643550D01*
X152345597Y-45543525D01*
X152296410Y-45483589D01*
X152178677Y-45386969D01*
X152136450Y-45352315D01*
X151953954Y-45254768D01*
X151755934Y-45194700D01*
X151755932Y-45194699D01*
X151755934Y-45194699D01*
X151550000Y-45174417D01*
X151344067Y-45194699D01*
X151146043Y-45254769D01*
X151055012Y-45303427D01*
X150963550Y-45352315D01*
X150963548Y-45352316D01*
X150963547Y-45352317D01*
X150803589Y-45483589D01*
X150690610Y-45621257D01*
X150672315Y-45643550D01*
X150644622Y-45695358D01*
X150574767Y-45826046D01*
X150554593Y-45892552D01*
X150516296Y-45950990D01*
X150452483Y-45979447D01*
X150383416Y-45968886D01*
X150331023Y-45922661D01*
X150316158Y-45888649D01*
X150283433Y-45766516D01*
X150283429Y-45766507D01*
X150183600Y-45552422D01*
X150183599Y-45552420D01*
X150048113Y-45358926D01*
X150048108Y-45358920D01*
X149881078Y-45191890D01*
X149810091Y-45142184D01*
X149766466Y-45087607D01*
X149759274Y-45018109D01*
X149790796Y-44955754D01*
X149851027Y-44920341D01*
X149881820Y-44916612D01*
X153978192Y-44936892D01*
X154045130Y-44956907D01*
X154090623Y-45009937D01*
X154093982Y-45034150D01*
X154093907Y-45032467D01*
X154129022Y-44972063D01*
X154191220Y-44940232D01*
X154214927Y-44938063D01*
X156401475Y-44948888D01*
X156468415Y-44968904D01*
X156513908Y-45021934D01*
X156523509Y-45091140D01*
X156494170Y-45154552D01*
X156435205Y-45192035D01*
X156425061Y-45194501D01*
X156424077Y-45194696D01*
X156226043Y-45254769D01*
X156135012Y-45303427D01*
X156043550Y-45352315D01*
X156043548Y-45352316D01*
X156043547Y-45352317D01*
X155883589Y-45483589D01*
X155770610Y-45621257D01*
X155752315Y-45643550D01*
X155714307Y-45714657D01*
X155654769Y-45826043D01*
X155594699Y-46024067D01*
X155574417Y-46230000D01*
X155594699Y-46435932D01*
X155594700Y-46435934D01*
X155654768Y-46633954D01*
X155752315Y-46816450D01*
X155752317Y-46816452D01*
X155883589Y-46976410D01*
X155961520Y-47040365D01*
X156043550Y-47107685D01*
X156226046Y-47205232D01*
X156292551Y-47225405D01*
X156350989Y-47263702D01*
X156379446Y-47327514D01*
X156368887Y-47396581D01*
X156322663Y-47448975D01*
X156288650Y-47463841D01*
X156166514Y-47496567D01*
X156166507Y-47496570D01*
X155952422Y-47596399D01*
X155952420Y-47596400D01*
X155758926Y-47731886D01*
X155758920Y-47731891D01*
X155591891Y-47898920D01*
X155591886Y-47898926D01*
X155456400Y-48092420D01*
X155456399Y-48092422D01*
X155356570Y-48306507D01*
X155356567Y-48306514D01*
X155323841Y-48428650D01*
X155287476Y-48488310D01*
X155224629Y-48518839D01*
X155155253Y-48510544D01*
X155101375Y-48466059D01*
X155085406Y-48432553D01*
X155065232Y-48366046D01*
X154967685Y-48183550D01*
X154892897Y-48092420D01*
X154836410Y-48023589D01*
X154686121Y-47900252D01*
X154676450Y-47892315D01*
X154493954Y-47794768D01*
X154295934Y-47734700D01*
X154295932Y-47734699D01*
X154295934Y-47734699D01*
X154090000Y-47714417D01*
X153884067Y-47734699D01*
X153749736Y-47775448D01*
X153686050Y-47794767D01*
X153686043Y-47794769D01*
X153575898Y-47853643D01*
X153503550Y-47892315D01*
X153503548Y-47892316D01*
X153503547Y-47892317D01*
X153343589Y-48023589D01*
X153212317Y-48183547D01*
X153114769Y-48366043D01*
X153054699Y-48564067D01*
X153034417Y-48770000D01*
X153054699Y-48975932D01*
X153054700Y-48975934D01*
X153114768Y-49173954D01*
X153212315Y-49356450D01*
X153212317Y-49356452D01*
X153343589Y-49516410D01*
X153405156Y-49566936D01*
X153503550Y-49647685D01*
X153686046Y-49745232D01*
X153884066Y-49805300D01*
X153884065Y-49805300D01*
X153901143Y-49806982D01*
X154090000Y-49825583D01*
X154295934Y-49805300D01*
X154493954Y-49745232D01*
X154676450Y-49647685D01*
X154836410Y-49516410D01*
X154967685Y-49356450D01*
X155065232Y-49173954D01*
X155085406Y-49107446D01*
X155123702Y-49049010D01*
X155187514Y-49020553D01*
X155256581Y-49031112D01*
X155308975Y-49077336D01*
X155323841Y-49111349D01*
X155356567Y-49233486D01*
X155356570Y-49233492D01*
X155456399Y-49447578D01*
X155591894Y-49641082D01*
X155758917Y-49808105D01*
X155952421Y-49943600D01*
X156166507Y-50043429D01*
X156166516Y-50043433D01*
X156380000Y-50100634D01*
X156380000Y-49203012D01*
X156437007Y-49235925D01*
X156564174Y-49270000D01*
X156695826Y-49270000D01*
X156822993Y-49235925D01*
X156880000Y-49203012D01*
X156880000Y-50100633D01*
X157093483Y-50043433D01*
X157093492Y-50043429D01*
X157307578Y-49943600D01*
X157501082Y-49808105D01*
X157668105Y-49641082D01*
X157803600Y-49447578D01*
X157903429Y-49233492D01*
X157903432Y-49233486D01*
X157960636Y-49020000D01*
X157063012Y-49020000D01*
X157095925Y-48962993D01*
X157130000Y-48835826D01*
X157130000Y-48704174D01*
X157095925Y-48577007D01*
X157063012Y-48520000D01*
X157960636Y-48520000D01*
X157960635Y-48519999D01*
X157903432Y-48306513D01*
X157903429Y-48306507D01*
X157803600Y-48092422D01*
X157803599Y-48092420D01*
X157668113Y-47898926D01*
X157668108Y-47898920D01*
X157501082Y-47731894D01*
X157307578Y-47596399D01*
X157093492Y-47496570D01*
X157093486Y-47496567D01*
X156971349Y-47463841D01*
X156911689Y-47427476D01*
X156881160Y-47364629D01*
X156889455Y-47295253D01*
X156933940Y-47241375D01*
X156967444Y-47225407D01*
X157033954Y-47205232D01*
X157216450Y-47107685D01*
X157376410Y-46976410D01*
X157507685Y-46816450D01*
X157605232Y-46633954D01*
X157665300Y-46435934D01*
X157685583Y-46230000D01*
X157665300Y-46024066D01*
X157605232Y-45826046D01*
X157507685Y-45643550D01*
X157425597Y-45543525D01*
X157376410Y-45483589D01*
X157258677Y-45386969D01*
X157216450Y-45352315D01*
X157033954Y-45254768D01*
X156916889Y-45219257D01*
X156833183Y-45193865D01*
X156774744Y-45155567D01*
X156746288Y-45091755D01*
X156756848Y-45022688D01*
X156803072Y-44970294D01*
X156869788Y-44951206D01*
X158118614Y-44957389D01*
X158185555Y-44977405D01*
X158231048Y-45030435D01*
X158242000Y-45081387D01*
X158242000Y-51562000D01*
X163706000Y-51562000D01*
X163773039Y-51581685D01*
X163818794Y-51634489D01*
X163830000Y-51686000D01*
X163830000Y-63262107D01*
X163810315Y-63329146D01*
X163757511Y-63374901D01*
X163688353Y-63384845D01*
X163624797Y-63355820D01*
X163598613Y-63324107D01*
X163584067Y-63298913D01*
X163584063Y-63298908D01*
X162253091Y-61967936D01*
X162253090Y-61967935D01*
X162178410Y-61924819D01*
X162178411Y-61924819D01*
X162150645Y-61917379D01*
X162095116Y-61902500D01*
X162095114Y-61902500D01*
X151825017Y-61902500D01*
X151757978Y-61882815D01*
X151737336Y-61866181D01*
X145243154Y-55371999D01*
X157649785Y-55371999D01*
X157649785Y-55372000D01*
X157668602Y-55575082D01*
X157724417Y-55771247D01*
X157724422Y-55771260D01*
X157815327Y-55953821D01*
X157938237Y-56116581D01*
X158088958Y-56253980D01*
X158088960Y-56253982D01*
X158106314Y-56264727D01*
X158262363Y-56361348D01*
X158452544Y-56435024D01*
X158653024Y-56472500D01*
X158653026Y-56472500D01*
X158856974Y-56472500D01*
X158856976Y-56472500D01*
X159057456Y-56435024D01*
X159247637Y-56361348D01*
X159421041Y-56253981D01*
X159571764Y-56116579D01*
X159672046Y-55983783D01*
X159728155Y-55942148D01*
X159797867Y-55937457D01*
X159859049Y-55971199D01*
X159892276Y-56032662D01*
X159895000Y-56058511D01*
X159895000Y-56319844D01*
X159901401Y-56379372D01*
X159901403Y-56379379D01*
X159951645Y-56514086D01*
X159951649Y-56514093D01*
X160037809Y-56629187D01*
X160037812Y-56629190D01*
X160152906Y-56715350D01*
X160152913Y-56715354D01*
X160287620Y-56765596D01*
X160287627Y-56765598D01*
X160347155Y-56771999D01*
X160347172Y-56772000D01*
X161045000Y-56772000D01*
X161045000Y-55747277D01*
X161121306Y-55791333D01*
X161235756Y-55822000D01*
X161354244Y-55822000D01*
X161468694Y-55791333D01*
X161545000Y-55747277D01*
X161545000Y-56772000D01*
X162242828Y-56772000D01*
X162242844Y-56771999D01*
X162302372Y-56765598D01*
X162302379Y-56765596D01*
X162437086Y-56715354D01*
X162437093Y-56715350D01*
X162552187Y-56629190D01*
X162552190Y-56629187D01*
X162638350Y-56514093D01*
X162638354Y-56514086D01*
X162688596Y-56379379D01*
X162688598Y-56379372D01*
X162694999Y-56319844D01*
X162695000Y-56319827D01*
X162695000Y-55622000D01*
X161670278Y-55622000D01*
X161714333Y-55545694D01*
X161745000Y-55431244D01*
X161745000Y-55312756D01*
X161714333Y-55198306D01*
X161670278Y-55122000D01*
X162695000Y-55122000D01*
X162695000Y-54424172D01*
X162694999Y-54424155D01*
X162688598Y-54364627D01*
X162688596Y-54364620D01*
X162638354Y-54229913D01*
X162638350Y-54229906D01*
X162552190Y-54114812D01*
X162552187Y-54114809D01*
X162437093Y-54028649D01*
X162437086Y-54028645D01*
X162302379Y-53978403D01*
X162302372Y-53978401D01*
X162242844Y-53972000D01*
X161545000Y-53972000D01*
X161545000Y-54996722D01*
X161468694Y-54952667D01*
X161354244Y-54922000D01*
X161235756Y-54922000D01*
X161121306Y-54952667D01*
X161045000Y-54996722D01*
X161045000Y-53972000D01*
X160347155Y-53972000D01*
X160287627Y-53978401D01*
X160287620Y-53978403D01*
X160152913Y-54028645D01*
X160152906Y-54028649D01*
X160037812Y-54114809D01*
X160037809Y-54114812D01*
X159951649Y-54229906D01*
X159951645Y-54229913D01*
X159901403Y-54364620D01*
X159901401Y-54364627D01*
X159895000Y-54424155D01*
X159895000Y-54685488D01*
X159875315Y-54752527D01*
X159822511Y-54798282D01*
X159753353Y-54808226D01*
X159689797Y-54779201D01*
X159672046Y-54760215D01*
X159571762Y-54627419D01*
X159421041Y-54490019D01*
X159421039Y-54490017D01*
X159247642Y-54382655D01*
X159247635Y-54382651D01*
X159101462Y-54326024D01*
X159057456Y-54308976D01*
X158856976Y-54271500D01*
X158653024Y-54271500D01*
X158452544Y-54308976D01*
X158452541Y-54308976D01*
X158452541Y-54308977D01*
X158262364Y-54382651D01*
X158262357Y-54382655D01*
X158088960Y-54490017D01*
X158088958Y-54490019D01*
X157938237Y-54627418D01*
X157815327Y-54790178D01*
X157724422Y-54972739D01*
X157724417Y-54972752D01*
X157668602Y-55168917D01*
X157649785Y-55371999D01*
X145243154Y-55371999D01*
X143211155Y-53340000D01*
X145552659Y-53340000D01*
X145571975Y-53536129D01*
X145629188Y-53724733D01*
X145722086Y-53898532D01*
X145722090Y-53898539D01*
X145847116Y-54050883D01*
X145999460Y-54175909D01*
X145999467Y-54175913D01*
X146173266Y-54268811D01*
X146173269Y-54268811D01*
X146173273Y-54268814D01*
X146361868Y-54326024D01*
X146558000Y-54345341D01*
X146754132Y-54326024D01*
X146942727Y-54268814D01*
X147116538Y-54175910D01*
X147268883Y-54050883D01*
X147393910Y-53898538D01*
X147486814Y-53724727D01*
X147544024Y-53536132D01*
X147563341Y-53340000D01*
X153172659Y-53340000D01*
X153191975Y-53536129D01*
X153249188Y-53724733D01*
X153342086Y-53898532D01*
X153342090Y-53898539D01*
X153467116Y-54050883D01*
X153619460Y-54175909D01*
X153619467Y-54175913D01*
X153793266Y-54268811D01*
X153793269Y-54268811D01*
X153793273Y-54268814D01*
X153981868Y-54326024D01*
X154178000Y-54345341D01*
X154374132Y-54326024D01*
X154562727Y-54268814D01*
X154736538Y-54175910D01*
X154888883Y-54050883D01*
X155013910Y-53898538D01*
X155106814Y-53724727D01*
X155164024Y-53536132D01*
X155183341Y-53340000D01*
X155164024Y-53143868D01*
X155106814Y-52955273D01*
X155106811Y-52955269D01*
X155106811Y-52955266D01*
X155013913Y-52781467D01*
X155013909Y-52781460D01*
X154888883Y-52629116D01*
X154736539Y-52504090D01*
X154736532Y-52504086D01*
X154562733Y-52411188D01*
X154562727Y-52411186D01*
X154374132Y-52353976D01*
X154374129Y-52353975D01*
X154178000Y-52334659D01*
X153981870Y-52353975D01*
X153793266Y-52411188D01*
X153619467Y-52504086D01*
X153619460Y-52504090D01*
X153467116Y-52629116D01*
X153342090Y-52781460D01*
X153342086Y-52781467D01*
X153249188Y-52955266D01*
X153191975Y-53143870D01*
X153172659Y-53340000D01*
X147563341Y-53340000D01*
X147544024Y-53143868D01*
X147486814Y-52955273D01*
X147486811Y-52955269D01*
X147486811Y-52955266D01*
X147393913Y-52781467D01*
X147393909Y-52781460D01*
X147268883Y-52629116D01*
X147116539Y-52504090D01*
X147116532Y-52504086D01*
X146942733Y-52411188D01*
X146942727Y-52411186D01*
X146754132Y-52353976D01*
X146754129Y-52353975D01*
X146558000Y-52334659D01*
X146361870Y-52353975D01*
X146173266Y-52411188D01*
X145999467Y-52504086D01*
X145999460Y-52504090D01*
X145847116Y-52629116D01*
X145722090Y-52781460D01*
X145722086Y-52781467D01*
X145629188Y-52955266D01*
X145571975Y-53143870D01*
X145552659Y-53340000D01*
X143211155Y-53340000D01*
X140503700Y-50632545D01*
X140470215Y-50571222D01*
X140467381Y-50544864D01*
X140467381Y-49633975D01*
X140487066Y-49566936D01*
X140539870Y-49521181D01*
X140609028Y-49511237D01*
X140670046Y-49538122D01*
X140793878Y-49639748D01*
X140803550Y-49647685D01*
X140986046Y-49745232D01*
X141184066Y-49805300D01*
X141184065Y-49805300D01*
X141201143Y-49806982D01*
X141390000Y-49825583D01*
X141595934Y-49805300D01*
X141793954Y-49745232D01*
X141976450Y-49647685D01*
X142136410Y-49516410D01*
X142267685Y-49356450D01*
X142365232Y-49173954D01*
X142425300Y-48975934D01*
X142445583Y-48770000D01*
X142874417Y-48770000D01*
X142894699Y-48975932D01*
X142894700Y-48975934D01*
X142954768Y-49173954D01*
X143052315Y-49356450D01*
X143052317Y-49356452D01*
X143183589Y-49516410D01*
X143245156Y-49566936D01*
X143343550Y-49647685D01*
X143526046Y-49745232D01*
X143724066Y-49805300D01*
X143724065Y-49805300D01*
X143741143Y-49806982D01*
X143930000Y-49825583D01*
X144135934Y-49805300D01*
X144333954Y-49745232D01*
X144516450Y-49647685D01*
X144676410Y-49516410D01*
X144807685Y-49356450D01*
X144905232Y-49173954D01*
X144965300Y-48975934D01*
X144985583Y-48770000D01*
X145414417Y-48770000D01*
X145434699Y-48975932D01*
X145434700Y-48975934D01*
X145494768Y-49173954D01*
X145592315Y-49356450D01*
X145592317Y-49356452D01*
X145723589Y-49516410D01*
X145785156Y-49566936D01*
X145883550Y-49647685D01*
X146066046Y-49745232D01*
X146264066Y-49805300D01*
X146264065Y-49805300D01*
X146281143Y-49806982D01*
X146470000Y-49825583D01*
X146675934Y-49805300D01*
X146873954Y-49745232D01*
X147056450Y-49647685D01*
X147216410Y-49516410D01*
X147347685Y-49356450D01*
X147445232Y-49173954D01*
X147505300Y-48975934D01*
X147525583Y-48770000D01*
X147505300Y-48564066D01*
X147445232Y-48366046D01*
X147347685Y-48183550D01*
X147272897Y-48092420D01*
X147216410Y-48023589D01*
X147066121Y-47900252D01*
X147056450Y-47892315D01*
X146873954Y-47794768D01*
X146675934Y-47734700D01*
X146675932Y-47734699D01*
X146675934Y-47734699D01*
X146470000Y-47714417D01*
X146264067Y-47734699D01*
X146129736Y-47775448D01*
X146066050Y-47794767D01*
X146066043Y-47794769D01*
X145955898Y-47853643D01*
X145883550Y-47892315D01*
X145883548Y-47892316D01*
X145883547Y-47892317D01*
X145723589Y-48023589D01*
X145592317Y-48183547D01*
X145494769Y-48366043D01*
X145434699Y-48564067D01*
X145414417Y-48770000D01*
X144985583Y-48770000D01*
X144965300Y-48564066D01*
X144905232Y-48366046D01*
X144807685Y-48183550D01*
X144732897Y-48092420D01*
X144676410Y-48023589D01*
X144526121Y-47900252D01*
X144516450Y-47892315D01*
X144333954Y-47794768D01*
X144135934Y-47734700D01*
X144135932Y-47734699D01*
X144135934Y-47734699D01*
X143930000Y-47714417D01*
X143724067Y-47734699D01*
X143589736Y-47775448D01*
X143526050Y-47794767D01*
X143526043Y-47794769D01*
X143415898Y-47853643D01*
X143343550Y-47892315D01*
X143343548Y-47892316D01*
X143343547Y-47892317D01*
X143183589Y-48023589D01*
X143052317Y-48183547D01*
X142954769Y-48366043D01*
X142894699Y-48564067D01*
X142874417Y-48770000D01*
X142445583Y-48770000D01*
X142425300Y-48564066D01*
X142365232Y-48366046D01*
X142267685Y-48183550D01*
X142192897Y-48092420D01*
X142136410Y-48023589D01*
X141986121Y-47900252D01*
X141976450Y-47892315D01*
X141793954Y-47794768D01*
X141595934Y-47734700D01*
X141595932Y-47734699D01*
X141595934Y-47734699D01*
X141390000Y-47714417D01*
X141184067Y-47734699D01*
X141049736Y-47775448D01*
X140986050Y-47794767D01*
X140986043Y-47794769D01*
X140875898Y-47853643D01*
X140803550Y-47892315D01*
X140803548Y-47892316D01*
X140803547Y-47892317D01*
X140648208Y-48019799D01*
X140583898Y-48047111D01*
X140515031Y-48035320D01*
X140463471Y-47988167D01*
X140449770Y-47956040D01*
X140445063Y-47938475D01*
X140445062Y-47938471D01*
X140401946Y-47863791D01*
X140340971Y-47802816D01*
X139774090Y-47235935D01*
X139699410Y-47192819D01*
X139699407Y-47192818D01*
X139654954Y-47180906D01*
X139595294Y-47144540D01*
X139564766Y-47081692D01*
X139573063Y-47012317D01*
X139593599Y-46981985D01*
X139592545Y-46981120D01*
X139644484Y-46917831D01*
X139727685Y-46816450D01*
X139825232Y-46633954D01*
X139885300Y-46435934D01*
X139905583Y-46230000D01*
X140334417Y-46230000D01*
X140354699Y-46435932D01*
X140354700Y-46435934D01*
X140414768Y-46633954D01*
X140512315Y-46816450D01*
X140512317Y-46816452D01*
X140643589Y-46976410D01*
X140721520Y-47040365D01*
X140803550Y-47107685D01*
X140986046Y-47205232D01*
X141184066Y-47265300D01*
X141184065Y-47265300D01*
X141202529Y-47267118D01*
X141390000Y-47285583D01*
X141595934Y-47265300D01*
X141793954Y-47205232D01*
X141976450Y-47107685D01*
X142136410Y-46976410D01*
X142267685Y-46816450D01*
X142365232Y-46633954D01*
X142425300Y-46435934D01*
X142445583Y-46230000D01*
X142874417Y-46230000D01*
X142894699Y-46435932D01*
X142894700Y-46435934D01*
X142954768Y-46633954D01*
X143052315Y-46816450D01*
X143052317Y-46816452D01*
X143183589Y-46976410D01*
X143261520Y-47040365D01*
X143343550Y-47107685D01*
X143526046Y-47205232D01*
X143724066Y-47265300D01*
X143724065Y-47265300D01*
X143742529Y-47267118D01*
X143930000Y-47285583D01*
X144135934Y-47265300D01*
X144333954Y-47205232D01*
X144516450Y-47107685D01*
X144676410Y-46976410D01*
X144807685Y-46816450D01*
X144905232Y-46633954D01*
X144965300Y-46435934D01*
X144985583Y-46230000D01*
X144965300Y-46024066D01*
X144905232Y-45826046D01*
X144807685Y-45643550D01*
X144725597Y-45543525D01*
X144676410Y-45483589D01*
X144558677Y-45386969D01*
X144516450Y-45352315D01*
X144333954Y-45254768D01*
X144135934Y-45194700D01*
X144135932Y-45194699D01*
X144135934Y-45194699D01*
X143930000Y-45174417D01*
X143724067Y-45194699D01*
X143526043Y-45254769D01*
X143435012Y-45303427D01*
X143343550Y-45352315D01*
X143343548Y-45352316D01*
X143343547Y-45352317D01*
X143183589Y-45483589D01*
X143070610Y-45621257D01*
X143052315Y-45643550D01*
X143014307Y-45714657D01*
X142954769Y-45826043D01*
X142894699Y-46024067D01*
X142874417Y-46230000D01*
X142445583Y-46230000D01*
X142425300Y-46024066D01*
X142365232Y-45826046D01*
X142267685Y-45643550D01*
X142185597Y-45543525D01*
X142136410Y-45483589D01*
X142018677Y-45386969D01*
X141976450Y-45352315D01*
X141793954Y-45254768D01*
X141595934Y-45194700D01*
X141595932Y-45194699D01*
X141595934Y-45194699D01*
X141390000Y-45174417D01*
X141184067Y-45194699D01*
X140986043Y-45254769D01*
X140895012Y-45303427D01*
X140803550Y-45352315D01*
X140803548Y-45352316D01*
X140803547Y-45352317D01*
X140643589Y-45483589D01*
X140530610Y-45621257D01*
X140512315Y-45643550D01*
X140474307Y-45714657D01*
X140414769Y-45826043D01*
X140354699Y-46024067D01*
X140334417Y-46230000D01*
X139905583Y-46230000D01*
X139885300Y-46024066D01*
X139825232Y-45826046D01*
X139727685Y-45643550D01*
X139645597Y-45543525D01*
X139596410Y-45483589D01*
X139478677Y-45386969D01*
X139436450Y-45352315D01*
X139253954Y-45254768D01*
X139055934Y-45194700D01*
X139055932Y-45194699D01*
X139055934Y-45194699D01*
X138850000Y-45174417D01*
X138644067Y-45194699D01*
X138446043Y-45254769D01*
X138355012Y-45303427D01*
X138263550Y-45352315D01*
X138263548Y-45352316D01*
X138263547Y-45352317D01*
X138103590Y-45483589D01*
X138088231Y-45502304D01*
X138030484Y-45541637D01*
X137960639Y-45543506D01*
X137900872Y-45507317D01*
X137884992Y-45485637D01*
X137868874Y-45457720D01*
X137868870Y-45457715D01*
X137478480Y-45067325D01*
X137444995Y-45006002D01*
X137449979Y-44936310D01*
X137491851Y-44880377D01*
X137557315Y-44855960D01*
X137566738Y-44855647D01*
X148151632Y-44908047D01*
G37*
%TD.AperFunction*%
M02*
