M48
; DRILL file {KiCad 8.0.8} date 2025-03-21T11:15:18+0200
; FORMAT={-:-/ absolute / metric / decimal}
; #@! TF.CreationDate,2025-03-21T11:15:18+02:00
; #@! TF.GenerationSoftware,Kicad,Pcbnew,8.0.8
; #@! TF.FileFunction,Plated,1,2,PTH
FMAT,2
METRIC
; #@! TA.AperFunction,Plated,PTH,ComponentDrill
T1C0.800
; #@! TA.AperFunction,Plated,PTH,ComponentDrill
T2C0.900
; #@! TA.AperFunction,Plated,PTH,ComponentDrill
T3C1.000
; #@! TA.AperFunction,Plated,PTH,ComponentDrill
T4C1.100
; #@! TA.AperFunction,Plated,PTH,ComponentDrill
T5C1.200
; #@! TA.AperFunction,Plated,PTH,ComponentDrill
T6C1.300
%
G90
G05
T1
X107.99Y-76.5
X110.49Y-76.5
X119.88Y-67.42
X119.88Y-69.96
X119.88Y-72.5
X119.88Y-75.04
X127.5Y-67.42
X127.5Y-69.96
X127.5Y-72.5
X127.5Y-75.04
X144.526Y-93.98
X147.066Y-93.98
X149.098Y-71.882
X149.098Y-74.382
X149.606Y-93.98
T2
X108.0Y-56.0
X108.0Y-58.54
X108.966Y-84.074
X108.966Y-86.614
X158.242Y-57.658
X160.782Y-57.658
T3
X108.0Y-66.618
X108.37Y-46.23
X108.37Y-48.77
X110.91Y-46.23
X110.91Y-48.77
X113.45Y-46.23
X113.45Y-48.77
X115.5Y-66.618
X115.99Y-46.23
X115.99Y-48.77
X118.53Y-46.23
X118.53Y-48.77
X121.07Y-46.23
X121.07Y-48.77
X123.61Y-46.23
X123.61Y-48.77
X126.15Y-46.23
X126.15Y-48.77
X128.69Y-46.23
X128.69Y-48.77
X131.23Y-46.23
X131.23Y-48.77
X133.77Y-46.23
X133.77Y-48.77
X136.31Y-46.23
X136.31Y-48.77
X138.85Y-46.23
X138.85Y-48.77
X141.39Y-46.23
X141.39Y-48.77
X143.93Y-46.23
X143.93Y-48.77
X146.47Y-46.23
X146.47Y-48.77
X149.01Y-46.23
X149.01Y-48.77
X151.55Y-46.23
X151.55Y-48.77
X154.09Y-46.23
X154.09Y-48.77
X156.63Y-46.23
X156.63Y-48.77
X160.782Y-66.04
X160.782Y-68.58
X160.782Y-71.12
X160.782Y-73.66
T4
X152.198Y-81.824
X152.198Y-86.324
X158.698Y-81.824
X158.698Y-86.324
T5
X115.062Y-55.88
X120.142Y-55.88
X132.842Y-69.596
X132.842Y-74.676
X148.082Y-53.848
X153.162Y-53.848
T6
X138.724Y-70.652
X138.724Y-75.652
X141.224Y-73.152
M30
