%TF.GenerationSoftware,KiCad,Pcbnew,8.0.8*%
%TF.CreationDate,2025-03-21T11:13:47+02:00*%
%TF.ProjectId,Adacel,41646163-656c-42e6-9b69-6361645f7063,rev?*%
%TF.SameCoordinates,Original*%
%TF.FileFunction,Drillmap*%
%TF.FilePolarity,Positive*%
%FSLAX45Y45*%
G04 Gerber Fmt 4.5, Leading zero omitted, Abs format (unit mm)*
G04 Created by KiCad (PCBNEW 8.0.8) date 2025-03-21 11:13:47*
%MOMM*%
%LPD*%
G01*
G04 APERTURE LIST*
%ADD10C,0.100000*%
%ADD11C,0.200000*%
%ADD12C,0.110000*%
%ADD13C,0.120000*%
%ADD14C,0.130000*%
G04 APERTURE END LIST*
D10*
X16200000Y-4400000D02*
G75*
G02*
X16500000Y-4700000I0J-300000D01*
G01*
X16500000Y-9700000D02*
X16500000Y-4700000D01*
X10300000Y-10000000D02*
G75*
G02*
X10000000Y-9700000I0J300000D01*
G01*
X10300000Y-10000000D02*
X16200000Y-10000000D01*
X16500000Y-9700000D02*
G75*
G02*
X16200000Y-10000000I-300000J0D01*
G01*
X10000000Y-4700000D02*
G75*
G02*
X10300000Y-4400000I300000J0D01*
G01*
X10000000Y-4700000D02*
X10000000Y-9700000D01*
X16200000Y-4400000D02*
X10300000Y-4400000D01*
D11*
D10*
X10759000Y-7610000D02*
X10839000Y-7690000D01*
X10839000Y-7610000D02*
X10759000Y-7690000D01*
X11009000Y-7610000D02*
X11089000Y-7690000D01*
X11089000Y-7610000D02*
X11009000Y-7690000D01*
X11948000Y-6702000D02*
X12028000Y-6782000D01*
X12028000Y-6702000D02*
X11948000Y-6782000D01*
X11948000Y-6956000D02*
X12028000Y-7036000D01*
X12028000Y-6956000D02*
X11948000Y-7036000D01*
X11948000Y-7210000D02*
X12028000Y-7290000D01*
X12028000Y-7210000D02*
X11948000Y-7290000D01*
X11948000Y-7464000D02*
X12028000Y-7544000D01*
X12028000Y-7464000D02*
X11948000Y-7544000D01*
X12710000Y-6702000D02*
X12790000Y-6782000D01*
X12790000Y-6702000D02*
X12710000Y-6782000D01*
X12710000Y-6956000D02*
X12790000Y-7036000D01*
X12790000Y-6956000D02*
X12710000Y-7036000D01*
X12710000Y-7210000D02*
X12790000Y-7290000D01*
X12790000Y-7210000D02*
X12710000Y-7290000D01*
X12710000Y-7464000D02*
X12790000Y-7544000D01*
X12790000Y-7464000D02*
X12710000Y-7544000D01*
X14412600Y-9358000D02*
X14492600Y-9438000D01*
X14492600Y-9358000D02*
X14412600Y-9438000D01*
X14666600Y-9358000D02*
X14746600Y-9438000D01*
X14746600Y-9358000D02*
X14666600Y-9438000D01*
X14869800Y-7148200D02*
X14949800Y-7228200D01*
X14949800Y-7148200D02*
X14869800Y-7228200D01*
X14869800Y-7398200D02*
X14949800Y-7478200D01*
X14949800Y-7398200D02*
X14869800Y-7478200D01*
X14920600Y-9358000D02*
X15000600Y-9438000D01*
X15000600Y-9358000D02*
X14920600Y-9438000D01*
X10845000Y-5600000D02*
G75*
G02*
X10755000Y-5600000I-45000J0D01*
G01*
X10755000Y-5600000D02*
G75*
G02*
X10845000Y-5600000I45000J0D01*
G01*
X10845000Y-5854000D02*
G75*
G02*
X10755000Y-5854000I-45000J0D01*
G01*
X10755000Y-5854000D02*
G75*
G02*
X10845000Y-5854000I45000J0D01*
G01*
X10941600Y-8407400D02*
G75*
G02*
X10851600Y-8407400I-45000J0D01*
G01*
X10851600Y-8407400D02*
G75*
G02*
X10941600Y-8407400I45000J0D01*
G01*
X10941600Y-8661400D02*
G75*
G02*
X10851600Y-8661400I-45000J0D01*
G01*
X10851600Y-8661400D02*
G75*
G02*
X10941600Y-8661400I45000J0D01*
G01*
X15869200Y-5765800D02*
G75*
G02*
X15779200Y-5765800I-45000J0D01*
G01*
X15779200Y-5765800D02*
G75*
G02*
X15869200Y-5765800I45000J0D01*
G01*
X16123200Y-5765800D02*
G75*
G02*
X16033200Y-5765800I-45000J0D01*
G01*
X16033200Y-5765800D02*
G75*
G02*
X16123200Y-5765800I45000J0D01*
G01*
X10800000Y-6611800D02*
X10800000Y-6711800D01*
X10750000Y-6661800D02*
X10850000Y-6661800D01*
X10837000Y-4573000D02*
X10837000Y-4673000D01*
X10787000Y-4623000D02*
X10887000Y-4623000D01*
X10837000Y-4827000D02*
X10837000Y-4927000D01*
X10787000Y-4877000D02*
X10887000Y-4877000D01*
X11091000Y-4573000D02*
X11091000Y-4673000D01*
X11041000Y-4623000D02*
X11141000Y-4623000D01*
X11091000Y-4827000D02*
X11091000Y-4927000D01*
X11041000Y-4877000D02*
X11141000Y-4877000D01*
X11345000Y-4573000D02*
X11345000Y-4673000D01*
X11295000Y-4623000D02*
X11395000Y-4623000D01*
X11345000Y-4827000D02*
X11345000Y-4927000D01*
X11295000Y-4877000D02*
X11395000Y-4877000D01*
X11550000Y-6611800D02*
X11550000Y-6711800D01*
X11500000Y-6661800D02*
X11600000Y-6661800D01*
X11599000Y-4573000D02*
X11599000Y-4673000D01*
X11549000Y-4623000D02*
X11649000Y-4623000D01*
X11599000Y-4827000D02*
X11599000Y-4927000D01*
X11549000Y-4877000D02*
X11649000Y-4877000D01*
X11853000Y-4573000D02*
X11853000Y-4673000D01*
X11803000Y-4623000D02*
X11903000Y-4623000D01*
X11853000Y-4827000D02*
X11853000Y-4927000D01*
X11803000Y-4877000D02*
X11903000Y-4877000D01*
X12107000Y-4573000D02*
X12107000Y-4673000D01*
X12057000Y-4623000D02*
X12157000Y-4623000D01*
X12107000Y-4827000D02*
X12107000Y-4927000D01*
X12057000Y-4877000D02*
X12157000Y-4877000D01*
X12361000Y-4573000D02*
X12361000Y-4673000D01*
X12311000Y-4623000D02*
X12411000Y-4623000D01*
X12361000Y-4827000D02*
X12361000Y-4927000D01*
X12311000Y-4877000D02*
X12411000Y-4877000D01*
X12615000Y-4573000D02*
X12615000Y-4673000D01*
X12565000Y-4623000D02*
X12665000Y-4623000D01*
X12615000Y-4827000D02*
X12615000Y-4927000D01*
X12565000Y-4877000D02*
X12665000Y-4877000D01*
X12869000Y-4573000D02*
X12869000Y-4673000D01*
X12819000Y-4623000D02*
X12919000Y-4623000D01*
X12869000Y-4827000D02*
X12869000Y-4927000D01*
X12819000Y-4877000D02*
X12919000Y-4877000D01*
X13123000Y-4573000D02*
X13123000Y-4673000D01*
X13073000Y-4623000D02*
X13173000Y-4623000D01*
X13123000Y-4827000D02*
X13123000Y-4927000D01*
X13073000Y-4877000D02*
X13173000Y-4877000D01*
X13377000Y-4573000D02*
X13377000Y-4673000D01*
X13327000Y-4623000D02*
X13427000Y-4623000D01*
X13377000Y-4827000D02*
X13377000Y-4927000D01*
X13327000Y-4877000D02*
X13427000Y-4877000D01*
X13631000Y-4573000D02*
X13631000Y-4673000D01*
X13581000Y-4623000D02*
X13681000Y-4623000D01*
X13631000Y-4827000D02*
X13631000Y-4927000D01*
X13581000Y-4877000D02*
X13681000Y-4877000D01*
X13885000Y-4573000D02*
X13885000Y-4673000D01*
X13835000Y-4623000D02*
X13935000Y-4623000D01*
X13885000Y-4827000D02*
X13885000Y-4927000D01*
X13835000Y-4877000D02*
X13935000Y-4877000D01*
X14139000Y-4573000D02*
X14139000Y-4673000D01*
X14089000Y-4623000D02*
X14189000Y-4623000D01*
X14139000Y-4827000D02*
X14139000Y-4927000D01*
X14089000Y-4877000D02*
X14189000Y-4877000D01*
X14393000Y-4573000D02*
X14393000Y-4673000D01*
X14343000Y-4623000D02*
X14443000Y-4623000D01*
X14393000Y-4827000D02*
X14393000Y-4927000D01*
X14343000Y-4877000D02*
X14443000Y-4877000D01*
X14647000Y-4573000D02*
X14647000Y-4673000D01*
X14597000Y-4623000D02*
X14697000Y-4623000D01*
X14647000Y-4827000D02*
X14647000Y-4927000D01*
X14597000Y-4877000D02*
X14697000Y-4877000D01*
X14901000Y-4573000D02*
X14901000Y-4673000D01*
X14851000Y-4623000D02*
X14951000Y-4623000D01*
X14901000Y-4827000D02*
X14901000Y-4927000D01*
X14851000Y-4877000D02*
X14951000Y-4877000D01*
X15155000Y-4573000D02*
X15155000Y-4673000D01*
X15105000Y-4623000D02*
X15205000Y-4623000D01*
X15155000Y-4827000D02*
X15155000Y-4927000D01*
X15105000Y-4877000D02*
X15205000Y-4877000D01*
X15409000Y-4573000D02*
X15409000Y-4673000D01*
X15359000Y-4623000D02*
X15459000Y-4623000D01*
X15409000Y-4827000D02*
X15409000Y-4927000D01*
X15359000Y-4877000D02*
X15459000Y-4877000D01*
X15663000Y-4573000D02*
X15663000Y-4673000D01*
X15613000Y-4623000D02*
X15713000Y-4623000D01*
X15663000Y-4827000D02*
X15663000Y-4927000D01*
X15613000Y-4877000D02*
X15713000Y-4877000D01*
X16078200Y-6554000D02*
X16078200Y-6654000D01*
X16028200Y-6604000D02*
X16128200Y-6604000D01*
X16078200Y-6808000D02*
X16078200Y-6908000D01*
X16028200Y-6858000D02*
X16128200Y-6858000D01*
X16078200Y-7062000D02*
X16078200Y-7162000D01*
X16028200Y-7112000D02*
X16128200Y-7112000D01*
X16078200Y-7316000D02*
X16078200Y-7416000D01*
X16028200Y-7366000D02*
X16128200Y-7366000D01*
D12*
X15258691Y-8221291D02*
X15258691Y-8143509D01*
X15180909Y-8143509D01*
X15180909Y-8221291D01*
X15258691Y-8221291D01*
X15258691Y-8671291D02*
X15258691Y-8593509D01*
X15180909Y-8593509D01*
X15180909Y-8671291D01*
X15258691Y-8671291D01*
X15908691Y-8221291D02*
X15908691Y-8143509D01*
X15830909Y-8143509D01*
X15830909Y-8221291D01*
X15908691Y-8221291D01*
X15908691Y-8671291D02*
X15908691Y-8593509D01*
X15830909Y-8593509D01*
X15830909Y-8671291D01*
X15908691Y-8671291D01*
D13*
X11506200Y-5648000D02*
X11566200Y-5588000D01*
X11506200Y-5528000D01*
X11446200Y-5588000D01*
X11506200Y-5648000D01*
X12014200Y-5648000D02*
X12074200Y-5588000D01*
X12014200Y-5528000D01*
X11954200Y-5588000D01*
X12014200Y-5648000D01*
X13284200Y-7019600D02*
X13344200Y-6959600D01*
X13284200Y-6899600D01*
X13224200Y-6959600D01*
X13284200Y-7019600D01*
X13284200Y-7527600D02*
X13344200Y-7467600D01*
X13284200Y-7407600D01*
X13224200Y-7467600D01*
X13284200Y-7527600D01*
X14808200Y-5444800D02*
X14868200Y-5384800D01*
X14808200Y-5324800D01*
X14748200Y-5384800D01*
X14808200Y-5444800D01*
X15316200Y-5444800D02*
X15376200Y-5384800D01*
X15316200Y-5324800D01*
X15256200Y-5384800D01*
X15316200Y-5444800D01*
D14*
X13807400Y-7000200D02*
X13937400Y-7130200D01*
X13937400Y-7000200D02*
X13807400Y-7130200D01*
X13937400Y-7065200D02*
G75*
G02*
X13807400Y-7065200I-65000J0D01*
G01*
X13807400Y-7065200D02*
G75*
G02*
X13937400Y-7065200I65000J0D01*
G01*
X13807400Y-7500200D02*
X13937400Y-7630200D01*
X13937400Y-7500200D02*
X13807400Y-7630200D01*
X13937400Y-7565200D02*
G75*
G02*
X13807400Y-7565200I-65000J0D01*
G01*
X13807400Y-7565200D02*
G75*
G02*
X13937400Y-7565200I65000J0D01*
G01*
X14057400Y-7250200D02*
X14187400Y-7380200D01*
X14187400Y-7250200D02*
X14057400Y-7380200D01*
X14187400Y-7315200D02*
G75*
G02*
X14057400Y-7315200I-65000J0D01*
G01*
X14057400Y-7315200D02*
G75*
G02*
X14187400Y-7315200I65000J0D01*
G01*
D11*
X10255777Y-10316484D02*
X10255777Y-10116484D01*
X10255777Y-10116484D02*
X10303396Y-10116484D01*
X10303396Y-10116484D02*
X10331967Y-10126008D01*
X10331967Y-10126008D02*
X10351015Y-10145055D01*
X10351015Y-10145055D02*
X10360539Y-10164103D01*
X10360539Y-10164103D02*
X10370063Y-10202198D01*
X10370063Y-10202198D02*
X10370063Y-10230770D01*
X10370063Y-10230770D02*
X10360539Y-10268865D01*
X10360539Y-10268865D02*
X10351015Y-10287912D01*
X10351015Y-10287912D02*
X10331967Y-10306960D01*
X10331967Y-10306960D02*
X10303396Y-10316484D01*
X10303396Y-10316484D02*
X10255777Y-10316484D01*
X10455777Y-10316484D02*
X10455777Y-10183150D01*
X10455777Y-10221246D02*
X10465301Y-10202198D01*
X10465301Y-10202198D02*
X10474824Y-10192674D01*
X10474824Y-10192674D02*
X10493872Y-10183150D01*
X10493872Y-10183150D02*
X10512920Y-10183150D01*
X10579586Y-10316484D02*
X10579586Y-10183150D01*
X10579586Y-10116484D02*
X10570063Y-10126008D01*
X10570063Y-10126008D02*
X10579586Y-10135531D01*
X10579586Y-10135531D02*
X10589110Y-10126008D01*
X10589110Y-10126008D02*
X10579586Y-10116484D01*
X10579586Y-10116484D02*
X10579586Y-10135531D01*
X10703396Y-10316484D02*
X10684348Y-10306960D01*
X10684348Y-10306960D02*
X10674824Y-10287912D01*
X10674824Y-10287912D02*
X10674824Y-10116484D01*
X10808158Y-10316484D02*
X10789110Y-10306960D01*
X10789110Y-10306960D02*
X10779586Y-10287912D01*
X10779586Y-10287912D02*
X10779586Y-10116484D01*
X11036729Y-10316484D02*
X11036729Y-10116484D01*
X11036729Y-10116484D02*
X11103396Y-10259341D01*
X11103396Y-10259341D02*
X11170063Y-10116484D01*
X11170063Y-10116484D02*
X11170063Y-10316484D01*
X11351015Y-10316484D02*
X11351015Y-10211722D01*
X11351015Y-10211722D02*
X11341491Y-10192674D01*
X11341491Y-10192674D02*
X11322443Y-10183150D01*
X11322443Y-10183150D02*
X11284348Y-10183150D01*
X11284348Y-10183150D02*
X11265301Y-10192674D01*
X11351015Y-10306960D02*
X11331967Y-10316484D01*
X11331967Y-10316484D02*
X11284348Y-10316484D01*
X11284348Y-10316484D02*
X11265301Y-10306960D01*
X11265301Y-10306960D02*
X11255777Y-10287912D01*
X11255777Y-10287912D02*
X11255777Y-10268865D01*
X11255777Y-10268865D02*
X11265301Y-10249817D01*
X11265301Y-10249817D02*
X11284348Y-10240293D01*
X11284348Y-10240293D02*
X11331967Y-10240293D01*
X11331967Y-10240293D02*
X11351015Y-10230770D01*
X11446253Y-10183150D02*
X11446253Y-10383150D01*
X11446253Y-10192674D02*
X11465301Y-10183150D01*
X11465301Y-10183150D02*
X11503396Y-10183150D01*
X11503396Y-10183150D02*
X11522443Y-10192674D01*
X11522443Y-10192674D02*
X11531967Y-10202198D01*
X11531967Y-10202198D02*
X11541491Y-10221246D01*
X11541491Y-10221246D02*
X11541491Y-10278389D01*
X11541491Y-10278389D02*
X11531967Y-10297436D01*
X11531967Y-10297436D02*
X11522443Y-10306960D01*
X11522443Y-10306960D02*
X11503396Y-10316484D01*
X11503396Y-10316484D02*
X11465301Y-10316484D01*
X11465301Y-10316484D02*
X11446253Y-10306960D01*
X11627205Y-10297436D02*
X11636729Y-10306960D01*
X11636729Y-10306960D02*
X11627205Y-10316484D01*
X11627205Y-10316484D02*
X11617682Y-10306960D01*
X11617682Y-10306960D02*
X11627205Y-10297436D01*
X11627205Y-10297436D02*
X11627205Y-10316484D01*
X11627205Y-10192674D02*
X11636729Y-10202198D01*
X11636729Y-10202198D02*
X11627205Y-10211722D01*
X11627205Y-10211722D02*
X11617682Y-10202198D01*
X11617682Y-10202198D02*
X11627205Y-10192674D01*
X11627205Y-10192674D02*
X11627205Y-10211722D01*
D10*
X9915000Y-10605000D02*
X9995000Y-10685000D01*
X9995000Y-10605000D02*
X9915000Y-10685000D01*
D11*
X10293872Y-10536484D02*
X10312920Y-10536484D01*
X10312920Y-10536484D02*
X10331967Y-10546008D01*
X10331967Y-10546008D02*
X10341491Y-10555531D01*
X10341491Y-10555531D02*
X10351015Y-10574579D01*
X10351015Y-10574579D02*
X10360539Y-10612674D01*
X10360539Y-10612674D02*
X10360539Y-10660293D01*
X10360539Y-10660293D02*
X10351015Y-10698389D01*
X10351015Y-10698389D02*
X10341491Y-10717436D01*
X10341491Y-10717436D02*
X10331967Y-10726960D01*
X10331967Y-10726960D02*
X10312920Y-10736484D01*
X10312920Y-10736484D02*
X10293872Y-10736484D01*
X10293872Y-10736484D02*
X10274824Y-10726960D01*
X10274824Y-10726960D02*
X10265301Y-10717436D01*
X10265301Y-10717436D02*
X10255777Y-10698389D01*
X10255777Y-10698389D02*
X10246253Y-10660293D01*
X10246253Y-10660293D02*
X10246253Y-10612674D01*
X10246253Y-10612674D02*
X10255777Y-10574579D01*
X10255777Y-10574579D02*
X10265301Y-10555531D01*
X10265301Y-10555531D02*
X10274824Y-10546008D01*
X10274824Y-10546008D02*
X10293872Y-10536484D01*
X10446253Y-10717436D02*
X10455777Y-10726960D01*
X10455777Y-10726960D02*
X10446253Y-10736484D01*
X10446253Y-10736484D02*
X10436729Y-10726960D01*
X10436729Y-10726960D02*
X10446253Y-10717436D01*
X10446253Y-10717436D02*
X10446253Y-10736484D01*
X10570063Y-10622198D02*
X10551015Y-10612674D01*
X10551015Y-10612674D02*
X10541491Y-10603150D01*
X10541491Y-10603150D02*
X10531967Y-10584103D01*
X10531967Y-10584103D02*
X10531967Y-10574579D01*
X10531967Y-10574579D02*
X10541491Y-10555531D01*
X10541491Y-10555531D02*
X10551015Y-10546008D01*
X10551015Y-10546008D02*
X10570063Y-10536484D01*
X10570063Y-10536484D02*
X10608158Y-10536484D01*
X10608158Y-10536484D02*
X10627205Y-10546008D01*
X10627205Y-10546008D02*
X10636729Y-10555531D01*
X10636729Y-10555531D02*
X10646253Y-10574579D01*
X10646253Y-10574579D02*
X10646253Y-10584103D01*
X10646253Y-10584103D02*
X10636729Y-10603150D01*
X10636729Y-10603150D02*
X10627205Y-10612674D01*
X10627205Y-10612674D02*
X10608158Y-10622198D01*
X10608158Y-10622198D02*
X10570063Y-10622198D01*
X10570063Y-10622198D02*
X10551015Y-10631722D01*
X10551015Y-10631722D02*
X10541491Y-10641246D01*
X10541491Y-10641246D02*
X10531967Y-10660293D01*
X10531967Y-10660293D02*
X10531967Y-10698389D01*
X10531967Y-10698389D02*
X10541491Y-10717436D01*
X10541491Y-10717436D02*
X10551015Y-10726960D01*
X10551015Y-10726960D02*
X10570063Y-10736484D01*
X10570063Y-10736484D02*
X10608158Y-10736484D01*
X10608158Y-10736484D02*
X10627205Y-10726960D01*
X10627205Y-10726960D02*
X10636729Y-10717436D01*
X10636729Y-10717436D02*
X10646253Y-10698389D01*
X10646253Y-10698389D02*
X10646253Y-10660293D01*
X10646253Y-10660293D02*
X10636729Y-10641246D01*
X10636729Y-10641246D02*
X10627205Y-10631722D01*
X10627205Y-10631722D02*
X10608158Y-10622198D01*
X10770063Y-10536484D02*
X10789110Y-10536484D01*
X10789110Y-10536484D02*
X10808158Y-10546008D01*
X10808158Y-10546008D02*
X10817682Y-10555531D01*
X10817682Y-10555531D02*
X10827205Y-10574579D01*
X10827205Y-10574579D02*
X10836729Y-10612674D01*
X10836729Y-10612674D02*
X10836729Y-10660293D01*
X10836729Y-10660293D02*
X10827205Y-10698389D01*
X10827205Y-10698389D02*
X10817682Y-10717436D01*
X10817682Y-10717436D02*
X10808158Y-10726960D01*
X10808158Y-10726960D02*
X10789110Y-10736484D01*
X10789110Y-10736484D02*
X10770063Y-10736484D01*
X10770063Y-10736484D02*
X10751015Y-10726960D01*
X10751015Y-10726960D02*
X10741491Y-10717436D01*
X10741491Y-10717436D02*
X10731967Y-10698389D01*
X10731967Y-10698389D02*
X10722444Y-10660293D01*
X10722444Y-10660293D02*
X10722444Y-10612674D01*
X10722444Y-10612674D02*
X10731967Y-10574579D01*
X10731967Y-10574579D02*
X10741491Y-10555531D01*
X10741491Y-10555531D02*
X10751015Y-10546008D01*
X10751015Y-10546008D02*
X10770063Y-10536484D01*
X10960539Y-10536484D02*
X10979586Y-10536484D01*
X10979586Y-10536484D02*
X10998634Y-10546008D01*
X10998634Y-10546008D02*
X11008158Y-10555531D01*
X11008158Y-10555531D02*
X11017682Y-10574579D01*
X11017682Y-10574579D02*
X11027205Y-10612674D01*
X11027205Y-10612674D02*
X11027205Y-10660293D01*
X11027205Y-10660293D02*
X11017682Y-10698389D01*
X11017682Y-10698389D02*
X11008158Y-10717436D01*
X11008158Y-10717436D02*
X10998634Y-10726960D01*
X10998634Y-10726960D02*
X10979586Y-10736484D01*
X10979586Y-10736484D02*
X10960539Y-10736484D01*
X10960539Y-10736484D02*
X10941491Y-10726960D01*
X10941491Y-10726960D02*
X10931967Y-10717436D01*
X10931967Y-10717436D02*
X10922444Y-10698389D01*
X10922444Y-10698389D02*
X10912920Y-10660293D01*
X10912920Y-10660293D02*
X10912920Y-10612674D01*
X10912920Y-10612674D02*
X10922444Y-10574579D01*
X10922444Y-10574579D02*
X10931967Y-10555531D01*
X10931967Y-10555531D02*
X10941491Y-10546008D01*
X10941491Y-10546008D02*
X10960539Y-10536484D01*
X11112920Y-10736484D02*
X11112920Y-10603150D01*
X11112920Y-10622198D02*
X11122444Y-10612674D01*
X11122444Y-10612674D02*
X11141491Y-10603150D01*
X11141491Y-10603150D02*
X11170063Y-10603150D01*
X11170063Y-10603150D02*
X11189110Y-10612674D01*
X11189110Y-10612674D02*
X11198634Y-10631722D01*
X11198634Y-10631722D02*
X11198634Y-10736484D01*
X11198634Y-10631722D02*
X11208158Y-10612674D01*
X11208158Y-10612674D02*
X11227205Y-10603150D01*
X11227205Y-10603150D02*
X11255777Y-10603150D01*
X11255777Y-10603150D02*
X11274824Y-10612674D01*
X11274824Y-10612674D02*
X11284348Y-10631722D01*
X11284348Y-10631722D02*
X11284348Y-10736484D01*
X11379586Y-10736484D02*
X11379586Y-10603150D01*
X11379586Y-10622198D02*
X11389110Y-10612674D01*
X11389110Y-10612674D02*
X11408158Y-10603150D01*
X11408158Y-10603150D02*
X11436729Y-10603150D01*
X11436729Y-10603150D02*
X11455777Y-10612674D01*
X11455777Y-10612674D02*
X11465301Y-10631722D01*
X11465301Y-10631722D02*
X11465301Y-10736484D01*
X11465301Y-10631722D02*
X11474824Y-10612674D01*
X11474824Y-10612674D02*
X11493872Y-10603150D01*
X11493872Y-10603150D02*
X11522443Y-10603150D01*
X11522443Y-10603150D02*
X11541491Y-10612674D01*
X11541491Y-10612674D02*
X11551015Y-10631722D01*
X11551015Y-10631722D02*
X11551015Y-10736484D01*
X11941491Y-10526960D02*
X11770063Y-10784103D01*
X12198634Y-10536484D02*
X12217682Y-10536484D01*
X12217682Y-10536484D02*
X12236729Y-10546008D01*
X12236729Y-10546008D02*
X12246253Y-10555531D01*
X12246253Y-10555531D02*
X12255777Y-10574579D01*
X12255777Y-10574579D02*
X12265301Y-10612674D01*
X12265301Y-10612674D02*
X12265301Y-10660293D01*
X12265301Y-10660293D02*
X12255777Y-10698389D01*
X12255777Y-10698389D02*
X12246253Y-10717436D01*
X12246253Y-10717436D02*
X12236729Y-10726960D01*
X12236729Y-10726960D02*
X12217682Y-10736484D01*
X12217682Y-10736484D02*
X12198634Y-10736484D01*
X12198634Y-10736484D02*
X12179586Y-10726960D01*
X12179586Y-10726960D02*
X12170063Y-10717436D01*
X12170063Y-10717436D02*
X12160539Y-10698389D01*
X12160539Y-10698389D02*
X12151015Y-10660293D01*
X12151015Y-10660293D02*
X12151015Y-10612674D01*
X12151015Y-10612674D02*
X12160539Y-10574579D01*
X12160539Y-10574579D02*
X12170063Y-10555531D01*
X12170063Y-10555531D02*
X12179586Y-10546008D01*
X12179586Y-10546008D02*
X12198634Y-10536484D01*
X12351015Y-10717436D02*
X12360539Y-10726960D01*
X12360539Y-10726960D02*
X12351015Y-10736484D01*
X12351015Y-10736484D02*
X12341491Y-10726960D01*
X12341491Y-10726960D02*
X12351015Y-10717436D01*
X12351015Y-10717436D02*
X12351015Y-10736484D01*
X12484348Y-10536484D02*
X12503396Y-10536484D01*
X12503396Y-10536484D02*
X12522444Y-10546008D01*
X12522444Y-10546008D02*
X12531967Y-10555531D01*
X12531967Y-10555531D02*
X12541491Y-10574579D01*
X12541491Y-10574579D02*
X12551015Y-10612674D01*
X12551015Y-10612674D02*
X12551015Y-10660293D01*
X12551015Y-10660293D02*
X12541491Y-10698389D01*
X12541491Y-10698389D02*
X12531967Y-10717436D01*
X12531967Y-10717436D02*
X12522444Y-10726960D01*
X12522444Y-10726960D02*
X12503396Y-10736484D01*
X12503396Y-10736484D02*
X12484348Y-10736484D01*
X12484348Y-10736484D02*
X12465301Y-10726960D01*
X12465301Y-10726960D02*
X12455777Y-10717436D01*
X12455777Y-10717436D02*
X12446253Y-10698389D01*
X12446253Y-10698389D02*
X12436729Y-10660293D01*
X12436729Y-10660293D02*
X12436729Y-10612674D01*
X12436729Y-10612674D02*
X12446253Y-10574579D01*
X12446253Y-10574579D02*
X12455777Y-10555531D01*
X12455777Y-10555531D02*
X12465301Y-10546008D01*
X12465301Y-10546008D02*
X12484348Y-10536484D01*
X12617682Y-10536484D02*
X12741491Y-10536484D01*
X12741491Y-10536484D02*
X12674825Y-10612674D01*
X12674825Y-10612674D02*
X12703396Y-10612674D01*
X12703396Y-10612674D02*
X12722444Y-10622198D01*
X12722444Y-10622198D02*
X12731967Y-10631722D01*
X12731967Y-10631722D02*
X12741491Y-10650770D01*
X12741491Y-10650770D02*
X12741491Y-10698389D01*
X12741491Y-10698389D02*
X12731967Y-10717436D01*
X12731967Y-10717436D02*
X12722444Y-10726960D01*
X12722444Y-10726960D02*
X12703396Y-10736484D01*
X12703396Y-10736484D02*
X12646253Y-10736484D01*
X12646253Y-10736484D02*
X12627206Y-10726960D01*
X12627206Y-10726960D02*
X12617682Y-10717436D01*
X12931967Y-10736484D02*
X12817682Y-10736484D01*
X12874825Y-10736484D02*
X12874825Y-10536484D01*
X12874825Y-10536484D02*
X12855777Y-10565055D01*
X12855777Y-10565055D02*
X12836729Y-10584103D01*
X12836729Y-10584103D02*
X12817682Y-10593627D01*
X13112920Y-10536484D02*
X13017682Y-10536484D01*
X13017682Y-10536484D02*
X13008158Y-10631722D01*
X13008158Y-10631722D02*
X13017682Y-10622198D01*
X13017682Y-10622198D02*
X13036729Y-10612674D01*
X13036729Y-10612674D02*
X13084348Y-10612674D01*
X13084348Y-10612674D02*
X13103396Y-10622198D01*
X13103396Y-10622198D02*
X13112920Y-10631722D01*
X13112920Y-10631722D02*
X13122444Y-10650770D01*
X13122444Y-10650770D02*
X13122444Y-10698389D01*
X13122444Y-10698389D02*
X13112920Y-10717436D01*
X13112920Y-10717436D02*
X13103396Y-10726960D01*
X13103396Y-10726960D02*
X13084348Y-10736484D01*
X13084348Y-10736484D02*
X13036729Y-10736484D01*
X13036729Y-10736484D02*
X13017682Y-10726960D01*
X13017682Y-10726960D02*
X13008158Y-10717436D01*
X13198634Y-10536484D02*
X13198634Y-10574579D01*
X13274825Y-10536484D02*
X13274825Y-10574579D01*
X13570063Y-10812674D02*
X13560539Y-10803150D01*
X13560539Y-10803150D02*
X13541491Y-10774579D01*
X13541491Y-10774579D02*
X13531968Y-10755531D01*
X13531968Y-10755531D02*
X13522444Y-10726960D01*
X13522444Y-10726960D02*
X13512920Y-10679341D01*
X13512920Y-10679341D02*
X13512920Y-10641246D01*
X13512920Y-10641246D02*
X13522444Y-10593627D01*
X13522444Y-10593627D02*
X13531968Y-10565055D01*
X13531968Y-10565055D02*
X13541491Y-10546008D01*
X13541491Y-10546008D02*
X13560539Y-10517436D01*
X13560539Y-10517436D02*
X13570063Y-10507912D01*
X13751015Y-10736484D02*
X13636729Y-10736484D01*
X13693872Y-10736484D02*
X13693872Y-10536484D01*
X13693872Y-10536484D02*
X13674825Y-10565055D01*
X13674825Y-10565055D02*
X13655777Y-10584103D01*
X13655777Y-10584103D02*
X13636729Y-10593627D01*
X13931968Y-10536484D02*
X13836729Y-10536484D01*
X13836729Y-10536484D02*
X13827206Y-10631722D01*
X13827206Y-10631722D02*
X13836729Y-10622198D01*
X13836729Y-10622198D02*
X13855777Y-10612674D01*
X13855777Y-10612674D02*
X13903396Y-10612674D01*
X13903396Y-10612674D02*
X13922444Y-10622198D01*
X13922444Y-10622198D02*
X13931968Y-10631722D01*
X13931968Y-10631722D02*
X13941491Y-10650770D01*
X13941491Y-10650770D02*
X13941491Y-10698389D01*
X13941491Y-10698389D02*
X13931968Y-10717436D01*
X13931968Y-10717436D02*
X13922444Y-10726960D01*
X13922444Y-10726960D02*
X13903396Y-10736484D01*
X13903396Y-10736484D02*
X13855777Y-10736484D01*
X13855777Y-10736484D02*
X13836729Y-10726960D01*
X13836729Y-10726960D02*
X13827206Y-10717436D01*
X14179587Y-10736484D02*
X14179587Y-10536484D01*
X14265301Y-10736484D02*
X14265301Y-10631722D01*
X14265301Y-10631722D02*
X14255777Y-10612674D01*
X14255777Y-10612674D02*
X14236730Y-10603150D01*
X14236730Y-10603150D02*
X14208158Y-10603150D01*
X14208158Y-10603150D02*
X14189110Y-10612674D01*
X14189110Y-10612674D02*
X14179587Y-10622198D01*
X14389110Y-10736484D02*
X14370063Y-10726960D01*
X14370063Y-10726960D02*
X14360539Y-10717436D01*
X14360539Y-10717436D02*
X14351015Y-10698389D01*
X14351015Y-10698389D02*
X14351015Y-10641246D01*
X14351015Y-10641246D02*
X14360539Y-10622198D01*
X14360539Y-10622198D02*
X14370063Y-10612674D01*
X14370063Y-10612674D02*
X14389110Y-10603150D01*
X14389110Y-10603150D02*
X14417682Y-10603150D01*
X14417682Y-10603150D02*
X14436730Y-10612674D01*
X14436730Y-10612674D02*
X14446253Y-10622198D01*
X14446253Y-10622198D02*
X14455777Y-10641246D01*
X14455777Y-10641246D02*
X14455777Y-10698389D01*
X14455777Y-10698389D02*
X14446253Y-10717436D01*
X14446253Y-10717436D02*
X14436730Y-10726960D01*
X14436730Y-10726960D02*
X14417682Y-10736484D01*
X14417682Y-10736484D02*
X14389110Y-10736484D01*
X14570063Y-10736484D02*
X14551015Y-10726960D01*
X14551015Y-10726960D02*
X14541491Y-10707912D01*
X14541491Y-10707912D02*
X14541491Y-10536484D01*
X14722444Y-10726960D02*
X14703396Y-10736484D01*
X14703396Y-10736484D02*
X14665301Y-10736484D01*
X14665301Y-10736484D02*
X14646253Y-10726960D01*
X14646253Y-10726960D02*
X14636730Y-10707912D01*
X14636730Y-10707912D02*
X14636730Y-10631722D01*
X14636730Y-10631722D02*
X14646253Y-10612674D01*
X14646253Y-10612674D02*
X14665301Y-10603150D01*
X14665301Y-10603150D02*
X14703396Y-10603150D01*
X14703396Y-10603150D02*
X14722444Y-10612674D01*
X14722444Y-10612674D02*
X14731968Y-10631722D01*
X14731968Y-10631722D02*
X14731968Y-10650770D01*
X14731968Y-10650770D02*
X14636730Y-10669817D01*
X14808158Y-10726960D02*
X14827206Y-10736484D01*
X14827206Y-10736484D02*
X14865301Y-10736484D01*
X14865301Y-10736484D02*
X14884349Y-10726960D01*
X14884349Y-10726960D02*
X14893872Y-10707912D01*
X14893872Y-10707912D02*
X14893872Y-10698389D01*
X14893872Y-10698389D02*
X14884349Y-10679341D01*
X14884349Y-10679341D02*
X14865301Y-10669817D01*
X14865301Y-10669817D02*
X14836730Y-10669817D01*
X14836730Y-10669817D02*
X14817682Y-10660293D01*
X14817682Y-10660293D02*
X14808158Y-10641246D01*
X14808158Y-10641246D02*
X14808158Y-10631722D01*
X14808158Y-10631722D02*
X14817682Y-10612674D01*
X14817682Y-10612674D02*
X14836730Y-10603150D01*
X14836730Y-10603150D02*
X14865301Y-10603150D01*
X14865301Y-10603150D02*
X14884349Y-10612674D01*
X14960539Y-10812674D02*
X14970063Y-10803150D01*
X14970063Y-10803150D02*
X14989111Y-10774579D01*
X14989111Y-10774579D02*
X14998634Y-10755531D01*
X14998634Y-10755531D02*
X15008158Y-10726960D01*
X15008158Y-10726960D02*
X15017682Y-10679341D01*
X15017682Y-10679341D02*
X15017682Y-10641246D01*
X15017682Y-10641246D02*
X15008158Y-10593627D01*
X15008158Y-10593627D02*
X14998634Y-10565055D01*
X14998634Y-10565055D02*
X14989111Y-10546008D01*
X14989111Y-10546008D02*
X14970063Y-10517436D01*
X14970063Y-10517436D02*
X14960539Y-10507912D01*
D10*
X9995000Y-10909000D02*
G75*
G02*
X9905000Y-10909000I-45000J0D01*
G01*
X9905000Y-10909000D02*
G75*
G02*
X9995000Y-10909000I45000J0D01*
G01*
D11*
X10293872Y-10800484D02*
X10312920Y-10800484D01*
X10312920Y-10800484D02*
X10331967Y-10810008D01*
X10331967Y-10810008D02*
X10341491Y-10819531D01*
X10341491Y-10819531D02*
X10351015Y-10838579D01*
X10351015Y-10838579D02*
X10360539Y-10876674D01*
X10360539Y-10876674D02*
X10360539Y-10924293D01*
X10360539Y-10924293D02*
X10351015Y-10962389D01*
X10351015Y-10962389D02*
X10341491Y-10981436D01*
X10341491Y-10981436D02*
X10331967Y-10990960D01*
X10331967Y-10990960D02*
X10312920Y-11000484D01*
X10312920Y-11000484D02*
X10293872Y-11000484D01*
X10293872Y-11000484D02*
X10274824Y-10990960D01*
X10274824Y-10990960D02*
X10265301Y-10981436D01*
X10265301Y-10981436D02*
X10255777Y-10962389D01*
X10255777Y-10962389D02*
X10246253Y-10924293D01*
X10246253Y-10924293D02*
X10246253Y-10876674D01*
X10246253Y-10876674D02*
X10255777Y-10838579D01*
X10255777Y-10838579D02*
X10265301Y-10819531D01*
X10265301Y-10819531D02*
X10274824Y-10810008D01*
X10274824Y-10810008D02*
X10293872Y-10800484D01*
X10446253Y-10981436D02*
X10455777Y-10990960D01*
X10455777Y-10990960D02*
X10446253Y-11000484D01*
X10446253Y-11000484D02*
X10436729Y-10990960D01*
X10436729Y-10990960D02*
X10446253Y-10981436D01*
X10446253Y-10981436D02*
X10446253Y-11000484D01*
X10551015Y-11000484D02*
X10589110Y-11000484D01*
X10589110Y-11000484D02*
X10608158Y-10990960D01*
X10608158Y-10990960D02*
X10617682Y-10981436D01*
X10617682Y-10981436D02*
X10636729Y-10952865D01*
X10636729Y-10952865D02*
X10646253Y-10914770D01*
X10646253Y-10914770D02*
X10646253Y-10838579D01*
X10646253Y-10838579D02*
X10636729Y-10819531D01*
X10636729Y-10819531D02*
X10627205Y-10810008D01*
X10627205Y-10810008D02*
X10608158Y-10800484D01*
X10608158Y-10800484D02*
X10570063Y-10800484D01*
X10570063Y-10800484D02*
X10551015Y-10810008D01*
X10551015Y-10810008D02*
X10541491Y-10819531D01*
X10541491Y-10819531D02*
X10531967Y-10838579D01*
X10531967Y-10838579D02*
X10531967Y-10886198D01*
X10531967Y-10886198D02*
X10541491Y-10905246D01*
X10541491Y-10905246D02*
X10551015Y-10914770D01*
X10551015Y-10914770D02*
X10570063Y-10924293D01*
X10570063Y-10924293D02*
X10608158Y-10924293D01*
X10608158Y-10924293D02*
X10627205Y-10914770D01*
X10627205Y-10914770D02*
X10636729Y-10905246D01*
X10636729Y-10905246D02*
X10646253Y-10886198D01*
X10770063Y-10800484D02*
X10789110Y-10800484D01*
X10789110Y-10800484D02*
X10808158Y-10810008D01*
X10808158Y-10810008D02*
X10817682Y-10819531D01*
X10817682Y-10819531D02*
X10827205Y-10838579D01*
X10827205Y-10838579D02*
X10836729Y-10876674D01*
X10836729Y-10876674D02*
X10836729Y-10924293D01*
X10836729Y-10924293D02*
X10827205Y-10962389D01*
X10827205Y-10962389D02*
X10817682Y-10981436D01*
X10817682Y-10981436D02*
X10808158Y-10990960D01*
X10808158Y-10990960D02*
X10789110Y-11000484D01*
X10789110Y-11000484D02*
X10770063Y-11000484D01*
X10770063Y-11000484D02*
X10751015Y-10990960D01*
X10751015Y-10990960D02*
X10741491Y-10981436D01*
X10741491Y-10981436D02*
X10731967Y-10962389D01*
X10731967Y-10962389D02*
X10722444Y-10924293D01*
X10722444Y-10924293D02*
X10722444Y-10876674D01*
X10722444Y-10876674D02*
X10731967Y-10838579D01*
X10731967Y-10838579D02*
X10741491Y-10819531D01*
X10741491Y-10819531D02*
X10751015Y-10810008D01*
X10751015Y-10810008D02*
X10770063Y-10800484D01*
X10960539Y-10800484D02*
X10979586Y-10800484D01*
X10979586Y-10800484D02*
X10998634Y-10810008D01*
X10998634Y-10810008D02*
X11008158Y-10819531D01*
X11008158Y-10819531D02*
X11017682Y-10838579D01*
X11017682Y-10838579D02*
X11027205Y-10876674D01*
X11027205Y-10876674D02*
X11027205Y-10924293D01*
X11027205Y-10924293D02*
X11017682Y-10962389D01*
X11017682Y-10962389D02*
X11008158Y-10981436D01*
X11008158Y-10981436D02*
X10998634Y-10990960D01*
X10998634Y-10990960D02*
X10979586Y-11000484D01*
X10979586Y-11000484D02*
X10960539Y-11000484D01*
X10960539Y-11000484D02*
X10941491Y-10990960D01*
X10941491Y-10990960D02*
X10931967Y-10981436D01*
X10931967Y-10981436D02*
X10922444Y-10962389D01*
X10922444Y-10962389D02*
X10912920Y-10924293D01*
X10912920Y-10924293D02*
X10912920Y-10876674D01*
X10912920Y-10876674D02*
X10922444Y-10838579D01*
X10922444Y-10838579D02*
X10931967Y-10819531D01*
X10931967Y-10819531D02*
X10941491Y-10810008D01*
X10941491Y-10810008D02*
X10960539Y-10800484D01*
X11112920Y-11000484D02*
X11112920Y-10867150D01*
X11112920Y-10886198D02*
X11122444Y-10876674D01*
X11122444Y-10876674D02*
X11141491Y-10867150D01*
X11141491Y-10867150D02*
X11170063Y-10867150D01*
X11170063Y-10867150D02*
X11189110Y-10876674D01*
X11189110Y-10876674D02*
X11198634Y-10895722D01*
X11198634Y-10895722D02*
X11198634Y-11000484D01*
X11198634Y-10895722D02*
X11208158Y-10876674D01*
X11208158Y-10876674D02*
X11227205Y-10867150D01*
X11227205Y-10867150D02*
X11255777Y-10867150D01*
X11255777Y-10867150D02*
X11274824Y-10876674D01*
X11274824Y-10876674D02*
X11284348Y-10895722D01*
X11284348Y-10895722D02*
X11284348Y-11000484D01*
X11379586Y-11000484D02*
X11379586Y-10867150D01*
X11379586Y-10886198D02*
X11389110Y-10876674D01*
X11389110Y-10876674D02*
X11408158Y-10867150D01*
X11408158Y-10867150D02*
X11436729Y-10867150D01*
X11436729Y-10867150D02*
X11455777Y-10876674D01*
X11455777Y-10876674D02*
X11465301Y-10895722D01*
X11465301Y-10895722D02*
X11465301Y-11000484D01*
X11465301Y-10895722D02*
X11474824Y-10876674D01*
X11474824Y-10876674D02*
X11493872Y-10867150D01*
X11493872Y-10867150D02*
X11522443Y-10867150D01*
X11522443Y-10867150D02*
X11541491Y-10876674D01*
X11541491Y-10876674D02*
X11551015Y-10895722D01*
X11551015Y-10895722D02*
X11551015Y-11000484D01*
X11941491Y-10790960D02*
X11770063Y-11048103D01*
X12198634Y-10800484D02*
X12217682Y-10800484D01*
X12217682Y-10800484D02*
X12236729Y-10810008D01*
X12236729Y-10810008D02*
X12246253Y-10819531D01*
X12246253Y-10819531D02*
X12255777Y-10838579D01*
X12255777Y-10838579D02*
X12265301Y-10876674D01*
X12265301Y-10876674D02*
X12265301Y-10924293D01*
X12265301Y-10924293D02*
X12255777Y-10962389D01*
X12255777Y-10962389D02*
X12246253Y-10981436D01*
X12246253Y-10981436D02*
X12236729Y-10990960D01*
X12236729Y-10990960D02*
X12217682Y-11000484D01*
X12217682Y-11000484D02*
X12198634Y-11000484D01*
X12198634Y-11000484D02*
X12179586Y-10990960D01*
X12179586Y-10990960D02*
X12170063Y-10981436D01*
X12170063Y-10981436D02*
X12160539Y-10962389D01*
X12160539Y-10962389D02*
X12151015Y-10924293D01*
X12151015Y-10924293D02*
X12151015Y-10876674D01*
X12151015Y-10876674D02*
X12160539Y-10838579D01*
X12160539Y-10838579D02*
X12170063Y-10819531D01*
X12170063Y-10819531D02*
X12179586Y-10810008D01*
X12179586Y-10810008D02*
X12198634Y-10800484D01*
X12351015Y-10981436D02*
X12360539Y-10990960D01*
X12360539Y-10990960D02*
X12351015Y-11000484D01*
X12351015Y-11000484D02*
X12341491Y-10990960D01*
X12341491Y-10990960D02*
X12351015Y-10981436D01*
X12351015Y-10981436D02*
X12351015Y-11000484D01*
X12484348Y-10800484D02*
X12503396Y-10800484D01*
X12503396Y-10800484D02*
X12522444Y-10810008D01*
X12522444Y-10810008D02*
X12531967Y-10819531D01*
X12531967Y-10819531D02*
X12541491Y-10838579D01*
X12541491Y-10838579D02*
X12551015Y-10876674D01*
X12551015Y-10876674D02*
X12551015Y-10924293D01*
X12551015Y-10924293D02*
X12541491Y-10962389D01*
X12541491Y-10962389D02*
X12531967Y-10981436D01*
X12531967Y-10981436D02*
X12522444Y-10990960D01*
X12522444Y-10990960D02*
X12503396Y-11000484D01*
X12503396Y-11000484D02*
X12484348Y-11000484D01*
X12484348Y-11000484D02*
X12465301Y-10990960D01*
X12465301Y-10990960D02*
X12455777Y-10981436D01*
X12455777Y-10981436D02*
X12446253Y-10962389D01*
X12446253Y-10962389D02*
X12436729Y-10924293D01*
X12436729Y-10924293D02*
X12436729Y-10876674D01*
X12436729Y-10876674D02*
X12446253Y-10838579D01*
X12446253Y-10838579D02*
X12455777Y-10819531D01*
X12455777Y-10819531D02*
X12465301Y-10810008D01*
X12465301Y-10810008D02*
X12484348Y-10800484D01*
X12617682Y-10800484D02*
X12741491Y-10800484D01*
X12741491Y-10800484D02*
X12674825Y-10876674D01*
X12674825Y-10876674D02*
X12703396Y-10876674D01*
X12703396Y-10876674D02*
X12722444Y-10886198D01*
X12722444Y-10886198D02*
X12731967Y-10895722D01*
X12731967Y-10895722D02*
X12741491Y-10914770D01*
X12741491Y-10914770D02*
X12741491Y-10962389D01*
X12741491Y-10962389D02*
X12731967Y-10981436D01*
X12731967Y-10981436D02*
X12722444Y-10990960D01*
X12722444Y-10990960D02*
X12703396Y-11000484D01*
X12703396Y-11000484D02*
X12646253Y-11000484D01*
X12646253Y-11000484D02*
X12627206Y-10990960D01*
X12627206Y-10990960D02*
X12617682Y-10981436D01*
X12922444Y-10800484D02*
X12827206Y-10800484D01*
X12827206Y-10800484D02*
X12817682Y-10895722D01*
X12817682Y-10895722D02*
X12827206Y-10886198D01*
X12827206Y-10886198D02*
X12846253Y-10876674D01*
X12846253Y-10876674D02*
X12893872Y-10876674D01*
X12893872Y-10876674D02*
X12912920Y-10886198D01*
X12912920Y-10886198D02*
X12922444Y-10895722D01*
X12922444Y-10895722D02*
X12931967Y-10914770D01*
X12931967Y-10914770D02*
X12931967Y-10962389D01*
X12931967Y-10962389D02*
X12922444Y-10981436D01*
X12922444Y-10981436D02*
X12912920Y-10990960D01*
X12912920Y-10990960D02*
X12893872Y-11000484D01*
X12893872Y-11000484D02*
X12846253Y-11000484D01*
X12846253Y-11000484D02*
X12827206Y-10990960D01*
X12827206Y-10990960D02*
X12817682Y-10981436D01*
X13103396Y-10867150D02*
X13103396Y-11000484D01*
X13055777Y-10790960D02*
X13008158Y-10933817D01*
X13008158Y-10933817D02*
X13131967Y-10933817D01*
X13198634Y-10800484D02*
X13198634Y-10838579D01*
X13274825Y-10800484D02*
X13274825Y-10838579D01*
X13570063Y-11076674D02*
X13560539Y-11067150D01*
X13560539Y-11067150D02*
X13541491Y-11038579D01*
X13541491Y-11038579D02*
X13531968Y-11019531D01*
X13531968Y-11019531D02*
X13522444Y-10990960D01*
X13522444Y-10990960D02*
X13512920Y-10943341D01*
X13512920Y-10943341D02*
X13512920Y-10905246D01*
X13512920Y-10905246D02*
X13522444Y-10857627D01*
X13522444Y-10857627D02*
X13531968Y-10829055D01*
X13531968Y-10829055D02*
X13541491Y-10810008D01*
X13541491Y-10810008D02*
X13560539Y-10781436D01*
X13560539Y-10781436D02*
X13570063Y-10771912D01*
X13731968Y-10800484D02*
X13693872Y-10800484D01*
X13693872Y-10800484D02*
X13674825Y-10810008D01*
X13674825Y-10810008D02*
X13665301Y-10819531D01*
X13665301Y-10819531D02*
X13646253Y-10848103D01*
X13646253Y-10848103D02*
X13636729Y-10886198D01*
X13636729Y-10886198D02*
X13636729Y-10962389D01*
X13636729Y-10962389D02*
X13646253Y-10981436D01*
X13646253Y-10981436D02*
X13655777Y-10990960D01*
X13655777Y-10990960D02*
X13674825Y-11000484D01*
X13674825Y-11000484D02*
X13712920Y-11000484D01*
X13712920Y-11000484D02*
X13731968Y-10990960D01*
X13731968Y-10990960D02*
X13741491Y-10981436D01*
X13741491Y-10981436D02*
X13751015Y-10962389D01*
X13751015Y-10962389D02*
X13751015Y-10914770D01*
X13751015Y-10914770D02*
X13741491Y-10895722D01*
X13741491Y-10895722D02*
X13731968Y-10886198D01*
X13731968Y-10886198D02*
X13712920Y-10876674D01*
X13712920Y-10876674D02*
X13674825Y-10876674D01*
X13674825Y-10876674D02*
X13655777Y-10886198D01*
X13655777Y-10886198D02*
X13646253Y-10895722D01*
X13646253Y-10895722D02*
X13636729Y-10914770D01*
X13989110Y-11000484D02*
X13989110Y-10800484D01*
X14074825Y-11000484D02*
X14074825Y-10895722D01*
X14074825Y-10895722D02*
X14065301Y-10876674D01*
X14065301Y-10876674D02*
X14046253Y-10867150D01*
X14046253Y-10867150D02*
X14017682Y-10867150D01*
X14017682Y-10867150D02*
X13998634Y-10876674D01*
X13998634Y-10876674D02*
X13989110Y-10886198D01*
X14198634Y-11000484D02*
X14179587Y-10990960D01*
X14179587Y-10990960D02*
X14170063Y-10981436D01*
X14170063Y-10981436D02*
X14160539Y-10962389D01*
X14160539Y-10962389D02*
X14160539Y-10905246D01*
X14160539Y-10905246D02*
X14170063Y-10886198D01*
X14170063Y-10886198D02*
X14179587Y-10876674D01*
X14179587Y-10876674D02*
X14198634Y-10867150D01*
X14198634Y-10867150D02*
X14227206Y-10867150D01*
X14227206Y-10867150D02*
X14246253Y-10876674D01*
X14246253Y-10876674D02*
X14255777Y-10886198D01*
X14255777Y-10886198D02*
X14265301Y-10905246D01*
X14265301Y-10905246D02*
X14265301Y-10962389D01*
X14265301Y-10962389D02*
X14255777Y-10981436D01*
X14255777Y-10981436D02*
X14246253Y-10990960D01*
X14246253Y-10990960D02*
X14227206Y-11000484D01*
X14227206Y-11000484D02*
X14198634Y-11000484D01*
X14379587Y-11000484D02*
X14360539Y-10990960D01*
X14360539Y-10990960D02*
X14351015Y-10971912D01*
X14351015Y-10971912D02*
X14351015Y-10800484D01*
X14531968Y-10990960D02*
X14512920Y-11000484D01*
X14512920Y-11000484D02*
X14474825Y-11000484D01*
X14474825Y-11000484D02*
X14455777Y-10990960D01*
X14455777Y-10990960D02*
X14446253Y-10971912D01*
X14446253Y-10971912D02*
X14446253Y-10895722D01*
X14446253Y-10895722D02*
X14455777Y-10876674D01*
X14455777Y-10876674D02*
X14474825Y-10867150D01*
X14474825Y-10867150D02*
X14512920Y-10867150D01*
X14512920Y-10867150D02*
X14531968Y-10876674D01*
X14531968Y-10876674D02*
X14541491Y-10895722D01*
X14541491Y-10895722D02*
X14541491Y-10914770D01*
X14541491Y-10914770D02*
X14446253Y-10933817D01*
X14617682Y-10990960D02*
X14636730Y-11000484D01*
X14636730Y-11000484D02*
X14674825Y-11000484D01*
X14674825Y-11000484D02*
X14693872Y-10990960D01*
X14693872Y-10990960D02*
X14703396Y-10971912D01*
X14703396Y-10971912D02*
X14703396Y-10962389D01*
X14703396Y-10962389D02*
X14693872Y-10943341D01*
X14693872Y-10943341D02*
X14674825Y-10933817D01*
X14674825Y-10933817D02*
X14646253Y-10933817D01*
X14646253Y-10933817D02*
X14627206Y-10924293D01*
X14627206Y-10924293D02*
X14617682Y-10905246D01*
X14617682Y-10905246D02*
X14617682Y-10895722D01*
X14617682Y-10895722D02*
X14627206Y-10876674D01*
X14627206Y-10876674D02*
X14646253Y-10867150D01*
X14646253Y-10867150D02*
X14674825Y-10867150D01*
X14674825Y-10867150D02*
X14693872Y-10876674D01*
X14770063Y-11076674D02*
X14779587Y-11067150D01*
X14779587Y-11067150D02*
X14798634Y-11038579D01*
X14798634Y-11038579D02*
X14808158Y-11019531D01*
X14808158Y-11019531D02*
X14817682Y-10990960D01*
X14817682Y-10990960D02*
X14827206Y-10943341D01*
X14827206Y-10943341D02*
X14827206Y-10905246D01*
X14827206Y-10905246D02*
X14817682Y-10857627D01*
X14817682Y-10857627D02*
X14808158Y-10829055D01*
X14808158Y-10829055D02*
X14798634Y-10810008D01*
X14798634Y-10810008D02*
X14779587Y-10781436D01*
X14779587Y-10781436D02*
X14770063Y-10771912D01*
D10*
X9945000Y-11123000D02*
X9945000Y-11223000D01*
X9895000Y-11173000D02*
X9995000Y-11173000D01*
D11*
X10360539Y-11264484D02*
X10246253Y-11264484D01*
X10303396Y-11264484D02*
X10303396Y-11064484D01*
X10303396Y-11064484D02*
X10284348Y-11093055D01*
X10284348Y-11093055D02*
X10265301Y-11112103D01*
X10265301Y-11112103D02*
X10246253Y-11121627D01*
X10446253Y-11245436D02*
X10455777Y-11254960D01*
X10455777Y-11254960D02*
X10446253Y-11264484D01*
X10446253Y-11264484D02*
X10436729Y-11254960D01*
X10436729Y-11254960D02*
X10446253Y-11245436D01*
X10446253Y-11245436D02*
X10446253Y-11264484D01*
X10579586Y-11064484D02*
X10598634Y-11064484D01*
X10598634Y-11064484D02*
X10617682Y-11074008D01*
X10617682Y-11074008D02*
X10627205Y-11083531D01*
X10627205Y-11083531D02*
X10636729Y-11102579D01*
X10636729Y-11102579D02*
X10646253Y-11140674D01*
X10646253Y-11140674D02*
X10646253Y-11188293D01*
X10646253Y-11188293D02*
X10636729Y-11226388D01*
X10636729Y-11226388D02*
X10627205Y-11245436D01*
X10627205Y-11245436D02*
X10617682Y-11254960D01*
X10617682Y-11254960D02*
X10598634Y-11264484D01*
X10598634Y-11264484D02*
X10579586Y-11264484D01*
X10579586Y-11264484D02*
X10560539Y-11254960D01*
X10560539Y-11254960D02*
X10551015Y-11245436D01*
X10551015Y-11245436D02*
X10541491Y-11226388D01*
X10541491Y-11226388D02*
X10531967Y-11188293D01*
X10531967Y-11188293D02*
X10531967Y-11140674D01*
X10531967Y-11140674D02*
X10541491Y-11102579D01*
X10541491Y-11102579D02*
X10551015Y-11083531D01*
X10551015Y-11083531D02*
X10560539Y-11074008D01*
X10560539Y-11074008D02*
X10579586Y-11064484D01*
X10770063Y-11064484D02*
X10789110Y-11064484D01*
X10789110Y-11064484D02*
X10808158Y-11074008D01*
X10808158Y-11074008D02*
X10817682Y-11083531D01*
X10817682Y-11083531D02*
X10827205Y-11102579D01*
X10827205Y-11102579D02*
X10836729Y-11140674D01*
X10836729Y-11140674D02*
X10836729Y-11188293D01*
X10836729Y-11188293D02*
X10827205Y-11226388D01*
X10827205Y-11226388D02*
X10817682Y-11245436D01*
X10817682Y-11245436D02*
X10808158Y-11254960D01*
X10808158Y-11254960D02*
X10789110Y-11264484D01*
X10789110Y-11264484D02*
X10770063Y-11264484D01*
X10770063Y-11264484D02*
X10751015Y-11254960D01*
X10751015Y-11254960D02*
X10741491Y-11245436D01*
X10741491Y-11245436D02*
X10731967Y-11226388D01*
X10731967Y-11226388D02*
X10722444Y-11188293D01*
X10722444Y-11188293D02*
X10722444Y-11140674D01*
X10722444Y-11140674D02*
X10731967Y-11102579D01*
X10731967Y-11102579D02*
X10741491Y-11083531D01*
X10741491Y-11083531D02*
X10751015Y-11074008D01*
X10751015Y-11074008D02*
X10770063Y-11064484D01*
X10960539Y-11064484D02*
X10979586Y-11064484D01*
X10979586Y-11064484D02*
X10998634Y-11074008D01*
X10998634Y-11074008D02*
X11008158Y-11083531D01*
X11008158Y-11083531D02*
X11017682Y-11102579D01*
X11017682Y-11102579D02*
X11027205Y-11140674D01*
X11027205Y-11140674D02*
X11027205Y-11188293D01*
X11027205Y-11188293D02*
X11017682Y-11226388D01*
X11017682Y-11226388D02*
X11008158Y-11245436D01*
X11008158Y-11245436D02*
X10998634Y-11254960D01*
X10998634Y-11254960D02*
X10979586Y-11264484D01*
X10979586Y-11264484D02*
X10960539Y-11264484D01*
X10960539Y-11264484D02*
X10941491Y-11254960D01*
X10941491Y-11254960D02*
X10931967Y-11245436D01*
X10931967Y-11245436D02*
X10922444Y-11226388D01*
X10922444Y-11226388D02*
X10912920Y-11188293D01*
X10912920Y-11188293D02*
X10912920Y-11140674D01*
X10912920Y-11140674D02*
X10922444Y-11102579D01*
X10922444Y-11102579D02*
X10931967Y-11083531D01*
X10931967Y-11083531D02*
X10941491Y-11074008D01*
X10941491Y-11074008D02*
X10960539Y-11064484D01*
X11112920Y-11264484D02*
X11112920Y-11131150D01*
X11112920Y-11150198D02*
X11122444Y-11140674D01*
X11122444Y-11140674D02*
X11141491Y-11131150D01*
X11141491Y-11131150D02*
X11170063Y-11131150D01*
X11170063Y-11131150D02*
X11189110Y-11140674D01*
X11189110Y-11140674D02*
X11198634Y-11159722D01*
X11198634Y-11159722D02*
X11198634Y-11264484D01*
X11198634Y-11159722D02*
X11208158Y-11140674D01*
X11208158Y-11140674D02*
X11227205Y-11131150D01*
X11227205Y-11131150D02*
X11255777Y-11131150D01*
X11255777Y-11131150D02*
X11274824Y-11140674D01*
X11274824Y-11140674D02*
X11284348Y-11159722D01*
X11284348Y-11159722D02*
X11284348Y-11264484D01*
X11379586Y-11264484D02*
X11379586Y-11131150D01*
X11379586Y-11150198D02*
X11389110Y-11140674D01*
X11389110Y-11140674D02*
X11408158Y-11131150D01*
X11408158Y-11131150D02*
X11436729Y-11131150D01*
X11436729Y-11131150D02*
X11455777Y-11140674D01*
X11455777Y-11140674D02*
X11465301Y-11159722D01*
X11465301Y-11159722D02*
X11465301Y-11264484D01*
X11465301Y-11159722D02*
X11474824Y-11140674D01*
X11474824Y-11140674D02*
X11493872Y-11131150D01*
X11493872Y-11131150D02*
X11522443Y-11131150D01*
X11522443Y-11131150D02*
X11541491Y-11140674D01*
X11541491Y-11140674D02*
X11551015Y-11159722D01*
X11551015Y-11159722D02*
X11551015Y-11264484D01*
X11941491Y-11054960D02*
X11770063Y-11312103D01*
X12198634Y-11064484D02*
X12217682Y-11064484D01*
X12217682Y-11064484D02*
X12236729Y-11074008D01*
X12236729Y-11074008D02*
X12246253Y-11083531D01*
X12246253Y-11083531D02*
X12255777Y-11102579D01*
X12255777Y-11102579D02*
X12265301Y-11140674D01*
X12265301Y-11140674D02*
X12265301Y-11188293D01*
X12265301Y-11188293D02*
X12255777Y-11226388D01*
X12255777Y-11226388D02*
X12246253Y-11245436D01*
X12246253Y-11245436D02*
X12236729Y-11254960D01*
X12236729Y-11254960D02*
X12217682Y-11264484D01*
X12217682Y-11264484D02*
X12198634Y-11264484D01*
X12198634Y-11264484D02*
X12179586Y-11254960D01*
X12179586Y-11254960D02*
X12170063Y-11245436D01*
X12170063Y-11245436D02*
X12160539Y-11226388D01*
X12160539Y-11226388D02*
X12151015Y-11188293D01*
X12151015Y-11188293D02*
X12151015Y-11140674D01*
X12151015Y-11140674D02*
X12160539Y-11102579D01*
X12160539Y-11102579D02*
X12170063Y-11083531D01*
X12170063Y-11083531D02*
X12179586Y-11074008D01*
X12179586Y-11074008D02*
X12198634Y-11064484D01*
X12351015Y-11245436D02*
X12360539Y-11254960D01*
X12360539Y-11254960D02*
X12351015Y-11264484D01*
X12351015Y-11264484D02*
X12341491Y-11254960D01*
X12341491Y-11254960D02*
X12351015Y-11245436D01*
X12351015Y-11245436D02*
X12351015Y-11264484D01*
X12484348Y-11064484D02*
X12503396Y-11064484D01*
X12503396Y-11064484D02*
X12522444Y-11074008D01*
X12522444Y-11074008D02*
X12531967Y-11083531D01*
X12531967Y-11083531D02*
X12541491Y-11102579D01*
X12541491Y-11102579D02*
X12551015Y-11140674D01*
X12551015Y-11140674D02*
X12551015Y-11188293D01*
X12551015Y-11188293D02*
X12541491Y-11226388D01*
X12541491Y-11226388D02*
X12531967Y-11245436D01*
X12531967Y-11245436D02*
X12522444Y-11254960D01*
X12522444Y-11254960D02*
X12503396Y-11264484D01*
X12503396Y-11264484D02*
X12484348Y-11264484D01*
X12484348Y-11264484D02*
X12465301Y-11254960D01*
X12465301Y-11254960D02*
X12455777Y-11245436D01*
X12455777Y-11245436D02*
X12446253Y-11226388D01*
X12446253Y-11226388D02*
X12436729Y-11188293D01*
X12436729Y-11188293D02*
X12436729Y-11140674D01*
X12436729Y-11140674D02*
X12446253Y-11102579D01*
X12446253Y-11102579D02*
X12455777Y-11083531D01*
X12455777Y-11083531D02*
X12465301Y-11074008D01*
X12465301Y-11074008D02*
X12484348Y-11064484D01*
X12617682Y-11064484D02*
X12741491Y-11064484D01*
X12741491Y-11064484D02*
X12674825Y-11140674D01*
X12674825Y-11140674D02*
X12703396Y-11140674D01*
X12703396Y-11140674D02*
X12722444Y-11150198D01*
X12722444Y-11150198D02*
X12731967Y-11159722D01*
X12731967Y-11159722D02*
X12741491Y-11178770D01*
X12741491Y-11178770D02*
X12741491Y-11226388D01*
X12741491Y-11226388D02*
X12731967Y-11245436D01*
X12731967Y-11245436D02*
X12722444Y-11254960D01*
X12722444Y-11254960D02*
X12703396Y-11264484D01*
X12703396Y-11264484D02*
X12646253Y-11264484D01*
X12646253Y-11264484D02*
X12627206Y-11254960D01*
X12627206Y-11254960D02*
X12617682Y-11245436D01*
X12836729Y-11264484D02*
X12874825Y-11264484D01*
X12874825Y-11264484D02*
X12893872Y-11254960D01*
X12893872Y-11254960D02*
X12903396Y-11245436D01*
X12903396Y-11245436D02*
X12922444Y-11216865D01*
X12922444Y-11216865D02*
X12931967Y-11178770D01*
X12931967Y-11178770D02*
X12931967Y-11102579D01*
X12931967Y-11102579D02*
X12922444Y-11083531D01*
X12922444Y-11083531D02*
X12912920Y-11074008D01*
X12912920Y-11074008D02*
X12893872Y-11064484D01*
X12893872Y-11064484D02*
X12855777Y-11064484D01*
X12855777Y-11064484D02*
X12836729Y-11074008D01*
X12836729Y-11074008D02*
X12827206Y-11083531D01*
X12827206Y-11083531D02*
X12817682Y-11102579D01*
X12817682Y-11102579D02*
X12817682Y-11150198D01*
X12817682Y-11150198D02*
X12827206Y-11169246D01*
X12827206Y-11169246D02*
X12836729Y-11178770D01*
X12836729Y-11178770D02*
X12855777Y-11188293D01*
X12855777Y-11188293D02*
X12893872Y-11188293D01*
X12893872Y-11188293D02*
X12912920Y-11178770D01*
X12912920Y-11178770D02*
X12922444Y-11169246D01*
X12922444Y-11169246D02*
X12931967Y-11150198D01*
X13103396Y-11131150D02*
X13103396Y-11264484D01*
X13055777Y-11054960D02*
X13008158Y-11197817D01*
X13008158Y-11197817D02*
X13131967Y-11197817D01*
X13198634Y-11064484D02*
X13198634Y-11102579D01*
X13274825Y-11064484D02*
X13274825Y-11102579D01*
X13570063Y-11340674D02*
X13560539Y-11331150D01*
X13560539Y-11331150D02*
X13541491Y-11302579D01*
X13541491Y-11302579D02*
X13531968Y-11283531D01*
X13531968Y-11283531D02*
X13522444Y-11254960D01*
X13522444Y-11254960D02*
X13512920Y-11207341D01*
X13512920Y-11207341D02*
X13512920Y-11169246D01*
X13512920Y-11169246D02*
X13522444Y-11121627D01*
X13522444Y-11121627D02*
X13531968Y-11093055D01*
X13531968Y-11093055D02*
X13541491Y-11074008D01*
X13541491Y-11074008D02*
X13560539Y-11045436D01*
X13560539Y-11045436D02*
X13570063Y-11035912D01*
X13731968Y-11131150D02*
X13731968Y-11264484D01*
X13684348Y-11054960D02*
X13636729Y-11197817D01*
X13636729Y-11197817D02*
X13760539Y-11197817D01*
X13922444Y-11064484D02*
X13884348Y-11064484D01*
X13884348Y-11064484D02*
X13865301Y-11074008D01*
X13865301Y-11074008D02*
X13855777Y-11083531D01*
X13855777Y-11083531D02*
X13836729Y-11112103D01*
X13836729Y-11112103D02*
X13827206Y-11150198D01*
X13827206Y-11150198D02*
X13827206Y-11226388D01*
X13827206Y-11226388D02*
X13836729Y-11245436D01*
X13836729Y-11245436D02*
X13846253Y-11254960D01*
X13846253Y-11254960D02*
X13865301Y-11264484D01*
X13865301Y-11264484D02*
X13903396Y-11264484D01*
X13903396Y-11264484D02*
X13922444Y-11254960D01*
X13922444Y-11254960D02*
X13931968Y-11245436D01*
X13931968Y-11245436D02*
X13941491Y-11226388D01*
X13941491Y-11226388D02*
X13941491Y-11178770D01*
X13941491Y-11178770D02*
X13931968Y-11159722D01*
X13931968Y-11159722D02*
X13922444Y-11150198D01*
X13922444Y-11150198D02*
X13903396Y-11140674D01*
X13903396Y-11140674D02*
X13865301Y-11140674D01*
X13865301Y-11140674D02*
X13846253Y-11150198D01*
X13846253Y-11150198D02*
X13836729Y-11159722D01*
X13836729Y-11159722D02*
X13827206Y-11178770D01*
X14179587Y-11264484D02*
X14179587Y-11064484D01*
X14265301Y-11264484D02*
X14265301Y-11159722D01*
X14265301Y-11159722D02*
X14255777Y-11140674D01*
X14255777Y-11140674D02*
X14236730Y-11131150D01*
X14236730Y-11131150D02*
X14208158Y-11131150D01*
X14208158Y-11131150D02*
X14189110Y-11140674D01*
X14189110Y-11140674D02*
X14179587Y-11150198D01*
X14389110Y-11264484D02*
X14370063Y-11254960D01*
X14370063Y-11254960D02*
X14360539Y-11245436D01*
X14360539Y-11245436D02*
X14351015Y-11226388D01*
X14351015Y-11226388D02*
X14351015Y-11169246D01*
X14351015Y-11169246D02*
X14360539Y-11150198D01*
X14360539Y-11150198D02*
X14370063Y-11140674D01*
X14370063Y-11140674D02*
X14389110Y-11131150D01*
X14389110Y-11131150D02*
X14417682Y-11131150D01*
X14417682Y-11131150D02*
X14436730Y-11140674D01*
X14436730Y-11140674D02*
X14446253Y-11150198D01*
X14446253Y-11150198D02*
X14455777Y-11169246D01*
X14455777Y-11169246D02*
X14455777Y-11226388D01*
X14455777Y-11226388D02*
X14446253Y-11245436D01*
X14446253Y-11245436D02*
X14436730Y-11254960D01*
X14436730Y-11254960D02*
X14417682Y-11264484D01*
X14417682Y-11264484D02*
X14389110Y-11264484D01*
X14570063Y-11264484D02*
X14551015Y-11254960D01*
X14551015Y-11254960D02*
X14541491Y-11235912D01*
X14541491Y-11235912D02*
X14541491Y-11064484D01*
X14722444Y-11254960D02*
X14703396Y-11264484D01*
X14703396Y-11264484D02*
X14665301Y-11264484D01*
X14665301Y-11264484D02*
X14646253Y-11254960D01*
X14646253Y-11254960D02*
X14636730Y-11235912D01*
X14636730Y-11235912D02*
X14636730Y-11159722D01*
X14636730Y-11159722D02*
X14646253Y-11140674D01*
X14646253Y-11140674D02*
X14665301Y-11131150D01*
X14665301Y-11131150D02*
X14703396Y-11131150D01*
X14703396Y-11131150D02*
X14722444Y-11140674D01*
X14722444Y-11140674D02*
X14731968Y-11159722D01*
X14731968Y-11159722D02*
X14731968Y-11178770D01*
X14731968Y-11178770D02*
X14636730Y-11197817D01*
X14808158Y-11254960D02*
X14827206Y-11264484D01*
X14827206Y-11264484D02*
X14865301Y-11264484D01*
X14865301Y-11264484D02*
X14884349Y-11254960D01*
X14884349Y-11254960D02*
X14893872Y-11235912D01*
X14893872Y-11235912D02*
X14893872Y-11226388D01*
X14893872Y-11226388D02*
X14884349Y-11207341D01*
X14884349Y-11207341D02*
X14865301Y-11197817D01*
X14865301Y-11197817D02*
X14836730Y-11197817D01*
X14836730Y-11197817D02*
X14817682Y-11188293D01*
X14817682Y-11188293D02*
X14808158Y-11169246D01*
X14808158Y-11169246D02*
X14808158Y-11159722D01*
X14808158Y-11159722D02*
X14817682Y-11140674D01*
X14817682Y-11140674D02*
X14836730Y-11131150D01*
X14836730Y-11131150D02*
X14865301Y-11131150D01*
X14865301Y-11131150D02*
X14884349Y-11140674D01*
X14960539Y-11340674D02*
X14970063Y-11331150D01*
X14970063Y-11331150D02*
X14989111Y-11302579D01*
X14989111Y-11302579D02*
X14998634Y-11283531D01*
X14998634Y-11283531D02*
X15008158Y-11254960D01*
X15008158Y-11254960D02*
X15017682Y-11207341D01*
X15017682Y-11207341D02*
X15017682Y-11169246D01*
X15017682Y-11169246D02*
X15008158Y-11121627D01*
X15008158Y-11121627D02*
X14998634Y-11093055D01*
X14998634Y-11093055D02*
X14989111Y-11074008D01*
X14989111Y-11074008D02*
X14970063Y-11045436D01*
X14970063Y-11045436D02*
X14960539Y-11035912D01*
D12*
X9978891Y-11475891D02*
X9978891Y-11398109D01*
X9901109Y-11398109D01*
X9901109Y-11475891D01*
X9978891Y-11475891D01*
D11*
X10360539Y-11528484D02*
X10246253Y-11528484D01*
X10303396Y-11528484D02*
X10303396Y-11328484D01*
X10303396Y-11328484D02*
X10284348Y-11357055D01*
X10284348Y-11357055D02*
X10265301Y-11376103D01*
X10265301Y-11376103D02*
X10246253Y-11385627D01*
X10446253Y-11509436D02*
X10455777Y-11518960D01*
X10455777Y-11518960D02*
X10446253Y-11528484D01*
X10446253Y-11528484D02*
X10436729Y-11518960D01*
X10436729Y-11518960D02*
X10446253Y-11509436D01*
X10446253Y-11509436D02*
X10446253Y-11528484D01*
X10646253Y-11528484D02*
X10531967Y-11528484D01*
X10589110Y-11528484D02*
X10589110Y-11328484D01*
X10589110Y-11328484D02*
X10570063Y-11357055D01*
X10570063Y-11357055D02*
X10551015Y-11376103D01*
X10551015Y-11376103D02*
X10531967Y-11385627D01*
X10770063Y-11328484D02*
X10789110Y-11328484D01*
X10789110Y-11328484D02*
X10808158Y-11338008D01*
X10808158Y-11338008D02*
X10817682Y-11347531D01*
X10817682Y-11347531D02*
X10827205Y-11366579D01*
X10827205Y-11366579D02*
X10836729Y-11404674D01*
X10836729Y-11404674D02*
X10836729Y-11452293D01*
X10836729Y-11452293D02*
X10827205Y-11490388D01*
X10827205Y-11490388D02*
X10817682Y-11509436D01*
X10817682Y-11509436D02*
X10808158Y-11518960D01*
X10808158Y-11518960D02*
X10789110Y-11528484D01*
X10789110Y-11528484D02*
X10770063Y-11528484D01*
X10770063Y-11528484D02*
X10751015Y-11518960D01*
X10751015Y-11518960D02*
X10741491Y-11509436D01*
X10741491Y-11509436D02*
X10731967Y-11490388D01*
X10731967Y-11490388D02*
X10722444Y-11452293D01*
X10722444Y-11452293D02*
X10722444Y-11404674D01*
X10722444Y-11404674D02*
X10731967Y-11366579D01*
X10731967Y-11366579D02*
X10741491Y-11347531D01*
X10741491Y-11347531D02*
X10751015Y-11338008D01*
X10751015Y-11338008D02*
X10770063Y-11328484D01*
X10960539Y-11328484D02*
X10979586Y-11328484D01*
X10979586Y-11328484D02*
X10998634Y-11338008D01*
X10998634Y-11338008D02*
X11008158Y-11347531D01*
X11008158Y-11347531D02*
X11017682Y-11366579D01*
X11017682Y-11366579D02*
X11027205Y-11404674D01*
X11027205Y-11404674D02*
X11027205Y-11452293D01*
X11027205Y-11452293D02*
X11017682Y-11490388D01*
X11017682Y-11490388D02*
X11008158Y-11509436D01*
X11008158Y-11509436D02*
X10998634Y-11518960D01*
X10998634Y-11518960D02*
X10979586Y-11528484D01*
X10979586Y-11528484D02*
X10960539Y-11528484D01*
X10960539Y-11528484D02*
X10941491Y-11518960D01*
X10941491Y-11518960D02*
X10931967Y-11509436D01*
X10931967Y-11509436D02*
X10922444Y-11490388D01*
X10922444Y-11490388D02*
X10912920Y-11452293D01*
X10912920Y-11452293D02*
X10912920Y-11404674D01*
X10912920Y-11404674D02*
X10922444Y-11366579D01*
X10922444Y-11366579D02*
X10931967Y-11347531D01*
X10931967Y-11347531D02*
X10941491Y-11338008D01*
X10941491Y-11338008D02*
X10960539Y-11328484D01*
X11112920Y-11528484D02*
X11112920Y-11395150D01*
X11112920Y-11414198D02*
X11122444Y-11404674D01*
X11122444Y-11404674D02*
X11141491Y-11395150D01*
X11141491Y-11395150D02*
X11170063Y-11395150D01*
X11170063Y-11395150D02*
X11189110Y-11404674D01*
X11189110Y-11404674D02*
X11198634Y-11423722D01*
X11198634Y-11423722D02*
X11198634Y-11528484D01*
X11198634Y-11423722D02*
X11208158Y-11404674D01*
X11208158Y-11404674D02*
X11227205Y-11395150D01*
X11227205Y-11395150D02*
X11255777Y-11395150D01*
X11255777Y-11395150D02*
X11274824Y-11404674D01*
X11274824Y-11404674D02*
X11284348Y-11423722D01*
X11284348Y-11423722D02*
X11284348Y-11528484D01*
X11379586Y-11528484D02*
X11379586Y-11395150D01*
X11379586Y-11414198D02*
X11389110Y-11404674D01*
X11389110Y-11404674D02*
X11408158Y-11395150D01*
X11408158Y-11395150D02*
X11436729Y-11395150D01*
X11436729Y-11395150D02*
X11455777Y-11404674D01*
X11455777Y-11404674D02*
X11465301Y-11423722D01*
X11465301Y-11423722D02*
X11465301Y-11528484D01*
X11465301Y-11423722D02*
X11474824Y-11404674D01*
X11474824Y-11404674D02*
X11493872Y-11395150D01*
X11493872Y-11395150D02*
X11522443Y-11395150D01*
X11522443Y-11395150D02*
X11541491Y-11404674D01*
X11541491Y-11404674D02*
X11551015Y-11423722D01*
X11551015Y-11423722D02*
X11551015Y-11528484D01*
X11941491Y-11318960D02*
X11770063Y-11576103D01*
X12198634Y-11328484D02*
X12217682Y-11328484D01*
X12217682Y-11328484D02*
X12236729Y-11338008D01*
X12236729Y-11338008D02*
X12246253Y-11347531D01*
X12246253Y-11347531D02*
X12255777Y-11366579D01*
X12255777Y-11366579D02*
X12265301Y-11404674D01*
X12265301Y-11404674D02*
X12265301Y-11452293D01*
X12265301Y-11452293D02*
X12255777Y-11490388D01*
X12255777Y-11490388D02*
X12246253Y-11509436D01*
X12246253Y-11509436D02*
X12236729Y-11518960D01*
X12236729Y-11518960D02*
X12217682Y-11528484D01*
X12217682Y-11528484D02*
X12198634Y-11528484D01*
X12198634Y-11528484D02*
X12179586Y-11518960D01*
X12179586Y-11518960D02*
X12170063Y-11509436D01*
X12170063Y-11509436D02*
X12160539Y-11490388D01*
X12160539Y-11490388D02*
X12151015Y-11452293D01*
X12151015Y-11452293D02*
X12151015Y-11404674D01*
X12151015Y-11404674D02*
X12160539Y-11366579D01*
X12160539Y-11366579D02*
X12170063Y-11347531D01*
X12170063Y-11347531D02*
X12179586Y-11338008D01*
X12179586Y-11338008D02*
X12198634Y-11328484D01*
X12351015Y-11509436D02*
X12360539Y-11518960D01*
X12360539Y-11518960D02*
X12351015Y-11528484D01*
X12351015Y-11528484D02*
X12341491Y-11518960D01*
X12341491Y-11518960D02*
X12351015Y-11509436D01*
X12351015Y-11509436D02*
X12351015Y-11528484D01*
X12484348Y-11328484D02*
X12503396Y-11328484D01*
X12503396Y-11328484D02*
X12522444Y-11338008D01*
X12522444Y-11338008D02*
X12531967Y-11347531D01*
X12531967Y-11347531D02*
X12541491Y-11366579D01*
X12541491Y-11366579D02*
X12551015Y-11404674D01*
X12551015Y-11404674D02*
X12551015Y-11452293D01*
X12551015Y-11452293D02*
X12541491Y-11490388D01*
X12541491Y-11490388D02*
X12531967Y-11509436D01*
X12531967Y-11509436D02*
X12522444Y-11518960D01*
X12522444Y-11518960D02*
X12503396Y-11528484D01*
X12503396Y-11528484D02*
X12484348Y-11528484D01*
X12484348Y-11528484D02*
X12465301Y-11518960D01*
X12465301Y-11518960D02*
X12455777Y-11509436D01*
X12455777Y-11509436D02*
X12446253Y-11490388D01*
X12446253Y-11490388D02*
X12436729Y-11452293D01*
X12436729Y-11452293D02*
X12436729Y-11404674D01*
X12436729Y-11404674D02*
X12446253Y-11366579D01*
X12446253Y-11366579D02*
X12455777Y-11347531D01*
X12455777Y-11347531D02*
X12465301Y-11338008D01*
X12465301Y-11338008D02*
X12484348Y-11328484D01*
X12722444Y-11395150D02*
X12722444Y-11528484D01*
X12674825Y-11318960D02*
X12627206Y-11461817D01*
X12627206Y-11461817D02*
X12751015Y-11461817D01*
X12808158Y-11328484D02*
X12931967Y-11328484D01*
X12931967Y-11328484D02*
X12865301Y-11404674D01*
X12865301Y-11404674D02*
X12893872Y-11404674D01*
X12893872Y-11404674D02*
X12912920Y-11414198D01*
X12912920Y-11414198D02*
X12922444Y-11423722D01*
X12922444Y-11423722D02*
X12931967Y-11442769D01*
X12931967Y-11442769D02*
X12931967Y-11490388D01*
X12931967Y-11490388D02*
X12922444Y-11509436D01*
X12922444Y-11509436D02*
X12912920Y-11518960D01*
X12912920Y-11518960D02*
X12893872Y-11528484D01*
X12893872Y-11528484D02*
X12836729Y-11528484D01*
X12836729Y-11528484D02*
X12817682Y-11518960D01*
X12817682Y-11518960D02*
X12808158Y-11509436D01*
X12998634Y-11328484D02*
X13122444Y-11328484D01*
X13122444Y-11328484D02*
X13055777Y-11404674D01*
X13055777Y-11404674D02*
X13084348Y-11404674D01*
X13084348Y-11404674D02*
X13103396Y-11414198D01*
X13103396Y-11414198D02*
X13112920Y-11423722D01*
X13112920Y-11423722D02*
X13122444Y-11442769D01*
X13122444Y-11442769D02*
X13122444Y-11490388D01*
X13122444Y-11490388D02*
X13112920Y-11509436D01*
X13112920Y-11509436D02*
X13103396Y-11518960D01*
X13103396Y-11518960D02*
X13084348Y-11528484D01*
X13084348Y-11528484D02*
X13027206Y-11528484D01*
X13027206Y-11528484D02*
X13008158Y-11518960D01*
X13008158Y-11518960D02*
X12998634Y-11509436D01*
X13198634Y-11328484D02*
X13198634Y-11366579D01*
X13274825Y-11328484D02*
X13274825Y-11366579D01*
X13570063Y-11604674D02*
X13560539Y-11595150D01*
X13560539Y-11595150D02*
X13541491Y-11566579D01*
X13541491Y-11566579D02*
X13531968Y-11547531D01*
X13531968Y-11547531D02*
X13522444Y-11518960D01*
X13522444Y-11518960D02*
X13512920Y-11471341D01*
X13512920Y-11471341D02*
X13512920Y-11433246D01*
X13512920Y-11433246D02*
X13522444Y-11385627D01*
X13522444Y-11385627D02*
X13531968Y-11357055D01*
X13531968Y-11357055D02*
X13541491Y-11338008D01*
X13541491Y-11338008D02*
X13560539Y-11309436D01*
X13560539Y-11309436D02*
X13570063Y-11299912D01*
X13731968Y-11395150D02*
X13731968Y-11528484D01*
X13684348Y-11318960D02*
X13636729Y-11461817D01*
X13636729Y-11461817D02*
X13760539Y-11461817D01*
X13989110Y-11528484D02*
X13989110Y-11328484D01*
X14074825Y-11528484D02*
X14074825Y-11423722D01*
X14074825Y-11423722D02*
X14065301Y-11404674D01*
X14065301Y-11404674D02*
X14046253Y-11395150D01*
X14046253Y-11395150D02*
X14017682Y-11395150D01*
X14017682Y-11395150D02*
X13998634Y-11404674D01*
X13998634Y-11404674D02*
X13989110Y-11414198D01*
X14198634Y-11528484D02*
X14179587Y-11518960D01*
X14179587Y-11518960D02*
X14170063Y-11509436D01*
X14170063Y-11509436D02*
X14160539Y-11490388D01*
X14160539Y-11490388D02*
X14160539Y-11433246D01*
X14160539Y-11433246D02*
X14170063Y-11414198D01*
X14170063Y-11414198D02*
X14179587Y-11404674D01*
X14179587Y-11404674D02*
X14198634Y-11395150D01*
X14198634Y-11395150D02*
X14227206Y-11395150D01*
X14227206Y-11395150D02*
X14246253Y-11404674D01*
X14246253Y-11404674D02*
X14255777Y-11414198D01*
X14255777Y-11414198D02*
X14265301Y-11433246D01*
X14265301Y-11433246D02*
X14265301Y-11490388D01*
X14265301Y-11490388D02*
X14255777Y-11509436D01*
X14255777Y-11509436D02*
X14246253Y-11518960D01*
X14246253Y-11518960D02*
X14227206Y-11528484D01*
X14227206Y-11528484D02*
X14198634Y-11528484D01*
X14379587Y-11528484D02*
X14360539Y-11518960D01*
X14360539Y-11518960D02*
X14351015Y-11499912D01*
X14351015Y-11499912D02*
X14351015Y-11328484D01*
X14531968Y-11518960D02*
X14512920Y-11528484D01*
X14512920Y-11528484D02*
X14474825Y-11528484D01*
X14474825Y-11528484D02*
X14455777Y-11518960D01*
X14455777Y-11518960D02*
X14446253Y-11499912D01*
X14446253Y-11499912D02*
X14446253Y-11423722D01*
X14446253Y-11423722D02*
X14455777Y-11404674D01*
X14455777Y-11404674D02*
X14474825Y-11395150D01*
X14474825Y-11395150D02*
X14512920Y-11395150D01*
X14512920Y-11395150D02*
X14531968Y-11404674D01*
X14531968Y-11404674D02*
X14541491Y-11423722D01*
X14541491Y-11423722D02*
X14541491Y-11442769D01*
X14541491Y-11442769D02*
X14446253Y-11461817D01*
X14617682Y-11518960D02*
X14636730Y-11528484D01*
X14636730Y-11528484D02*
X14674825Y-11528484D01*
X14674825Y-11528484D02*
X14693872Y-11518960D01*
X14693872Y-11518960D02*
X14703396Y-11499912D01*
X14703396Y-11499912D02*
X14703396Y-11490388D01*
X14703396Y-11490388D02*
X14693872Y-11471341D01*
X14693872Y-11471341D02*
X14674825Y-11461817D01*
X14674825Y-11461817D02*
X14646253Y-11461817D01*
X14646253Y-11461817D02*
X14627206Y-11452293D01*
X14627206Y-11452293D02*
X14617682Y-11433246D01*
X14617682Y-11433246D02*
X14617682Y-11423722D01*
X14617682Y-11423722D02*
X14627206Y-11404674D01*
X14627206Y-11404674D02*
X14646253Y-11395150D01*
X14646253Y-11395150D02*
X14674825Y-11395150D01*
X14674825Y-11395150D02*
X14693872Y-11404674D01*
X14770063Y-11604674D02*
X14779587Y-11595150D01*
X14779587Y-11595150D02*
X14798634Y-11566579D01*
X14798634Y-11566579D02*
X14808158Y-11547531D01*
X14808158Y-11547531D02*
X14817682Y-11518960D01*
X14817682Y-11518960D02*
X14827206Y-11471341D01*
X14827206Y-11471341D02*
X14827206Y-11433246D01*
X14827206Y-11433246D02*
X14817682Y-11385627D01*
X14817682Y-11385627D02*
X14808158Y-11357055D01*
X14808158Y-11357055D02*
X14798634Y-11338008D01*
X14798634Y-11338008D02*
X14779587Y-11309436D01*
X14779587Y-11309436D02*
X14770063Y-11299912D01*
D13*
X9935000Y-11761000D02*
X9995000Y-11701000D01*
X9935000Y-11641000D01*
X9875000Y-11701000D01*
X9935000Y-11761000D01*
D11*
X10360539Y-11792484D02*
X10246253Y-11792484D01*
X10303396Y-11792484D02*
X10303396Y-11592484D01*
X10303396Y-11592484D02*
X10284348Y-11621055D01*
X10284348Y-11621055D02*
X10265301Y-11640103D01*
X10265301Y-11640103D02*
X10246253Y-11649627D01*
X10446253Y-11773436D02*
X10455777Y-11782960D01*
X10455777Y-11782960D02*
X10446253Y-11792484D01*
X10446253Y-11792484D02*
X10436729Y-11782960D01*
X10436729Y-11782960D02*
X10446253Y-11773436D01*
X10446253Y-11773436D02*
X10446253Y-11792484D01*
X10531967Y-11611531D02*
X10541491Y-11602008D01*
X10541491Y-11602008D02*
X10560539Y-11592484D01*
X10560539Y-11592484D02*
X10608158Y-11592484D01*
X10608158Y-11592484D02*
X10627205Y-11602008D01*
X10627205Y-11602008D02*
X10636729Y-11611531D01*
X10636729Y-11611531D02*
X10646253Y-11630579D01*
X10646253Y-11630579D02*
X10646253Y-11649627D01*
X10646253Y-11649627D02*
X10636729Y-11678198D01*
X10636729Y-11678198D02*
X10522444Y-11792484D01*
X10522444Y-11792484D02*
X10646253Y-11792484D01*
X10770063Y-11592484D02*
X10789110Y-11592484D01*
X10789110Y-11592484D02*
X10808158Y-11602008D01*
X10808158Y-11602008D02*
X10817682Y-11611531D01*
X10817682Y-11611531D02*
X10827205Y-11630579D01*
X10827205Y-11630579D02*
X10836729Y-11668674D01*
X10836729Y-11668674D02*
X10836729Y-11716293D01*
X10836729Y-11716293D02*
X10827205Y-11754388D01*
X10827205Y-11754388D02*
X10817682Y-11773436D01*
X10817682Y-11773436D02*
X10808158Y-11782960D01*
X10808158Y-11782960D02*
X10789110Y-11792484D01*
X10789110Y-11792484D02*
X10770063Y-11792484D01*
X10770063Y-11792484D02*
X10751015Y-11782960D01*
X10751015Y-11782960D02*
X10741491Y-11773436D01*
X10741491Y-11773436D02*
X10731967Y-11754388D01*
X10731967Y-11754388D02*
X10722444Y-11716293D01*
X10722444Y-11716293D02*
X10722444Y-11668674D01*
X10722444Y-11668674D02*
X10731967Y-11630579D01*
X10731967Y-11630579D02*
X10741491Y-11611531D01*
X10741491Y-11611531D02*
X10751015Y-11602008D01*
X10751015Y-11602008D02*
X10770063Y-11592484D01*
X10960539Y-11592484D02*
X10979586Y-11592484D01*
X10979586Y-11592484D02*
X10998634Y-11602008D01*
X10998634Y-11602008D02*
X11008158Y-11611531D01*
X11008158Y-11611531D02*
X11017682Y-11630579D01*
X11017682Y-11630579D02*
X11027205Y-11668674D01*
X11027205Y-11668674D02*
X11027205Y-11716293D01*
X11027205Y-11716293D02*
X11017682Y-11754388D01*
X11017682Y-11754388D02*
X11008158Y-11773436D01*
X11008158Y-11773436D02*
X10998634Y-11782960D01*
X10998634Y-11782960D02*
X10979586Y-11792484D01*
X10979586Y-11792484D02*
X10960539Y-11792484D01*
X10960539Y-11792484D02*
X10941491Y-11782960D01*
X10941491Y-11782960D02*
X10931967Y-11773436D01*
X10931967Y-11773436D02*
X10922444Y-11754388D01*
X10922444Y-11754388D02*
X10912920Y-11716293D01*
X10912920Y-11716293D02*
X10912920Y-11668674D01*
X10912920Y-11668674D02*
X10922444Y-11630579D01*
X10922444Y-11630579D02*
X10931967Y-11611531D01*
X10931967Y-11611531D02*
X10941491Y-11602008D01*
X10941491Y-11602008D02*
X10960539Y-11592484D01*
X11112920Y-11792484D02*
X11112920Y-11659150D01*
X11112920Y-11678198D02*
X11122444Y-11668674D01*
X11122444Y-11668674D02*
X11141491Y-11659150D01*
X11141491Y-11659150D02*
X11170063Y-11659150D01*
X11170063Y-11659150D02*
X11189110Y-11668674D01*
X11189110Y-11668674D02*
X11198634Y-11687722D01*
X11198634Y-11687722D02*
X11198634Y-11792484D01*
X11198634Y-11687722D02*
X11208158Y-11668674D01*
X11208158Y-11668674D02*
X11227205Y-11659150D01*
X11227205Y-11659150D02*
X11255777Y-11659150D01*
X11255777Y-11659150D02*
X11274824Y-11668674D01*
X11274824Y-11668674D02*
X11284348Y-11687722D01*
X11284348Y-11687722D02*
X11284348Y-11792484D01*
X11379586Y-11792484D02*
X11379586Y-11659150D01*
X11379586Y-11678198D02*
X11389110Y-11668674D01*
X11389110Y-11668674D02*
X11408158Y-11659150D01*
X11408158Y-11659150D02*
X11436729Y-11659150D01*
X11436729Y-11659150D02*
X11455777Y-11668674D01*
X11455777Y-11668674D02*
X11465301Y-11687722D01*
X11465301Y-11687722D02*
X11465301Y-11792484D01*
X11465301Y-11687722D02*
X11474824Y-11668674D01*
X11474824Y-11668674D02*
X11493872Y-11659150D01*
X11493872Y-11659150D02*
X11522443Y-11659150D01*
X11522443Y-11659150D02*
X11541491Y-11668674D01*
X11541491Y-11668674D02*
X11551015Y-11687722D01*
X11551015Y-11687722D02*
X11551015Y-11792484D01*
X11941491Y-11582960D02*
X11770063Y-11840103D01*
X12198634Y-11592484D02*
X12217682Y-11592484D01*
X12217682Y-11592484D02*
X12236729Y-11602008D01*
X12236729Y-11602008D02*
X12246253Y-11611531D01*
X12246253Y-11611531D02*
X12255777Y-11630579D01*
X12255777Y-11630579D02*
X12265301Y-11668674D01*
X12265301Y-11668674D02*
X12265301Y-11716293D01*
X12265301Y-11716293D02*
X12255777Y-11754388D01*
X12255777Y-11754388D02*
X12246253Y-11773436D01*
X12246253Y-11773436D02*
X12236729Y-11782960D01*
X12236729Y-11782960D02*
X12217682Y-11792484D01*
X12217682Y-11792484D02*
X12198634Y-11792484D01*
X12198634Y-11792484D02*
X12179586Y-11782960D01*
X12179586Y-11782960D02*
X12170063Y-11773436D01*
X12170063Y-11773436D02*
X12160539Y-11754388D01*
X12160539Y-11754388D02*
X12151015Y-11716293D01*
X12151015Y-11716293D02*
X12151015Y-11668674D01*
X12151015Y-11668674D02*
X12160539Y-11630579D01*
X12160539Y-11630579D02*
X12170063Y-11611531D01*
X12170063Y-11611531D02*
X12179586Y-11602008D01*
X12179586Y-11602008D02*
X12198634Y-11592484D01*
X12351015Y-11773436D02*
X12360539Y-11782960D01*
X12360539Y-11782960D02*
X12351015Y-11792484D01*
X12351015Y-11792484D02*
X12341491Y-11782960D01*
X12341491Y-11782960D02*
X12351015Y-11773436D01*
X12351015Y-11773436D02*
X12351015Y-11792484D01*
X12484348Y-11592484D02*
X12503396Y-11592484D01*
X12503396Y-11592484D02*
X12522444Y-11602008D01*
X12522444Y-11602008D02*
X12531967Y-11611531D01*
X12531967Y-11611531D02*
X12541491Y-11630579D01*
X12541491Y-11630579D02*
X12551015Y-11668674D01*
X12551015Y-11668674D02*
X12551015Y-11716293D01*
X12551015Y-11716293D02*
X12541491Y-11754388D01*
X12541491Y-11754388D02*
X12531967Y-11773436D01*
X12531967Y-11773436D02*
X12522444Y-11782960D01*
X12522444Y-11782960D02*
X12503396Y-11792484D01*
X12503396Y-11792484D02*
X12484348Y-11792484D01*
X12484348Y-11792484D02*
X12465301Y-11782960D01*
X12465301Y-11782960D02*
X12455777Y-11773436D01*
X12455777Y-11773436D02*
X12446253Y-11754388D01*
X12446253Y-11754388D02*
X12436729Y-11716293D01*
X12436729Y-11716293D02*
X12436729Y-11668674D01*
X12436729Y-11668674D02*
X12446253Y-11630579D01*
X12446253Y-11630579D02*
X12455777Y-11611531D01*
X12455777Y-11611531D02*
X12465301Y-11602008D01*
X12465301Y-11602008D02*
X12484348Y-11592484D01*
X12722444Y-11659150D02*
X12722444Y-11792484D01*
X12674825Y-11582960D02*
X12627206Y-11725817D01*
X12627206Y-11725817D02*
X12751015Y-11725817D01*
X12808158Y-11592484D02*
X12941491Y-11592484D01*
X12941491Y-11592484D02*
X12855777Y-11792484D01*
X13008158Y-11611531D02*
X13017682Y-11602008D01*
X13017682Y-11602008D02*
X13036729Y-11592484D01*
X13036729Y-11592484D02*
X13084348Y-11592484D01*
X13084348Y-11592484D02*
X13103396Y-11602008D01*
X13103396Y-11602008D02*
X13112920Y-11611531D01*
X13112920Y-11611531D02*
X13122444Y-11630579D01*
X13122444Y-11630579D02*
X13122444Y-11649627D01*
X13122444Y-11649627D02*
X13112920Y-11678198D01*
X13112920Y-11678198D02*
X12998634Y-11792484D01*
X12998634Y-11792484D02*
X13122444Y-11792484D01*
X13198634Y-11592484D02*
X13198634Y-11630579D01*
X13274825Y-11592484D02*
X13274825Y-11630579D01*
X13570063Y-11868674D02*
X13560539Y-11859150D01*
X13560539Y-11859150D02*
X13541491Y-11830579D01*
X13541491Y-11830579D02*
X13531968Y-11811531D01*
X13531968Y-11811531D02*
X13522444Y-11782960D01*
X13522444Y-11782960D02*
X13512920Y-11735341D01*
X13512920Y-11735341D02*
X13512920Y-11697246D01*
X13512920Y-11697246D02*
X13522444Y-11649627D01*
X13522444Y-11649627D02*
X13531968Y-11621055D01*
X13531968Y-11621055D02*
X13541491Y-11602008D01*
X13541491Y-11602008D02*
X13560539Y-11573436D01*
X13560539Y-11573436D02*
X13570063Y-11563912D01*
X13731968Y-11592484D02*
X13693872Y-11592484D01*
X13693872Y-11592484D02*
X13674825Y-11602008D01*
X13674825Y-11602008D02*
X13665301Y-11611531D01*
X13665301Y-11611531D02*
X13646253Y-11640103D01*
X13646253Y-11640103D02*
X13636729Y-11678198D01*
X13636729Y-11678198D02*
X13636729Y-11754388D01*
X13636729Y-11754388D02*
X13646253Y-11773436D01*
X13646253Y-11773436D02*
X13655777Y-11782960D01*
X13655777Y-11782960D02*
X13674825Y-11792484D01*
X13674825Y-11792484D02*
X13712920Y-11792484D01*
X13712920Y-11792484D02*
X13731968Y-11782960D01*
X13731968Y-11782960D02*
X13741491Y-11773436D01*
X13741491Y-11773436D02*
X13751015Y-11754388D01*
X13751015Y-11754388D02*
X13751015Y-11706769D01*
X13751015Y-11706769D02*
X13741491Y-11687722D01*
X13741491Y-11687722D02*
X13731968Y-11678198D01*
X13731968Y-11678198D02*
X13712920Y-11668674D01*
X13712920Y-11668674D02*
X13674825Y-11668674D01*
X13674825Y-11668674D02*
X13655777Y-11678198D01*
X13655777Y-11678198D02*
X13646253Y-11687722D01*
X13646253Y-11687722D02*
X13636729Y-11706769D01*
X13989110Y-11792484D02*
X13989110Y-11592484D01*
X14074825Y-11792484D02*
X14074825Y-11687722D01*
X14074825Y-11687722D02*
X14065301Y-11668674D01*
X14065301Y-11668674D02*
X14046253Y-11659150D01*
X14046253Y-11659150D02*
X14017682Y-11659150D01*
X14017682Y-11659150D02*
X13998634Y-11668674D01*
X13998634Y-11668674D02*
X13989110Y-11678198D01*
X14198634Y-11792484D02*
X14179587Y-11782960D01*
X14179587Y-11782960D02*
X14170063Y-11773436D01*
X14170063Y-11773436D02*
X14160539Y-11754388D01*
X14160539Y-11754388D02*
X14160539Y-11697246D01*
X14160539Y-11697246D02*
X14170063Y-11678198D01*
X14170063Y-11678198D02*
X14179587Y-11668674D01*
X14179587Y-11668674D02*
X14198634Y-11659150D01*
X14198634Y-11659150D02*
X14227206Y-11659150D01*
X14227206Y-11659150D02*
X14246253Y-11668674D01*
X14246253Y-11668674D02*
X14255777Y-11678198D01*
X14255777Y-11678198D02*
X14265301Y-11697246D01*
X14265301Y-11697246D02*
X14265301Y-11754388D01*
X14265301Y-11754388D02*
X14255777Y-11773436D01*
X14255777Y-11773436D02*
X14246253Y-11782960D01*
X14246253Y-11782960D02*
X14227206Y-11792484D01*
X14227206Y-11792484D02*
X14198634Y-11792484D01*
X14379587Y-11792484D02*
X14360539Y-11782960D01*
X14360539Y-11782960D02*
X14351015Y-11763912D01*
X14351015Y-11763912D02*
X14351015Y-11592484D01*
X14531968Y-11782960D02*
X14512920Y-11792484D01*
X14512920Y-11792484D02*
X14474825Y-11792484D01*
X14474825Y-11792484D02*
X14455777Y-11782960D01*
X14455777Y-11782960D02*
X14446253Y-11763912D01*
X14446253Y-11763912D02*
X14446253Y-11687722D01*
X14446253Y-11687722D02*
X14455777Y-11668674D01*
X14455777Y-11668674D02*
X14474825Y-11659150D01*
X14474825Y-11659150D02*
X14512920Y-11659150D01*
X14512920Y-11659150D02*
X14531968Y-11668674D01*
X14531968Y-11668674D02*
X14541491Y-11687722D01*
X14541491Y-11687722D02*
X14541491Y-11706769D01*
X14541491Y-11706769D02*
X14446253Y-11725817D01*
X14617682Y-11782960D02*
X14636730Y-11792484D01*
X14636730Y-11792484D02*
X14674825Y-11792484D01*
X14674825Y-11792484D02*
X14693872Y-11782960D01*
X14693872Y-11782960D02*
X14703396Y-11763912D01*
X14703396Y-11763912D02*
X14703396Y-11754388D01*
X14703396Y-11754388D02*
X14693872Y-11735341D01*
X14693872Y-11735341D02*
X14674825Y-11725817D01*
X14674825Y-11725817D02*
X14646253Y-11725817D01*
X14646253Y-11725817D02*
X14627206Y-11716293D01*
X14627206Y-11716293D02*
X14617682Y-11697246D01*
X14617682Y-11697246D02*
X14617682Y-11687722D01*
X14617682Y-11687722D02*
X14627206Y-11668674D01*
X14627206Y-11668674D02*
X14646253Y-11659150D01*
X14646253Y-11659150D02*
X14674825Y-11659150D01*
X14674825Y-11659150D02*
X14693872Y-11668674D01*
X14770063Y-11868674D02*
X14779587Y-11859150D01*
X14779587Y-11859150D02*
X14798634Y-11830579D01*
X14798634Y-11830579D02*
X14808158Y-11811531D01*
X14808158Y-11811531D02*
X14817682Y-11782960D01*
X14817682Y-11782960D02*
X14827206Y-11735341D01*
X14827206Y-11735341D02*
X14827206Y-11697246D01*
X14827206Y-11697246D02*
X14817682Y-11649627D01*
X14817682Y-11649627D02*
X14808158Y-11621055D01*
X14808158Y-11621055D02*
X14798634Y-11602008D01*
X14798634Y-11602008D02*
X14779587Y-11573436D01*
X14779587Y-11573436D02*
X14770063Y-11563912D01*
D14*
X9865000Y-11900000D02*
X9995000Y-12030000D01*
X9995000Y-11900000D02*
X9865000Y-12030000D01*
X9995000Y-11965000D02*
G75*
G02*
X9865000Y-11965000I-65000J0D01*
G01*
X9865000Y-11965000D02*
G75*
G02*
X9995000Y-11965000I65000J0D01*
G01*
D11*
X10360539Y-12056484D02*
X10246253Y-12056484D01*
X10303396Y-12056484D02*
X10303396Y-11856484D01*
X10303396Y-11856484D02*
X10284348Y-11885055D01*
X10284348Y-11885055D02*
X10265301Y-11904103D01*
X10265301Y-11904103D02*
X10246253Y-11913627D01*
X10446253Y-12037436D02*
X10455777Y-12046960D01*
X10455777Y-12046960D02*
X10446253Y-12056484D01*
X10446253Y-12056484D02*
X10436729Y-12046960D01*
X10436729Y-12046960D02*
X10446253Y-12037436D01*
X10446253Y-12037436D02*
X10446253Y-12056484D01*
X10522444Y-11856484D02*
X10646253Y-11856484D01*
X10646253Y-11856484D02*
X10579586Y-11932674D01*
X10579586Y-11932674D02*
X10608158Y-11932674D01*
X10608158Y-11932674D02*
X10627205Y-11942198D01*
X10627205Y-11942198D02*
X10636729Y-11951722D01*
X10636729Y-11951722D02*
X10646253Y-11970769D01*
X10646253Y-11970769D02*
X10646253Y-12018388D01*
X10646253Y-12018388D02*
X10636729Y-12037436D01*
X10636729Y-12037436D02*
X10627205Y-12046960D01*
X10627205Y-12046960D02*
X10608158Y-12056484D01*
X10608158Y-12056484D02*
X10551015Y-12056484D01*
X10551015Y-12056484D02*
X10531967Y-12046960D01*
X10531967Y-12046960D02*
X10522444Y-12037436D01*
X10770063Y-11856484D02*
X10789110Y-11856484D01*
X10789110Y-11856484D02*
X10808158Y-11866008D01*
X10808158Y-11866008D02*
X10817682Y-11875531D01*
X10817682Y-11875531D02*
X10827205Y-11894579D01*
X10827205Y-11894579D02*
X10836729Y-11932674D01*
X10836729Y-11932674D02*
X10836729Y-11980293D01*
X10836729Y-11980293D02*
X10827205Y-12018388D01*
X10827205Y-12018388D02*
X10817682Y-12037436D01*
X10817682Y-12037436D02*
X10808158Y-12046960D01*
X10808158Y-12046960D02*
X10789110Y-12056484D01*
X10789110Y-12056484D02*
X10770063Y-12056484D01*
X10770063Y-12056484D02*
X10751015Y-12046960D01*
X10751015Y-12046960D02*
X10741491Y-12037436D01*
X10741491Y-12037436D02*
X10731967Y-12018388D01*
X10731967Y-12018388D02*
X10722444Y-11980293D01*
X10722444Y-11980293D02*
X10722444Y-11932674D01*
X10722444Y-11932674D02*
X10731967Y-11894579D01*
X10731967Y-11894579D02*
X10741491Y-11875531D01*
X10741491Y-11875531D02*
X10751015Y-11866008D01*
X10751015Y-11866008D02*
X10770063Y-11856484D01*
X10960539Y-11856484D02*
X10979586Y-11856484D01*
X10979586Y-11856484D02*
X10998634Y-11866008D01*
X10998634Y-11866008D02*
X11008158Y-11875531D01*
X11008158Y-11875531D02*
X11017682Y-11894579D01*
X11017682Y-11894579D02*
X11027205Y-11932674D01*
X11027205Y-11932674D02*
X11027205Y-11980293D01*
X11027205Y-11980293D02*
X11017682Y-12018388D01*
X11017682Y-12018388D02*
X11008158Y-12037436D01*
X11008158Y-12037436D02*
X10998634Y-12046960D01*
X10998634Y-12046960D02*
X10979586Y-12056484D01*
X10979586Y-12056484D02*
X10960539Y-12056484D01*
X10960539Y-12056484D02*
X10941491Y-12046960D01*
X10941491Y-12046960D02*
X10931967Y-12037436D01*
X10931967Y-12037436D02*
X10922444Y-12018388D01*
X10922444Y-12018388D02*
X10912920Y-11980293D01*
X10912920Y-11980293D02*
X10912920Y-11932674D01*
X10912920Y-11932674D02*
X10922444Y-11894579D01*
X10922444Y-11894579D02*
X10931967Y-11875531D01*
X10931967Y-11875531D02*
X10941491Y-11866008D01*
X10941491Y-11866008D02*
X10960539Y-11856484D01*
X11112920Y-12056484D02*
X11112920Y-11923150D01*
X11112920Y-11942198D02*
X11122444Y-11932674D01*
X11122444Y-11932674D02*
X11141491Y-11923150D01*
X11141491Y-11923150D02*
X11170063Y-11923150D01*
X11170063Y-11923150D02*
X11189110Y-11932674D01*
X11189110Y-11932674D02*
X11198634Y-11951722D01*
X11198634Y-11951722D02*
X11198634Y-12056484D01*
X11198634Y-11951722D02*
X11208158Y-11932674D01*
X11208158Y-11932674D02*
X11227205Y-11923150D01*
X11227205Y-11923150D02*
X11255777Y-11923150D01*
X11255777Y-11923150D02*
X11274824Y-11932674D01*
X11274824Y-11932674D02*
X11284348Y-11951722D01*
X11284348Y-11951722D02*
X11284348Y-12056484D01*
X11379586Y-12056484D02*
X11379586Y-11923150D01*
X11379586Y-11942198D02*
X11389110Y-11932674D01*
X11389110Y-11932674D02*
X11408158Y-11923150D01*
X11408158Y-11923150D02*
X11436729Y-11923150D01*
X11436729Y-11923150D02*
X11455777Y-11932674D01*
X11455777Y-11932674D02*
X11465301Y-11951722D01*
X11465301Y-11951722D02*
X11465301Y-12056484D01*
X11465301Y-11951722D02*
X11474824Y-11932674D01*
X11474824Y-11932674D02*
X11493872Y-11923150D01*
X11493872Y-11923150D02*
X11522443Y-11923150D01*
X11522443Y-11923150D02*
X11541491Y-11932674D01*
X11541491Y-11932674D02*
X11551015Y-11951722D01*
X11551015Y-11951722D02*
X11551015Y-12056484D01*
X11941491Y-11846960D02*
X11770063Y-12104103D01*
X12198634Y-11856484D02*
X12217682Y-11856484D01*
X12217682Y-11856484D02*
X12236729Y-11866008D01*
X12236729Y-11866008D02*
X12246253Y-11875531D01*
X12246253Y-11875531D02*
X12255777Y-11894579D01*
X12255777Y-11894579D02*
X12265301Y-11932674D01*
X12265301Y-11932674D02*
X12265301Y-11980293D01*
X12265301Y-11980293D02*
X12255777Y-12018388D01*
X12255777Y-12018388D02*
X12246253Y-12037436D01*
X12246253Y-12037436D02*
X12236729Y-12046960D01*
X12236729Y-12046960D02*
X12217682Y-12056484D01*
X12217682Y-12056484D02*
X12198634Y-12056484D01*
X12198634Y-12056484D02*
X12179586Y-12046960D01*
X12179586Y-12046960D02*
X12170063Y-12037436D01*
X12170063Y-12037436D02*
X12160539Y-12018388D01*
X12160539Y-12018388D02*
X12151015Y-11980293D01*
X12151015Y-11980293D02*
X12151015Y-11932674D01*
X12151015Y-11932674D02*
X12160539Y-11894579D01*
X12160539Y-11894579D02*
X12170063Y-11875531D01*
X12170063Y-11875531D02*
X12179586Y-11866008D01*
X12179586Y-11866008D02*
X12198634Y-11856484D01*
X12351015Y-12037436D02*
X12360539Y-12046960D01*
X12360539Y-12046960D02*
X12351015Y-12056484D01*
X12351015Y-12056484D02*
X12341491Y-12046960D01*
X12341491Y-12046960D02*
X12351015Y-12037436D01*
X12351015Y-12037436D02*
X12351015Y-12056484D01*
X12484348Y-11856484D02*
X12503396Y-11856484D01*
X12503396Y-11856484D02*
X12522444Y-11866008D01*
X12522444Y-11866008D02*
X12531967Y-11875531D01*
X12531967Y-11875531D02*
X12541491Y-11894579D01*
X12541491Y-11894579D02*
X12551015Y-11932674D01*
X12551015Y-11932674D02*
X12551015Y-11980293D01*
X12551015Y-11980293D02*
X12541491Y-12018388D01*
X12541491Y-12018388D02*
X12531967Y-12037436D01*
X12531967Y-12037436D02*
X12522444Y-12046960D01*
X12522444Y-12046960D02*
X12503396Y-12056484D01*
X12503396Y-12056484D02*
X12484348Y-12056484D01*
X12484348Y-12056484D02*
X12465301Y-12046960D01*
X12465301Y-12046960D02*
X12455777Y-12037436D01*
X12455777Y-12037436D02*
X12446253Y-12018388D01*
X12446253Y-12018388D02*
X12436729Y-11980293D01*
X12436729Y-11980293D02*
X12436729Y-11932674D01*
X12436729Y-11932674D02*
X12446253Y-11894579D01*
X12446253Y-11894579D02*
X12455777Y-11875531D01*
X12455777Y-11875531D02*
X12465301Y-11866008D01*
X12465301Y-11866008D02*
X12484348Y-11856484D01*
X12731967Y-11856484D02*
X12636729Y-11856484D01*
X12636729Y-11856484D02*
X12627206Y-11951722D01*
X12627206Y-11951722D02*
X12636729Y-11942198D01*
X12636729Y-11942198D02*
X12655777Y-11932674D01*
X12655777Y-11932674D02*
X12703396Y-11932674D01*
X12703396Y-11932674D02*
X12722444Y-11942198D01*
X12722444Y-11942198D02*
X12731967Y-11951722D01*
X12731967Y-11951722D02*
X12741491Y-11970769D01*
X12741491Y-11970769D02*
X12741491Y-12018388D01*
X12741491Y-12018388D02*
X12731967Y-12037436D01*
X12731967Y-12037436D02*
X12722444Y-12046960D01*
X12722444Y-12046960D02*
X12703396Y-12056484D01*
X12703396Y-12056484D02*
X12655777Y-12056484D01*
X12655777Y-12056484D02*
X12636729Y-12046960D01*
X12636729Y-12046960D02*
X12627206Y-12037436D01*
X12931967Y-12056484D02*
X12817682Y-12056484D01*
X12874825Y-12056484D02*
X12874825Y-11856484D01*
X12874825Y-11856484D02*
X12855777Y-11885055D01*
X12855777Y-11885055D02*
X12836729Y-11904103D01*
X12836729Y-11904103D02*
X12817682Y-11913627D01*
X13008158Y-11875531D02*
X13017682Y-11866008D01*
X13017682Y-11866008D02*
X13036729Y-11856484D01*
X13036729Y-11856484D02*
X13084348Y-11856484D01*
X13084348Y-11856484D02*
X13103396Y-11866008D01*
X13103396Y-11866008D02*
X13112920Y-11875531D01*
X13112920Y-11875531D02*
X13122444Y-11894579D01*
X13122444Y-11894579D02*
X13122444Y-11913627D01*
X13122444Y-11913627D02*
X13112920Y-11942198D01*
X13112920Y-11942198D02*
X12998634Y-12056484D01*
X12998634Y-12056484D02*
X13122444Y-12056484D01*
X13198634Y-11856484D02*
X13198634Y-11894579D01*
X13274825Y-11856484D02*
X13274825Y-11894579D01*
X13570063Y-12132674D02*
X13560539Y-12123150D01*
X13560539Y-12123150D02*
X13541491Y-12094579D01*
X13541491Y-12094579D02*
X13531968Y-12075531D01*
X13531968Y-12075531D02*
X13522444Y-12046960D01*
X13522444Y-12046960D02*
X13512920Y-11999341D01*
X13512920Y-11999341D02*
X13512920Y-11961246D01*
X13512920Y-11961246D02*
X13522444Y-11913627D01*
X13522444Y-11913627D02*
X13531968Y-11885055D01*
X13531968Y-11885055D02*
X13541491Y-11866008D01*
X13541491Y-11866008D02*
X13560539Y-11837436D01*
X13560539Y-11837436D02*
X13570063Y-11827912D01*
X13627206Y-11856484D02*
X13751015Y-11856484D01*
X13751015Y-11856484D02*
X13684348Y-11932674D01*
X13684348Y-11932674D02*
X13712920Y-11932674D01*
X13712920Y-11932674D02*
X13731968Y-11942198D01*
X13731968Y-11942198D02*
X13741491Y-11951722D01*
X13741491Y-11951722D02*
X13751015Y-11970769D01*
X13751015Y-11970769D02*
X13751015Y-12018388D01*
X13751015Y-12018388D02*
X13741491Y-12037436D01*
X13741491Y-12037436D02*
X13731968Y-12046960D01*
X13731968Y-12046960D02*
X13712920Y-12056484D01*
X13712920Y-12056484D02*
X13655777Y-12056484D01*
X13655777Y-12056484D02*
X13636729Y-12046960D01*
X13636729Y-12046960D02*
X13627206Y-12037436D01*
X13989110Y-12056484D02*
X13989110Y-11856484D01*
X14074825Y-12056484D02*
X14074825Y-11951722D01*
X14074825Y-11951722D02*
X14065301Y-11932674D01*
X14065301Y-11932674D02*
X14046253Y-11923150D01*
X14046253Y-11923150D02*
X14017682Y-11923150D01*
X14017682Y-11923150D02*
X13998634Y-11932674D01*
X13998634Y-11932674D02*
X13989110Y-11942198D01*
X14198634Y-12056484D02*
X14179587Y-12046960D01*
X14179587Y-12046960D02*
X14170063Y-12037436D01*
X14170063Y-12037436D02*
X14160539Y-12018388D01*
X14160539Y-12018388D02*
X14160539Y-11961246D01*
X14160539Y-11961246D02*
X14170063Y-11942198D01*
X14170063Y-11942198D02*
X14179587Y-11932674D01*
X14179587Y-11932674D02*
X14198634Y-11923150D01*
X14198634Y-11923150D02*
X14227206Y-11923150D01*
X14227206Y-11923150D02*
X14246253Y-11932674D01*
X14246253Y-11932674D02*
X14255777Y-11942198D01*
X14255777Y-11942198D02*
X14265301Y-11961246D01*
X14265301Y-11961246D02*
X14265301Y-12018388D01*
X14265301Y-12018388D02*
X14255777Y-12037436D01*
X14255777Y-12037436D02*
X14246253Y-12046960D01*
X14246253Y-12046960D02*
X14227206Y-12056484D01*
X14227206Y-12056484D02*
X14198634Y-12056484D01*
X14379587Y-12056484D02*
X14360539Y-12046960D01*
X14360539Y-12046960D02*
X14351015Y-12027912D01*
X14351015Y-12027912D02*
X14351015Y-11856484D01*
X14531968Y-12046960D02*
X14512920Y-12056484D01*
X14512920Y-12056484D02*
X14474825Y-12056484D01*
X14474825Y-12056484D02*
X14455777Y-12046960D01*
X14455777Y-12046960D02*
X14446253Y-12027912D01*
X14446253Y-12027912D02*
X14446253Y-11951722D01*
X14446253Y-11951722D02*
X14455777Y-11932674D01*
X14455777Y-11932674D02*
X14474825Y-11923150D01*
X14474825Y-11923150D02*
X14512920Y-11923150D01*
X14512920Y-11923150D02*
X14531968Y-11932674D01*
X14531968Y-11932674D02*
X14541491Y-11951722D01*
X14541491Y-11951722D02*
X14541491Y-11970769D01*
X14541491Y-11970769D02*
X14446253Y-11989817D01*
X14617682Y-12046960D02*
X14636730Y-12056484D01*
X14636730Y-12056484D02*
X14674825Y-12056484D01*
X14674825Y-12056484D02*
X14693872Y-12046960D01*
X14693872Y-12046960D02*
X14703396Y-12027912D01*
X14703396Y-12027912D02*
X14703396Y-12018388D01*
X14703396Y-12018388D02*
X14693872Y-11999341D01*
X14693872Y-11999341D02*
X14674825Y-11989817D01*
X14674825Y-11989817D02*
X14646253Y-11989817D01*
X14646253Y-11989817D02*
X14627206Y-11980293D01*
X14627206Y-11980293D02*
X14617682Y-11961246D01*
X14617682Y-11961246D02*
X14617682Y-11951722D01*
X14617682Y-11951722D02*
X14627206Y-11932674D01*
X14627206Y-11932674D02*
X14646253Y-11923150D01*
X14646253Y-11923150D02*
X14674825Y-11923150D01*
X14674825Y-11923150D02*
X14693872Y-11932674D01*
X14770063Y-12132674D02*
X14779587Y-12123150D01*
X14779587Y-12123150D02*
X14798634Y-12094579D01*
X14798634Y-12094579D02*
X14808158Y-12075531D01*
X14808158Y-12075531D02*
X14817682Y-12046960D01*
X14817682Y-12046960D02*
X14827206Y-11999341D01*
X14827206Y-11999341D02*
X14827206Y-11961246D01*
X14827206Y-11961246D02*
X14817682Y-11913627D01*
X14817682Y-11913627D02*
X14808158Y-11885055D01*
X14808158Y-11885055D02*
X14798634Y-11866008D01*
X14798634Y-11866008D02*
X14779587Y-11837436D01*
X14779587Y-11837436D02*
X14770063Y-11827912D01*
M02*
