%TF.GenerationSoftware,KiCad,Pcbnew,8.0.8*%
%TF.CreationDate,2025-05-07T16:47:23+03:00*%
%TF.ProjectId,Adacel,41646163-656c-42e6-9b69-6361645f7063,rev?*%
%TF.SameCoordinates,Original*%
%TF.FileFunction,Copper,L1,Top*%
%TF.FilePolarity,Positive*%
%FSLAX46Y46*%
G04 Gerber Fmt 4.6, Leading zero omitted, Abs format (unit mm)*
G04 Created by KiCad (PCBNEW 8.0.8) date 2025-05-07 16:47:23*
%MOMM*%
%LPD*%
G01*
G04 APERTURE LIST*
%TA.AperFunction,ComponentPad*%
%ADD10R,1.800000X1.800000*%
%TD*%
%TA.AperFunction,ComponentPad*%
%ADD11C,1.800000*%
%TD*%
%TA.AperFunction,ComponentPad*%
%ADD12C,1.600000*%
%TD*%
%TA.AperFunction,ComponentPad*%
%ADD13O,1.600000X1.600000*%
%TD*%
%TA.AperFunction,ComponentPad*%
%ADD14C,2.000000*%
%TD*%
%TA.AperFunction,ComponentPad*%
%ADD15R,1.600000X1.600000*%
%TD*%
%TA.AperFunction,ComponentPad*%
%ADD16R,2.400000X1.600000*%
%TD*%
%TA.AperFunction,ComponentPad*%
%ADD17O,2.400000X1.600000*%
%TD*%
%TA.AperFunction,ComponentPad*%
%ADD18C,2.340000*%
%TD*%
%TA.AperFunction,ComponentPad*%
%ADD19R,1.500000X1.500000*%
%TD*%
%TA.AperFunction,ComponentPad*%
%ADD20R,1.700000X1.700000*%
%TD*%
%TA.AperFunction,ComponentPad*%
%ADD21O,1.700000X1.700000*%
%TD*%
%TA.AperFunction,Conductor*%
%ADD22C,0.254000*%
%TD*%
%TA.AperFunction,Conductor*%
%ADD23C,0.400000*%
%TD*%
%TA.AperFunction,Conductor*%
%ADD24C,0.500000*%
%TD*%
G04 APERTURE END LIST*
D10*
X108966000Y-84074000D03*
D11*
X108966000Y-86614000D03*
D12*
X113538000Y-55880000D03*
D13*
X121158000Y-55880000D03*
D10*
X161295000Y-55372000D03*
D11*
X158755000Y-55372000D03*
D12*
X146939000Y-72644000D03*
X146939000Y-75144000D03*
D10*
X108000000Y-58540000D03*
D11*
X108000000Y-56000000D03*
D14*
X107308000Y-67056000D03*
X114808000Y-67056000D03*
D15*
X110490000Y-76500000D03*
D12*
X107990000Y-76500000D03*
D16*
X126238000Y-75040000D03*
D17*
X126238000Y-72500000D03*
X126238000Y-69960000D03*
X126238000Y-67420000D03*
X118618000Y-67420000D03*
X118618000Y-69960000D03*
X118618000Y-72500000D03*
X118618000Y-75040000D03*
D12*
X130302000Y-66802000D03*
D13*
X130302000Y-74422000D03*
D18*
X135462000Y-75525000D03*
X140462000Y-73025000D03*
X135462000Y-70525000D03*
D12*
X144526000Y-93980000D03*
D19*
X147066000Y-93980000D03*
D12*
X149606000Y-93980000D03*
D14*
X155448000Y-87304000D03*
X148948000Y-87304000D03*
X155448000Y-82804000D03*
X148948000Y-82804000D03*
D20*
X160782000Y-73660000D03*
D21*
X160782000Y-71120000D03*
X160782000Y-68580000D03*
X160782000Y-66040000D03*
D12*
X146558000Y-53340000D03*
D13*
X154178000Y-53340000D03*
D20*
X108370000Y-48770000D03*
D21*
X108370000Y-46230000D03*
X110910000Y-48770000D03*
X110910000Y-46230000D03*
X113450000Y-48770000D03*
X113450000Y-46230000D03*
X115990000Y-48770000D03*
X115990000Y-46230000D03*
X118530000Y-48770000D03*
X118530000Y-46230000D03*
X121070000Y-48770000D03*
X121070000Y-46230000D03*
X123610000Y-48770000D03*
X123610000Y-46230000D03*
X126150000Y-48770000D03*
X126150000Y-46230000D03*
X128690000Y-48770000D03*
X128690000Y-46230000D03*
X131230000Y-48770000D03*
X131230000Y-46230000D03*
X133770000Y-48770000D03*
X133770000Y-46230000D03*
X136310000Y-48770000D03*
X136310000Y-46230000D03*
X138850000Y-48770000D03*
X138850000Y-46230000D03*
X141390000Y-48770000D03*
X141390000Y-46230000D03*
X143930000Y-48770000D03*
X143930000Y-46230000D03*
X146470000Y-48770000D03*
X146470000Y-46230000D03*
X149010000Y-48770000D03*
X149010000Y-46230000D03*
X151550000Y-48770000D03*
X151550000Y-46230000D03*
X154090000Y-48770000D03*
X154090000Y-46230000D03*
X156630000Y-48770000D03*
X156630000Y-46230000D03*
D22*
X119860000Y-67400000D02*
X119880000Y-67420000D01*
X121070000Y-48770000D02*
X121158000Y-48858000D01*
X121158000Y-48858000D02*
X121158000Y-55880000D01*
D23*
X126238000Y-75040000D02*
X127364000Y-75040000D01*
X124498000Y-47498000D02*
X125770000Y-48770000D01*
D22*
X131699000Y-73025000D02*
X140462000Y-73025000D01*
D23*
X125770000Y-48770000D02*
X126150000Y-48770000D01*
D22*
X128651000Y-76073000D02*
X130302000Y-74422000D01*
D23*
X122341537Y-48058463D02*
X122902000Y-47498000D01*
D22*
X140462000Y-73025000D02*
X142581000Y-75144000D01*
X130302000Y-74422000D02*
X131699000Y-73025000D01*
D23*
X151384000Y-76200000D02*
X151384000Y-71882000D01*
X131572000Y-79248000D02*
X148336000Y-79248000D01*
X124200000Y-53000000D02*
X122341537Y-51141537D01*
D22*
X142581000Y-75144000D02*
X146939000Y-75144000D01*
D23*
X122902000Y-47498000D02*
X124498000Y-47498000D01*
X127364000Y-75040000D02*
X131572000Y-79248000D01*
D22*
X128397000Y-76073000D02*
X128651000Y-76073000D01*
D23*
X122341537Y-51141537D02*
X122341537Y-48058463D01*
X132502000Y-53000000D02*
X124200000Y-53000000D01*
X151384000Y-71882000D02*
X132502000Y-53000000D01*
X148336000Y-79248000D02*
X151384000Y-76200000D01*
D22*
X129438265Y-44958000D02*
X127422000Y-44958000D01*
X135031784Y-49433784D02*
X135031784Y-48138519D01*
X146558000Y-53340000D02*
X146558000Y-52324000D01*
X127422000Y-44958000D02*
X126150000Y-46230000D01*
X130556000Y-47498000D02*
X129867000Y-46809000D01*
X129867000Y-45386735D02*
X129438265Y-44958000D01*
X135031784Y-48138519D02*
X134391265Y-47498000D01*
X145034000Y-50800000D02*
X136398000Y-50800000D01*
X134391265Y-47498000D02*
X130556000Y-47498000D01*
X136398000Y-50800000D02*
X135031784Y-49433784D01*
X129867000Y-46809000D02*
X129867000Y-45386735D01*
X146558000Y-52324000D02*
X145034000Y-50800000D01*
X130683000Y-66421000D02*
X130302000Y-66802000D01*
X143510000Y-66421000D02*
X130683000Y-66421000D01*
D23*
X118466000Y-79400000D02*
X113640000Y-79400000D01*
D22*
X126382000Y-72500000D02*
X126238000Y-72500000D01*
X146939000Y-69850000D02*
X143510000Y-66421000D01*
D23*
X125366000Y-72500000D02*
X118466000Y-79400000D01*
X126636000Y-72500000D02*
X126382000Y-72500000D01*
X126238000Y-72500000D02*
X125366000Y-72500000D01*
D22*
X146939000Y-72644000D02*
X146939000Y-69850000D01*
D23*
X113640000Y-79400000D02*
X108966000Y-84074000D01*
D22*
X158755000Y-55372000D02*
X157226000Y-55372000D01*
X157226000Y-55372000D02*
X155194000Y-53340000D01*
X155194000Y-53340000D02*
X154178000Y-53340000D01*
X119880000Y-69960000D02*
X119880000Y-72500000D01*
X113538000Y-55880000D02*
X109968000Y-55880000D01*
X109968000Y-55880000D02*
X109848000Y-56000000D01*
X109848000Y-56000000D02*
X108000000Y-56000000D01*
D23*
X129940000Y-50200000D02*
X133258000Y-50200000D01*
X128600000Y-48860000D02*
X129940000Y-50200000D01*
D24*
X108370000Y-48770000D02*
X108370000Y-50126000D01*
X110490000Y-73914000D02*
X110490000Y-76500000D01*
X117158000Y-76500000D02*
X118618000Y-75040000D01*
X107308000Y-70732000D02*
X110490000Y-73914000D01*
X107308000Y-63620000D02*
X107308000Y-67056000D01*
D23*
X133258000Y-50200000D02*
X162052000Y-78994000D01*
D24*
X108370000Y-50126000D02*
X104394000Y-54102000D01*
D23*
X162052000Y-86354000D02*
X151886000Y-96520000D01*
X162052000Y-78994000D02*
X162052000Y-86354000D01*
X147066000Y-95504000D02*
X147066000Y-93980000D01*
D24*
X110490000Y-76500000D02*
X117158000Y-76500000D01*
D23*
X162052000Y-84328000D02*
X159076000Y-87304000D01*
X155448000Y-87304000D02*
X157718000Y-87304000D01*
D24*
X104394000Y-54102000D02*
X104394000Y-60706000D01*
D23*
X151886000Y-96520000D02*
X148082000Y-96520000D01*
D24*
X104394000Y-60706000D02*
X107308000Y-63620000D01*
D23*
X159076000Y-87304000D02*
X155448000Y-87304000D01*
X148082000Y-96520000D02*
X147066000Y-95504000D01*
D24*
X107308000Y-67056000D02*
X107308000Y-70732000D01*
D22*
X155448000Y-73914000D02*
X133096000Y-51562000D01*
X123610000Y-50010000D02*
X123610000Y-48770000D01*
X155448000Y-76044000D02*
X155448000Y-73914000D01*
X155448000Y-82804000D02*
X155448000Y-76044000D01*
X133096000Y-51562000D02*
X125162000Y-51562000D01*
X125162000Y-51562000D02*
X123610000Y-50010000D01*
%TA.AperFunction,Conductor*%
G36*
X126488000Y-69644314D02*
G01*
X126483606Y-69639920D01*
X126392394Y-69587259D01*
X126290661Y-69560000D01*
X126185339Y-69560000D01*
X126083606Y-69587259D01*
X125992394Y-69639920D01*
X125988000Y-69644314D01*
X125988000Y-67735686D01*
X125992394Y-67740080D01*
X126083606Y-67792741D01*
X126185339Y-67820000D01*
X126290661Y-67820000D01*
X126392394Y-67792741D01*
X126483606Y-67740080D01*
X126488000Y-67735686D01*
X126488000Y-69644314D01*
G37*
%TD.AperFunction*%
%TA.AperFunction,Conductor*%
G36*
X126815677Y-44802424D02*
G01*
X126882615Y-44822439D01*
X126928108Y-44875469D01*
X126937709Y-44944675D01*
X126908370Y-45008087D01*
X126902741Y-45014102D01*
X126688994Y-45227849D01*
X126627671Y-45261334D01*
X126559801Y-45256480D01*
X126559784Y-45256537D01*
X126559534Y-45256461D01*
X126557979Y-45256350D01*
X126553981Y-45254776D01*
X126460624Y-45226457D01*
X126355934Y-45194700D01*
X126355932Y-45194699D01*
X126355934Y-45194699D01*
X126150000Y-45174417D01*
X125944067Y-45194699D01*
X125746043Y-45254769D01*
X125675586Y-45292430D01*
X125563550Y-45352315D01*
X125563548Y-45352316D01*
X125563547Y-45352317D01*
X125403589Y-45483589D01*
X125272317Y-45643547D01*
X125174769Y-45826043D01*
X125114699Y-46024067D01*
X125094417Y-46230000D01*
X125114699Y-46435932D01*
X125114700Y-46435934D01*
X125174768Y-46633954D01*
X125272315Y-46816450D01*
X125272317Y-46816452D01*
X125403589Y-46976410D01*
X125467492Y-47028853D01*
X125563550Y-47107685D01*
X125746046Y-47205232D01*
X125944066Y-47265300D01*
X125944065Y-47265300D01*
X125962529Y-47267118D01*
X126150000Y-47285583D01*
X126355934Y-47265300D01*
X126553954Y-47205232D01*
X126736450Y-47107685D01*
X126896410Y-46976410D01*
X127027685Y-46816450D01*
X127125232Y-46633954D01*
X127185300Y-46435934D01*
X127205583Y-46230000D01*
X127185300Y-46024066D01*
X127125232Y-45826046D01*
X127125230Y-45826043D01*
X127123463Y-45820216D01*
X127124595Y-45819872D01*
X127117802Y-45756667D01*
X127149077Y-45694188D01*
X127152150Y-45691004D01*
X127332905Y-45510250D01*
X127521336Y-45321819D01*
X127582659Y-45288334D01*
X127609017Y-45285500D01*
X127843982Y-45285500D01*
X127911021Y-45305185D01*
X127956776Y-45357989D01*
X127966720Y-45427147D01*
X127939836Y-45488164D01*
X127812317Y-45643547D01*
X127714769Y-45826043D01*
X127654699Y-46024067D01*
X127634417Y-46230000D01*
X127654699Y-46435932D01*
X127654700Y-46435934D01*
X127714768Y-46633954D01*
X127812315Y-46816450D01*
X127812317Y-46816452D01*
X127943589Y-46976410D01*
X128007492Y-47028853D01*
X128103550Y-47107685D01*
X128286046Y-47205232D01*
X128484066Y-47265300D01*
X128484065Y-47265300D01*
X128502529Y-47267118D01*
X128690000Y-47285583D01*
X128895934Y-47265300D01*
X129093954Y-47205232D01*
X129276450Y-47107685D01*
X129424918Y-46985841D01*
X129489226Y-46958529D01*
X129558093Y-46970320D01*
X129601956Y-47006207D01*
X129604933Y-47010087D01*
X129604935Y-47010090D01*
X130293935Y-47699090D01*
X130354910Y-47760065D01*
X130429590Y-47803181D01*
X130439580Y-47805857D01*
X130499239Y-47842219D01*
X130529770Y-47905064D01*
X130521478Y-47974440D01*
X130487847Y-48019232D01*
X130487897Y-48019282D01*
X130487549Y-48019629D01*
X130486161Y-48021479D01*
X130483590Y-48023588D01*
X130352317Y-48183547D01*
X130254769Y-48366043D01*
X130194699Y-48564067D01*
X130174417Y-48770000D01*
X130194699Y-48975932D01*
X130194700Y-48975934D01*
X130254768Y-49173954D01*
X130352315Y-49356450D01*
X130451165Y-49476900D01*
X130483590Y-49516410D01*
X130560644Y-49579647D01*
X130599978Y-49637392D01*
X130601849Y-49707237D01*
X130565662Y-49767005D01*
X130502906Y-49797721D01*
X130481979Y-49799500D01*
X130157255Y-49799500D01*
X130090216Y-49779815D01*
X130069574Y-49763181D01*
X129665860Y-49359467D01*
X129632375Y-49298144D01*
X129637359Y-49228452D01*
X129644184Y-49213331D01*
X129665230Y-49173957D01*
X129665232Y-49173954D01*
X129725300Y-48975934D01*
X129745583Y-48770000D01*
X129725300Y-48564066D01*
X129665232Y-48366046D01*
X129567685Y-48183550D01*
X129492897Y-48092420D01*
X129436410Y-48023589D01*
X129290536Y-47903875D01*
X129276450Y-47892315D01*
X129093954Y-47794768D01*
X128895934Y-47734700D01*
X128895932Y-47734699D01*
X128895934Y-47734699D01*
X128690000Y-47714417D01*
X128484067Y-47734699D01*
X128349736Y-47775448D01*
X128286050Y-47794767D01*
X128286043Y-47794769D01*
X128198114Y-47841769D01*
X128103550Y-47892315D01*
X128103548Y-47892316D01*
X128103547Y-47892317D01*
X127943589Y-48023589D01*
X127812317Y-48183547D01*
X127714769Y-48366043D01*
X127654699Y-48564067D01*
X127634417Y-48770000D01*
X127654699Y-48975932D01*
X127654700Y-48975934D01*
X127714768Y-49173954D01*
X127812315Y-49356450D01*
X127822037Y-49368296D01*
X127943589Y-49516410D01*
X128020645Y-49579647D01*
X128103550Y-49647685D01*
X128286046Y-49745232D01*
X128484066Y-49805300D01*
X128484065Y-49805300D01*
X128498453Y-49806717D01*
X128690000Y-49825583D01*
X128895934Y-49805300D01*
X128895943Y-49805297D01*
X128900123Y-49804466D01*
X128969715Y-49810687D01*
X129012007Y-49838400D01*
X129694087Y-50520480D01*
X129785412Y-50573207D01*
X129887273Y-50600500D01*
X129992727Y-50600500D01*
X133040745Y-50600500D01*
X133107784Y-50620185D01*
X133128426Y-50636819D01*
X161615181Y-79123574D01*
X161648666Y-79184897D01*
X161651500Y-79211255D01*
X161651500Y-84110745D01*
X161631815Y-84177784D01*
X161615181Y-84198426D01*
X158946426Y-86867181D01*
X158885103Y-86900666D01*
X158858745Y-86903500D01*
X156666449Y-86903500D01*
X156599410Y-86883815D01*
X156555449Y-86834772D01*
X156473061Y-86669316D01*
X156473056Y-86669308D01*
X156338979Y-86491761D01*
X156174562Y-86341876D01*
X156174560Y-86341874D01*
X155985404Y-86224754D01*
X155985398Y-86224752D01*
X155777940Y-86144382D01*
X155559243Y-86103500D01*
X155336757Y-86103500D01*
X155118060Y-86144382D01*
X155005193Y-86188107D01*
X154910601Y-86224752D01*
X154910595Y-86224754D01*
X154721439Y-86341874D01*
X154721437Y-86341876D01*
X154557020Y-86491761D01*
X154422943Y-86669308D01*
X154422938Y-86669316D01*
X154323775Y-86868461D01*
X154323769Y-86868476D01*
X154262885Y-87082462D01*
X154262884Y-87082464D01*
X154242357Y-87303999D01*
X154242357Y-87304000D01*
X154262884Y-87525535D01*
X154262885Y-87525537D01*
X154323769Y-87739523D01*
X154323775Y-87739538D01*
X154422938Y-87938683D01*
X154422943Y-87938691D01*
X154557020Y-88116238D01*
X154721437Y-88266123D01*
X154721439Y-88266125D01*
X154910595Y-88383245D01*
X154910596Y-88383245D01*
X154910599Y-88383247D01*
X155118060Y-88463618D01*
X155336757Y-88504500D01*
X155336759Y-88504500D01*
X155559241Y-88504500D01*
X155559243Y-88504500D01*
X155777940Y-88463618D01*
X155985401Y-88383247D01*
X156174562Y-88266124D01*
X156338981Y-88116236D01*
X156473058Y-87938689D01*
X156473061Y-87938683D01*
X156555449Y-87773228D01*
X156602952Y-87721991D01*
X156666449Y-87704500D01*
X159128725Y-87704500D01*
X159128727Y-87704500D01*
X159230588Y-87677207D01*
X159321913Y-87624480D01*
X161439819Y-85506572D01*
X161501142Y-85473088D01*
X161570834Y-85478072D01*
X161626767Y-85519944D01*
X161651184Y-85585408D01*
X161651500Y-85594254D01*
X161651500Y-86136745D01*
X161631815Y-86203784D01*
X161615181Y-86224426D01*
X151756426Y-96083181D01*
X151695103Y-96116666D01*
X151668745Y-96119500D01*
X148299255Y-96119500D01*
X148232216Y-96099815D01*
X148211574Y-96083181D01*
X147502819Y-95374426D01*
X147469334Y-95313103D01*
X147466500Y-95286745D01*
X147466500Y-95054500D01*
X147486185Y-94987461D01*
X147538989Y-94941706D01*
X147590500Y-94930500D01*
X147835750Y-94930500D01*
X147835751Y-94930499D01*
X147850568Y-94927552D01*
X147894229Y-94918868D01*
X147894229Y-94918867D01*
X147894231Y-94918867D01*
X147960552Y-94874552D01*
X148004867Y-94808231D01*
X148004867Y-94808229D01*
X148004868Y-94808229D01*
X148016499Y-94749752D01*
X148016500Y-94749750D01*
X148016500Y-93980000D01*
X148600659Y-93980000D01*
X148619975Y-94176129D01*
X148677188Y-94364733D01*
X148770086Y-94538532D01*
X148770090Y-94538539D01*
X148895116Y-94690883D01*
X149047460Y-94815909D01*
X149047467Y-94815913D01*
X149221266Y-94908811D01*
X149221269Y-94908811D01*
X149221273Y-94908814D01*
X149409868Y-94966024D01*
X149606000Y-94985341D01*
X149802132Y-94966024D01*
X149990727Y-94908814D01*
X150164538Y-94815910D01*
X150316883Y-94690883D01*
X150441910Y-94538538D01*
X150534814Y-94364727D01*
X150592024Y-94176132D01*
X150611341Y-93980000D01*
X150592024Y-93783868D01*
X150534814Y-93595273D01*
X150534811Y-93595269D01*
X150534811Y-93595266D01*
X150441913Y-93421467D01*
X150441909Y-93421460D01*
X150316883Y-93269116D01*
X150164539Y-93144090D01*
X150164532Y-93144086D01*
X149990733Y-93051188D01*
X149990727Y-93051186D01*
X149802132Y-92993976D01*
X149802129Y-92993975D01*
X149606000Y-92974659D01*
X149409870Y-92993975D01*
X149221266Y-93051188D01*
X149047467Y-93144086D01*
X149047460Y-93144090D01*
X148895116Y-93269116D01*
X148770090Y-93421460D01*
X148770086Y-93421467D01*
X148677188Y-93595266D01*
X148619975Y-93783870D01*
X148600659Y-93980000D01*
X148016500Y-93980000D01*
X148016500Y-93210249D01*
X148016499Y-93210247D01*
X148004868Y-93151770D01*
X148004867Y-93151769D01*
X147960552Y-93085447D01*
X147894230Y-93041132D01*
X147894229Y-93041131D01*
X147835752Y-93029500D01*
X147835748Y-93029500D01*
X146296252Y-93029500D01*
X146296247Y-93029500D01*
X146237770Y-93041131D01*
X146237769Y-93041132D01*
X146171447Y-93085447D01*
X146127132Y-93151769D01*
X146127131Y-93151770D01*
X146115500Y-93210247D01*
X146115500Y-94749752D01*
X146127131Y-94808229D01*
X146127132Y-94808230D01*
X146171447Y-94874552D01*
X146237769Y-94918867D01*
X146237770Y-94918868D01*
X146296247Y-94930499D01*
X146296250Y-94930500D01*
X146296252Y-94930500D01*
X146541500Y-94930500D01*
X146608539Y-94950185D01*
X146654294Y-95002989D01*
X146665500Y-95054500D01*
X146665500Y-95556726D01*
X146692793Y-95658589D01*
X146719156Y-95704250D01*
X146745520Y-95749913D01*
X147836087Y-96840480D01*
X147927412Y-96893207D01*
X148029273Y-96920500D01*
X148029275Y-96920500D01*
X151938725Y-96920500D01*
X151938727Y-96920500D01*
X152040588Y-96893207D01*
X152131913Y-96840480D01*
X162372480Y-86599913D01*
X162425207Y-86508588D01*
X162452500Y-86406727D01*
X162452500Y-86301273D01*
X162452500Y-84390729D01*
X162452501Y-84390716D01*
X162452501Y-84267678D01*
X162452500Y-84267660D01*
X162452500Y-78941275D01*
X162452500Y-78941273D01*
X162425207Y-78839413D01*
X162372480Y-78748087D01*
X162297913Y-78673520D01*
X156386548Y-72762155D01*
X159432000Y-72762155D01*
X159432000Y-73410000D01*
X160348988Y-73410000D01*
X160316075Y-73467007D01*
X160282000Y-73594174D01*
X160282000Y-73725826D01*
X160316075Y-73852993D01*
X160348988Y-73910000D01*
X159432000Y-73910000D01*
X159432000Y-74557844D01*
X159438401Y-74617372D01*
X159438403Y-74617379D01*
X159488645Y-74752086D01*
X159488649Y-74752093D01*
X159574809Y-74867187D01*
X159574812Y-74867190D01*
X159689906Y-74953350D01*
X159689913Y-74953354D01*
X159824620Y-75003596D01*
X159824627Y-75003598D01*
X159884155Y-75009999D01*
X159884172Y-75010000D01*
X160532000Y-75010000D01*
X160532000Y-74093012D01*
X160589007Y-74125925D01*
X160716174Y-74160000D01*
X160847826Y-74160000D01*
X160974993Y-74125925D01*
X161032000Y-74093012D01*
X161032000Y-75010000D01*
X161679828Y-75010000D01*
X161679844Y-75009999D01*
X161739372Y-75003598D01*
X161739379Y-75003596D01*
X161874086Y-74953354D01*
X161874093Y-74953350D01*
X161989187Y-74867190D01*
X161989190Y-74867187D01*
X162075350Y-74752093D01*
X162075354Y-74752086D01*
X162125596Y-74617379D01*
X162125598Y-74617372D01*
X162131999Y-74557844D01*
X162132000Y-74557827D01*
X162132000Y-73910000D01*
X161215012Y-73910000D01*
X161247925Y-73852993D01*
X161282000Y-73725826D01*
X161282000Y-73594174D01*
X161247925Y-73467007D01*
X161215012Y-73410000D01*
X162132000Y-73410000D01*
X162132000Y-72762172D01*
X162131999Y-72762155D01*
X162125598Y-72702627D01*
X162125596Y-72702620D01*
X162075354Y-72567913D01*
X162075350Y-72567906D01*
X161989190Y-72452812D01*
X161989187Y-72452809D01*
X161874093Y-72366649D01*
X161874086Y-72366645D01*
X161739379Y-72316403D01*
X161739372Y-72316401D01*
X161679844Y-72310000D01*
X161279187Y-72310000D01*
X161212148Y-72290315D01*
X161166393Y-72237511D01*
X161156449Y-72168353D01*
X161185474Y-72104797D01*
X161220733Y-72076642D01*
X161227739Y-72072897D01*
X161368450Y-71997685D01*
X161528410Y-71866410D01*
X161659685Y-71706450D01*
X161757232Y-71523954D01*
X161817300Y-71325934D01*
X161837583Y-71120000D01*
X161817300Y-70914066D01*
X161757232Y-70716046D01*
X161659685Y-70533550D01*
X161598528Y-70459029D01*
X161528410Y-70373589D01*
X161408764Y-70275400D01*
X161368450Y-70242315D01*
X161185954Y-70144768D01*
X160987934Y-70084700D01*
X160987932Y-70084699D01*
X160987934Y-70084699D01*
X160782000Y-70064417D01*
X160576067Y-70084699D01*
X160378043Y-70144769D01*
X160328135Y-70171446D01*
X160195550Y-70242315D01*
X160195548Y-70242316D01*
X160195547Y-70242317D01*
X160035589Y-70373589D01*
X159904317Y-70533547D01*
X159806769Y-70716043D01*
X159806768Y-70716045D01*
X159806768Y-70716046D01*
X159800370Y-70737139D01*
X159746699Y-70914067D01*
X159726417Y-71120000D01*
X159746699Y-71325932D01*
X159746700Y-71325934D01*
X159806768Y-71523954D01*
X159904315Y-71706450D01*
X159921519Y-71727413D01*
X160035589Y-71866410D01*
X160116872Y-71933116D01*
X160195550Y-71997685D01*
X160336261Y-72072897D01*
X160343267Y-72076642D01*
X160393111Y-72125605D01*
X160408571Y-72193743D01*
X160384739Y-72259422D01*
X160329181Y-72301791D01*
X160284813Y-72310000D01*
X159884155Y-72310000D01*
X159824627Y-72316401D01*
X159824620Y-72316403D01*
X159689913Y-72366645D01*
X159689906Y-72366649D01*
X159574812Y-72452809D01*
X159574809Y-72452812D01*
X159488649Y-72567906D01*
X159488645Y-72567913D01*
X159438403Y-72702620D01*
X159438401Y-72702627D01*
X159432000Y-72762155D01*
X156386548Y-72762155D01*
X152204393Y-68580000D01*
X159726417Y-68580000D01*
X159746699Y-68785932D01*
X159746700Y-68785934D01*
X159806768Y-68983954D01*
X159904315Y-69166450D01*
X159904317Y-69166452D01*
X160035589Y-69326410D01*
X160132209Y-69405702D01*
X160195550Y-69457685D01*
X160378046Y-69555232D01*
X160576066Y-69615300D01*
X160576065Y-69615300D01*
X160594529Y-69617118D01*
X160782000Y-69635583D01*
X160987934Y-69615300D01*
X161185954Y-69555232D01*
X161368450Y-69457685D01*
X161528410Y-69326410D01*
X161659685Y-69166450D01*
X161757232Y-68983954D01*
X161817300Y-68785934D01*
X161837583Y-68580000D01*
X161817300Y-68374066D01*
X161757232Y-68176046D01*
X161659685Y-67993550D01*
X161556845Y-67868238D01*
X161528410Y-67833589D01*
X161403173Y-67730811D01*
X161368450Y-67702315D01*
X161185954Y-67604768D01*
X160987934Y-67544700D01*
X160987932Y-67544699D01*
X160987934Y-67544699D01*
X160782000Y-67524417D01*
X160576067Y-67544699D01*
X160378043Y-67604769D01*
X160267898Y-67663643D01*
X160195550Y-67702315D01*
X160195548Y-67702316D01*
X160195547Y-67702317D01*
X160035589Y-67833589D01*
X159904317Y-67993547D01*
X159904315Y-67993550D01*
X159865643Y-68065898D01*
X159806769Y-68176043D01*
X159746699Y-68374067D01*
X159726417Y-68580000D01*
X152204393Y-68580000D01*
X149664393Y-66040000D01*
X159726417Y-66040000D01*
X159746699Y-66245932D01*
X159746700Y-66245934D01*
X159806768Y-66443954D01*
X159904315Y-66626450D01*
X159904317Y-66626452D01*
X160035589Y-66786410D01*
X160094144Y-66834464D01*
X160195550Y-66917685D01*
X160378046Y-67015232D01*
X160576066Y-67075300D01*
X160576065Y-67075300D01*
X160594529Y-67077118D01*
X160782000Y-67095583D01*
X160987934Y-67075300D01*
X161185954Y-67015232D01*
X161368450Y-66917685D01*
X161528410Y-66786410D01*
X161659685Y-66626450D01*
X161757232Y-66443954D01*
X161817300Y-66245934D01*
X161837583Y-66040000D01*
X161817300Y-65834066D01*
X161757232Y-65636046D01*
X161659685Y-65453550D01*
X161607702Y-65390209D01*
X161528410Y-65293589D01*
X161368452Y-65162317D01*
X161368453Y-65162317D01*
X161368450Y-65162315D01*
X161185954Y-65064768D01*
X160987934Y-65004700D01*
X160987932Y-65004699D01*
X160987934Y-65004699D01*
X160782000Y-64984417D01*
X160576067Y-65004699D01*
X160378043Y-65064769D01*
X160267898Y-65123643D01*
X160195550Y-65162315D01*
X160195548Y-65162316D01*
X160195547Y-65162317D01*
X160035589Y-65293589D01*
X159904317Y-65453547D01*
X159806769Y-65636043D01*
X159746699Y-65834067D01*
X159726417Y-66040000D01*
X149664393Y-66040000D01*
X133660065Y-50035672D01*
X133626580Y-49974349D01*
X133631564Y-49904657D01*
X133673436Y-49848724D01*
X133738900Y-49824307D01*
X133759897Y-49824587D01*
X133770000Y-49825583D01*
X133975934Y-49805300D01*
X134173954Y-49745232D01*
X134356450Y-49647685D01*
X134516410Y-49516410D01*
X134516411Y-49516408D01*
X134516413Y-49516407D01*
X134520718Y-49512103D01*
X134522682Y-49514067D01*
X134570493Y-49481423D01*
X134640336Y-49479477D01*
X134700143Y-49515599D01*
X134721052Y-49553698D01*
X134723494Y-49552687D01*
X134726603Y-49560194D01*
X134769719Y-49634874D01*
X136196910Y-51062065D01*
X136271590Y-51105181D01*
X136354884Y-51127500D01*
X136441116Y-51127500D01*
X144846983Y-51127500D01*
X144914022Y-51147185D01*
X144934664Y-51163819D01*
X146060755Y-52289910D01*
X146094240Y-52351233D01*
X146089256Y-52420925D01*
X146047384Y-52476858D01*
X146031529Y-52486948D01*
X145999468Y-52504085D01*
X145999460Y-52504090D01*
X145847116Y-52629116D01*
X145722090Y-52781460D01*
X145722086Y-52781467D01*
X145629188Y-52955266D01*
X145571975Y-53143870D01*
X145552659Y-53339997D01*
X145552659Y-53340000D01*
X145555930Y-53373207D01*
X145571975Y-53536129D01*
X145571976Y-53536132D01*
X145627147Y-53718007D01*
X145629188Y-53724733D01*
X145722086Y-53898532D01*
X145722090Y-53898539D01*
X145847116Y-54050883D01*
X145999460Y-54175909D01*
X145999467Y-54175913D01*
X146173266Y-54268811D01*
X146173269Y-54268811D01*
X146173273Y-54268814D01*
X146361868Y-54326024D01*
X146558000Y-54345341D01*
X146754132Y-54326024D01*
X146942727Y-54268814D01*
X146973653Y-54252284D01*
X147116532Y-54175913D01*
X147116538Y-54175910D01*
X147268883Y-54050883D01*
X147393910Y-53898538D01*
X147486814Y-53724727D01*
X147544024Y-53536132D01*
X147563341Y-53340000D01*
X147563341Y-53339997D01*
X153172659Y-53339997D01*
X153172659Y-53340000D01*
X153175930Y-53373207D01*
X153191975Y-53536129D01*
X153191976Y-53536132D01*
X153247147Y-53718007D01*
X153249188Y-53724733D01*
X153342086Y-53898532D01*
X153342090Y-53898539D01*
X153467116Y-54050883D01*
X153619460Y-54175909D01*
X153619467Y-54175913D01*
X153793266Y-54268811D01*
X153793269Y-54268811D01*
X153793273Y-54268814D01*
X153981868Y-54326024D01*
X154178000Y-54345341D01*
X154374132Y-54326024D01*
X154562727Y-54268814D01*
X154593653Y-54252284D01*
X154736532Y-54175913D01*
X154736538Y-54175910D01*
X154888883Y-54050883D01*
X155013910Y-53898538D01*
X155031049Y-53866472D01*
X155080011Y-53816628D01*
X155148148Y-53801167D01*
X155213828Y-53824998D01*
X155228089Y-53837244D01*
X157024910Y-55634065D01*
X157099590Y-55677181D01*
X157182884Y-55699500D01*
X157269116Y-55699500D01*
X157611913Y-55699500D01*
X157678952Y-55719185D01*
X157722913Y-55768229D01*
X157815325Y-55953819D01*
X157938237Y-56116581D01*
X158088958Y-56253980D01*
X158088960Y-56253982D01*
X158171648Y-56305180D01*
X158262363Y-56361348D01*
X158452544Y-56435024D01*
X158653024Y-56472500D01*
X158653026Y-56472500D01*
X158856974Y-56472500D01*
X158856976Y-56472500D01*
X159057456Y-56435024D01*
X159247637Y-56361348D01*
X159421041Y-56253981D01*
X159571764Y-56116579D01*
X159672046Y-55983783D01*
X159728155Y-55942148D01*
X159797867Y-55937457D01*
X159859049Y-55971199D01*
X159892276Y-56032662D01*
X159895000Y-56058511D01*
X159895000Y-56319844D01*
X159901401Y-56379372D01*
X159901403Y-56379379D01*
X159951645Y-56514086D01*
X159951649Y-56514093D01*
X160037809Y-56629187D01*
X160037812Y-56629190D01*
X160152906Y-56715350D01*
X160152913Y-56715354D01*
X160287620Y-56765596D01*
X160287627Y-56765598D01*
X160347155Y-56771999D01*
X160347172Y-56772000D01*
X161045000Y-56772000D01*
X161045000Y-55747277D01*
X161121306Y-55791333D01*
X161235756Y-55822000D01*
X161354244Y-55822000D01*
X161468694Y-55791333D01*
X161545000Y-55747277D01*
X161545000Y-56772000D01*
X162242828Y-56772000D01*
X162242844Y-56771999D01*
X162302372Y-56765598D01*
X162302379Y-56765596D01*
X162437086Y-56715354D01*
X162437093Y-56715350D01*
X162552187Y-56629190D01*
X162552190Y-56629187D01*
X162638350Y-56514093D01*
X162638354Y-56514086D01*
X162688596Y-56379379D01*
X162688598Y-56379372D01*
X162694999Y-56319844D01*
X162695000Y-56319827D01*
X162695000Y-55622000D01*
X161670278Y-55622000D01*
X161714333Y-55545694D01*
X161745000Y-55431244D01*
X161745000Y-55312756D01*
X161714333Y-55198306D01*
X161670278Y-55122000D01*
X162695000Y-55122000D01*
X162695000Y-54424172D01*
X162694999Y-54424155D01*
X162688598Y-54364627D01*
X162688596Y-54364620D01*
X162638354Y-54229913D01*
X162638350Y-54229906D01*
X162552190Y-54114812D01*
X162552187Y-54114809D01*
X162437093Y-54028649D01*
X162437086Y-54028645D01*
X162302379Y-53978403D01*
X162302372Y-53978401D01*
X162242844Y-53972000D01*
X161545000Y-53972000D01*
X161545000Y-54996722D01*
X161468694Y-54952667D01*
X161354244Y-54922000D01*
X161235756Y-54922000D01*
X161121306Y-54952667D01*
X161045000Y-54996722D01*
X161045000Y-53972000D01*
X160347155Y-53972000D01*
X160287627Y-53978401D01*
X160287620Y-53978403D01*
X160152913Y-54028645D01*
X160152906Y-54028649D01*
X160037812Y-54114809D01*
X160037809Y-54114812D01*
X159951649Y-54229906D01*
X159951645Y-54229913D01*
X159901403Y-54364620D01*
X159901401Y-54364627D01*
X159895000Y-54424155D01*
X159895000Y-54685488D01*
X159875315Y-54752527D01*
X159822511Y-54798282D01*
X159753353Y-54808226D01*
X159689797Y-54779201D01*
X159672046Y-54760215D01*
X159571762Y-54627419D01*
X159421041Y-54490019D01*
X159421039Y-54490017D01*
X159247642Y-54382655D01*
X159247635Y-54382651D01*
X159101462Y-54326024D01*
X159057456Y-54308976D01*
X158856976Y-54271500D01*
X158653024Y-54271500D01*
X158452544Y-54308976D01*
X158452541Y-54308976D01*
X158452541Y-54308977D01*
X158262364Y-54382651D01*
X158262357Y-54382655D01*
X158088960Y-54490017D01*
X158088958Y-54490019D01*
X157938237Y-54627418D01*
X157815325Y-54790180D01*
X157722913Y-54975771D01*
X157675410Y-55027009D01*
X157611913Y-55044500D01*
X157413017Y-55044500D01*
X157345978Y-55024815D01*
X157325336Y-55008181D01*
X155395091Y-53077936D01*
X155395090Y-53077935D01*
X155320410Y-53034819D01*
X155320411Y-53034819D01*
X155292645Y-53027379D01*
X155237116Y-53012500D01*
X155237114Y-53012500D01*
X155211725Y-53012500D01*
X155144686Y-52992815D01*
X155102367Y-52946953D01*
X155013913Y-52781467D01*
X155013909Y-52781460D01*
X154888883Y-52629116D01*
X154736539Y-52504090D01*
X154736532Y-52504086D01*
X154562733Y-52411188D01*
X154562727Y-52411186D01*
X154374132Y-52353976D01*
X154374129Y-52353975D01*
X154178000Y-52334659D01*
X153981870Y-52353975D01*
X153793266Y-52411188D01*
X153619467Y-52504086D01*
X153619460Y-52504090D01*
X153467116Y-52629116D01*
X153342090Y-52781460D01*
X153342086Y-52781467D01*
X153249188Y-52955266D01*
X153191975Y-53143870D01*
X153172659Y-53339997D01*
X147563341Y-53339997D01*
X147561418Y-53320480D01*
X147544024Y-53143870D01*
X147544024Y-53143868D01*
X147486814Y-52955273D01*
X147486811Y-52955269D01*
X147486811Y-52955266D01*
X147393913Y-52781467D01*
X147393909Y-52781460D01*
X147268883Y-52629116D01*
X147116539Y-52504090D01*
X147116532Y-52504085D01*
X146951047Y-52415632D01*
X146901202Y-52366670D01*
X146885500Y-52306274D01*
X146885500Y-52280885D01*
X146863181Y-52197590D01*
X146863181Y-52197588D01*
X146820067Y-52122913D01*
X146820062Y-52122907D01*
X145235091Y-50537936D01*
X145235090Y-50537935D01*
X145160410Y-50494819D01*
X145160411Y-50494819D01*
X145132645Y-50487379D01*
X145077116Y-50472500D01*
X145077114Y-50472500D01*
X136585017Y-50472500D01*
X136517978Y-50452815D01*
X136497336Y-50436181D01*
X136085548Y-50024393D01*
X136052063Y-49963070D01*
X136057047Y-49893378D01*
X136098919Y-49837445D01*
X136164383Y-49813028D01*
X136185381Y-49813308D01*
X136310000Y-49825583D01*
X136515934Y-49805300D01*
X136713954Y-49745232D01*
X136896450Y-49647685D01*
X137056410Y-49516410D01*
X137187685Y-49356450D01*
X137285232Y-49173954D01*
X137345300Y-48975934D01*
X137365583Y-48770000D01*
X137794417Y-48770000D01*
X137814699Y-48975932D01*
X137814700Y-48975934D01*
X137874768Y-49173954D01*
X137972315Y-49356450D01*
X137982037Y-49368296D01*
X138103589Y-49516410D01*
X138180645Y-49579647D01*
X138263550Y-49647685D01*
X138446046Y-49745232D01*
X138644066Y-49805300D01*
X138644065Y-49805300D01*
X138658453Y-49806717D01*
X138850000Y-49825583D01*
X139055934Y-49805300D01*
X139253954Y-49745232D01*
X139436450Y-49647685D01*
X139596410Y-49516410D01*
X139727685Y-49356450D01*
X139825232Y-49173954D01*
X139885300Y-48975934D01*
X139905583Y-48770000D01*
X140334417Y-48770000D01*
X140354699Y-48975932D01*
X140354700Y-48975934D01*
X140414768Y-49173954D01*
X140512315Y-49356450D01*
X140522037Y-49368296D01*
X140643589Y-49516410D01*
X140720645Y-49579647D01*
X140803550Y-49647685D01*
X140986046Y-49745232D01*
X141184066Y-49805300D01*
X141184065Y-49805300D01*
X141198453Y-49806717D01*
X141390000Y-49825583D01*
X141595934Y-49805300D01*
X141793954Y-49745232D01*
X141976450Y-49647685D01*
X142136410Y-49516410D01*
X142267685Y-49356450D01*
X142365232Y-49173954D01*
X142425300Y-48975934D01*
X142445583Y-48770000D01*
X142874417Y-48770000D01*
X142894699Y-48975932D01*
X142894700Y-48975934D01*
X142954768Y-49173954D01*
X143052315Y-49356450D01*
X143062037Y-49368296D01*
X143183589Y-49516410D01*
X143260645Y-49579647D01*
X143343550Y-49647685D01*
X143526046Y-49745232D01*
X143724066Y-49805300D01*
X143724065Y-49805300D01*
X143738453Y-49806717D01*
X143930000Y-49825583D01*
X144135934Y-49805300D01*
X144333954Y-49745232D01*
X144516450Y-49647685D01*
X144676410Y-49516410D01*
X144807685Y-49356450D01*
X144905232Y-49173954D01*
X144965300Y-48975934D01*
X144985583Y-48770000D01*
X145414417Y-48770000D01*
X145434699Y-48975932D01*
X145434700Y-48975934D01*
X145494768Y-49173954D01*
X145592315Y-49356450D01*
X145602037Y-49368296D01*
X145723589Y-49516410D01*
X145800645Y-49579647D01*
X145883550Y-49647685D01*
X146066046Y-49745232D01*
X146264066Y-49805300D01*
X146264065Y-49805300D01*
X146278453Y-49806717D01*
X146470000Y-49825583D01*
X146675934Y-49805300D01*
X146873954Y-49745232D01*
X147056450Y-49647685D01*
X147216410Y-49516410D01*
X147347685Y-49356450D01*
X147445232Y-49173954D01*
X147505300Y-48975934D01*
X147525583Y-48770000D01*
X147505300Y-48564066D01*
X147445232Y-48366046D01*
X147347685Y-48183550D01*
X147272897Y-48092420D01*
X147216410Y-48023589D01*
X147070536Y-47903875D01*
X147056450Y-47892315D01*
X146873954Y-47794768D01*
X146675934Y-47734700D01*
X146675932Y-47734699D01*
X146675934Y-47734699D01*
X146470000Y-47714417D01*
X146264067Y-47734699D01*
X146129736Y-47775448D01*
X146066050Y-47794767D01*
X146066043Y-47794769D01*
X145978114Y-47841769D01*
X145883550Y-47892315D01*
X145883548Y-47892316D01*
X145883547Y-47892317D01*
X145723589Y-48023589D01*
X145592317Y-48183547D01*
X145494769Y-48366043D01*
X145434699Y-48564067D01*
X145414417Y-48770000D01*
X144985583Y-48770000D01*
X144965300Y-48564066D01*
X144905232Y-48366046D01*
X144807685Y-48183550D01*
X144732897Y-48092420D01*
X144676410Y-48023589D01*
X144530536Y-47903875D01*
X144516450Y-47892315D01*
X144333954Y-47794768D01*
X144135934Y-47734700D01*
X144135932Y-47734699D01*
X144135934Y-47734699D01*
X143930000Y-47714417D01*
X143724067Y-47734699D01*
X143589736Y-47775448D01*
X143526050Y-47794767D01*
X143526043Y-47794769D01*
X143438114Y-47841769D01*
X143343550Y-47892315D01*
X143343548Y-47892316D01*
X143343547Y-47892317D01*
X143183589Y-48023589D01*
X143052317Y-48183547D01*
X142954769Y-48366043D01*
X142894699Y-48564067D01*
X142874417Y-48770000D01*
X142445583Y-48770000D01*
X142425300Y-48564066D01*
X142365232Y-48366046D01*
X142267685Y-48183550D01*
X142192897Y-48092420D01*
X142136410Y-48023589D01*
X141990536Y-47903875D01*
X141976450Y-47892315D01*
X141793954Y-47794768D01*
X141595934Y-47734700D01*
X141595932Y-47734699D01*
X141595934Y-47734699D01*
X141390000Y-47714417D01*
X141184067Y-47734699D01*
X141049736Y-47775448D01*
X140986050Y-47794767D01*
X140986043Y-47794769D01*
X140898114Y-47841769D01*
X140803550Y-47892315D01*
X140803548Y-47892316D01*
X140803547Y-47892317D01*
X140643589Y-48023589D01*
X140512317Y-48183547D01*
X140414769Y-48366043D01*
X140354699Y-48564067D01*
X140334417Y-48770000D01*
X139905583Y-48770000D01*
X139885300Y-48564066D01*
X139825232Y-48366046D01*
X139727685Y-48183550D01*
X139652897Y-48092420D01*
X139596410Y-48023589D01*
X139450536Y-47903875D01*
X139436450Y-47892315D01*
X139253954Y-47794768D01*
X139055934Y-47734700D01*
X139055932Y-47734699D01*
X139055934Y-47734699D01*
X138850000Y-47714417D01*
X138644067Y-47734699D01*
X138509736Y-47775448D01*
X138446050Y-47794767D01*
X138446043Y-47794769D01*
X138358114Y-47841769D01*
X138263550Y-47892315D01*
X138263548Y-47892316D01*
X138263547Y-47892317D01*
X138103589Y-48023589D01*
X137972317Y-48183547D01*
X137874769Y-48366043D01*
X137814699Y-48564067D01*
X137794417Y-48770000D01*
X137365583Y-48770000D01*
X137345300Y-48564066D01*
X137285232Y-48366046D01*
X137187685Y-48183550D01*
X137112897Y-48092420D01*
X137056410Y-48023589D01*
X136910536Y-47903875D01*
X136896450Y-47892315D01*
X136713954Y-47794768D01*
X136515934Y-47734700D01*
X136515932Y-47734699D01*
X136515934Y-47734699D01*
X136310000Y-47714417D01*
X136104067Y-47734699D01*
X135969736Y-47775448D01*
X135906050Y-47794767D01*
X135906043Y-47794769D01*
X135818114Y-47841769D01*
X135723550Y-47892315D01*
X135723548Y-47892316D01*
X135723547Y-47892317D01*
X135563587Y-48023591D01*
X135547382Y-48043337D01*
X135489635Y-48082670D01*
X135419791Y-48084539D01*
X135360023Y-48048350D01*
X135341330Y-48018972D01*
X135341028Y-48019147D01*
X135336976Y-48012129D01*
X135336966Y-48012113D01*
X135336965Y-48012109D01*
X135293849Y-47937429D01*
X135232874Y-47876454D01*
X134592355Y-47235935D01*
X134592354Y-47235934D01*
X134566682Y-47221113D01*
X134517675Y-47192819D01*
X134517672Y-47192818D01*
X134517296Y-47192601D01*
X134469080Y-47142034D01*
X134455856Y-47073428D01*
X134481824Y-47008562D01*
X134500633Y-46989358D01*
X134516409Y-46976411D01*
X134531084Y-46958529D01*
X134647685Y-46816450D01*
X134745232Y-46633954D01*
X134805300Y-46435934D01*
X134825583Y-46230000D01*
X135254417Y-46230000D01*
X135274699Y-46435932D01*
X135274700Y-46435934D01*
X135334768Y-46633954D01*
X135432315Y-46816450D01*
X135432317Y-46816452D01*
X135563589Y-46976410D01*
X135627492Y-47028853D01*
X135723550Y-47107685D01*
X135906046Y-47205232D01*
X136104066Y-47265300D01*
X136104065Y-47265300D01*
X136122529Y-47267118D01*
X136310000Y-47285583D01*
X136515934Y-47265300D01*
X136713954Y-47205232D01*
X136896450Y-47107685D01*
X137056410Y-46976410D01*
X137187685Y-46816450D01*
X137285232Y-46633954D01*
X137345300Y-46435934D01*
X137365583Y-46230000D01*
X137794417Y-46230000D01*
X137814699Y-46435932D01*
X137814700Y-46435934D01*
X137874768Y-46633954D01*
X137972315Y-46816450D01*
X137972317Y-46816452D01*
X138103589Y-46976410D01*
X138167492Y-47028853D01*
X138263550Y-47107685D01*
X138446046Y-47205232D01*
X138644066Y-47265300D01*
X138644065Y-47265300D01*
X138662529Y-47267118D01*
X138850000Y-47285583D01*
X139055934Y-47265300D01*
X139253954Y-47205232D01*
X139436450Y-47107685D01*
X139596410Y-46976410D01*
X139727685Y-46816450D01*
X139825232Y-46633954D01*
X139885300Y-46435934D01*
X139905583Y-46230000D01*
X140334417Y-46230000D01*
X140354699Y-46435932D01*
X140354700Y-46435934D01*
X140414768Y-46633954D01*
X140512315Y-46816450D01*
X140512317Y-46816452D01*
X140643589Y-46976410D01*
X140707492Y-47028853D01*
X140803550Y-47107685D01*
X140986046Y-47205232D01*
X141184066Y-47265300D01*
X141184065Y-47265300D01*
X141202529Y-47267118D01*
X141390000Y-47285583D01*
X141595934Y-47265300D01*
X141793954Y-47205232D01*
X141976450Y-47107685D01*
X142136410Y-46976410D01*
X142267685Y-46816450D01*
X142365232Y-46633954D01*
X142425300Y-46435934D01*
X142445583Y-46230000D01*
X142874417Y-46230000D01*
X142894699Y-46435932D01*
X142894700Y-46435934D01*
X142954768Y-46633954D01*
X143052315Y-46816450D01*
X143052317Y-46816452D01*
X143183589Y-46976410D01*
X143247492Y-47028853D01*
X143343550Y-47107685D01*
X143526046Y-47205232D01*
X143724066Y-47265300D01*
X143724065Y-47265300D01*
X143742529Y-47267118D01*
X143930000Y-47285583D01*
X144135934Y-47265300D01*
X144333954Y-47205232D01*
X144516450Y-47107685D01*
X144676410Y-46976410D01*
X144807685Y-46816450D01*
X144905232Y-46633954D01*
X144965300Y-46435934D01*
X144985583Y-46230000D01*
X144965300Y-46024066D01*
X144905232Y-45826046D01*
X144807685Y-45643550D01*
X144732897Y-45552420D01*
X144676410Y-45483589D01*
X144558677Y-45386969D01*
X144516450Y-45352315D01*
X144333954Y-45254768D01*
X144135934Y-45194700D01*
X144135932Y-45194699D01*
X144135934Y-45194699D01*
X143930000Y-45174417D01*
X143724067Y-45194699D01*
X143526043Y-45254769D01*
X143455586Y-45292430D01*
X143343550Y-45352315D01*
X143343548Y-45352316D01*
X143343547Y-45352317D01*
X143183589Y-45483589D01*
X143052317Y-45643547D01*
X142954769Y-45826043D01*
X142894699Y-46024067D01*
X142874417Y-46230000D01*
X142445583Y-46230000D01*
X142425300Y-46024066D01*
X142365232Y-45826046D01*
X142267685Y-45643550D01*
X142192897Y-45552420D01*
X142136410Y-45483589D01*
X142018677Y-45386969D01*
X141976450Y-45352315D01*
X141793954Y-45254768D01*
X141595934Y-45194700D01*
X141595932Y-45194699D01*
X141595934Y-45194699D01*
X141390000Y-45174417D01*
X141184067Y-45194699D01*
X140986043Y-45254769D01*
X140915586Y-45292430D01*
X140803550Y-45352315D01*
X140803548Y-45352316D01*
X140803547Y-45352317D01*
X140643589Y-45483589D01*
X140512317Y-45643547D01*
X140414769Y-45826043D01*
X140354699Y-46024067D01*
X140334417Y-46230000D01*
X139905583Y-46230000D01*
X139885300Y-46024066D01*
X139825232Y-45826046D01*
X139727685Y-45643550D01*
X139652897Y-45552420D01*
X139596410Y-45483589D01*
X139478677Y-45386969D01*
X139436450Y-45352315D01*
X139253954Y-45254768D01*
X139055934Y-45194700D01*
X139055932Y-45194699D01*
X139055934Y-45194699D01*
X138850000Y-45174417D01*
X138644067Y-45194699D01*
X138446043Y-45254769D01*
X138375586Y-45292430D01*
X138263550Y-45352315D01*
X138263548Y-45352316D01*
X138263547Y-45352317D01*
X138103589Y-45483589D01*
X137972317Y-45643547D01*
X137874769Y-45826043D01*
X137814699Y-46024067D01*
X137794417Y-46230000D01*
X137365583Y-46230000D01*
X137345300Y-46024066D01*
X137285232Y-45826046D01*
X137187685Y-45643550D01*
X137112897Y-45552420D01*
X137056410Y-45483589D01*
X136938677Y-45386969D01*
X136896450Y-45352315D01*
X136713954Y-45254768D01*
X136515934Y-45194700D01*
X136515932Y-45194699D01*
X136515934Y-45194699D01*
X136310000Y-45174417D01*
X136104067Y-45194699D01*
X135906043Y-45254769D01*
X135835586Y-45292430D01*
X135723550Y-45352315D01*
X135723548Y-45352316D01*
X135723547Y-45352317D01*
X135563589Y-45483589D01*
X135432317Y-45643547D01*
X135334769Y-45826043D01*
X135274699Y-46024067D01*
X135254417Y-46230000D01*
X134825583Y-46230000D01*
X134805300Y-46024066D01*
X134745232Y-45826046D01*
X134647685Y-45643550D01*
X134572897Y-45552420D01*
X134516410Y-45483589D01*
X134398677Y-45386969D01*
X134356450Y-45352315D01*
X134173954Y-45254768D01*
X133975934Y-45194700D01*
X133975932Y-45194699D01*
X133975934Y-45194699D01*
X133770000Y-45174417D01*
X133564067Y-45194699D01*
X133366043Y-45254769D01*
X133295586Y-45292430D01*
X133183550Y-45352315D01*
X133183548Y-45352316D01*
X133183547Y-45352317D01*
X133023589Y-45483589D01*
X132892317Y-45643547D01*
X132794769Y-45826043D01*
X132734699Y-46024067D01*
X132714417Y-46230000D01*
X132734699Y-46435932D01*
X132734700Y-46435934D01*
X132794768Y-46633954D01*
X132892315Y-46816450D01*
X132921585Y-46852116D01*
X133016553Y-46967836D01*
X133043865Y-47032146D01*
X133032074Y-47101013D01*
X132984921Y-47152573D01*
X132920699Y-47170500D01*
X132079301Y-47170500D01*
X132012262Y-47150815D01*
X131966507Y-47098011D01*
X131956563Y-47028853D01*
X131983447Y-46967836D01*
X132019533Y-46923864D01*
X132107685Y-46816450D01*
X132205232Y-46633954D01*
X132265300Y-46435934D01*
X132285583Y-46230000D01*
X132265300Y-46024066D01*
X132205232Y-45826046D01*
X132107685Y-45643550D01*
X132032897Y-45552420D01*
X131976410Y-45483589D01*
X131858677Y-45386969D01*
X131816450Y-45352315D01*
X131633954Y-45254768D01*
X131435934Y-45194700D01*
X131435932Y-45194699D01*
X131435934Y-45194699D01*
X131230000Y-45174417D01*
X131024067Y-45194699D01*
X130826043Y-45254769D01*
X130755586Y-45292430D01*
X130643550Y-45352315D01*
X130643548Y-45352316D01*
X130643547Y-45352317D01*
X130483589Y-45483590D01*
X130414353Y-45567955D01*
X130356608Y-45607289D01*
X130286763Y-45609160D01*
X130226995Y-45572973D01*
X130196279Y-45510217D01*
X130194500Y-45489290D01*
X130194500Y-45343620D01*
X130194500Y-45343619D01*
X130172181Y-45260325D01*
X130129065Y-45185645D01*
X130068090Y-45124670D01*
X129973592Y-45030172D01*
X129940107Y-44968849D01*
X129945091Y-44899157D01*
X129986963Y-44843224D01*
X130052427Y-44818807D01*
X130061847Y-44818494D01*
X148151632Y-44908047D01*
X148218571Y-44928063D01*
X148264064Y-44981093D01*
X148273665Y-45050299D01*
X148244326Y-45113711D01*
X148222140Y-45133620D01*
X148138922Y-45191890D01*
X148138920Y-45191891D01*
X147971891Y-45358920D01*
X147971886Y-45358926D01*
X147836400Y-45552420D01*
X147836399Y-45552422D01*
X147736570Y-45766507D01*
X147736567Y-45766514D01*
X147703841Y-45888650D01*
X147667476Y-45948310D01*
X147604629Y-45978839D01*
X147535253Y-45970544D01*
X147481375Y-45926059D01*
X147465406Y-45892552D01*
X147445232Y-45826046D01*
X147347685Y-45643550D01*
X147272897Y-45552420D01*
X147216410Y-45483589D01*
X147098677Y-45386969D01*
X147056450Y-45352315D01*
X146873954Y-45254768D01*
X146675934Y-45194700D01*
X146675932Y-45194699D01*
X146675934Y-45194699D01*
X146470000Y-45174417D01*
X146264067Y-45194699D01*
X146066043Y-45254769D01*
X145995586Y-45292430D01*
X145883550Y-45352315D01*
X145883548Y-45352316D01*
X145883547Y-45352317D01*
X145723589Y-45483589D01*
X145592317Y-45643547D01*
X145494769Y-45826043D01*
X145434699Y-46024067D01*
X145414417Y-46230000D01*
X145434699Y-46435932D01*
X145434700Y-46435934D01*
X145494768Y-46633954D01*
X145592315Y-46816450D01*
X145592317Y-46816452D01*
X145723589Y-46976410D01*
X145787492Y-47028853D01*
X145883550Y-47107685D01*
X146066046Y-47205232D01*
X146264066Y-47265300D01*
X146264065Y-47265300D01*
X146282529Y-47267118D01*
X146470000Y-47285583D01*
X146675934Y-47265300D01*
X146873954Y-47205232D01*
X147056450Y-47107685D01*
X147216410Y-46976410D01*
X147347685Y-46816450D01*
X147445232Y-46633954D01*
X147465406Y-46567446D01*
X147503702Y-46509010D01*
X147567514Y-46480553D01*
X147636581Y-46491112D01*
X147688975Y-46537336D01*
X147703841Y-46571349D01*
X147736567Y-46693486D01*
X147736570Y-46693492D01*
X147836399Y-46907578D01*
X147971894Y-47101082D01*
X148138917Y-47268105D01*
X148332421Y-47403600D01*
X148546507Y-47503429D01*
X148546516Y-47503433D01*
X148668649Y-47536158D01*
X148728310Y-47572523D01*
X148758839Y-47635369D01*
X148750545Y-47704745D01*
X148706059Y-47758623D01*
X148672552Y-47774593D01*
X148606046Y-47794767D01*
X148518112Y-47841770D01*
X148423550Y-47892315D01*
X148423548Y-47892316D01*
X148423547Y-47892317D01*
X148263589Y-48023589D01*
X148132317Y-48183547D01*
X148034769Y-48366043D01*
X147974699Y-48564067D01*
X147954417Y-48770000D01*
X147974699Y-48975932D01*
X147974700Y-48975934D01*
X148034768Y-49173954D01*
X148132315Y-49356450D01*
X148142037Y-49368296D01*
X148263589Y-49516410D01*
X148340645Y-49579647D01*
X148423550Y-49647685D01*
X148606046Y-49745232D01*
X148804066Y-49805300D01*
X148804065Y-49805300D01*
X148818453Y-49806717D01*
X149010000Y-49825583D01*
X149215934Y-49805300D01*
X149413954Y-49745232D01*
X149596450Y-49647685D01*
X149756410Y-49516410D01*
X149887685Y-49356450D01*
X149985232Y-49173954D01*
X150045300Y-48975934D01*
X150065583Y-48770000D01*
X150494417Y-48770000D01*
X150514699Y-48975932D01*
X150514700Y-48975934D01*
X150574768Y-49173954D01*
X150672315Y-49356450D01*
X150682037Y-49368296D01*
X150803589Y-49516410D01*
X150880645Y-49579647D01*
X150963550Y-49647685D01*
X151146046Y-49745232D01*
X151344066Y-49805300D01*
X151344065Y-49805300D01*
X151358453Y-49806717D01*
X151550000Y-49825583D01*
X151755934Y-49805300D01*
X151953954Y-49745232D01*
X152136450Y-49647685D01*
X152296410Y-49516410D01*
X152427685Y-49356450D01*
X152525232Y-49173954D01*
X152585300Y-48975934D01*
X152605583Y-48770000D01*
X152585300Y-48564066D01*
X152525232Y-48366046D01*
X152427685Y-48183550D01*
X152352897Y-48092420D01*
X152296410Y-48023589D01*
X152150536Y-47903875D01*
X152136450Y-47892315D01*
X151953954Y-47794768D01*
X151755934Y-47734700D01*
X151755932Y-47734699D01*
X151755934Y-47734699D01*
X151550000Y-47714417D01*
X151344067Y-47734699D01*
X151209736Y-47775448D01*
X151146050Y-47794767D01*
X151146043Y-47794769D01*
X151058114Y-47841769D01*
X150963550Y-47892315D01*
X150963548Y-47892316D01*
X150963547Y-47892317D01*
X150803589Y-48023589D01*
X150672317Y-48183547D01*
X150574769Y-48366043D01*
X150514699Y-48564067D01*
X150494417Y-48770000D01*
X150065583Y-48770000D01*
X150045300Y-48564066D01*
X149985232Y-48366046D01*
X149887685Y-48183550D01*
X149812897Y-48092420D01*
X149756410Y-48023589D01*
X149610536Y-47903875D01*
X149596450Y-47892315D01*
X149413954Y-47794768D01*
X149347447Y-47774593D01*
X149289009Y-47736296D01*
X149260553Y-47672484D01*
X149271113Y-47603417D01*
X149317337Y-47551023D01*
X149351350Y-47536158D01*
X149473483Y-47503433D01*
X149473492Y-47503429D01*
X149687578Y-47403600D01*
X149881082Y-47268105D01*
X150048105Y-47101082D01*
X150183600Y-46907578D01*
X150283429Y-46693492D01*
X150283433Y-46693483D01*
X150316158Y-46571350D01*
X150352522Y-46511690D01*
X150415369Y-46481160D01*
X150484745Y-46489454D01*
X150538623Y-46533939D01*
X150554593Y-46567447D01*
X150574768Y-46633954D01*
X150672315Y-46816450D01*
X150672317Y-46816452D01*
X150803589Y-46976410D01*
X150867492Y-47028853D01*
X150963550Y-47107685D01*
X151146046Y-47205232D01*
X151344066Y-47265300D01*
X151344065Y-47265300D01*
X151362529Y-47267118D01*
X151550000Y-47285583D01*
X151755934Y-47265300D01*
X151953954Y-47205232D01*
X152136450Y-47107685D01*
X152296410Y-46976410D01*
X152427685Y-46816450D01*
X152525232Y-46633954D01*
X152585300Y-46435934D01*
X152605583Y-46230000D01*
X153034417Y-46230000D01*
X153054699Y-46435932D01*
X153054700Y-46435934D01*
X153114768Y-46633954D01*
X153212315Y-46816450D01*
X153212317Y-46816452D01*
X153343589Y-46976410D01*
X153407492Y-47028853D01*
X153503550Y-47107685D01*
X153686046Y-47205232D01*
X153884066Y-47265300D01*
X153884065Y-47265300D01*
X153902529Y-47267118D01*
X154090000Y-47285583D01*
X154295934Y-47265300D01*
X154493954Y-47205232D01*
X154676450Y-47107685D01*
X154836410Y-46976410D01*
X154967685Y-46816450D01*
X155065232Y-46633954D01*
X155125300Y-46435934D01*
X155145583Y-46230000D01*
X155125300Y-46024066D01*
X155065232Y-45826046D01*
X154967685Y-45643550D01*
X154892897Y-45552420D01*
X154836410Y-45483589D01*
X154718677Y-45386969D01*
X154676450Y-45352315D01*
X154493954Y-45254768D01*
X154295934Y-45194700D01*
X154295932Y-45194699D01*
X154295934Y-45194699D01*
X154202169Y-45185464D01*
X154137382Y-45159302D01*
X154097023Y-45102268D01*
X154096363Y-45087487D01*
X154070885Y-45142555D01*
X154011920Y-45180038D01*
X153989730Y-45184292D01*
X153884067Y-45194699D01*
X153686043Y-45254769D01*
X153615586Y-45292430D01*
X153503550Y-45352315D01*
X153503548Y-45352316D01*
X153503547Y-45352317D01*
X153343589Y-45483589D01*
X153212317Y-45643547D01*
X153114769Y-45826043D01*
X153054699Y-46024067D01*
X153034417Y-46230000D01*
X152605583Y-46230000D01*
X152585300Y-46024066D01*
X152525232Y-45826046D01*
X152427685Y-45643550D01*
X152352897Y-45552420D01*
X152296410Y-45483589D01*
X152178677Y-45386969D01*
X152136450Y-45352315D01*
X151953954Y-45254768D01*
X151755934Y-45194700D01*
X151755932Y-45194699D01*
X151755934Y-45194699D01*
X151550000Y-45174417D01*
X151344067Y-45194699D01*
X151146043Y-45254769D01*
X151075586Y-45292430D01*
X150963550Y-45352315D01*
X150963548Y-45352316D01*
X150963547Y-45352317D01*
X150803589Y-45483589D01*
X150672317Y-45643547D01*
X150574767Y-45826046D01*
X150554593Y-45892552D01*
X150516296Y-45950990D01*
X150452483Y-45979447D01*
X150383416Y-45968886D01*
X150331023Y-45922661D01*
X150316158Y-45888649D01*
X150283433Y-45766516D01*
X150283429Y-45766507D01*
X150183600Y-45552422D01*
X150183599Y-45552420D01*
X150048113Y-45358926D01*
X150048108Y-45358920D01*
X149881078Y-45191890D01*
X149810091Y-45142184D01*
X149766466Y-45087607D01*
X149759274Y-45018109D01*
X149790796Y-44955754D01*
X149851027Y-44920341D01*
X149881820Y-44916612D01*
X153978192Y-44936892D01*
X154045130Y-44956907D01*
X154090623Y-45009937D01*
X154093982Y-45034150D01*
X154093907Y-45032467D01*
X154129022Y-44972063D01*
X154191220Y-44940232D01*
X154214927Y-44938063D01*
X156401475Y-44948888D01*
X156468415Y-44968904D01*
X156513908Y-45021934D01*
X156523509Y-45091140D01*
X156494170Y-45154552D01*
X156435205Y-45192035D01*
X156425061Y-45194501D01*
X156424077Y-45194696D01*
X156226043Y-45254769D01*
X156155586Y-45292430D01*
X156043550Y-45352315D01*
X156043548Y-45352316D01*
X156043547Y-45352317D01*
X155883589Y-45483589D01*
X155752317Y-45643547D01*
X155654769Y-45826043D01*
X155594699Y-46024067D01*
X155574417Y-46230000D01*
X155594699Y-46435932D01*
X155594700Y-46435934D01*
X155654768Y-46633954D01*
X155752315Y-46816450D01*
X155752317Y-46816452D01*
X155883589Y-46976410D01*
X155947492Y-47028853D01*
X156043550Y-47107685D01*
X156226046Y-47205232D01*
X156292551Y-47225405D01*
X156350989Y-47263702D01*
X156379446Y-47327514D01*
X156368887Y-47396581D01*
X156322663Y-47448975D01*
X156288650Y-47463841D01*
X156166514Y-47496567D01*
X156166507Y-47496570D01*
X155952422Y-47596399D01*
X155952420Y-47596400D01*
X155758926Y-47731886D01*
X155758920Y-47731891D01*
X155591891Y-47898920D01*
X155591886Y-47898926D01*
X155456400Y-48092420D01*
X155456399Y-48092422D01*
X155356570Y-48306507D01*
X155356567Y-48306514D01*
X155323841Y-48428650D01*
X155287476Y-48488310D01*
X155224629Y-48518839D01*
X155155253Y-48510544D01*
X155101375Y-48466059D01*
X155085406Y-48432553D01*
X155065232Y-48366046D01*
X154967685Y-48183550D01*
X154892897Y-48092420D01*
X154836410Y-48023589D01*
X154690536Y-47903875D01*
X154676450Y-47892315D01*
X154493954Y-47794768D01*
X154295934Y-47734700D01*
X154295932Y-47734699D01*
X154295934Y-47734699D01*
X154090000Y-47714417D01*
X153884067Y-47734699D01*
X153749736Y-47775448D01*
X153686050Y-47794767D01*
X153686043Y-47794769D01*
X153598114Y-47841769D01*
X153503550Y-47892315D01*
X153503548Y-47892316D01*
X153503547Y-47892317D01*
X153343589Y-48023589D01*
X153212317Y-48183547D01*
X153114769Y-48366043D01*
X153054699Y-48564067D01*
X153034417Y-48770000D01*
X153054699Y-48975932D01*
X153054700Y-48975934D01*
X153114768Y-49173954D01*
X153212315Y-49356450D01*
X153222037Y-49368296D01*
X153343589Y-49516410D01*
X153420645Y-49579647D01*
X153503550Y-49647685D01*
X153686046Y-49745232D01*
X153884066Y-49805300D01*
X153884065Y-49805300D01*
X153898453Y-49806717D01*
X154090000Y-49825583D01*
X154295934Y-49805300D01*
X154493954Y-49745232D01*
X154676450Y-49647685D01*
X154836410Y-49516410D01*
X154967685Y-49356450D01*
X155065232Y-49173954D01*
X155085406Y-49107446D01*
X155123702Y-49049010D01*
X155187514Y-49020553D01*
X155256581Y-49031112D01*
X155308975Y-49077336D01*
X155323841Y-49111349D01*
X155356567Y-49233486D01*
X155356570Y-49233492D01*
X155456399Y-49447578D01*
X155591894Y-49641082D01*
X155758917Y-49808105D01*
X155952421Y-49943600D01*
X156166507Y-50043429D01*
X156166516Y-50043433D01*
X156380000Y-50100634D01*
X156380000Y-49203012D01*
X156437007Y-49235925D01*
X156564174Y-49270000D01*
X156695826Y-49270000D01*
X156822993Y-49235925D01*
X156880000Y-49203012D01*
X156880000Y-50100633D01*
X157093483Y-50043433D01*
X157093492Y-50043429D01*
X157307578Y-49943600D01*
X157501082Y-49808105D01*
X157668105Y-49641082D01*
X157803600Y-49447578D01*
X157903429Y-49233492D01*
X157903432Y-49233486D01*
X157960636Y-49020000D01*
X157063012Y-49020000D01*
X157095925Y-48962993D01*
X157130000Y-48835826D01*
X157130000Y-48704174D01*
X157095925Y-48577007D01*
X157063012Y-48520000D01*
X157960636Y-48520000D01*
X157960635Y-48519999D01*
X157903432Y-48306513D01*
X157903429Y-48306507D01*
X157803600Y-48092422D01*
X157803599Y-48092420D01*
X157668113Y-47898926D01*
X157668108Y-47898920D01*
X157501082Y-47731894D01*
X157307578Y-47596399D01*
X157093492Y-47496570D01*
X157093486Y-47496567D01*
X156971349Y-47463841D01*
X156911689Y-47427476D01*
X156881160Y-47364629D01*
X156889455Y-47295253D01*
X156933940Y-47241375D01*
X156967444Y-47225407D01*
X157033954Y-47205232D01*
X157216450Y-47107685D01*
X157376410Y-46976410D01*
X157507685Y-46816450D01*
X157605232Y-46633954D01*
X157665300Y-46435934D01*
X157685583Y-46230000D01*
X157665300Y-46024066D01*
X157605232Y-45826046D01*
X157507685Y-45643550D01*
X157432897Y-45552420D01*
X157376410Y-45483589D01*
X157258677Y-45386969D01*
X157216450Y-45352315D01*
X157033954Y-45254768D01*
X156945213Y-45227849D01*
X156833183Y-45193865D01*
X156774744Y-45155567D01*
X156746288Y-45091755D01*
X156756848Y-45022688D01*
X156803072Y-44970294D01*
X156869788Y-44951206D01*
X158118614Y-44957389D01*
X158185555Y-44977405D01*
X158231048Y-45030435D01*
X158242000Y-45081387D01*
X158242000Y-51562000D01*
X163706000Y-51562000D01*
X163773039Y-51581685D01*
X163818794Y-51634489D01*
X163830000Y-51686000D01*
X163830000Y-92332000D01*
X163810315Y-92399039D01*
X163757511Y-92444794D01*
X163706000Y-92456000D01*
X156972000Y-92456000D01*
X156972000Y-98936000D01*
X156952315Y-99003039D01*
X156899511Y-99048794D01*
X156848000Y-99060000D01*
X107312000Y-99060000D01*
X107244961Y-99040315D01*
X107199206Y-98987511D01*
X107188000Y-98936000D01*
X107188000Y-93980000D01*
X143520659Y-93980000D01*
X143539975Y-94176129D01*
X143597188Y-94364733D01*
X143690086Y-94538532D01*
X143690090Y-94538539D01*
X143815116Y-94690883D01*
X143967460Y-94815909D01*
X143967467Y-94815913D01*
X144141266Y-94908811D01*
X144141269Y-94908811D01*
X144141273Y-94908814D01*
X144329868Y-94966024D01*
X144526000Y-94985341D01*
X144722132Y-94966024D01*
X144910727Y-94908814D01*
X145084538Y-94815910D01*
X145236883Y-94690883D01*
X145361910Y-94538538D01*
X145454814Y-94364727D01*
X145512024Y-94176132D01*
X145531341Y-93980000D01*
X145512024Y-93783868D01*
X145454814Y-93595273D01*
X145454811Y-93595269D01*
X145454811Y-93595266D01*
X145361913Y-93421467D01*
X145361909Y-93421460D01*
X145236883Y-93269116D01*
X145084539Y-93144090D01*
X145084532Y-93144086D01*
X144910733Y-93051188D01*
X144910727Y-93051186D01*
X144722132Y-92993976D01*
X144722129Y-92993975D01*
X144526000Y-92974659D01*
X144329870Y-92993975D01*
X144141266Y-93051188D01*
X143967467Y-93144086D01*
X143967460Y-93144090D01*
X143815116Y-93269116D01*
X143690090Y-93421460D01*
X143690086Y-93421467D01*
X143597188Y-93595266D01*
X143539975Y-93783870D01*
X143520659Y-93980000D01*
X107188000Y-93980000D01*
X107188000Y-92202000D01*
X100962000Y-92202000D01*
X100894961Y-92182315D01*
X100849206Y-92129511D01*
X100838000Y-92078000D01*
X100838000Y-86613994D01*
X107561202Y-86613994D01*
X107561202Y-86614005D01*
X107580361Y-86845218D01*
X107637317Y-87070135D01*
X107730516Y-87282609D01*
X107814811Y-87411633D01*
X108523861Y-86702584D01*
X108546667Y-86787694D01*
X108605910Y-86890306D01*
X108689694Y-86974090D01*
X108792306Y-87033333D01*
X108877414Y-87056138D01*
X108167201Y-87766351D01*
X108197649Y-87790050D01*
X108401697Y-87900476D01*
X108401706Y-87900479D01*
X108621139Y-87975811D01*
X108849993Y-88014000D01*
X109082007Y-88014000D01*
X109310860Y-87975811D01*
X109530293Y-87900479D01*
X109530301Y-87900476D01*
X109734355Y-87790047D01*
X109764797Y-87766351D01*
X109764798Y-87766350D01*
X109054585Y-87056137D01*
X109139694Y-87033333D01*
X109242306Y-86974090D01*
X109326090Y-86890306D01*
X109385333Y-86787694D01*
X109408137Y-86702585D01*
X110117186Y-87411634D01*
X110187507Y-87303999D01*
X147742357Y-87303999D01*
X147742357Y-87304000D01*
X147762884Y-87525535D01*
X147762885Y-87525537D01*
X147823769Y-87739523D01*
X147823775Y-87739538D01*
X147922938Y-87938683D01*
X147922943Y-87938691D01*
X148057020Y-88116238D01*
X148221437Y-88266123D01*
X148221439Y-88266125D01*
X148410595Y-88383245D01*
X148410596Y-88383245D01*
X148410599Y-88383247D01*
X148618060Y-88463618D01*
X148836757Y-88504500D01*
X148836759Y-88504500D01*
X149059241Y-88504500D01*
X149059243Y-88504500D01*
X149277940Y-88463618D01*
X149485401Y-88383247D01*
X149674562Y-88266124D01*
X149838981Y-88116236D01*
X149973058Y-87938689D01*
X150072229Y-87739528D01*
X150133115Y-87525536D01*
X150153643Y-87304000D01*
X150133115Y-87082464D01*
X150072229Y-86868472D01*
X150072224Y-86868461D01*
X149973061Y-86669316D01*
X149973056Y-86669308D01*
X149838979Y-86491761D01*
X149674562Y-86341876D01*
X149674560Y-86341874D01*
X149485404Y-86224754D01*
X149485398Y-86224752D01*
X149277940Y-86144382D01*
X149059243Y-86103500D01*
X148836757Y-86103500D01*
X148618060Y-86144382D01*
X148505193Y-86188107D01*
X148410601Y-86224752D01*
X148410595Y-86224754D01*
X148221439Y-86341874D01*
X148221437Y-86341876D01*
X148057020Y-86491761D01*
X147922943Y-86669308D01*
X147922938Y-86669316D01*
X147823775Y-86868461D01*
X147823769Y-86868476D01*
X147762885Y-87082462D01*
X147762884Y-87082464D01*
X147742357Y-87303999D01*
X110187507Y-87303999D01*
X110201484Y-87282606D01*
X110294682Y-87070135D01*
X110351638Y-86845218D01*
X110370798Y-86614005D01*
X110370798Y-86613994D01*
X110351638Y-86382781D01*
X110294682Y-86157864D01*
X110201483Y-85945390D01*
X110117186Y-85816364D01*
X109408137Y-86525413D01*
X109385333Y-86440306D01*
X109326090Y-86337694D01*
X109242306Y-86253910D01*
X109139694Y-86194667D01*
X109054584Y-86171861D01*
X109764797Y-85461647D01*
X109764797Y-85461645D01*
X109734360Y-85437955D01*
X109734349Y-85437948D01*
X109678187Y-85407555D01*
X109628596Y-85358336D01*
X109613488Y-85290119D01*
X109637658Y-85224563D01*
X109693434Y-85182482D01*
X109737204Y-85174500D01*
X109885750Y-85174500D01*
X109885751Y-85174499D01*
X109900568Y-85171552D01*
X109944229Y-85162868D01*
X109944229Y-85162867D01*
X109944231Y-85162867D01*
X110010552Y-85118552D01*
X110054867Y-85052231D01*
X110054867Y-85052229D01*
X110054868Y-85052229D01*
X110066499Y-84993752D01*
X110066500Y-84993750D01*
X110066500Y-83591255D01*
X110086185Y-83524216D01*
X110102819Y-83503574D01*
X110802394Y-82803999D01*
X147742357Y-82803999D01*
X147742357Y-82804000D01*
X147762884Y-83025535D01*
X147762885Y-83025537D01*
X147823769Y-83239523D01*
X147823775Y-83239538D01*
X147922938Y-83438683D01*
X147922943Y-83438691D01*
X148057020Y-83616238D01*
X148221437Y-83766123D01*
X148221439Y-83766125D01*
X148410595Y-83883245D01*
X148410596Y-83883245D01*
X148410599Y-83883247D01*
X148618060Y-83963618D01*
X148836757Y-84004500D01*
X148836759Y-84004500D01*
X149059241Y-84004500D01*
X149059243Y-84004500D01*
X149277940Y-83963618D01*
X149485401Y-83883247D01*
X149674562Y-83766124D01*
X149838981Y-83616236D01*
X149973058Y-83438689D01*
X150072229Y-83239528D01*
X150133115Y-83025536D01*
X150153643Y-82804000D01*
X150133115Y-82582464D01*
X150072229Y-82368472D01*
X150072224Y-82368461D01*
X149973061Y-82169316D01*
X149973056Y-82169308D01*
X149838979Y-81991761D01*
X149674562Y-81841876D01*
X149674560Y-81841874D01*
X149485404Y-81724754D01*
X149485398Y-81724752D01*
X149277940Y-81644382D01*
X149059243Y-81603500D01*
X148836757Y-81603500D01*
X148618060Y-81644382D01*
X148548608Y-81671288D01*
X148410601Y-81724752D01*
X148410595Y-81724754D01*
X148221439Y-81841874D01*
X148221437Y-81841876D01*
X148057020Y-81991761D01*
X147922943Y-82169308D01*
X147922938Y-82169316D01*
X147823775Y-82368461D01*
X147823769Y-82368476D01*
X147762885Y-82582462D01*
X147762884Y-82582464D01*
X147742357Y-82803999D01*
X110802394Y-82803999D01*
X113769574Y-79836819D01*
X113830897Y-79803334D01*
X113857255Y-79800500D01*
X118518725Y-79800500D01*
X118518727Y-79800500D01*
X118620588Y-79773207D01*
X118711913Y-79720480D01*
X125101306Y-73331084D01*
X125162627Y-73297601D01*
X125232319Y-73302585D01*
X125257876Y-73315665D01*
X125364079Y-73386628D01*
X125364092Y-73386635D01*
X125507559Y-73446060D01*
X125546165Y-73462051D01*
X125546169Y-73462051D01*
X125546170Y-73462052D01*
X125739456Y-73500500D01*
X125739459Y-73500500D01*
X126736543Y-73500500D01*
X126882201Y-73471526D01*
X126929835Y-73462051D01*
X127111914Y-73386632D01*
X127275782Y-73277139D01*
X127415139Y-73137782D01*
X127524632Y-72973914D01*
X127600051Y-72791835D01*
X127629458Y-72644000D01*
X127638500Y-72598543D01*
X127638500Y-72401456D01*
X127600052Y-72208170D01*
X127600051Y-72208169D01*
X127600051Y-72208165D01*
X127586555Y-72175583D01*
X127524635Y-72026092D01*
X127524628Y-72026079D01*
X127415139Y-71862218D01*
X127415136Y-71862214D01*
X127275785Y-71722863D01*
X127275781Y-71722860D01*
X127111920Y-71613371D01*
X127111907Y-71613364D01*
X126929839Y-71537950D01*
X126929829Y-71537947D01*
X126748937Y-71501965D01*
X126687026Y-71469580D01*
X126652452Y-71408864D01*
X126656192Y-71339095D01*
X126697059Y-71282423D01*
X126753731Y-71257875D01*
X126942417Y-71227990D01*
X127137031Y-71164755D01*
X127319349Y-71071859D01*
X127484894Y-70951582D01*
X127484895Y-70951582D01*
X127629582Y-70806895D01*
X127629582Y-70806894D01*
X127749859Y-70641349D01*
X127809144Y-70524995D01*
X133787317Y-70524995D01*
X133787317Y-70525004D01*
X133806021Y-70774597D01*
X133806021Y-70774599D01*
X133861714Y-71018607D01*
X133861720Y-71018626D01*
X133953163Y-71251618D01*
X134078311Y-71468382D01*
X134116800Y-71516645D01*
X134860958Y-70772487D01*
X134885978Y-70832890D01*
X134957112Y-70939351D01*
X135047649Y-71029888D01*
X135154110Y-71101022D01*
X135214510Y-71126041D01*
X134470402Y-71870148D01*
X134624651Y-71975313D01*
X134624664Y-71975320D01*
X134850167Y-72083916D01*
X134850165Y-72083916D01*
X135089346Y-72157694D01*
X135089352Y-72157696D01*
X135336843Y-72194999D01*
X135336852Y-72195000D01*
X135587148Y-72195000D01*
X135587156Y-72194999D01*
X135834647Y-72157696D01*
X135834653Y-72157694D01*
X136073833Y-72083916D01*
X136299334Y-71975322D01*
X136299335Y-71975321D01*
X136453596Y-71870148D01*
X135709488Y-71126041D01*
X135769890Y-71101022D01*
X135876351Y-71029888D01*
X135966888Y-70939351D01*
X136038022Y-70832890D01*
X136063041Y-70772489D01*
X136807198Y-71516646D01*
X136807199Y-71516645D01*
X136845681Y-71468392D01*
X136845688Y-71468381D01*
X136970836Y-71251618D01*
X137062279Y-71018626D01*
X137062285Y-71018607D01*
X137117978Y-70774599D01*
X137117978Y-70774597D01*
X137136683Y-70525004D01*
X137136683Y-70524995D01*
X137117978Y-70275402D01*
X137117978Y-70275400D01*
X137062285Y-70031392D01*
X137062279Y-70031373D01*
X136970836Y-69798381D01*
X136845685Y-69581613D01*
X136807199Y-69533352D01*
X136063041Y-70277510D01*
X136038022Y-70217110D01*
X135966888Y-70110649D01*
X135876351Y-70020112D01*
X135769890Y-69948978D01*
X135709487Y-69923958D01*
X136453596Y-69179850D01*
X136299342Y-69074682D01*
X136299334Y-69074677D01*
X136073832Y-68966083D01*
X136073834Y-68966083D01*
X135834653Y-68892305D01*
X135834647Y-68892303D01*
X135587156Y-68855000D01*
X135336843Y-68855000D01*
X135089352Y-68892303D01*
X135089346Y-68892305D01*
X134850166Y-68966083D01*
X134624661Y-69074680D01*
X134624660Y-69074681D01*
X134470402Y-69179849D01*
X135214511Y-69923958D01*
X135154110Y-69948978D01*
X135047649Y-70020112D01*
X134957112Y-70110649D01*
X134885978Y-70217110D01*
X134860958Y-70277511D01*
X134116800Y-69533353D01*
X134078308Y-69581621D01*
X133953163Y-69798381D01*
X133861720Y-70031373D01*
X133861714Y-70031392D01*
X133806021Y-70275400D01*
X133806021Y-70275402D01*
X133787317Y-70524995D01*
X127809144Y-70524995D01*
X127842755Y-70459029D01*
X127905990Y-70264413D01*
X127914609Y-70210000D01*
X126553686Y-70210000D01*
X126558080Y-70205606D01*
X126610741Y-70114394D01*
X126638000Y-70012661D01*
X126638000Y-69907339D01*
X126610741Y-69805606D01*
X126558080Y-69714394D01*
X126553686Y-69710000D01*
X127914609Y-69710000D01*
X127905990Y-69655586D01*
X127842755Y-69460970D01*
X127749859Y-69278650D01*
X127629582Y-69113105D01*
X127629582Y-69113104D01*
X127484895Y-68968417D01*
X127319349Y-68848140D01*
X127225820Y-68800485D01*
X127175024Y-68752511D01*
X127158229Y-68684690D01*
X127180766Y-68618555D01*
X127225820Y-68579515D01*
X127319349Y-68531859D01*
X127484894Y-68411582D01*
X127484895Y-68411582D01*
X127629582Y-68266895D01*
X127629582Y-68266894D01*
X127749859Y-68101349D01*
X127842755Y-67919029D01*
X127905990Y-67724413D01*
X127914609Y-67670000D01*
X126553686Y-67670000D01*
X126558080Y-67665606D01*
X126610741Y-67574394D01*
X126638000Y-67472661D01*
X126638000Y-67367339D01*
X126610741Y-67265606D01*
X126558080Y-67174394D01*
X126553686Y-67170000D01*
X127914609Y-67170000D01*
X127905990Y-67115586D01*
X127842755Y-66920970D01*
X127782137Y-66802000D01*
X129296659Y-66802000D01*
X129315975Y-66998129D01*
X129315976Y-66998132D01*
X129351605Y-67115586D01*
X129373188Y-67186733D01*
X129466086Y-67360532D01*
X129466090Y-67360539D01*
X129591116Y-67512883D01*
X129743460Y-67637909D01*
X129743467Y-67637913D01*
X129917266Y-67730811D01*
X129917269Y-67730811D01*
X129917273Y-67730814D01*
X130105868Y-67788024D01*
X130302000Y-67807341D01*
X130498132Y-67788024D01*
X130686727Y-67730814D01*
X130698703Y-67724413D01*
X130860532Y-67637913D01*
X130860538Y-67637910D01*
X131012883Y-67512883D01*
X131137910Y-67360538D01*
X131230814Y-67186727D01*
X131288024Y-66998132D01*
X131301594Y-66860345D01*
X131327754Y-66795559D01*
X131384789Y-66755200D01*
X131424997Y-66748500D01*
X143322983Y-66748500D01*
X143390022Y-66768185D01*
X143410664Y-66784819D01*
X146575181Y-69949336D01*
X146608666Y-70010659D01*
X146611500Y-70037017D01*
X146611500Y-71610274D01*
X146591815Y-71677313D01*
X146545953Y-71719632D01*
X146380467Y-71808085D01*
X146380460Y-71808090D01*
X146228116Y-71933116D01*
X146103090Y-72085460D01*
X146103086Y-72085467D01*
X146010188Y-72259266D01*
X145952975Y-72447870D01*
X145933659Y-72644000D01*
X145952975Y-72840129D01*
X145952976Y-72840132D01*
X146009055Y-73025000D01*
X146010188Y-73028733D01*
X146103086Y-73202532D01*
X146103090Y-73202539D01*
X146228116Y-73354883D01*
X146380460Y-73479909D01*
X146380467Y-73479913D01*
X146554266Y-73572811D01*
X146554269Y-73572811D01*
X146554273Y-73572814D01*
X146742868Y-73630024D01*
X146939000Y-73649341D01*
X147135132Y-73630024D01*
X147323727Y-73572814D01*
X147497538Y-73479910D01*
X147649883Y-73354883D01*
X147774910Y-73202538D01*
X147867814Y-73028727D01*
X147925024Y-72840132D01*
X147944341Y-72644000D01*
X147925024Y-72447868D01*
X147867814Y-72259273D01*
X147867811Y-72259269D01*
X147867811Y-72259266D01*
X147774913Y-72085467D01*
X147774909Y-72085460D01*
X147649883Y-71933116D01*
X147497539Y-71808090D01*
X147497532Y-71808085D01*
X147332047Y-71719632D01*
X147282202Y-71670670D01*
X147266500Y-71610274D01*
X147266500Y-69806885D01*
X147266500Y-69806884D01*
X147244181Y-69723590D01*
X147201065Y-69648910D01*
X147140090Y-69587935D01*
X143711090Y-66158935D01*
X143636410Y-66115819D01*
X143636411Y-66115819D01*
X143608645Y-66108379D01*
X143553116Y-66093500D01*
X143553114Y-66093500D01*
X131060155Y-66093500D01*
X130993116Y-66073815D01*
X130981490Y-66065353D01*
X130860539Y-65966090D01*
X130860532Y-65966086D01*
X130686733Y-65873188D01*
X130686727Y-65873186D01*
X130498132Y-65815976D01*
X130498129Y-65815975D01*
X130302000Y-65796659D01*
X130105870Y-65815975D01*
X129917266Y-65873188D01*
X129743467Y-65966086D01*
X129743460Y-65966090D01*
X129591116Y-66091116D01*
X129466090Y-66243460D01*
X129466086Y-66243467D01*
X129373188Y-66417266D01*
X129315975Y-66605870D01*
X129296659Y-66802000D01*
X127782137Y-66802000D01*
X127749859Y-66738650D01*
X127629582Y-66573105D01*
X127629582Y-66573104D01*
X127484895Y-66428417D01*
X127319349Y-66308140D01*
X127137031Y-66215244D01*
X126942417Y-66152009D01*
X126740317Y-66120000D01*
X126488000Y-66120000D01*
X126488000Y-67104314D01*
X126483606Y-67099920D01*
X126392394Y-67047259D01*
X126290661Y-67020000D01*
X126185339Y-67020000D01*
X126083606Y-67047259D01*
X125992394Y-67099920D01*
X125988000Y-67104314D01*
X125988000Y-66120000D01*
X125735683Y-66120000D01*
X125533582Y-66152009D01*
X125338968Y-66215244D01*
X125156650Y-66308140D01*
X124991105Y-66428417D01*
X124991104Y-66428417D01*
X124846417Y-66573104D01*
X124846417Y-66573105D01*
X124726140Y-66738650D01*
X124633244Y-66920970D01*
X124570009Y-67115586D01*
X124561391Y-67170000D01*
X125922314Y-67170000D01*
X125917920Y-67174394D01*
X125865259Y-67265606D01*
X125838000Y-67367339D01*
X125838000Y-67472661D01*
X125865259Y-67574394D01*
X125917920Y-67665606D01*
X125922314Y-67670000D01*
X124561391Y-67670000D01*
X124570009Y-67724413D01*
X124633244Y-67919029D01*
X124726140Y-68101349D01*
X124846417Y-68266894D01*
X124846417Y-68266895D01*
X124991104Y-68411582D01*
X125156650Y-68531859D01*
X125250179Y-68579515D01*
X125300975Y-68627490D01*
X125317770Y-68695311D01*
X125295232Y-68761446D01*
X125250179Y-68800485D01*
X125156650Y-68848140D01*
X124991105Y-68968417D01*
X124991104Y-68968417D01*
X124846417Y-69113104D01*
X124846417Y-69113105D01*
X124726140Y-69278650D01*
X124633244Y-69460970D01*
X124570009Y-69655586D01*
X124561391Y-69710000D01*
X125922314Y-69710000D01*
X125917920Y-69714394D01*
X125865259Y-69805606D01*
X125838000Y-69907339D01*
X125838000Y-70012661D01*
X125865259Y-70114394D01*
X125917920Y-70205606D01*
X125922314Y-70210000D01*
X124561391Y-70210000D01*
X124570009Y-70264413D01*
X124633244Y-70459029D01*
X124726140Y-70641349D01*
X124846417Y-70806894D01*
X124846417Y-70806895D01*
X124991104Y-70951582D01*
X125156650Y-71071859D01*
X125338968Y-71164755D01*
X125533582Y-71227990D01*
X125722268Y-71257875D01*
X125785403Y-71287804D01*
X125822334Y-71347116D01*
X125821336Y-71416978D01*
X125782726Y-71475211D01*
X125727062Y-71501965D01*
X125546170Y-71537947D01*
X125546160Y-71537950D01*
X125364092Y-71613364D01*
X125364079Y-71613371D01*
X125200218Y-71722860D01*
X125200214Y-71722863D01*
X125060863Y-71862214D01*
X125060860Y-71862218D01*
X124951371Y-72026079D01*
X124951364Y-72026092D01*
X124875950Y-72208160D01*
X124875947Y-72208170D01*
X124837500Y-72401456D01*
X124837500Y-72410745D01*
X124817815Y-72477784D01*
X124801181Y-72498426D01*
X118336426Y-78963181D01*
X118275103Y-78996666D01*
X118248745Y-78999500D01*
X113587273Y-78999500D01*
X113485410Y-79026793D01*
X113394087Y-79079520D01*
X113394084Y-79079522D01*
X109536426Y-82937181D01*
X109475103Y-82970666D01*
X109448745Y-82973500D01*
X108046247Y-82973500D01*
X107987770Y-82985131D01*
X107987769Y-82985132D01*
X107921447Y-83029447D01*
X107877132Y-83095769D01*
X107877131Y-83095770D01*
X107865500Y-83154247D01*
X107865500Y-84993752D01*
X107877131Y-85052229D01*
X107877132Y-85052230D01*
X107921447Y-85118552D01*
X107987769Y-85162867D01*
X107987770Y-85162868D01*
X108046247Y-85174499D01*
X108046250Y-85174500D01*
X108194796Y-85174500D01*
X108261835Y-85194185D01*
X108307590Y-85246989D01*
X108317534Y-85316147D01*
X108288509Y-85379703D01*
X108253813Y-85407555D01*
X108197652Y-85437947D01*
X108167200Y-85461647D01*
X108877415Y-86171861D01*
X108792306Y-86194667D01*
X108689694Y-86253910D01*
X108605910Y-86337694D01*
X108546667Y-86440306D01*
X108523861Y-86525414D01*
X107814812Y-85816365D01*
X107730516Y-85945391D01*
X107730514Y-85945395D01*
X107637317Y-86157864D01*
X107580361Y-86382781D01*
X107561202Y-86613994D01*
X100838000Y-86613994D01*
X100838000Y-51178000D01*
X100857685Y-51110961D01*
X100910489Y-51065206D01*
X100962000Y-51054000D01*
X106505535Y-51054000D01*
X106572574Y-51073685D01*
X106618329Y-51126489D01*
X106628273Y-51195647D01*
X106599248Y-51259203D01*
X106593216Y-51265681D01*
X104033513Y-53825383D01*
X104033509Y-53825389D01*
X103974201Y-53928112D01*
X103974200Y-53928117D01*
X103943500Y-54042691D01*
X103943500Y-60765308D01*
X103967712Y-60855672D01*
X103974200Y-60879885D01*
X103974200Y-60879886D01*
X103974201Y-60879887D01*
X104033511Y-60982614D01*
X104033513Y-60982616D01*
X106821181Y-63770284D01*
X106854666Y-63831607D01*
X106857500Y-63857965D01*
X106857500Y-65858145D01*
X106837815Y-65925184D01*
X106785011Y-65970939D01*
X106778301Y-65973769D01*
X106770598Y-65976753D01*
X106770595Y-65976755D01*
X106581439Y-66093874D01*
X106581437Y-66093876D01*
X106417020Y-66243761D01*
X106282943Y-66421308D01*
X106282938Y-66421316D01*
X106183775Y-66620461D01*
X106183769Y-66620476D01*
X106122885Y-66834462D01*
X106122884Y-66834464D01*
X106102357Y-67055999D01*
X106102357Y-67056000D01*
X106122884Y-67277535D01*
X106122885Y-67277537D01*
X106183769Y-67491523D01*
X106183775Y-67491538D01*
X106282938Y-67690683D01*
X106282943Y-67690691D01*
X106417020Y-67868238D01*
X106581437Y-68018123D01*
X106581439Y-68018125D01*
X106689632Y-68085114D01*
X106770599Y-68135247D01*
X106778289Y-68138226D01*
X106833692Y-68180795D01*
X106857285Y-68246561D01*
X106857500Y-68253854D01*
X106857500Y-70791309D01*
X106872324Y-70846632D01*
X106888201Y-70905887D01*
X106947511Y-71008614D01*
X106947513Y-71008616D01*
X110003181Y-74064284D01*
X110036666Y-74125607D01*
X110039500Y-74151965D01*
X110039500Y-75375500D01*
X110019815Y-75442539D01*
X109967011Y-75488294D01*
X109915500Y-75499500D01*
X109670247Y-75499500D01*
X109611770Y-75511131D01*
X109611769Y-75511132D01*
X109545447Y-75555447D01*
X109501132Y-75621769D01*
X109501131Y-75621770D01*
X109489500Y-75680247D01*
X109489500Y-76131519D01*
X109469815Y-76198558D01*
X109417011Y-76244313D01*
X109347853Y-76254257D01*
X109284297Y-76225232D01*
X109246523Y-76166454D01*
X109245725Y-76163613D01*
X109216268Y-76053679D01*
X109216264Y-76053668D01*
X109120136Y-75847521D01*
X109120132Y-75847513D01*
X109069025Y-75774526D01*
X108390000Y-76453551D01*
X108390000Y-76447339D01*
X108362741Y-76345606D01*
X108310080Y-76254394D01*
X108235606Y-76179920D01*
X108144394Y-76127259D01*
X108042661Y-76100000D01*
X108036445Y-76100000D01*
X108715472Y-75420974D01*
X108642478Y-75369863D01*
X108436331Y-75273735D01*
X108436317Y-75273730D01*
X108216610Y-75214860D01*
X108216599Y-75214858D01*
X107990002Y-75195034D01*
X107989998Y-75195034D01*
X107763400Y-75214858D01*
X107763389Y-75214860D01*
X107543682Y-75273730D01*
X107543673Y-75273734D01*
X107337516Y-75369866D01*
X107337512Y-75369868D01*
X107264526Y-75420973D01*
X107264526Y-75420974D01*
X107943553Y-76100000D01*
X107937339Y-76100000D01*
X107835606Y-76127259D01*
X107744394Y-76179920D01*
X107669920Y-76254394D01*
X107617259Y-76345606D01*
X107590000Y-76447339D01*
X107590000Y-76453552D01*
X106910974Y-75774526D01*
X106910973Y-75774526D01*
X106859868Y-75847512D01*
X106859866Y-75847516D01*
X106763734Y-76053673D01*
X106763730Y-76053682D01*
X106704860Y-76273389D01*
X106704858Y-76273400D01*
X106685034Y-76499997D01*
X106685034Y-76500002D01*
X106704858Y-76726599D01*
X106704860Y-76726610D01*
X106763730Y-76946317D01*
X106763735Y-76946331D01*
X106859863Y-77152478D01*
X106910974Y-77225472D01*
X107590000Y-76546446D01*
X107590000Y-76552661D01*
X107617259Y-76654394D01*
X107669920Y-76745606D01*
X107744394Y-76820080D01*
X107835606Y-76872741D01*
X107937339Y-76900000D01*
X107943553Y-76900000D01*
X107264526Y-77579025D01*
X107337513Y-77630132D01*
X107337521Y-77630136D01*
X107543668Y-77726264D01*
X107543682Y-77726269D01*
X107763389Y-77785139D01*
X107763400Y-77785141D01*
X107989998Y-77804966D01*
X107990002Y-77804966D01*
X108216599Y-77785141D01*
X108216610Y-77785139D01*
X108436317Y-77726269D01*
X108436331Y-77726264D01*
X108642478Y-77630136D01*
X108715471Y-77579024D01*
X108036447Y-76900000D01*
X108042661Y-76900000D01*
X108144394Y-76872741D01*
X108235606Y-76820080D01*
X108310080Y-76745606D01*
X108362741Y-76654394D01*
X108390000Y-76552661D01*
X108390000Y-76546447D01*
X109069024Y-77225471D01*
X109120136Y-77152478D01*
X109216264Y-76946331D01*
X109216269Y-76946317D01*
X109245725Y-76836387D01*
X109282090Y-76776726D01*
X109344937Y-76746197D01*
X109414312Y-76754492D01*
X109468190Y-76798977D01*
X109489465Y-76865529D01*
X109489500Y-76868480D01*
X109489500Y-77319752D01*
X109501131Y-77378229D01*
X109501132Y-77378230D01*
X109545447Y-77444552D01*
X109611769Y-77488867D01*
X109611770Y-77488868D01*
X109670247Y-77500499D01*
X109670250Y-77500500D01*
X109670252Y-77500500D01*
X111309750Y-77500500D01*
X111309751Y-77500499D01*
X111324568Y-77497552D01*
X111368229Y-77488868D01*
X111368229Y-77488867D01*
X111368231Y-77488867D01*
X111434552Y-77444552D01*
X111478867Y-77378231D01*
X111478867Y-77378229D01*
X111478868Y-77378229D01*
X111490499Y-77319752D01*
X111490500Y-77319750D01*
X111490500Y-77074500D01*
X111510185Y-77007461D01*
X111562989Y-76961706D01*
X111614500Y-76950500D01*
X117217308Y-76950500D01*
X117217309Y-76950500D01*
X117307673Y-76926286D01*
X117331887Y-76919799D01*
X117434614Y-76860489D01*
X118218285Y-76076819D01*
X118279608Y-76043334D01*
X118305966Y-76040500D01*
X119116543Y-76040500D01*
X119253881Y-76013181D01*
X119309835Y-76002051D01*
X119491914Y-75926632D01*
X119655782Y-75817139D01*
X119795139Y-75677782D01*
X119904632Y-75513914D01*
X119980051Y-75331835D01*
X120003319Y-75214860D01*
X120018500Y-75138543D01*
X120018500Y-74941456D01*
X119980052Y-74748170D01*
X119980051Y-74748169D01*
X119980051Y-74748165D01*
X119969670Y-74723103D01*
X119904635Y-74566092D01*
X119904628Y-74566079D01*
X119795139Y-74402218D01*
X119795136Y-74402214D01*
X119655785Y-74262863D01*
X119655781Y-74262860D01*
X119491920Y-74153371D01*
X119491907Y-74153364D01*
X119309839Y-74077950D01*
X119309829Y-74077947D01*
X119116543Y-74039500D01*
X119116541Y-74039500D01*
X118119459Y-74039500D01*
X118119457Y-74039500D01*
X117926170Y-74077947D01*
X117926160Y-74077950D01*
X117744092Y-74153364D01*
X117744079Y-74153371D01*
X117580218Y-74262860D01*
X117580214Y-74262863D01*
X117440863Y-74402214D01*
X117440860Y-74402218D01*
X117331371Y-74566079D01*
X117331364Y-74566092D01*
X117255950Y-74748160D01*
X117255947Y-74748170D01*
X117217500Y-74941456D01*
X117217500Y-74941459D01*
X117217500Y-75138541D01*
X117217500Y-75138543D01*
X117217499Y-75138543D01*
X117255947Y-75331829D01*
X117255950Y-75331839D01*
X117331366Y-75513912D01*
X117345173Y-75534576D01*
X117366049Y-75601254D01*
X117347563Y-75668633D01*
X117329750Y-75691145D01*
X117007714Y-76013182D01*
X116946393Y-76046666D01*
X116920035Y-76049500D01*
X111614500Y-76049500D01*
X111547461Y-76029815D01*
X111501706Y-75977011D01*
X111490500Y-75925500D01*
X111490500Y-75680249D01*
X111490499Y-75680247D01*
X111478868Y-75621770D01*
X111478867Y-75621769D01*
X111434552Y-75555447D01*
X111368230Y-75511132D01*
X111368229Y-75511131D01*
X111309752Y-75499500D01*
X111309748Y-75499500D01*
X111064500Y-75499500D01*
X110997461Y-75479815D01*
X110951706Y-75427011D01*
X110940500Y-75375500D01*
X110940500Y-73854693D01*
X110940500Y-73854691D01*
X110909799Y-73740114D01*
X110894093Y-73712910D01*
X110894093Y-73712909D01*
X110850494Y-73637393D01*
X110850488Y-73637385D01*
X107794819Y-70581716D01*
X107761334Y-70520393D01*
X107758500Y-70494035D01*
X107758500Y-68253854D01*
X107778185Y-68186815D01*
X107830989Y-68141060D01*
X107837692Y-68138233D01*
X107845401Y-68135247D01*
X108034562Y-68018124D01*
X108198981Y-67868236D01*
X108333058Y-67690689D01*
X108432229Y-67491528D01*
X108493115Y-67277536D01*
X108513643Y-67056000D01*
X108513642Y-67055994D01*
X113302859Y-67055994D01*
X113302859Y-67056005D01*
X113323385Y-67303729D01*
X113323387Y-67303738D01*
X113384412Y-67544717D01*
X113484267Y-67772367D01*
X113584562Y-67925881D01*
X114325037Y-67185408D01*
X114342075Y-67248993D01*
X114407901Y-67363007D01*
X114500993Y-67456099D01*
X114615007Y-67521925D01*
X114678591Y-67538962D01*
X113937943Y-68279609D01*
X113984768Y-68316055D01*
X113984771Y-68316057D01*
X114203385Y-68434364D01*
X114203396Y-68434369D01*
X114438506Y-68515083D01*
X114683707Y-68556000D01*
X114932293Y-68556000D01*
X115177493Y-68515083D01*
X115412603Y-68434369D01*
X115412614Y-68434364D01*
X115631230Y-68316056D01*
X115631236Y-68316051D01*
X115678055Y-68279610D01*
X115678056Y-68279609D01*
X114937408Y-67538962D01*
X115000993Y-67521925D01*
X115115007Y-67456099D01*
X115208099Y-67363007D01*
X115273925Y-67248993D01*
X115290962Y-67185409D01*
X116031435Y-67925882D01*
X116131733Y-67772364D01*
X116231587Y-67544717D01*
X116292612Y-67303738D01*
X116292614Y-67303729D01*
X116303695Y-67170000D01*
X116941391Y-67170000D01*
X118302314Y-67170000D01*
X118297920Y-67174394D01*
X118245259Y-67265606D01*
X118218000Y-67367339D01*
X118218000Y-67472661D01*
X118245259Y-67574394D01*
X118297920Y-67665606D01*
X118302314Y-67670000D01*
X116941391Y-67670000D01*
X116950009Y-67724413D01*
X117013244Y-67919029D01*
X117106140Y-68101349D01*
X117226417Y-68266894D01*
X117226417Y-68266895D01*
X117371104Y-68411582D01*
X117536650Y-68531859D01*
X117718968Y-68624755D01*
X117913582Y-68687990D01*
X118102268Y-68717875D01*
X118165403Y-68747804D01*
X118202334Y-68807116D01*
X118201336Y-68876978D01*
X118162726Y-68935211D01*
X118107062Y-68961965D01*
X117926170Y-68997947D01*
X117926160Y-68997950D01*
X117744092Y-69073364D01*
X117744079Y-69073371D01*
X117580218Y-69182860D01*
X117580214Y-69182863D01*
X117440863Y-69322214D01*
X117440860Y-69322218D01*
X117331371Y-69486079D01*
X117331364Y-69486092D01*
X117255950Y-69668160D01*
X117255947Y-69668170D01*
X117217500Y-69861456D01*
X117217500Y-69861459D01*
X117217500Y-70058541D01*
X117217500Y-70058543D01*
X117217499Y-70058543D01*
X117255947Y-70251829D01*
X117255950Y-70251839D01*
X117331364Y-70433907D01*
X117331371Y-70433920D01*
X117440860Y-70597781D01*
X117440863Y-70597785D01*
X117580214Y-70737136D01*
X117580218Y-70737139D01*
X117744079Y-70846628D01*
X117744092Y-70846635D01*
X117926160Y-70922049D01*
X117926165Y-70922051D01*
X117926169Y-70922051D01*
X117926170Y-70922052D01*
X118119456Y-70960500D01*
X118119459Y-70960500D01*
X119116543Y-70960500D01*
X119246582Y-70934632D01*
X119309835Y-70922051D01*
X119381047Y-70892553D01*
X119450517Y-70885085D01*
X119512996Y-70916360D01*
X119548648Y-70976449D01*
X119552500Y-71007115D01*
X119552500Y-71452884D01*
X119532815Y-71519923D01*
X119480011Y-71565678D01*
X119410853Y-71575622D01*
X119381049Y-71567446D01*
X119339702Y-71550320D01*
X119309835Y-71537949D01*
X119309833Y-71537948D01*
X119309829Y-71537947D01*
X119116543Y-71499500D01*
X119116541Y-71499500D01*
X118119459Y-71499500D01*
X118119457Y-71499500D01*
X117926170Y-71537947D01*
X117926160Y-71537950D01*
X117744092Y-71613364D01*
X117744079Y-71613371D01*
X117580218Y-71722860D01*
X117580214Y-71722863D01*
X117440863Y-71862214D01*
X117440860Y-71862218D01*
X117331371Y-72026079D01*
X117331364Y-72026092D01*
X117255950Y-72208160D01*
X117255947Y-72208170D01*
X117217500Y-72401456D01*
X117217500Y-72401459D01*
X117217500Y-72598541D01*
X117217500Y-72598543D01*
X117217499Y-72598543D01*
X117255947Y-72791829D01*
X117255950Y-72791839D01*
X117331364Y-72973907D01*
X117331371Y-72973920D01*
X117440860Y-73137781D01*
X117440863Y-73137785D01*
X117580214Y-73277136D01*
X117580218Y-73277139D01*
X117744079Y-73386628D01*
X117744092Y-73386635D01*
X117887559Y-73446060D01*
X117926165Y-73462051D01*
X117926169Y-73462051D01*
X117926170Y-73462052D01*
X118119456Y-73500500D01*
X118119459Y-73500500D01*
X119116543Y-73500500D01*
X119262201Y-73471526D01*
X119309835Y-73462051D01*
X119491914Y-73386632D01*
X119655782Y-73277139D01*
X119795139Y-73137782D01*
X119904632Y-72973914D01*
X119948392Y-72868264D01*
X119992232Y-72813862D01*
X120000955Y-72808329D01*
X120006405Y-72805182D01*
X120006410Y-72805181D01*
X120081090Y-72762065D01*
X120142065Y-72701090D01*
X120185181Y-72626410D01*
X120207500Y-72543116D01*
X120207500Y-69916884D01*
X120185181Y-69833590D01*
X120142065Y-69758910D01*
X120081090Y-69697935D01*
X120081089Y-69697934D01*
X120029526Y-69668165D01*
X120006410Y-69654819D01*
X120006408Y-69654818D01*
X120000953Y-69651669D01*
X119952737Y-69601102D01*
X119948399Y-69591752D01*
X119904632Y-69486086D01*
X119885653Y-69457682D01*
X119795139Y-69322217D01*
X119655785Y-69182863D01*
X119655781Y-69182860D01*
X119491920Y-69073371D01*
X119491907Y-69073364D01*
X119309839Y-68997950D01*
X119309829Y-68997947D01*
X119128937Y-68961965D01*
X119067026Y-68929580D01*
X119032452Y-68868864D01*
X119036192Y-68799095D01*
X119077059Y-68742423D01*
X119133731Y-68717875D01*
X119322417Y-68687990D01*
X119517031Y-68624755D01*
X119699349Y-68531859D01*
X119864894Y-68411582D01*
X119864895Y-68411582D01*
X120009582Y-68266895D01*
X120009582Y-68266894D01*
X120129859Y-68101349D01*
X120222755Y-67919029D01*
X120285990Y-67724413D01*
X120294609Y-67670000D01*
X118933686Y-67670000D01*
X118938080Y-67665606D01*
X118990741Y-67574394D01*
X119018000Y-67472661D01*
X119018000Y-67367339D01*
X118990741Y-67265606D01*
X118938080Y-67174394D01*
X118933686Y-67170000D01*
X120294609Y-67170000D01*
X120285990Y-67115586D01*
X120222755Y-66920970D01*
X120129859Y-66738650D01*
X120009582Y-66573105D01*
X120009582Y-66573104D01*
X119864895Y-66428417D01*
X119699349Y-66308140D01*
X119517031Y-66215244D01*
X119322417Y-66152009D01*
X119120317Y-66120000D01*
X118868000Y-66120000D01*
X118868000Y-67104314D01*
X118863606Y-67099920D01*
X118772394Y-67047259D01*
X118670661Y-67020000D01*
X118565339Y-67020000D01*
X118463606Y-67047259D01*
X118372394Y-67099920D01*
X118368000Y-67104314D01*
X118368000Y-66120000D01*
X118115683Y-66120000D01*
X117913582Y-66152009D01*
X117718968Y-66215244D01*
X117536650Y-66308140D01*
X117371105Y-66428417D01*
X117371104Y-66428417D01*
X117226417Y-66573104D01*
X117226417Y-66573105D01*
X117106140Y-66738650D01*
X117013244Y-66920970D01*
X116950009Y-67115586D01*
X116941391Y-67170000D01*
X116303695Y-67170000D01*
X116313141Y-67056005D01*
X116313141Y-67055994D01*
X116292614Y-66808270D01*
X116292612Y-66808261D01*
X116231587Y-66567282D01*
X116131732Y-66339632D01*
X116031435Y-66186116D01*
X115290962Y-66926590D01*
X115273925Y-66863007D01*
X115208099Y-66748993D01*
X115115007Y-66655901D01*
X115000993Y-66590075D01*
X114937409Y-66573037D01*
X115678055Y-65832389D01*
X115678055Y-65832388D01*
X115631236Y-65795947D01*
X115631231Y-65795944D01*
X115412614Y-65677635D01*
X115412603Y-65677630D01*
X115177493Y-65596916D01*
X114932293Y-65556000D01*
X114683707Y-65556000D01*
X114438506Y-65596916D01*
X114203396Y-65677630D01*
X114203385Y-65677635D01*
X113984770Y-65795943D01*
X113937943Y-65832389D01*
X114678591Y-66573037D01*
X114615007Y-66590075D01*
X114500993Y-66655901D01*
X114407901Y-66748993D01*
X114342075Y-66863007D01*
X114325037Y-66926591D01*
X113584563Y-66186117D01*
X113484267Y-66339633D01*
X113484265Y-66339637D01*
X113384412Y-66567282D01*
X113323387Y-66808261D01*
X113323385Y-66808270D01*
X113302859Y-67055994D01*
X108513642Y-67055994D01*
X108493115Y-66834464D01*
X108493114Y-66834462D01*
X108485659Y-66808261D01*
X108432229Y-66620472D01*
X108432224Y-66620461D01*
X108333061Y-66421316D01*
X108333056Y-66421308D01*
X108198979Y-66243761D01*
X108034562Y-66093876D01*
X108034560Y-66093874D01*
X107845404Y-65976755D01*
X107845401Y-65976753D01*
X107837699Y-65973769D01*
X107782300Y-65931193D01*
X107758714Y-65865425D01*
X107758500Y-65858145D01*
X107758500Y-63560693D01*
X107758500Y-63560691D01*
X107727799Y-63446114D01*
X107727797Y-63446110D01*
X107702731Y-63402694D01*
X107668493Y-63343392D01*
X107668487Y-63343384D01*
X104880819Y-60555716D01*
X104847334Y-60494393D01*
X104844500Y-60468035D01*
X104844500Y-57592155D01*
X106600000Y-57592155D01*
X106600000Y-58290000D01*
X107624722Y-58290000D01*
X107580667Y-58366306D01*
X107550000Y-58480756D01*
X107550000Y-58599244D01*
X107580667Y-58713694D01*
X107624722Y-58790000D01*
X106600000Y-58790000D01*
X106600000Y-59487844D01*
X106606401Y-59547372D01*
X106606403Y-59547379D01*
X106656645Y-59682086D01*
X106656649Y-59682093D01*
X106742809Y-59797187D01*
X106742812Y-59797190D01*
X106857906Y-59883350D01*
X106857913Y-59883354D01*
X106992620Y-59933596D01*
X106992627Y-59933598D01*
X107052155Y-59939999D01*
X107052172Y-59940000D01*
X107750000Y-59940000D01*
X107750000Y-58915277D01*
X107826306Y-58959333D01*
X107940756Y-58990000D01*
X108059244Y-58990000D01*
X108173694Y-58959333D01*
X108250000Y-58915277D01*
X108250000Y-59940000D01*
X108947828Y-59940000D01*
X108947844Y-59939999D01*
X109007372Y-59933598D01*
X109007379Y-59933596D01*
X109142086Y-59883354D01*
X109142093Y-59883350D01*
X109257187Y-59797190D01*
X109257190Y-59797187D01*
X109343350Y-59682093D01*
X109343354Y-59682086D01*
X109393596Y-59547379D01*
X109393598Y-59547372D01*
X109399999Y-59487844D01*
X109400000Y-59487827D01*
X109400000Y-58790000D01*
X108375278Y-58790000D01*
X108419333Y-58713694D01*
X108450000Y-58599244D01*
X108450000Y-58480756D01*
X108419333Y-58366306D01*
X108375278Y-58290000D01*
X109400000Y-58290000D01*
X109400000Y-57592172D01*
X109399999Y-57592155D01*
X109393598Y-57532627D01*
X109393596Y-57532620D01*
X109343354Y-57397913D01*
X109343350Y-57397906D01*
X109257190Y-57282812D01*
X109257187Y-57282809D01*
X109142093Y-57196649D01*
X109142086Y-57196645D01*
X109007379Y-57146403D01*
X109007372Y-57146401D01*
X108947844Y-57140000D01*
X108685141Y-57140000D01*
X108618102Y-57120315D01*
X108572347Y-57067511D01*
X108562403Y-56998353D01*
X108591428Y-56934797D01*
X108619864Y-56910573D01*
X108666039Y-56881982D01*
X108666038Y-56881982D01*
X108666041Y-56881981D01*
X108816764Y-56744579D01*
X108939673Y-56581821D01*
X108939674Y-56581819D01*
X109032087Y-56396229D01*
X109079590Y-56344991D01*
X109143087Y-56327500D01*
X109891114Y-56327500D01*
X109891116Y-56327500D01*
X109974410Y-56305181D01*
X110049090Y-56262065D01*
X110067336Y-56243819D01*
X110128659Y-56210334D01*
X110155017Y-56207500D01*
X112504275Y-56207500D01*
X112571314Y-56227185D01*
X112613633Y-56273047D01*
X112702086Y-56438532D01*
X112702090Y-56438539D01*
X112827116Y-56590883D01*
X112979460Y-56715909D01*
X112979467Y-56715913D01*
X113153266Y-56808811D01*
X113153269Y-56808811D01*
X113153273Y-56808814D01*
X113341868Y-56866024D01*
X113538000Y-56885341D01*
X113734132Y-56866024D01*
X113922727Y-56808814D01*
X114096538Y-56715910D01*
X114248883Y-56590883D01*
X114373910Y-56438538D01*
X114445191Y-56305181D01*
X114466811Y-56264733D01*
X114466811Y-56264732D01*
X114466814Y-56264727D01*
X114524024Y-56076132D01*
X114543341Y-55880000D01*
X114524024Y-55683868D01*
X114466814Y-55495273D01*
X114466811Y-55495269D01*
X114466811Y-55495266D01*
X114373913Y-55321467D01*
X114373909Y-55321460D01*
X114248883Y-55169116D01*
X114096539Y-55044090D01*
X114096532Y-55044086D01*
X113922733Y-54951188D01*
X113922727Y-54951186D01*
X113734132Y-54893976D01*
X113734129Y-54893975D01*
X113538000Y-54874659D01*
X113341870Y-54893975D01*
X113153266Y-54951188D01*
X112979467Y-55044086D01*
X112979460Y-55044090D01*
X112827116Y-55169116D01*
X112702090Y-55321460D01*
X112702086Y-55321467D01*
X112613633Y-55486953D01*
X112564671Y-55536797D01*
X112504275Y-55552500D01*
X110011116Y-55552500D01*
X109924884Y-55552500D01*
X109869354Y-55567379D01*
X109841589Y-55574819D01*
X109766911Y-55617934D01*
X109766908Y-55617936D01*
X109748664Y-55636181D01*
X109687341Y-55669666D01*
X109660983Y-55672500D01*
X109143087Y-55672500D01*
X109076048Y-55652815D01*
X109032087Y-55603771D01*
X108939674Y-55418180D01*
X108816762Y-55255418D01*
X108666041Y-55118019D01*
X108666039Y-55118017D01*
X108492642Y-55010655D01*
X108492635Y-55010651D01*
X108342959Y-54952667D01*
X108302456Y-54936976D01*
X108101976Y-54899500D01*
X107898024Y-54899500D01*
X107697544Y-54936976D01*
X107697541Y-54936976D01*
X107697541Y-54936977D01*
X107507364Y-55010651D01*
X107507357Y-55010655D01*
X107333960Y-55118017D01*
X107333958Y-55118019D01*
X107183237Y-55255418D01*
X107060327Y-55418178D01*
X106969422Y-55600739D01*
X106969417Y-55600752D01*
X106913602Y-55796917D01*
X106894785Y-55999999D01*
X106894785Y-56000000D01*
X106913602Y-56203082D01*
X106969417Y-56399247D01*
X106969422Y-56399260D01*
X107060327Y-56581821D01*
X107183237Y-56744581D01*
X107333958Y-56881980D01*
X107333960Y-56881982D01*
X107380136Y-56910573D01*
X107426772Y-56962601D01*
X107437876Y-57031583D01*
X107409923Y-57095617D01*
X107351788Y-57134373D01*
X107314859Y-57140000D01*
X107052155Y-57140000D01*
X106992627Y-57146401D01*
X106992620Y-57146403D01*
X106857913Y-57196645D01*
X106857906Y-57196649D01*
X106742812Y-57282809D01*
X106742809Y-57282812D01*
X106656649Y-57397906D01*
X106656645Y-57397913D01*
X106606403Y-57532620D01*
X106606401Y-57532627D01*
X106600000Y-57592155D01*
X104844500Y-57592155D01*
X104844500Y-54339965D01*
X104864185Y-54272926D01*
X104880819Y-54252284D01*
X106798444Y-52334659D01*
X108730489Y-50402614D01*
X108789799Y-50299887D01*
X108802435Y-50252727D01*
X108820500Y-50185309D01*
X108820500Y-49944500D01*
X108840185Y-49877461D01*
X108892989Y-49831706D01*
X108944500Y-49820500D01*
X109239750Y-49820500D01*
X109239751Y-49820499D01*
X109254568Y-49817552D01*
X109298229Y-49808868D01*
X109298229Y-49808867D01*
X109298231Y-49808867D01*
X109364552Y-49764552D01*
X109408867Y-49698231D01*
X109408867Y-49698229D01*
X109408868Y-49698229D01*
X109418922Y-49647682D01*
X109420500Y-49639748D01*
X109420500Y-48770000D01*
X109854417Y-48770000D01*
X109874699Y-48975932D01*
X109874700Y-48975934D01*
X109934768Y-49173954D01*
X110032315Y-49356450D01*
X110042037Y-49368296D01*
X110163589Y-49516410D01*
X110240645Y-49579647D01*
X110323550Y-49647685D01*
X110506046Y-49745232D01*
X110704066Y-49805300D01*
X110704065Y-49805300D01*
X110718453Y-49806717D01*
X110910000Y-49825583D01*
X111115934Y-49805300D01*
X111313954Y-49745232D01*
X111496450Y-49647685D01*
X111656410Y-49516410D01*
X111787685Y-49356450D01*
X111885232Y-49173954D01*
X111945300Y-48975934D01*
X111965583Y-48770000D01*
X112394417Y-48770000D01*
X112414699Y-48975932D01*
X112414700Y-48975934D01*
X112474768Y-49173954D01*
X112572315Y-49356450D01*
X112582037Y-49368296D01*
X112703589Y-49516410D01*
X112780645Y-49579647D01*
X112863550Y-49647685D01*
X113046046Y-49745232D01*
X113244066Y-49805300D01*
X113244065Y-49805300D01*
X113258453Y-49806717D01*
X113450000Y-49825583D01*
X113655934Y-49805300D01*
X113853954Y-49745232D01*
X114036450Y-49647685D01*
X114196410Y-49516410D01*
X114327685Y-49356450D01*
X114425232Y-49173954D01*
X114485300Y-48975934D01*
X114505583Y-48770000D01*
X114934417Y-48770000D01*
X114954699Y-48975932D01*
X114954700Y-48975934D01*
X115014768Y-49173954D01*
X115112315Y-49356450D01*
X115122037Y-49368296D01*
X115243589Y-49516410D01*
X115320645Y-49579647D01*
X115403550Y-49647685D01*
X115586046Y-49745232D01*
X115784066Y-49805300D01*
X115784065Y-49805300D01*
X115798453Y-49806717D01*
X115990000Y-49825583D01*
X116195934Y-49805300D01*
X116393954Y-49745232D01*
X116576450Y-49647685D01*
X116736410Y-49516410D01*
X116867685Y-49356450D01*
X116965232Y-49173954D01*
X117025300Y-48975934D01*
X117045583Y-48770000D01*
X117474417Y-48770000D01*
X117494699Y-48975932D01*
X117494700Y-48975934D01*
X117554768Y-49173954D01*
X117652315Y-49356450D01*
X117662037Y-49368296D01*
X117783589Y-49516410D01*
X117860645Y-49579647D01*
X117943550Y-49647685D01*
X118126046Y-49745232D01*
X118324066Y-49805300D01*
X118324065Y-49805300D01*
X118338453Y-49806717D01*
X118530000Y-49825583D01*
X118735934Y-49805300D01*
X118933954Y-49745232D01*
X119116450Y-49647685D01*
X119276410Y-49516410D01*
X119407685Y-49356450D01*
X119505232Y-49173954D01*
X119565300Y-48975934D01*
X119585583Y-48770000D01*
X120014417Y-48770000D01*
X120034699Y-48975932D01*
X120034700Y-48975934D01*
X120094768Y-49173954D01*
X120192315Y-49356450D01*
X120202037Y-49368296D01*
X120323589Y-49516410D01*
X120400645Y-49579647D01*
X120483550Y-49647685D01*
X120654499Y-49739060D01*
X120666048Y-49745233D01*
X120715757Y-49760311D01*
X120742493Y-49768421D01*
X120800932Y-49806717D01*
X120829390Y-49870529D01*
X120830500Y-49887082D01*
X120830500Y-54846274D01*
X120810815Y-54913313D01*
X120764953Y-54955632D01*
X120599467Y-55044085D01*
X120599460Y-55044090D01*
X120447116Y-55169116D01*
X120322090Y-55321460D01*
X120322086Y-55321467D01*
X120229188Y-55495266D01*
X120171975Y-55683870D01*
X120152659Y-55880000D01*
X120171975Y-56076129D01*
X120171976Y-56076132D01*
X120228378Y-56262065D01*
X120229188Y-56264733D01*
X120322086Y-56438532D01*
X120322090Y-56438539D01*
X120447116Y-56590883D01*
X120599460Y-56715909D01*
X120599467Y-56715913D01*
X120773266Y-56808811D01*
X120773269Y-56808811D01*
X120773273Y-56808814D01*
X120961868Y-56866024D01*
X121158000Y-56885341D01*
X121354132Y-56866024D01*
X121542727Y-56808814D01*
X121716538Y-56715910D01*
X121868883Y-56590883D01*
X121993910Y-56438538D01*
X122065191Y-56305181D01*
X122086811Y-56264733D01*
X122086811Y-56264732D01*
X122086814Y-56264727D01*
X122144024Y-56076132D01*
X122163341Y-55880000D01*
X122144024Y-55683868D01*
X122086814Y-55495273D01*
X122086811Y-55495269D01*
X122086811Y-55495266D01*
X121993913Y-55321467D01*
X121993909Y-55321460D01*
X121868883Y-55169116D01*
X121716539Y-55044090D01*
X121716532Y-55044085D01*
X121551047Y-54955632D01*
X121501202Y-54906670D01*
X121485500Y-54846274D01*
X121485500Y-49813382D01*
X121505185Y-49746343D01*
X121551046Y-49704024D01*
X121656450Y-49647685D01*
X121738372Y-49580454D01*
X121802682Y-49553141D01*
X121871550Y-49564932D01*
X121923110Y-49612084D01*
X121941037Y-49676307D01*
X121941037Y-51194263D01*
X121968330Y-51296126D01*
X121970530Y-51299936D01*
X122021057Y-51387450D01*
X122021058Y-51387451D01*
X122021059Y-51387452D01*
X123875179Y-53241571D01*
X123875189Y-53241582D01*
X123879519Y-53245912D01*
X123879520Y-53245913D01*
X123954087Y-53320480D01*
X123987897Y-53340000D01*
X124045413Y-53373207D01*
X124147273Y-53400501D01*
X124147275Y-53400501D01*
X124260323Y-53400501D01*
X124260339Y-53400500D01*
X132284745Y-53400500D01*
X132351784Y-53420185D01*
X132372426Y-53436819D01*
X150947181Y-72011574D01*
X150980666Y-72072897D01*
X150983500Y-72099255D01*
X150983500Y-75982745D01*
X150963815Y-76049784D01*
X150947181Y-76070426D01*
X148206426Y-78811181D01*
X148145103Y-78844666D01*
X148118745Y-78847500D01*
X131789254Y-78847500D01*
X131722215Y-78827815D01*
X131701573Y-78811181D01*
X129126454Y-76236062D01*
X129092969Y-76174739D01*
X129097953Y-76105047D01*
X129126454Y-76060700D01*
X129435808Y-75751346D01*
X129662159Y-75524994D01*
X134086803Y-75524994D01*
X134086803Y-75525005D01*
X134105558Y-75751346D01*
X134161314Y-75971524D01*
X134238404Y-76147273D01*
X134252550Y-76179521D01*
X134376776Y-76369663D01*
X134530604Y-76536765D01*
X134530607Y-76536767D01*
X134530610Y-76536770D01*
X134709830Y-76676263D01*
X134709836Y-76676267D01*
X134709839Y-76676269D01*
X134909590Y-76784369D01*
X135124409Y-76858116D01*
X135348437Y-76895500D01*
X135348438Y-76895500D01*
X135575562Y-76895500D01*
X135575563Y-76895500D01*
X135799591Y-76858116D01*
X136014410Y-76784369D01*
X136214161Y-76676269D01*
X136393396Y-76536765D01*
X136547224Y-76369663D01*
X136671450Y-76179521D01*
X136762685Y-75971526D01*
X136818441Y-75751350D01*
X136829178Y-75621770D01*
X136837197Y-75525005D01*
X136837197Y-75524994D01*
X136818441Y-75298653D01*
X136818441Y-75298650D01*
X136762685Y-75078474D01*
X136671450Y-74870479D01*
X136547224Y-74680337D01*
X136393396Y-74513235D01*
X136393391Y-74513231D01*
X136393389Y-74513229D01*
X136214169Y-74373736D01*
X136214163Y-74373732D01*
X136014411Y-74265631D01*
X136014406Y-74265629D01*
X135799593Y-74191884D01*
X135596387Y-74157975D01*
X135575563Y-74154500D01*
X135348437Y-74154500D01*
X135327613Y-74157975D01*
X135124406Y-74191884D01*
X134909593Y-74265629D01*
X134909588Y-74265631D01*
X134709836Y-74373732D01*
X134709830Y-74373736D01*
X134530610Y-74513229D01*
X134530607Y-74513232D01*
X134530604Y-74513234D01*
X134530604Y-74513235D01*
X134434040Y-74618132D01*
X134376776Y-74680337D01*
X134252548Y-74870482D01*
X134161314Y-75078475D01*
X134105558Y-75298653D01*
X134086803Y-75524994D01*
X129662159Y-75524994D01*
X129802624Y-75384529D01*
X129863945Y-75351046D01*
X129926298Y-75353551D01*
X130105868Y-75408024D01*
X130302000Y-75427341D01*
X130498132Y-75408024D01*
X130686727Y-75350814D01*
X130706718Y-75340129D01*
X130784319Y-75298650D01*
X130860538Y-75257910D01*
X131012883Y-75132883D01*
X131137910Y-74980538D01*
X131230814Y-74806727D01*
X131288024Y-74618132D01*
X131307341Y-74422000D01*
X131288024Y-74225868D01*
X131233551Y-74046298D01*
X131232928Y-73976432D01*
X131264529Y-73922624D01*
X131798336Y-73388819D01*
X131859659Y-73355334D01*
X131886017Y-73352500D01*
X139034660Y-73352500D01*
X139101699Y-73372185D01*
X139147454Y-73424989D01*
X139154866Y-73446060D01*
X139161314Y-73471523D01*
X139240449Y-73651935D01*
X139252550Y-73679521D01*
X139376776Y-73869663D01*
X139530604Y-74036765D01*
X139530607Y-74036767D01*
X139530610Y-74036770D01*
X139709830Y-74176263D01*
X139709836Y-74176267D01*
X139709839Y-74176269D01*
X139909590Y-74284369D01*
X140124409Y-74358116D01*
X140348437Y-74395500D01*
X140348438Y-74395500D01*
X140575562Y-74395500D01*
X140575563Y-74395500D01*
X140799591Y-74358116D01*
X141014410Y-74284369D01*
X141091284Y-74242765D01*
X141159612Y-74228170D01*
X141224985Y-74252832D01*
X141237984Y-74264139D01*
X142318935Y-75345090D01*
X142379910Y-75406065D01*
X142454590Y-75449181D01*
X142537884Y-75471500D01*
X145905275Y-75471500D01*
X145972314Y-75491185D01*
X146014633Y-75537047D01*
X146103086Y-75702532D01*
X146103090Y-75702539D01*
X146228116Y-75854883D01*
X146380460Y-75979909D01*
X146380467Y-75979913D01*
X146554266Y-76072811D01*
X146554269Y-76072811D01*
X146554273Y-76072814D01*
X146742868Y-76130024D01*
X146939000Y-76149341D01*
X147135132Y-76130024D01*
X147323727Y-76072814D01*
X147359521Y-76053682D01*
X147458298Y-76000884D01*
X147497538Y-75979910D01*
X147649883Y-75854883D01*
X147774910Y-75702538D01*
X147821362Y-75615632D01*
X147867811Y-75528733D01*
X147867811Y-75528732D01*
X147867814Y-75528727D01*
X147925024Y-75340132D01*
X147944341Y-75144000D01*
X147925024Y-74947868D01*
X147867814Y-74759273D01*
X147867811Y-74759269D01*
X147867811Y-74759266D01*
X147774913Y-74585467D01*
X147774909Y-74585460D01*
X147649883Y-74433116D01*
X147497539Y-74308090D01*
X147497532Y-74308086D01*
X147323733Y-74215188D01*
X147323727Y-74215186D01*
X147135132Y-74157976D01*
X147135129Y-74157975D01*
X146939000Y-74138659D01*
X146742870Y-74157975D01*
X146554266Y-74215188D01*
X146380467Y-74308086D01*
X146380460Y-74308090D01*
X146228116Y-74433116D01*
X146103090Y-74585460D01*
X146103086Y-74585467D01*
X146014633Y-74750953D01*
X145965671Y-74800797D01*
X145905275Y-74816500D01*
X142768017Y-74816500D01*
X142700978Y-74796815D01*
X142680336Y-74780181D01*
X141703374Y-73803219D01*
X141669889Y-73741896D01*
X141674873Y-73672204D01*
X141677479Y-73665775D01*
X141762685Y-73471526D01*
X141818441Y-73251350D01*
X141836888Y-73028733D01*
X141837197Y-73025005D01*
X141837197Y-73024994D01*
X141819778Y-72814791D01*
X141818441Y-72798650D01*
X141762685Y-72578474D01*
X141671450Y-72370479D01*
X141547224Y-72180337D01*
X141393396Y-72013235D01*
X141393391Y-72013231D01*
X141393389Y-72013229D01*
X141214169Y-71873736D01*
X141214163Y-71873732D01*
X141014411Y-71765631D01*
X141014406Y-71765629D01*
X140799593Y-71691884D01*
X140650239Y-71666961D01*
X140575563Y-71654500D01*
X140348437Y-71654500D01*
X140292430Y-71663846D01*
X140124406Y-71691884D01*
X139909593Y-71765629D01*
X139909588Y-71765631D01*
X139709836Y-71873732D01*
X139709830Y-71873736D01*
X139530610Y-72013229D01*
X139530607Y-72013232D01*
X139530604Y-72013234D01*
X139530604Y-72013235D01*
X139387808Y-72168353D01*
X139376776Y-72180337D01*
X139252548Y-72370482D01*
X139161314Y-72578476D01*
X139154866Y-72603940D01*
X139119326Y-72664096D01*
X139056906Y-72695488D01*
X139034660Y-72697500D01*
X131742116Y-72697500D01*
X131655884Y-72697500D01*
X131600354Y-72712379D01*
X131572589Y-72719819D01*
X131497911Y-72762934D01*
X131497908Y-72762936D01*
X130801375Y-73459468D01*
X130740052Y-73492953D01*
X130677698Y-73490447D01*
X130498134Y-73435976D01*
X130302000Y-73416659D01*
X130105870Y-73435975D01*
X129917266Y-73493188D01*
X129743467Y-73586086D01*
X129743460Y-73586090D01*
X129591116Y-73711116D01*
X129466090Y-73863460D01*
X129466086Y-73863467D01*
X129373188Y-74037266D01*
X129315975Y-74225870D01*
X129296659Y-74422000D01*
X129315976Y-74618134D01*
X129370447Y-74797698D01*
X129371071Y-74867565D01*
X129339468Y-74921375D01*
X128663299Y-75597544D01*
X128601976Y-75631029D01*
X128532284Y-75626045D01*
X128487937Y-75597544D01*
X127674819Y-74784426D01*
X127641334Y-74723103D01*
X127638500Y-74696745D01*
X127638500Y-74220249D01*
X127638499Y-74220247D01*
X127626868Y-74161770D01*
X127626867Y-74161769D01*
X127582552Y-74095447D01*
X127516230Y-74051132D01*
X127516229Y-74051131D01*
X127457752Y-74039500D01*
X127457748Y-74039500D01*
X125018252Y-74039500D01*
X125018247Y-74039500D01*
X124959770Y-74051131D01*
X124959769Y-74051132D01*
X124893447Y-74095447D01*
X124849132Y-74161769D01*
X124849131Y-74161770D01*
X124837500Y-74220247D01*
X124837500Y-75859752D01*
X124849131Y-75918229D01*
X124849132Y-75918230D01*
X124893447Y-75984552D01*
X124959769Y-76028867D01*
X124959770Y-76028868D01*
X125018247Y-76040499D01*
X125018250Y-76040500D01*
X125018252Y-76040500D01*
X127457750Y-76040500D01*
X127457751Y-76040499D01*
X127472568Y-76037552D01*
X127516229Y-76028868D01*
X127516229Y-76028867D01*
X127516231Y-76028867D01*
X127561324Y-75998735D01*
X127592707Y-75977767D01*
X127595068Y-75981301D01*
X127635918Y-75958961D01*
X127705613Y-75963900D01*
X127750034Y-75992427D01*
X129483872Y-77726264D01*
X131247179Y-79489571D01*
X131247189Y-79489582D01*
X131251519Y-79493912D01*
X131251520Y-79493913D01*
X131326087Y-79568480D01*
X131417413Y-79621207D01*
X131519273Y-79648501D01*
X131519275Y-79648501D01*
X131632323Y-79648501D01*
X131632339Y-79648500D01*
X148388725Y-79648500D01*
X148388727Y-79648500D01*
X148490588Y-79621207D01*
X148581913Y-79568480D01*
X151704480Y-76445913D01*
X151757207Y-76354588D01*
X151784500Y-76252727D01*
X151784500Y-76147273D01*
X151784500Y-71829273D01*
X151757207Y-71727413D01*
X151704480Y-71636087D01*
X151629913Y-71561520D01*
X132747913Y-52679520D01*
X132702250Y-52653156D01*
X132656589Y-52626793D01*
X132605657Y-52613146D01*
X132554727Y-52599500D01*
X132554726Y-52599500D01*
X124417254Y-52599500D01*
X124350215Y-52579815D01*
X124329573Y-52563181D01*
X122778356Y-51011963D01*
X122744871Y-50950640D01*
X122742037Y-50924282D01*
X122742037Y-49678830D01*
X122761722Y-49611791D01*
X122814526Y-49566036D01*
X122883684Y-49556092D01*
X122944701Y-49582976D01*
X123023550Y-49647685D01*
X123192555Y-49738021D01*
X123211419Y-49748104D01*
X123210859Y-49749150D01*
X123260349Y-49789023D01*
X123282421Y-49855315D01*
X123282500Y-49859754D01*
X123282500Y-49966884D01*
X123282500Y-50053116D01*
X123304819Y-50136410D01*
X123347935Y-50211090D01*
X124960910Y-51824065D01*
X125035589Y-51867181D01*
X125118884Y-51889500D01*
X125205116Y-51889500D01*
X132908983Y-51889500D01*
X132976022Y-51909185D01*
X132996664Y-51925819D01*
X155084181Y-74013336D01*
X155117666Y-74074659D01*
X155120500Y-74101017D01*
X155120500Y-81558494D01*
X155100815Y-81625533D01*
X155048011Y-81671288D01*
X155041294Y-81674120D01*
X154910610Y-81724747D01*
X154910595Y-81724754D01*
X154721439Y-81841874D01*
X154721437Y-81841876D01*
X154557020Y-81991761D01*
X154422943Y-82169308D01*
X154422938Y-82169316D01*
X154323775Y-82368461D01*
X154323769Y-82368476D01*
X154262885Y-82582462D01*
X154262884Y-82582464D01*
X154242357Y-82803999D01*
X154242357Y-82804000D01*
X154262884Y-83025535D01*
X154262885Y-83025537D01*
X154323769Y-83239523D01*
X154323775Y-83239538D01*
X154422938Y-83438683D01*
X154422943Y-83438691D01*
X154557020Y-83616238D01*
X154721437Y-83766123D01*
X154721439Y-83766125D01*
X154910595Y-83883245D01*
X154910596Y-83883245D01*
X154910599Y-83883247D01*
X155118060Y-83963618D01*
X155336757Y-84004500D01*
X155336759Y-84004500D01*
X155559241Y-84004500D01*
X155559243Y-84004500D01*
X155777940Y-83963618D01*
X155985401Y-83883247D01*
X156174562Y-83766124D01*
X156338981Y-83616236D01*
X156473058Y-83438689D01*
X156572229Y-83239528D01*
X156633115Y-83025536D01*
X156653643Y-82804000D01*
X156633115Y-82582464D01*
X156572229Y-82368472D01*
X156572224Y-82368461D01*
X156473061Y-82169316D01*
X156473056Y-82169308D01*
X156338979Y-81991761D01*
X156174562Y-81841876D01*
X156174560Y-81841874D01*
X155985404Y-81724754D01*
X155985389Y-81724747D01*
X155854706Y-81674120D01*
X155799304Y-81631548D01*
X155775714Y-81565781D01*
X155775500Y-81558494D01*
X155775500Y-73870885D01*
X155775173Y-73869663D01*
X155753181Y-73787590D01*
X155710065Y-73712910D01*
X155649090Y-73651935D01*
X133297090Y-51299935D01*
X133222410Y-51256819D01*
X133222411Y-51256819D01*
X133194645Y-51249379D01*
X133139116Y-51234500D01*
X133139114Y-51234500D01*
X125349017Y-51234500D01*
X125281978Y-51214815D01*
X125261336Y-51198181D01*
X123998215Y-49935060D01*
X123964730Y-49873737D01*
X123969714Y-49804045D01*
X124011586Y-49748112D01*
X124027434Y-49738026D01*
X124196450Y-49647685D01*
X124356410Y-49516410D01*
X124487685Y-49356450D01*
X124585232Y-49173954D01*
X124645300Y-48975934D01*
X124665583Y-48770000D01*
X124645300Y-48564066D01*
X124635564Y-48531973D01*
X124634942Y-48462109D01*
X124672190Y-48402996D01*
X124735484Y-48373405D01*
X124804728Y-48382730D01*
X124841907Y-48408299D01*
X125062736Y-48629128D01*
X125096221Y-48690451D01*
X125098458Y-48728961D01*
X125094417Y-48769997D01*
X125094417Y-48769999D01*
X125114699Y-48975932D01*
X125114700Y-48975934D01*
X125174768Y-49173954D01*
X125272315Y-49356450D01*
X125282037Y-49368296D01*
X125403589Y-49516410D01*
X125480645Y-49579647D01*
X125563550Y-49647685D01*
X125746046Y-49745232D01*
X125944066Y-49805300D01*
X125944065Y-49805300D01*
X125958453Y-49806717D01*
X126150000Y-49825583D01*
X126355934Y-49805300D01*
X126553954Y-49745232D01*
X126736450Y-49647685D01*
X126896410Y-49516410D01*
X127027685Y-49356450D01*
X127125232Y-49173954D01*
X127185300Y-48975934D01*
X127205583Y-48770000D01*
X127185300Y-48564066D01*
X127125232Y-48366046D01*
X127027685Y-48183550D01*
X126952897Y-48092420D01*
X126896410Y-48023589D01*
X126750536Y-47903875D01*
X126736450Y-47892315D01*
X126553954Y-47794768D01*
X126355934Y-47734700D01*
X126355932Y-47734699D01*
X126355934Y-47734699D01*
X126150000Y-47714417D01*
X125944067Y-47734699D01*
X125746041Y-47794769D01*
X125576331Y-47885482D01*
X125507928Y-47899724D01*
X125442685Y-47874724D01*
X125430197Y-47863805D01*
X125117415Y-47551023D01*
X124743913Y-47177520D01*
X124672865Y-47136500D01*
X124652589Y-47124793D01*
X124592157Y-47108601D01*
X124550727Y-47097500D01*
X124550726Y-47097500D01*
X124519210Y-47097500D01*
X124452171Y-47077815D01*
X124406416Y-47025011D01*
X124396472Y-46955853D01*
X124423356Y-46894836D01*
X124436405Y-46878934D01*
X124487685Y-46816450D01*
X124585232Y-46633954D01*
X124645300Y-46435934D01*
X124665583Y-46230000D01*
X124645300Y-46024066D01*
X124585232Y-45826046D01*
X124487685Y-45643550D01*
X124412897Y-45552420D01*
X124356410Y-45483589D01*
X124238677Y-45386969D01*
X124196450Y-45352315D01*
X124013954Y-45254768D01*
X123815934Y-45194700D01*
X123815932Y-45194699D01*
X123815934Y-45194699D01*
X123610000Y-45174417D01*
X123404067Y-45194699D01*
X123206043Y-45254769D01*
X123135586Y-45292430D01*
X123023550Y-45352315D01*
X123023548Y-45352316D01*
X123023547Y-45352317D01*
X122863589Y-45483589D01*
X122732317Y-45643547D01*
X122634769Y-45826043D01*
X122574699Y-46024067D01*
X122554417Y-46230000D01*
X122574699Y-46435932D01*
X122574700Y-46435934D01*
X122634768Y-46633954D01*
X122732315Y-46816450D01*
X122732317Y-46816452D01*
X122820466Y-46923864D01*
X122847778Y-46988174D01*
X122835987Y-47057041D01*
X122788834Y-47108601D01*
X122756709Y-47122302D01*
X122747411Y-47124793D01*
X122727138Y-47136499D01*
X122727135Y-47136500D01*
X122656093Y-47177515D01*
X122656085Y-47177521D01*
X122021059Y-47812547D01*
X122021057Y-47812550D01*
X121968330Y-47903874D01*
X121964424Y-47918451D01*
X121928057Y-47978111D01*
X121865209Y-48008638D01*
X121795834Y-48000341D01*
X121765986Y-47982208D01*
X121688297Y-47918451D01*
X121656450Y-47892315D01*
X121473954Y-47794768D01*
X121275934Y-47734700D01*
X121275932Y-47734699D01*
X121275934Y-47734699D01*
X121070000Y-47714417D01*
X120864067Y-47734699D01*
X120729736Y-47775448D01*
X120666050Y-47794767D01*
X120666043Y-47794769D01*
X120578114Y-47841769D01*
X120483550Y-47892315D01*
X120483548Y-47892316D01*
X120483547Y-47892317D01*
X120323589Y-48023589D01*
X120192317Y-48183547D01*
X120094769Y-48366043D01*
X120034699Y-48564067D01*
X120014417Y-48770000D01*
X119585583Y-48770000D01*
X119565300Y-48564066D01*
X119505232Y-48366046D01*
X119407685Y-48183550D01*
X119332897Y-48092420D01*
X119276410Y-48023589D01*
X119130536Y-47903875D01*
X119116450Y-47892315D01*
X118933954Y-47794768D01*
X118735934Y-47734700D01*
X118735932Y-47734699D01*
X118735934Y-47734699D01*
X118530000Y-47714417D01*
X118324067Y-47734699D01*
X118189736Y-47775448D01*
X118126050Y-47794767D01*
X118126043Y-47794769D01*
X118038114Y-47841769D01*
X117943550Y-47892315D01*
X117943548Y-47892316D01*
X117943547Y-47892317D01*
X117783589Y-48023589D01*
X117652317Y-48183547D01*
X117554769Y-48366043D01*
X117494699Y-48564067D01*
X117474417Y-48770000D01*
X117045583Y-48770000D01*
X117025300Y-48564066D01*
X116965232Y-48366046D01*
X116867685Y-48183550D01*
X116792897Y-48092420D01*
X116736410Y-48023589D01*
X116590536Y-47903875D01*
X116576450Y-47892315D01*
X116393954Y-47794768D01*
X116195934Y-47734700D01*
X116195932Y-47734699D01*
X116195934Y-47734699D01*
X115990000Y-47714417D01*
X115784067Y-47734699D01*
X115649736Y-47775448D01*
X115586050Y-47794767D01*
X115586043Y-47794769D01*
X115498114Y-47841769D01*
X115403550Y-47892315D01*
X115403548Y-47892316D01*
X115403547Y-47892317D01*
X115243589Y-48023589D01*
X115112317Y-48183547D01*
X115014769Y-48366043D01*
X114954699Y-48564067D01*
X114934417Y-48770000D01*
X114505583Y-48770000D01*
X114485300Y-48564066D01*
X114425232Y-48366046D01*
X114327685Y-48183550D01*
X114252897Y-48092420D01*
X114196410Y-48023589D01*
X114050536Y-47903875D01*
X114036450Y-47892315D01*
X113853954Y-47794768D01*
X113655934Y-47734700D01*
X113655932Y-47734699D01*
X113655934Y-47734699D01*
X113450000Y-47714417D01*
X113244067Y-47734699D01*
X113109736Y-47775448D01*
X113046050Y-47794767D01*
X113046043Y-47794769D01*
X112958114Y-47841769D01*
X112863550Y-47892315D01*
X112863548Y-47892316D01*
X112863547Y-47892317D01*
X112703589Y-48023589D01*
X112572317Y-48183547D01*
X112474769Y-48366043D01*
X112414699Y-48564067D01*
X112394417Y-48770000D01*
X111965583Y-48770000D01*
X111945300Y-48564066D01*
X111885232Y-48366046D01*
X111787685Y-48183550D01*
X111712897Y-48092420D01*
X111656410Y-48023589D01*
X111510536Y-47903875D01*
X111496450Y-47892315D01*
X111313954Y-47794768D01*
X111115934Y-47734700D01*
X111115932Y-47734699D01*
X111115934Y-47734699D01*
X110910000Y-47714417D01*
X110704067Y-47734699D01*
X110569736Y-47775448D01*
X110506050Y-47794767D01*
X110506043Y-47794769D01*
X110418114Y-47841769D01*
X110323550Y-47892315D01*
X110323548Y-47892316D01*
X110323547Y-47892317D01*
X110163589Y-48023589D01*
X110032317Y-48183547D01*
X109934769Y-48366043D01*
X109874699Y-48564067D01*
X109854417Y-48770000D01*
X109420500Y-48770000D01*
X109420500Y-47900252D01*
X109420500Y-47900249D01*
X109420499Y-47900247D01*
X109408868Y-47841770D01*
X109408867Y-47841769D01*
X109364552Y-47775447D01*
X109298230Y-47731132D01*
X109298229Y-47731131D01*
X109239752Y-47719500D01*
X109239748Y-47719500D01*
X107500252Y-47719500D01*
X107500247Y-47719500D01*
X107441770Y-47731131D01*
X107441769Y-47731132D01*
X107375447Y-47775447D01*
X107331132Y-47841769D01*
X107331131Y-47841770D01*
X107319500Y-47900247D01*
X107319500Y-49639752D01*
X107331131Y-49698229D01*
X107331132Y-49698230D01*
X107375447Y-49764552D01*
X107441769Y-49808867D01*
X107441770Y-49808868D01*
X107500247Y-49820499D01*
X107500250Y-49820500D01*
X107500252Y-49820500D01*
X107739035Y-49820500D01*
X107806074Y-49840185D01*
X107851829Y-49892989D01*
X107861773Y-49962147D01*
X107832748Y-50025703D01*
X107826716Y-50032181D01*
X107145681Y-50713216D01*
X107084358Y-50746701D01*
X107014666Y-50741717D01*
X106958733Y-50699845D01*
X106934316Y-50634381D01*
X106934000Y-50625535D01*
X106934000Y-46230000D01*
X107314417Y-46230000D01*
X107334699Y-46435932D01*
X107334700Y-46435934D01*
X107394768Y-46633954D01*
X107492315Y-46816450D01*
X107492317Y-46816452D01*
X107623589Y-46976410D01*
X107687492Y-47028853D01*
X107783550Y-47107685D01*
X107966046Y-47205232D01*
X108164066Y-47265300D01*
X108164065Y-47265300D01*
X108182529Y-47267118D01*
X108370000Y-47285583D01*
X108575934Y-47265300D01*
X108773954Y-47205232D01*
X108956450Y-47107685D01*
X109116410Y-46976410D01*
X109247685Y-46816450D01*
X109345232Y-46633954D01*
X109405300Y-46435934D01*
X109425583Y-46230000D01*
X109854417Y-46230000D01*
X109874699Y-46435932D01*
X109874700Y-46435934D01*
X109934768Y-46633954D01*
X110032315Y-46816450D01*
X110032317Y-46816452D01*
X110163589Y-46976410D01*
X110227492Y-47028853D01*
X110323550Y-47107685D01*
X110506046Y-47205232D01*
X110704066Y-47265300D01*
X110704065Y-47265300D01*
X110722529Y-47267118D01*
X110910000Y-47285583D01*
X111115934Y-47265300D01*
X111313954Y-47205232D01*
X111496450Y-47107685D01*
X111656410Y-46976410D01*
X111787685Y-46816450D01*
X111885232Y-46633954D01*
X111945300Y-46435934D01*
X111965583Y-46230000D01*
X112394417Y-46230000D01*
X112414699Y-46435932D01*
X112414700Y-46435934D01*
X112474768Y-46633954D01*
X112572315Y-46816450D01*
X112572317Y-46816452D01*
X112703589Y-46976410D01*
X112767492Y-47028853D01*
X112863550Y-47107685D01*
X113046046Y-47205232D01*
X113244066Y-47265300D01*
X113244065Y-47265300D01*
X113262529Y-47267118D01*
X113450000Y-47285583D01*
X113655934Y-47265300D01*
X113853954Y-47205232D01*
X114036450Y-47107685D01*
X114196410Y-46976410D01*
X114327685Y-46816450D01*
X114425232Y-46633954D01*
X114485300Y-46435934D01*
X114505583Y-46230000D01*
X114934417Y-46230000D01*
X114954699Y-46435932D01*
X114954700Y-46435934D01*
X115014768Y-46633954D01*
X115112315Y-46816450D01*
X115112317Y-46816452D01*
X115243589Y-46976410D01*
X115307492Y-47028853D01*
X115403550Y-47107685D01*
X115586046Y-47205232D01*
X115784066Y-47265300D01*
X115784065Y-47265300D01*
X115802529Y-47267118D01*
X115990000Y-47285583D01*
X116195934Y-47265300D01*
X116393954Y-47205232D01*
X116576450Y-47107685D01*
X116736410Y-46976410D01*
X116867685Y-46816450D01*
X116965232Y-46633954D01*
X117025300Y-46435934D01*
X117045583Y-46230000D01*
X117474417Y-46230000D01*
X117494699Y-46435932D01*
X117494700Y-46435934D01*
X117554768Y-46633954D01*
X117652315Y-46816450D01*
X117652317Y-46816452D01*
X117783589Y-46976410D01*
X117847492Y-47028853D01*
X117943550Y-47107685D01*
X118126046Y-47205232D01*
X118324066Y-47265300D01*
X118324065Y-47265300D01*
X118342529Y-47267118D01*
X118530000Y-47285583D01*
X118735934Y-47265300D01*
X118933954Y-47205232D01*
X119116450Y-47107685D01*
X119276410Y-46976410D01*
X119407685Y-46816450D01*
X119505232Y-46633954D01*
X119565300Y-46435934D01*
X119585583Y-46230000D01*
X120014417Y-46230000D01*
X120034699Y-46435932D01*
X120034700Y-46435934D01*
X120094768Y-46633954D01*
X120192315Y-46816450D01*
X120192317Y-46816452D01*
X120323589Y-46976410D01*
X120387492Y-47028853D01*
X120483550Y-47107685D01*
X120666046Y-47205232D01*
X120864066Y-47265300D01*
X120864065Y-47265300D01*
X120882529Y-47267118D01*
X121070000Y-47285583D01*
X121275934Y-47265300D01*
X121473954Y-47205232D01*
X121656450Y-47107685D01*
X121816410Y-46976410D01*
X121947685Y-46816450D01*
X122045232Y-46633954D01*
X122105300Y-46435934D01*
X122125583Y-46230000D01*
X122105300Y-46024066D01*
X122045232Y-45826046D01*
X121947685Y-45643550D01*
X121872897Y-45552420D01*
X121816410Y-45483589D01*
X121698677Y-45386969D01*
X121656450Y-45352315D01*
X121473954Y-45254768D01*
X121275934Y-45194700D01*
X121275932Y-45194699D01*
X121275934Y-45194699D01*
X121070000Y-45174417D01*
X120864067Y-45194699D01*
X120666043Y-45254769D01*
X120595586Y-45292430D01*
X120483550Y-45352315D01*
X120483548Y-45352316D01*
X120483547Y-45352317D01*
X120323589Y-45483589D01*
X120192317Y-45643547D01*
X120094769Y-45826043D01*
X120034699Y-46024067D01*
X120014417Y-46230000D01*
X119585583Y-46230000D01*
X119565300Y-46024066D01*
X119505232Y-45826046D01*
X119407685Y-45643550D01*
X119332897Y-45552420D01*
X119276410Y-45483589D01*
X119158677Y-45386969D01*
X119116450Y-45352315D01*
X118933954Y-45254768D01*
X118735934Y-45194700D01*
X118735932Y-45194699D01*
X118735934Y-45194699D01*
X118530000Y-45174417D01*
X118324067Y-45194699D01*
X118126043Y-45254769D01*
X118055586Y-45292430D01*
X117943550Y-45352315D01*
X117943548Y-45352316D01*
X117943547Y-45352317D01*
X117783589Y-45483589D01*
X117652317Y-45643547D01*
X117554769Y-45826043D01*
X117494699Y-46024067D01*
X117474417Y-46230000D01*
X117045583Y-46230000D01*
X117025300Y-46024066D01*
X116965232Y-45826046D01*
X116867685Y-45643550D01*
X116792897Y-45552420D01*
X116736410Y-45483589D01*
X116618677Y-45386969D01*
X116576450Y-45352315D01*
X116393954Y-45254768D01*
X116195934Y-45194700D01*
X116195932Y-45194699D01*
X116195934Y-45194699D01*
X115990000Y-45174417D01*
X115784067Y-45194699D01*
X115586043Y-45254769D01*
X115515586Y-45292430D01*
X115403550Y-45352315D01*
X115403548Y-45352316D01*
X115403547Y-45352317D01*
X115243589Y-45483589D01*
X115112317Y-45643547D01*
X115014769Y-45826043D01*
X114954699Y-46024067D01*
X114934417Y-46230000D01*
X114505583Y-46230000D01*
X114485300Y-46024066D01*
X114425232Y-45826046D01*
X114327685Y-45643550D01*
X114252897Y-45552420D01*
X114196410Y-45483589D01*
X114078677Y-45386969D01*
X114036450Y-45352315D01*
X113853954Y-45254768D01*
X113655934Y-45194700D01*
X113655932Y-45194699D01*
X113655934Y-45194699D01*
X113450000Y-45174417D01*
X113244067Y-45194699D01*
X113046043Y-45254769D01*
X112975586Y-45292430D01*
X112863550Y-45352315D01*
X112863548Y-45352316D01*
X112863547Y-45352317D01*
X112703589Y-45483589D01*
X112572317Y-45643547D01*
X112474769Y-45826043D01*
X112414699Y-46024067D01*
X112394417Y-46230000D01*
X111965583Y-46230000D01*
X111945300Y-46024066D01*
X111885232Y-45826046D01*
X111787685Y-45643550D01*
X111712897Y-45552420D01*
X111656410Y-45483589D01*
X111538677Y-45386969D01*
X111496450Y-45352315D01*
X111313954Y-45254768D01*
X111115934Y-45194700D01*
X111115932Y-45194699D01*
X111115934Y-45194699D01*
X110910000Y-45174417D01*
X110704067Y-45194699D01*
X110506043Y-45254769D01*
X110435586Y-45292430D01*
X110323550Y-45352315D01*
X110323548Y-45352316D01*
X110323547Y-45352317D01*
X110163589Y-45483589D01*
X110032317Y-45643547D01*
X109934769Y-45826043D01*
X109874699Y-46024067D01*
X109854417Y-46230000D01*
X109425583Y-46230000D01*
X109405300Y-46024066D01*
X109345232Y-45826046D01*
X109247685Y-45643550D01*
X109172897Y-45552420D01*
X109116410Y-45483589D01*
X108998677Y-45386969D01*
X108956450Y-45352315D01*
X108773954Y-45254768D01*
X108575934Y-45194700D01*
X108575932Y-45194699D01*
X108575934Y-45194699D01*
X108370000Y-45174417D01*
X108164067Y-45194699D01*
X107966043Y-45254769D01*
X107895586Y-45292430D01*
X107783550Y-45352315D01*
X107783548Y-45352316D01*
X107783547Y-45352317D01*
X107623589Y-45483589D01*
X107492317Y-45643547D01*
X107394769Y-45826043D01*
X107334699Y-46024067D01*
X107314417Y-46230000D01*
X106934000Y-46230000D01*
X106934000Y-44828614D01*
X106953685Y-44761575D01*
X107006489Y-44715820D01*
X107058609Y-44704616D01*
X126815677Y-44802424D01*
G37*
%TD.AperFunction*%
M02*
