%TF.GenerationSoftware,KiCad,Pcbnew,8.0.8*%
%TF.CreationDate,2025-03-21T11:13:22+02:00*%
%TF.ProjectId,Adacel,41646163-656c-42e6-9b69-6361645f7063,rev?*%
%TF.SameCoordinates,Original*%
%TF.FileFunction,Copper,L1,Top*%
%TF.FilePolarity,Positive*%
%FSLAX46Y46*%
G04 Gerber Fmt 4.6, Leading zero omitted, Abs format (unit mm)*
G04 Created by KiCad (PCBNEW 8.0.8) date 2025-03-21 11:13:22*
%MOMM*%
%LPD*%
G01*
G04 APERTURE LIST*
%TA.AperFunction,ComponentPad*%
%ADD10C,2.000000*%
%TD*%
%TA.AperFunction,ComponentPad*%
%ADD11R,1.700000X1.700000*%
%TD*%
%TA.AperFunction,ComponentPad*%
%ADD12O,1.700000X1.700000*%
%TD*%
%TA.AperFunction,ComponentPad*%
%ADD13R,1.800000X1.800000*%
%TD*%
%TA.AperFunction,ComponentPad*%
%ADD14C,1.800000*%
%TD*%
%TA.AperFunction,ComponentPad*%
%ADD15C,2.400000*%
%TD*%
%TA.AperFunction,ComponentPad*%
%ADD16O,2.400000X2.400000*%
%TD*%
%TA.AperFunction,ComponentPad*%
%ADD17C,1.600000*%
%TD*%
%TA.AperFunction,ComponentPad*%
%ADD18R,1.600000X1.600000*%
%TD*%
%TA.AperFunction,ComponentPad*%
%ADD19R,2.400000X1.600000*%
%TD*%
%TA.AperFunction,ComponentPad*%
%ADD20O,2.400000X1.600000*%
%TD*%
%TA.AperFunction,ComponentPad*%
%ADD21C,2.340000*%
%TD*%
%TA.AperFunction,ComponentPad*%
%ADD22R,1.500000X1.500000*%
%TD*%
%TA.AperFunction,Conductor*%
%ADD23C,0.254000*%
%TD*%
%TA.AperFunction,Conductor*%
%ADD24C,0.400000*%
%TD*%
%TA.AperFunction,Conductor*%
%ADD25C,0.500000*%
%TD*%
G04 APERTURE END LIST*
D10*
X108000000Y-66618000D03*
X115500000Y-66618000D03*
D11*
X160782000Y-73660000D03*
D12*
X160782000Y-71120000D03*
X160782000Y-68580000D03*
X160782000Y-66040000D03*
D13*
X108966000Y-84074000D03*
D14*
X108966000Y-86614000D03*
D15*
X115062000Y-55880000D03*
D16*
X120142000Y-55880000D03*
D13*
X160782000Y-57658000D03*
D14*
X158242000Y-57658000D03*
D17*
X149098000Y-71882000D03*
X149098000Y-74382000D03*
D13*
X108000000Y-58540000D03*
D14*
X108000000Y-56000000D03*
D18*
X110490000Y-76500000D03*
D17*
X107990000Y-76500000D03*
D19*
X127500000Y-75040000D03*
D20*
X127500000Y-72500000D03*
X127500000Y-69960000D03*
X127500000Y-67420000D03*
X119880000Y-67420000D03*
X119880000Y-69960000D03*
X119880000Y-72500000D03*
X119880000Y-75040000D03*
D15*
X132842000Y-69596000D03*
D16*
X132842000Y-74676000D03*
D21*
X138724000Y-70652000D03*
X141224000Y-73152000D03*
X138724000Y-75652000D03*
D17*
X144526000Y-93980000D03*
D22*
X147066000Y-93980000D03*
D17*
X149606000Y-93980000D03*
D10*
X158698000Y-86324000D03*
X152198000Y-86324000D03*
X158698000Y-81824000D03*
X152198000Y-81824000D03*
D15*
X148082000Y-53848000D03*
D16*
X153162000Y-53848000D03*
D11*
X108370000Y-48770000D03*
D12*
X108370000Y-46230000D03*
X110910000Y-48770000D03*
X110910000Y-46230000D03*
X113450000Y-48770000D03*
X113450000Y-46230000D03*
X115990000Y-48770000D03*
X115990000Y-46230000D03*
X118530000Y-48770000D03*
X118530000Y-46230000D03*
X121070000Y-48770000D03*
X121070000Y-46230000D03*
X123610000Y-48770000D03*
X123610000Y-46230000D03*
X126150000Y-48770000D03*
X126150000Y-46230000D03*
X128690000Y-48770000D03*
X128690000Y-46230000D03*
X131230000Y-48770000D03*
X131230000Y-46230000D03*
X133770000Y-48770000D03*
X133770000Y-46230000D03*
X136310000Y-48770000D03*
X136310000Y-46230000D03*
X138850000Y-48770000D03*
X138850000Y-46230000D03*
X141390000Y-48770000D03*
X141390000Y-46230000D03*
X143930000Y-48770000D03*
X143930000Y-46230000D03*
X146470000Y-48770000D03*
X146470000Y-46230000D03*
X149010000Y-48770000D03*
X149010000Y-46230000D03*
X151550000Y-48770000D03*
X151550000Y-46230000D03*
X154090000Y-48770000D03*
X154090000Y-46230000D03*
X156630000Y-48770000D03*
X156630000Y-46230000D03*
D23*
X123610000Y-50010000D02*
X123610000Y-48770000D01*
X125162000Y-51562000D02*
X123610000Y-50010000D01*
X155800000Y-75692000D02*
X155800000Y-74266000D01*
X158698000Y-78590000D02*
X155800000Y-75692000D01*
X133096000Y-51562000D02*
X125162000Y-51562000D01*
X158698000Y-81824000D02*
X158698000Y-78590000D01*
X155800000Y-74266000D02*
X133096000Y-51562000D01*
D24*
X147066000Y-95504000D02*
X147066000Y-93980000D01*
X148082000Y-96520000D02*
X147066000Y-95504000D01*
X162052000Y-78994000D02*
X162052000Y-86354000D01*
X151886000Y-96520000D02*
X148082000Y-96520000D01*
X133258000Y-50200000D02*
X162052000Y-78994000D01*
X128600000Y-48860000D02*
X129940000Y-50200000D01*
X129940000Y-50200000D02*
X133258000Y-50200000D01*
X162052000Y-86354000D02*
X151886000Y-96520000D01*
D23*
X119860000Y-67400000D02*
X119880000Y-67420000D01*
X127540000Y-70000000D02*
X127500000Y-69960000D01*
X121070000Y-48770000D02*
X120142000Y-49698000D01*
X120142000Y-49698000D02*
X120142000Y-55880000D01*
D24*
X124200000Y-53000000D02*
X131800000Y-53000000D01*
X127500000Y-75176000D02*
X127500000Y-75040000D01*
D23*
X127864000Y-74676000D02*
X127500000Y-75040000D01*
D24*
X148336000Y-79248000D02*
X131572000Y-79248000D01*
X151384000Y-71120000D02*
X151384000Y-76200000D01*
D23*
X127500000Y-75040000D02*
X128160000Y-75040000D01*
X146010000Y-74382000D02*
X149098000Y-74382000D01*
D24*
X122341537Y-48058463D02*
X122341537Y-51141537D01*
D23*
X127500000Y-75040000D02*
X127540000Y-75080000D01*
D24*
X124498000Y-47498000D02*
X122902000Y-47498000D01*
X148464000Y-68200000D02*
X151384000Y-71120000D01*
X131800000Y-53000000D02*
X147000000Y-68200000D01*
D23*
X141224000Y-73152000D02*
X144780000Y-73152000D01*
D24*
X147000000Y-68200000D02*
X148464000Y-68200000D01*
X151384000Y-76200000D02*
X148336000Y-79248000D01*
D23*
X132842000Y-74676000D02*
X134366000Y-73152000D01*
X149098000Y-73914000D02*
X149098000Y-74382000D01*
D24*
X126150000Y-48770000D02*
X125770000Y-48770000D01*
X122902000Y-47498000D02*
X122341537Y-48058463D01*
X122341537Y-51141537D02*
X124200000Y-53000000D01*
D23*
X134366000Y-73152000D02*
X141224000Y-73152000D01*
D24*
X125770000Y-48770000D02*
X124498000Y-47498000D01*
D23*
X144780000Y-73152000D02*
X146010000Y-74382000D01*
D24*
X131572000Y-79248000D02*
X127500000Y-75176000D01*
D23*
X132842000Y-74676000D02*
X127864000Y-74676000D01*
X148082000Y-53848000D02*
X145034000Y-50800000D01*
X129867000Y-46809000D02*
X129867000Y-45386735D01*
X135031784Y-49433784D02*
X135031784Y-48138519D01*
X130556000Y-47498000D02*
X129867000Y-46809000D01*
X129867000Y-45386735D02*
X129438265Y-44958000D01*
X134391265Y-47498000D02*
X130556000Y-47498000D01*
X127422000Y-44958000D02*
X126150000Y-46230000D01*
X145034000Y-50800000D02*
X136398000Y-50800000D01*
X135031784Y-48138519D02*
X134391265Y-47498000D01*
X136398000Y-50800000D02*
X135031784Y-49433784D01*
X129438265Y-44958000D02*
X127422000Y-44958000D01*
D24*
X113640000Y-79400000D02*
X108966000Y-84074000D01*
D23*
X143764000Y-67056000D02*
X135382000Y-67056000D01*
X129938000Y-72500000D02*
X127500000Y-72500000D01*
X149098000Y-71882000D02*
X148590000Y-71882000D01*
X135382000Y-67056000D02*
X132842000Y-69596000D01*
D24*
X119990000Y-79400000D02*
X113640000Y-79400000D01*
D23*
X132842000Y-69596000D02*
X129938000Y-72500000D01*
D24*
X126890000Y-72500000D02*
X119990000Y-79400000D01*
D23*
X148590000Y-71882000D02*
X143764000Y-67056000D01*
X148590000Y-72390000D02*
X149098000Y-71882000D01*
D24*
X127500000Y-72500000D02*
X126890000Y-72500000D01*
D23*
X158242000Y-57658000D02*
X156972000Y-57658000D01*
X156972000Y-57658000D02*
X153162000Y-53848000D01*
X119880000Y-69960000D02*
X119880000Y-72500000D01*
X110730000Y-55118000D02*
X109848000Y-56000000D01*
X114300000Y-55118000D02*
X110730000Y-55118000D01*
X109848000Y-56000000D02*
X108000000Y-56000000D01*
X115062000Y-55880000D02*
X114300000Y-55118000D01*
D25*
X104394000Y-60706000D02*
X108000000Y-64312000D01*
X108000000Y-64312000D02*
X108000000Y-66618000D01*
X104394000Y-54102000D02*
X104394000Y-60706000D01*
X108000000Y-71424000D02*
X110490000Y-73914000D01*
X108370000Y-48770000D02*
X108370000Y-50126000D01*
X110490000Y-76500000D02*
X118420000Y-76500000D01*
D24*
X158722000Y-86348000D02*
X158698000Y-86324000D01*
D25*
X108000000Y-66618000D02*
X108000000Y-71424000D01*
D24*
X162052000Y-84328000D02*
X160032000Y-86348000D01*
D25*
X108370000Y-50126000D02*
X104394000Y-54102000D01*
X110490000Y-73914000D02*
X110490000Y-76500000D01*
X118420000Y-76500000D02*
X119880000Y-75040000D01*
D24*
X160032000Y-86348000D02*
X158722000Y-86348000D01*
%TA.AperFunction,Conductor*%
G36*
X127750000Y-69644314D02*
G01*
X127745606Y-69639920D01*
X127654394Y-69587259D01*
X127552661Y-69560000D01*
X127447339Y-69560000D01*
X127345606Y-69587259D01*
X127254394Y-69639920D01*
X127250000Y-69644314D01*
X127250000Y-67735686D01*
X127254394Y-67740080D01*
X127345606Y-67792741D01*
X127447339Y-67820000D01*
X127552661Y-67820000D01*
X127654394Y-67792741D01*
X127745606Y-67740080D01*
X127750000Y-67735686D01*
X127750000Y-69644314D01*
G37*
%TD.AperFunction*%
%TA.AperFunction,Conductor*%
G36*
X126815677Y-44802424D02*
G01*
X126882615Y-44822439D01*
X126928108Y-44875469D01*
X126937709Y-44944675D01*
X126908370Y-45008087D01*
X126902741Y-45014102D01*
X126688994Y-45227849D01*
X126627671Y-45261334D01*
X126559801Y-45256480D01*
X126559784Y-45256537D01*
X126559534Y-45256461D01*
X126557979Y-45256350D01*
X126553981Y-45254776D01*
X126460624Y-45226457D01*
X126355934Y-45194700D01*
X126355932Y-45194699D01*
X126355934Y-45194699D01*
X126150000Y-45174417D01*
X125944067Y-45194699D01*
X125746043Y-45254769D01*
X125675586Y-45292430D01*
X125563550Y-45352315D01*
X125563548Y-45352316D01*
X125563547Y-45352317D01*
X125403589Y-45483589D01*
X125272317Y-45643547D01*
X125174769Y-45826043D01*
X125114699Y-46024067D01*
X125094417Y-46230000D01*
X125114699Y-46435932D01*
X125114700Y-46435934D01*
X125174768Y-46633954D01*
X125272315Y-46816450D01*
X125272317Y-46816452D01*
X125403589Y-46976410D01*
X125467492Y-47028853D01*
X125563550Y-47107685D01*
X125746046Y-47205232D01*
X125944066Y-47265300D01*
X125944065Y-47265300D01*
X125962529Y-47267118D01*
X126150000Y-47285583D01*
X126355934Y-47265300D01*
X126553954Y-47205232D01*
X126736450Y-47107685D01*
X126896410Y-46976410D01*
X127027685Y-46816450D01*
X127125232Y-46633954D01*
X127185300Y-46435934D01*
X127205583Y-46230000D01*
X127185300Y-46024066D01*
X127125232Y-45826046D01*
X127125230Y-45826043D01*
X127123463Y-45820216D01*
X127124595Y-45819872D01*
X127117802Y-45756667D01*
X127149077Y-45694188D01*
X127152150Y-45691004D01*
X127332905Y-45510250D01*
X127521336Y-45321819D01*
X127582659Y-45288334D01*
X127609017Y-45285500D01*
X127843982Y-45285500D01*
X127911021Y-45305185D01*
X127956776Y-45357989D01*
X127966720Y-45427147D01*
X127939836Y-45488164D01*
X127812317Y-45643547D01*
X127714769Y-45826043D01*
X127654699Y-46024067D01*
X127634417Y-46230000D01*
X127654699Y-46435932D01*
X127654700Y-46435934D01*
X127714768Y-46633954D01*
X127812315Y-46816450D01*
X127812317Y-46816452D01*
X127943589Y-46976410D01*
X128007492Y-47028853D01*
X128103550Y-47107685D01*
X128286046Y-47205232D01*
X128484066Y-47265300D01*
X128484065Y-47265300D01*
X128502529Y-47267118D01*
X128690000Y-47285583D01*
X128895934Y-47265300D01*
X129093954Y-47205232D01*
X129276450Y-47107685D01*
X129424918Y-46985841D01*
X129489226Y-46958529D01*
X129558093Y-46970320D01*
X129601956Y-47006207D01*
X129604933Y-47010087D01*
X129604935Y-47010090D01*
X130293935Y-47699090D01*
X130354910Y-47760065D01*
X130429590Y-47803181D01*
X130439580Y-47805857D01*
X130499239Y-47842219D01*
X130529770Y-47905064D01*
X130521478Y-47974440D01*
X130487847Y-48019232D01*
X130487897Y-48019282D01*
X130487549Y-48019629D01*
X130486161Y-48021479D01*
X130483590Y-48023588D01*
X130352317Y-48183547D01*
X130254769Y-48366043D01*
X130194699Y-48564067D01*
X130174417Y-48770000D01*
X130194699Y-48975932D01*
X130194700Y-48975934D01*
X130254768Y-49173954D01*
X130352315Y-49356450D01*
X130451165Y-49476900D01*
X130483590Y-49516410D01*
X130560644Y-49579647D01*
X130599978Y-49637392D01*
X130601849Y-49707237D01*
X130565662Y-49767005D01*
X130502906Y-49797721D01*
X130481979Y-49799500D01*
X130157255Y-49799500D01*
X130090216Y-49779815D01*
X130069574Y-49763181D01*
X129665860Y-49359467D01*
X129632375Y-49298144D01*
X129637359Y-49228452D01*
X129644184Y-49213331D01*
X129661932Y-49180127D01*
X129665232Y-49173954D01*
X129725300Y-48975934D01*
X129745583Y-48770000D01*
X129725300Y-48564066D01*
X129665232Y-48366046D01*
X129567685Y-48183550D01*
X129492897Y-48092420D01*
X129436410Y-48023589D01*
X129290536Y-47903875D01*
X129276450Y-47892315D01*
X129093954Y-47794768D01*
X128895934Y-47734700D01*
X128895932Y-47734699D01*
X128895934Y-47734699D01*
X128690000Y-47714417D01*
X128484067Y-47734699D01*
X128349736Y-47775448D01*
X128286050Y-47794767D01*
X128286043Y-47794769D01*
X128198114Y-47841769D01*
X128103550Y-47892315D01*
X128103548Y-47892316D01*
X128103547Y-47892317D01*
X127943589Y-48023589D01*
X127812317Y-48183547D01*
X127714769Y-48366043D01*
X127654699Y-48564067D01*
X127634417Y-48770000D01*
X127654699Y-48975932D01*
X127654700Y-48975934D01*
X127714768Y-49173954D01*
X127812315Y-49356450D01*
X127822037Y-49368296D01*
X127943589Y-49516410D01*
X128010826Y-49571589D01*
X128103550Y-49647685D01*
X128286046Y-49745232D01*
X128484066Y-49805300D01*
X128484065Y-49805300D01*
X128502529Y-49807118D01*
X128690000Y-49825583D01*
X128895934Y-49805300D01*
X128895943Y-49805297D01*
X128900123Y-49804466D01*
X128969715Y-49810687D01*
X129012007Y-49838400D01*
X129694087Y-50520480D01*
X129785412Y-50573207D01*
X129887273Y-50600500D01*
X133040745Y-50600500D01*
X133107784Y-50620185D01*
X133128426Y-50636819D01*
X161615181Y-79123574D01*
X161648666Y-79184897D01*
X161651500Y-79211255D01*
X161651500Y-84110745D01*
X161631815Y-84177784D01*
X161615181Y-84198426D01*
X159978299Y-85835307D01*
X159916976Y-85868792D01*
X159847284Y-85863808D01*
X159791351Y-85821936D01*
X159779618Y-85802898D01*
X159723061Y-85689316D01*
X159723056Y-85689308D01*
X159588979Y-85511761D01*
X159424562Y-85361876D01*
X159424560Y-85361874D01*
X159235404Y-85244754D01*
X159235398Y-85244752D01*
X159027940Y-85164382D01*
X158809243Y-85123500D01*
X158586757Y-85123500D01*
X158368060Y-85164382D01*
X158321339Y-85182482D01*
X158160601Y-85244752D01*
X158160595Y-85244754D01*
X157971439Y-85361874D01*
X157971437Y-85361876D01*
X157807020Y-85511761D01*
X157672943Y-85689308D01*
X157672938Y-85689316D01*
X157573775Y-85888461D01*
X157573769Y-85888476D01*
X157512885Y-86102462D01*
X157512884Y-86102464D01*
X157492357Y-86323999D01*
X157492357Y-86324000D01*
X157512884Y-86545535D01*
X157512885Y-86545537D01*
X157573769Y-86759523D01*
X157573775Y-86759538D01*
X157672938Y-86958683D01*
X157672943Y-86958691D01*
X157807020Y-87136238D01*
X157971437Y-87286123D01*
X157971439Y-87286125D01*
X158160595Y-87403245D01*
X158160596Y-87403245D01*
X158160599Y-87403247D01*
X158368060Y-87483618D01*
X158586757Y-87524500D01*
X158586759Y-87524500D01*
X158809241Y-87524500D01*
X158809243Y-87524500D01*
X159027940Y-87483618D01*
X159235401Y-87403247D01*
X159424562Y-87286124D01*
X159588981Y-87136236D01*
X159723058Y-86958689D01*
X159793498Y-86817228D01*
X159841001Y-86765991D01*
X159904498Y-86748500D01*
X160084725Y-86748500D01*
X160084727Y-86748500D01*
X160186588Y-86721207D01*
X160277913Y-86668480D01*
X161439819Y-85506574D01*
X161501142Y-85473089D01*
X161570834Y-85478073D01*
X161626767Y-85519945D01*
X161651184Y-85585409D01*
X161651500Y-85594255D01*
X161651500Y-86136745D01*
X161631815Y-86203784D01*
X161615181Y-86224426D01*
X151756426Y-96083181D01*
X151695103Y-96116666D01*
X151668745Y-96119500D01*
X148299255Y-96119500D01*
X148232216Y-96099815D01*
X148211574Y-96083181D01*
X147502819Y-95374426D01*
X147469334Y-95313103D01*
X147466500Y-95286745D01*
X147466500Y-95054500D01*
X147486185Y-94987461D01*
X147538989Y-94941706D01*
X147590500Y-94930500D01*
X147835750Y-94930500D01*
X147835751Y-94930499D01*
X147850568Y-94927552D01*
X147894229Y-94918868D01*
X147894229Y-94918867D01*
X147894231Y-94918867D01*
X147960552Y-94874552D01*
X148004867Y-94808231D01*
X148004867Y-94808229D01*
X148004868Y-94808229D01*
X148016499Y-94749752D01*
X148016500Y-94749750D01*
X148016500Y-93980000D01*
X148600659Y-93980000D01*
X148619975Y-94176129D01*
X148677188Y-94364733D01*
X148770086Y-94538532D01*
X148770090Y-94538539D01*
X148895116Y-94690883D01*
X149047460Y-94815909D01*
X149047467Y-94815913D01*
X149221266Y-94908811D01*
X149221269Y-94908811D01*
X149221273Y-94908814D01*
X149409868Y-94966024D01*
X149606000Y-94985341D01*
X149802132Y-94966024D01*
X149990727Y-94908814D01*
X150164538Y-94815910D01*
X150316883Y-94690883D01*
X150441910Y-94538538D01*
X150534814Y-94364727D01*
X150592024Y-94176132D01*
X150611341Y-93980000D01*
X150592024Y-93783868D01*
X150534814Y-93595273D01*
X150534811Y-93595269D01*
X150534811Y-93595266D01*
X150441913Y-93421467D01*
X150441909Y-93421460D01*
X150316883Y-93269116D01*
X150164539Y-93144090D01*
X150164532Y-93144086D01*
X149990733Y-93051188D01*
X149990727Y-93051186D01*
X149802132Y-92993976D01*
X149802129Y-92993975D01*
X149606000Y-92974659D01*
X149409870Y-92993975D01*
X149221266Y-93051188D01*
X149047467Y-93144086D01*
X149047460Y-93144090D01*
X148895116Y-93269116D01*
X148770090Y-93421460D01*
X148770086Y-93421467D01*
X148677188Y-93595266D01*
X148619975Y-93783870D01*
X148600659Y-93980000D01*
X148016500Y-93980000D01*
X148016500Y-93210249D01*
X148016499Y-93210247D01*
X148004868Y-93151770D01*
X148004867Y-93151769D01*
X147960552Y-93085447D01*
X147894230Y-93041132D01*
X147894229Y-93041131D01*
X147835752Y-93029500D01*
X147835748Y-93029500D01*
X146296252Y-93029500D01*
X146296247Y-93029500D01*
X146237770Y-93041131D01*
X146237769Y-93041132D01*
X146171447Y-93085447D01*
X146127132Y-93151769D01*
X146127131Y-93151770D01*
X146115500Y-93210247D01*
X146115500Y-94749752D01*
X146127131Y-94808229D01*
X146127132Y-94808230D01*
X146171447Y-94874552D01*
X146237769Y-94918867D01*
X146237770Y-94918868D01*
X146296247Y-94930499D01*
X146296250Y-94930500D01*
X146296252Y-94930500D01*
X146541500Y-94930500D01*
X146608539Y-94950185D01*
X146654294Y-95002989D01*
X146665500Y-95054500D01*
X146665500Y-95556726D01*
X146692793Y-95658589D01*
X146719156Y-95704250D01*
X146745520Y-95749913D01*
X147836087Y-96840480D01*
X147927412Y-96893207D01*
X148029273Y-96920500D01*
X148029275Y-96920500D01*
X151938725Y-96920500D01*
X151938727Y-96920500D01*
X152040588Y-96893207D01*
X152131913Y-96840480D01*
X162372480Y-86599913D01*
X162425207Y-86508588D01*
X162452500Y-86406727D01*
X162452500Y-86301273D01*
X162452500Y-78941273D01*
X162425207Y-78839413D01*
X162372480Y-78748087D01*
X162297913Y-78673520D01*
X156386548Y-72762155D01*
X159432000Y-72762155D01*
X159432000Y-73410000D01*
X160348988Y-73410000D01*
X160316075Y-73467007D01*
X160282000Y-73594174D01*
X160282000Y-73725826D01*
X160316075Y-73852993D01*
X160348988Y-73910000D01*
X159432000Y-73910000D01*
X159432000Y-74557844D01*
X159438401Y-74617372D01*
X159438403Y-74617379D01*
X159488645Y-74752086D01*
X159488649Y-74752093D01*
X159574809Y-74867187D01*
X159574812Y-74867190D01*
X159689906Y-74953350D01*
X159689913Y-74953354D01*
X159824620Y-75003596D01*
X159824627Y-75003598D01*
X159884155Y-75009999D01*
X159884172Y-75010000D01*
X160532000Y-75010000D01*
X160532000Y-74093012D01*
X160589007Y-74125925D01*
X160716174Y-74160000D01*
X160847826Y-74160000D01*
X160974993Y-74125925D01*
X161032000Y-74093012D01*
X161032000Y-75010000D01*
X161679828Y-75010000D01*
X161679844Y-75009999D01*
X161739372Y-75003598D01*
X161739379Y-75003596D01*
X161874086Y-74953354D01*
X161874093Y-74953350D01*
X161989187Y-74867190D01*
X161989190Y-74867187D01*
X162075350Y-74752093D01*
X162075354Y-74752086D01*
X162125596Y-74617379D01*
X162125598Y-74617372D01*
X162131999Y-74557844D01*
X162132000Y-74557827D01*
X162132000Y-73910000D01*
X161215012Y-73910000D01*
X161247925Y-73852993D01*
X161282000Y-73725826D01*
X161282000Y-73594174D01*
X161247925Y-73467007D01*
X161215012Y-73410000D01*
X162132000Y-73410000D01*
X162132000Y-72762172D01*
X162131999Y-72762155D01*
X162125598Y-72702627D01*
X162125596Y-72702620D01*
X162075354Y-72567913D01*
X162075350Y-72567906D01*
X161989190Y-72452812D01*
X161989187Y-72452809D01*
X161874093Y-72366649D01*
X161874086Y-72366645D01*
X161739379Y-72316403D01*
X161739372Y-72316401D01*
X161679844Y-72310000D01*
X161279187Y-72310000D01*
X161212148Y-72290315D01*
X161166393Y-72237511D01*
X161156449Y-72168353D01*
X161185474Y-72104797D01*
X161220733Y-72076642D01*
X161368450Y-71997685D01*
X161528410Y-71866410D01*
X161659685Y-71706450D01*
X161757232Y-71523954D01*
X161817300Y-71325934D01*
X161837583Y-71120000D01*
X161817300Y-70914066D01*
X161757232Y-70716046D01*
X161659685Y-70533550D01*
X161598528Y-70459029D01*
X161528410Y-70373589D01*
X161395907Y-70264848D01*
X161368450Y-70242315D01*
X161185954Y-70144768D01*
X160987934Y-70084700D01*
X160987932Y-70084699D01*
X160987934Y-70084699D01*
X160782000Y-70064417D01*
X160576067Y-70084699D01*
X160378043Y-70144769D01*
X160267898Y-70203643D01*
X160195550Y-70242315D01*
X160195548Y-70242316D01*
X160195547Y-70242317D01*
X160035589Y-70373589D01*
X159904317Y-70533547D01*
X159806769Y-70716043D01*
X159806768Y-70716045D01*
X159806768Y-70716046D01*
X159800370Y-70737139D01*
X159746699Y-70914067D01*
X159726417Y-71120000D01*
X159746699Y-71325932D01*
X159771856Y-71408864D01*
X159806768Y-71523954D01*
X159904315Y-71706450D01*
X159904317Y-71706452D01*
X160035589Y-71866410D01*
X160090373Y-71911369D01*
X160195550Y-71997685D01*
X160343267Y-72076642D01*
X160393111Y-72125605D01*
X160408571Y-72193743D01*
X160384739Y-72259422D01*
X160329181Y-72301791D01*
X160284813Y-72310000D01*
X159884155Y-72310000D01*
X159824627Y-72316401D01*
X159824620Y-72316403D01*
X159689913Y-72366645D01*
X159689906Y-72366649D01*
X159574812Y-72452809D01*
X159574809Y-72452812D01*
X159488649Y-72567906D01*
X159488645Y-72567913D01*
X159438403Y-72702620D01*
X159438401Y-72702627D01*
X159432000Y-72762155D01*
X156386548Y-72762155D01*
X152204393Y-68580000D01*
X159726417Y-68580000D01*
X159746699Y-68785932D01*
X159771856Y-68868864D01*
X159806768Y-68983954D01*
X159904315Y-69166450D01*
X159904317Y-69166452D01*
X160035589Y-69326410D01*
X160116281Y-69392631D01*
X160195550Y-69457685D01*
X160378046Y-69555232D01*
X160576066Y-69615300D01*
X160576065Y-69615300D01*
X160594529Y-69617118D01*
X160782000Y-69635583D01*
X160987934Y-69615300D01*
X161185954Y-69555232D01*
X161368450Y-69457685D01*
X161528410Y-69326410D01*
X161659685Y-69166450D01*
X161757232Y-68983954D01*
X161817300Y-68785934D01*
X161837583Y-68580000D01*
X161817300Y-68374066D01*
X161757232Y-68176046D01*
X161659685Y-67993550D01*
X161564903Y-67878057D01*
X161528410Y-67833589D01*
X161403296Y-67730912D01*
X161368450Y-67702315D01*
X161185954Y-67604768D01*
X160987934Y-67544700D01*
X160987932Y-67544699D01*
X160987934Y-67544699D01*
X160782000Y-67524417D01*
X160576067Y-67544699D01*
X160400692Y-67597898D01*
X160388154Y-67601702D01*
X160378043Y-67604769D01*
X160269056Y-67663025D01*
X160195550Y-67702315D01*
X160195548Y-67702316D01*
X160195547Y-67702317D01*
X160035589Y-67833589D01*
X159904317Y-67993547D01*
X159904315Y-67993550D01*
X159865643Y-68065898D01*
X159806769Y-68176043D01*
X159746699Y-68374067D01*
X159726417Y-68580000D01*
X152204393Y-68580000D01*
X149664393Y-66040000D01*
X159726417Y-66040000D01*
X159746699Y-66245932D01*
X159746700Y-66245934D01*
X159806768Y-66443954D01*
X159904315Y-66626450D01*
X159904317Y-66626452D01*
X160035589Y-66786410D01*
X160132209Y-66865702D01*
X160195550Y-66917685D01*
X160378046Y-67015232D01*
X160576066Y-67075300D01*
X160576065Y-67075300D01*
X160594529Y-67077118D01*
X160782000Y-67095583D01*
X160987934Y-67075300D01*
X161185954Y-67015232D01*
X161368450Y-66917685D01*
X161528410Y-66786410D01*
X161659685Y-66626450D01*
X161757232Y-66443954D01*
X161817300Y-66245934D01*
X161837583Y-66040000D01*
X161817300Y-65834066D01*
X161757232Y-65636046D01*
X161659685Y-65453550D01*
X161581223Y-65357943D01*
X161528410Y-65293589D01*
X161368452Y-65162317D01*
X161368453Y-65162317D01*
X161368450Y-65162315D01*
X161185954Y-65064768D01*
X160987934Y-65004700D01*
X160987932Y-65004699D01*
X160987934Y-65004699D01*
X160782000Y-64984417D01*
X160576067Y-65004699D01*
X160378043Y-65064769D01*
X160278457Y-65118000D01*
X160195550Y-65162315D01*
X160195548Y-65162316D01*
X160195547Y-65162317D01*
X160035589Y-65293589D01*
X159904317Y-65453547D01*
X159806769Y-65636043D01*
X159746699Y-65834067D01*
X159726417Y-66040000D01*
X149664393Y-66040000D01*
X133660065Y-50035672D01*
X133626580Y-49974349D01*
X133631564Y-49904657D01*
X133673436Y-49848724D01*
X133738900Y-49824307D01*
X133759897Y-49824587D01*
X133770000Y-49825583D01*
X133975934Y-49805300D01*
X134173954Y-49745232D01*
X134356450Y-49647685D01*
X134516410Y-49516410D01*
X134516411Y-49516408D01*
X134516413Y-49516407D01*
X134520718Y-49512103D01*
X134522682Y-49514067D01*
X134570493Y-49481423D01*
X134640336Y-49479477D01*
X134700143Y-49515599D01*
X134721052Y-49553698D01*
X134723494Y-49552687D01*
X134726603Y-49560194D01*
X134769719Y-49634874D01*
X136196910Y-51062065D01*
X136271590Y-51105181D01*
X136354884Y-51127500D01*
X136441116Y-51127500D01*
X144846983Y-51127500D01*
X144914022Y-51147185D01*
X144934664Y-51163819D01*
X146817854Y-53047009D01*
X146851339Y-53108332D01*
X146846355Y-53178024D01*
X146843729Y-53184500D01*
X146752842Y-53391699D01*
X146695866Y-53616691D01*
X146695864Y-53616702D01*
X146676700Y-53847993D01*
X146676700Y-53848006D01*
X146695864Y-54079297D01*
X146695866Y-54079308D01*
X146752842Y-54304300D01*
X146846075Y-54516848D01*
X146973016Y-54711147D01*
X146973019Y-54711151D01*
X146973021Y-54711153D01*
X147130216Y-54881913D01*
X147130219Y-54881915D01*
X147130222Y-54881918D01*
X147313365Y-55024464D01*
X147313371Y-55024468D01*
X147313374Y-55024470D01*
X147517497Y-55134936D01*
X147631487Y-55174068D01*
X147737015Y-55210297D01*
X147737017Y-55210297D01*
X147737019Y-55210298D01*
X147965951Y-55248500D01*
X147965952Y-55248500D01*
X148198048Y-55248500D01*
X148198049Y-55248500D01*
X148426981Y-55210298D01*
X148646503Y-55134936D01*
X148850626Y-55024470D01*
X148868380Y-55010652D01*
X149011188Y-54899500D01*
X149033784Y-54881913D01*
X149190979Y-54711153D01*
X149317924Y-54516849D01*
X149411157Y-54304300D01*
X149468134Y-54079305D01*
X149471168Y-54042691D01*
X149487300Y-53848006D01*
X149487300Y-53847993D01*
X151756700Y-53847993D01*
X151756700Y-53848006D01*
X151775864Y-54079297D01*
X151775866Y-54079308D01*
X151832842Y-54304300D01*
X151926075Y-54516848D01*
X152053016Y-54711147D01*
X152053019Y-54711151D01*
X152053021Y-54711153D01*
X152210216Y-54881913D01*
X152210219Y-54881915D01*
X152210222Y-54881918D01*
X152393365Y-55024464D01*
X152393371Y-55024468D01*
X152393374Y-55024470D01*
X152597497Y-55134936D01*
X152711487Y-55174068D01*
X152817015Y-55210297D01*
X152817017Y-55210297D01*
X152817019Y-55210298D01*
X153045951Y-55248500D01*
X153045952Y-55248500D01*
X153278048Y-55248500D01*
X153278049Y-55248500D01*
X153506981Y-55210298D01*
X153726503Y-55134936D01*
X153813419Y-55087898D01*
X153881748Y-55073304D01*
X153947120Y-55097967D01*
X153960118Y-55109273D01*
X156770910Y-57920065D01*
X156845590Y-57963181D01*
X156928884Y-57985500D01*
X157015116Y-57985500D01*
X157098913Y-57985500D01*
X157165952Y-58005185D01*
X157209913Y-58054229D01*
X157302325Y-58239819D01*
X157425237Y-58402581D01*
X157575958Y-58539980D01*
X157575960Y-58539982D01*
X157671672Y-58599244D01*
X157749363Y-58647348D01*
X157939544Y-58721024D01*
X158140024Y-58758500D01*
X158140026Y-58758500D01*
X158343974Y-58758500D01*
X158343976Y-58758500D01*
X158544456Y-58721024D01*
X158734637Y-58647348D01*
X158908041Y-58539981D01*
X159058764Y-58402579D01*
X159159046Y-58269783D01*
X159215155Y-58228148D01*
X159284867Y-58223457D01*
X159346049Y-58257199D01*
X159379276Y-58318662D01*
X159382000Y-58344511D01*
X159382000Y-58605844D01*
X159388401Y-58665372D01*
X159388403Y-58665379D01*
X159438645Y-58800086D01*
X159438649Y-58800093D01*
X159524809Y-58915187D01*
X159524812Y-58915190D01*
X159639906Y-59001350D01*
X159639913Y-59001354D01*
X159774620Y-59051596D01*
X159774627Y-59051598D01*
X159834155Y-59057999D01*
X159834172Y-59058000D01*
X160532000Y-59058000D01*
X160532000Y-58033277D01*
X160608306Y-58077333D01*
X160722756Y-58108000D01*
X160841244Y-58108000D01*
X160955694Y-58077333D01*
X161032000Y-58033277D01*
X161032000Y-59058000D01*
X161729828Y-59058000D01*
X161729844Y-59057999D01*
X161789372Y-59051598D01*
X161789379Y-59051596D01*
X161924086Y-59001354D01*
X161924093Y-59001350D01*
X162039187Y-58915190D01*
X162039190Y-58915187D01*
X162125350Y-58800093D01*
X162125354Y-58800086D01*
X162175596Y-58665379D01*
X162175598Y-58665372D01*
X162181999Y-58605844D01*
X162182000Y-58605827D01*
X162182000Y-57908000D01*
X161157278Y-57908000D01*
X161201333Y-57831694D01*
X161232000Y-57717244D01*
X161232000Y-57598756D01*
X161201333Y-57484306D01*
X161157278Y-57408000D01*
X162182000Y-57408000D01*
X162182000Y-56710172D01*
X162181999Y-56710155D01*
X162175598Y-56650627D01*
X162175596Y-56650620D01*
X162125354Y-56515913D01*
X162125350Y-56515906D01*
X162039190Y-56400812D01*
X162039187Y-56400809D01*
X161924093Y-56314649D01*
X161924086Y-56314645D01*
X161789379Y-56264403D01*
X161789372Y-56264401D01*
X161729844Y-56258000D01*
X161032000Y-56258000D01*
X161032000Y-57282722D01*
X160955694Y-57238667D01*
X160841244Y-57208000D01*
X160722756Y-57208000D01*
X160608306Y-57238667D01*
X160532000Y-57282722D01*
X160532000Y-56258000D01*
X159834155Y-56258000D01*
X159774627Y-56264401D01*
X159774620Y-56264403D01*
X159639913Y-56314645D01*
X159639906Y-56314649D01*
X159524812Y-56400809D01*
X159524809Y-56400812D01*
X159438649Y-56515906D01*
X159438645Y-56515913D01*
X159388403Y-56650620D01*
X159388401Y-56650627D01*
X159382000Y-56710155D01*
X159382000Y-56971488D01*
X159362315Y-57038527D01*
X159309511Y-57084282D01*
X159240353Y-57094226D01*
X159176797Y-57065201D01*
X159159046Y-57046215D01*
X159059137Y-56913915D01*
X159058764Y-56913421D01*
X158908041Y-56776019D01*
X158908039Y-56776017D01*
X158734642Y-56668655D01*
X158734635Y-56668651D01*
X158639546Y-56631814D01*
X158544456Y-56594976D01*
X158343976Y-56557500D01*
X158140024Y-56557500D01*
X157939544Y-56594976D01*
X157939541Y-56594976D01*
X157939541Y-56594977D01*
X157749364Y-56668651D01*
X157749357Y-56668655D01*
X157575960Y-56776017D01*
X157575958Y-56776019D01*
X157425237Y-56913418D01*
X157302327Y-57076178D01*
X157229892Y-57221647D01*
X157182389Y-57272884D01*
X157114726Y-57290305D01*
X157048386Y-57268379D01*
X157031211Y-57254056D01*
X154426145Y-54648990D01*
X154392660Y-54587667D01*
X154397644Y-54517975D01*
X154400255Y-54511533D01*
X154491157Y-54304300D01*
X154548134Y-54079305D01*
X154551168Y-54042691D01*
X154567300Y-53848006D01*
X154567300Y-53847993D01*
X154548135Y-53616702D01*
X154548133Y-53616691D01*
X154491157Y-53391699D01*
X154397924Y-53179151D01*
X154270983Y-52984852D01*
X154270980Y-52984849D01*
X154270979Y-52984847D01*
X154113784Y-52814087D01*
X154113779Y-52814083D01*
X154113777Y-52814081D01*
X153930634Y-52671535D01*
X153930628Y-52671531D01*
X153726504Y-52561064D01*
X153726495Y-52561061D01*
X153506984Y-52485702D01*
X153335282Y-52457050D01*
X153278049Y-52447500D01*
X153045951Y-52447500D01*
X153000164Y-52455140D01*
X152817015Y-52485702D01*
X152597504Y-52561061D01*
X152597495Y-52561064D01*
X152393371Y-52671531D01*
X152393365Y-52671535D01*
X152210222Y-52814081D01*
X152210219Y-52814084D01*
X152053016Y-52984852D01*
X151926075Y-53179151D01*
X151832842Y-53391699D01*
X151775866Y-53616691D01*
X151775864Y-53616702D01*
X151756700Y-53847993D01*
X149487300Y-53847993D01*
X149468135Y-53616702D01*
X149468133Y-53616691D01*
X149411157Y-53391699D01*
X149317924Y-53179151D01*
X149190983Y-52984852D01*
X149190980Y-52984849D01*
X149190979Y-52984847D01*
X149033784Y-52814087D01*
X149033779Y-52814083D01*
X149033777Y-52814081D01*
X148850634Y-52671535D01*
X148850628Y-52671531D01*
X148646504Y-52561064D01*
X148646495Y-52561061D01*
X148426984Y-52485702D01*
X148255282Y-52457050D01*
X148198049Y-52447500D01*
X147965951Y-52447500D01*
X147920164Y-52455140D01*
X147737015Y-52485702D01*
X147517505Y-52561061D01*
X147517495Y-52561065D01*
X147430578Y-52608101D01*
X147362249Y-52622695D01*
X147296877Y-52598031D01*
X147283881Y-52586726D01*
X145235091Y-50537936D01*
X145235090Y-50537935D01*
X145160410Y-50494819D01*
X145160411Y-50494819D01*
X145132645Y-50487379D01*
X145077116Y-50472500D01*
X145077114Y-50472500D01*
X136585017Y-50472500D01*
X136517978Y-50452815D01*
X136497336Y-50436181D01*
X136085548Y-50024393D01*
X136052063Y-49963070D01*
X136057047Y-49893378D01*
X136098919Y-49837445D01*
X136164383Y-49813028D01*
X136185381Y-49813308D01*
X136310000Y-49825583D01*
X136515934Y-49805300D01*
X136713954Y-49745232D01*
X136896450Y-49647685D01*
X137056410Y-49516410D01*
X137187685Y-49356450D01*
X137285232Y-49173954D01*
X137345300Y-48975934D01*
X137365583Y-48770000D01*
X137794417Y-48770000D01*
X137814699Y-48975932D01*
X137814700Y-48975934D01*
X137874768Y-49173954D01*
X137972315Y-49356450D01*
X137982037Y-49368296D01*
X138103589Y-49516410D01*
X138170826Y-49571589D01*
X138263550Y-49647685D01*
X138446046Y-49745232D01*
X138644066Y-49805300D01*
X138644065Y-49805300D01*
X138662529Y-49807118D01*
X138850000Y-49825583D01*
X139055934Y-49805300D01*
X139253954Y-49745232D01*
X139436450Y-49647685D01*
X139596410Y-49516410D01*
X139727685Y-49356450D01*
X139825232Y-49173954D01*
X139885300Y-48975934D01*
X139905583Y-48770000D01*
X140334417Y-48770000D01*
X140354699Y-48975932D01*
X140354700Y-48975934D01*
X140414768Y-49173954D01*
X140512315Y-49356450D01*
X140522037Y-49368296D01*
X140643589Y-49516410D01*
X140710826Y-49571589D01*
X140803550Y-49647685D01*
X140986046Y-49745232D01*
X141184066Y-49805300D01*
X141184065Y-49805300D01*
X141202529Y-49807118D01*
X141390000Y-49825583D01*
X141595934Y-49805300D01*
X141793954Y-49745232D01*
X141976450Y-49647685D01*
X142136410Y-49516410D01*
X142267685Y-49356450D01*
X142365232Y-49173954D01*
X142425300Y-48975934D01*
X142445583Y-48770000D01*
X142874417Y-48770000D01*
X142894699Y-48975932D01*
X142894700Y-48975934D01*
X142954768Y-49173954D01*
X143052315Y-49356450D01*
X143062037Y-49368296D01*
X143183589Y-49516410D01*
X143250826Y-49571589D01*
X143343550Y-49647685D01*
X143526046Y-49745232D01*
X143724066Y-49805300D01*
X143724065Y-49805300D01*
X143742529Y-49807118D01*
X143930000Y-49825583D01*
X144135934Y-49805300D01*
X144333954Y-49745232D01*
X144516450Y-49647685D01*
X144676410Y-49516410D01*
X144807685Y-49356450D01*
X144905232Y-49173954D01*
X144965300Y-48975934D01*
X144985583Y-48770000D01*
X145414417Y-48770000D01*
X145434699Y-48975932D01*
X145434700Y-48975934D01*
X145494768Y-49173954D01*
X145592315Y-49356450D01*
X145602037Y-49368296D01*
X145723589Y-49516410D01*
X145790826Y-49571589D01*
X145883550Y-49647685D01*
X146066046Y-49745232D01*
X146264066Y-49805300D01*
X146264065Y-49805300D01*
X146282529Y-49807118D01*
X146470000Y-49825583D01*
X146675934Y-49805300D01*
X146873954Y-49745232D01*
X147056450Y-49647685D01*
X147216410Y-49516410D01*
X147347685Y-49356450D01*
X147445232Y-49173954D01*
X147505300Y-48975934D01*
X147525583Y-48770000D01*
X147505300Y-48564066D01*
X147445232Y-48366046D01*
X147347685Y-48183550D01*
X147272897Y-48092420D01*
X147216410Y-48023589D01*
X147070536Y-47903875D01*
X147056450Y-47892315D01*
X146873954Y-47794768D01*
X146675934Y-47734700D01*
X146675932Y-47734699D01*
X146675934Y-47734699D01*
X146470000Y-47714417D01*
X146264067Y-47734699D01*
X146129736Y-47775448D01*
X146066050Y-47794767D01*
X146066043Y-47794769D01*
X145978114Y-47841769D01*
X145883550Y-47892315D01*
X145883548Y-47892316D01*
X145883547Y-47892317D01*
X145723589Y-48023589D01*
X145592317Y-48183547D01*
X145494769Y-48366043D01*
X145434699Y-48564067D01*
X145414417Y-48770000D01*
X144985583Y-48770000D01*
X144965300Y-48564066D01*
X144905232Y-48366046D01*
X144807685Y-48183550D01*
X144732897Y-48092420D01*
X144676410Y-48023589D01*
X144530536Y-47903875D01*
X144516450Y-47892315D01*
X144333954Y-47794768D01*
X144135934Y-47734700D01*
X144135932Y-47734699D01*
X144135934Y-47734699D01*
X143930000Y-47714417D01*
X143724067Y-47734699D01*
X143589736Y-47775448D01*
X143526050Y-47794767D01*
X143526043Y-47794769D01*
X143438114Y-47841769D01*
X143343550Y-47892315D01*
X143343548Y-47892316D01*
X143343547Y-47892317D01*
X143183589Y-48023589D01*
X143052317Y-48183547D01*
X142954769Y-48366043D01*
X142894699Y-48564067D01*
X142874417Y-48770000D01*
X142445583Y-48770000D01*
X142425300Y-48564066D01*
X142365232Y-48366046D01*
X142267685Y-48183550D01*
X142192897Y-48092420D01*
X142136410Y-48023589D01*
X141990536Y-47903875D01*
X141976450Y-47892315D01*
X141793954Y-47794768D01*
X141595934Y-47734700D01*
X141595932Y-47734699D01*
X141595934Y-47734699D01*
X141390000Y-47714417D01*
X141184067Y-47734699D01*
X141049736Y-47775448D01*
X140986050Y-47794767D01*
X140986043Y-47794769D01*
X140898114Y-47841769D01*
X140803550Y-47892315D01*
X140803548Y-47892316D01*
X140803547Y-47892317D01*
X140643589Y-48023589D01*
X140512317Y-48183547D01*
X140414769Y-48366043D01*
X140354699Y-48564067D01*
X140334417Y-48770000D01*
X139905583Y-48770000D01*
X139885300Y-48564066D01*
X139825232Y-48366046D01*
X139727685Y-48183550D01*
X139652897Y-48092420D01*
X139596410Y-48023589D01*
X139450536Y-47903875D01*
X139436450Y-47892315D01*
X139253954Y-47794768D01*
X139055934Y-47734700D01*
X139055932Y-47734699D01*
X139055934Y-47734699D01*
X138850000Y-47714417D01*
X138644067Y-47734699D01*
X138509736Y-47775448D01*
X138446050Y-47794767D01*
X138446043Y-47794769D01*
X138358114Y-47841769D01*
X138263550Y-47892315D01*
X138263548Y-47892316D01*
X138263547Y-47892317D01*
X138103589Y-48023589D01*
X137972317Y-48183547D01*
X137874769Y-48366043D01*
X137814699Y-48564067D01*
X137794417Y-48770000D01*
X137365583Y-48770000D01*
X137345300Y-48564066D01*
X137285232Y-48366046D01*
X137187685Y-48183550D01*
X137112897Y-48092420D01*
X137056410Y-48023589D01*
X136910536Y-47903875D01*
X136896450Y-47892315D01*
X136713954Y-47794768D01*
X136515934Y-47734700D01*
X136515932Y-47734699D01*
X136515934Y-47734699D01*
X136310000Y-47714417D01*
X136104067Y-47734699D01*
X135969736Y-47775448D01*
X135906050Y-47794767D01*
X135906043Y-47794769D01*
X135818114Y-47841769D01*
X135723550Y-47892315D01*
X135723548Y-47892316D01*
X135723547Y-47892317D01*
X135563587Y-48023591D01*
X135547382Y-48043337D01*
X135489635Y-48082670D01*
X135419791Y-48084539D01*
X135360023Y-48048350D01*
X135341330Y-48018972D01*
X135341028Y-48019147D01*
X135336976Y-48012129D01*
X135336966Y-48012113D01*
X135336965Y-48012109D01*
X135293849Y-47937429D01*
X135232874Y-47876454D01*
X134592355Y-47235935D01*
X134592354Y-47235934D01*
X134566682Y-47221113D01*
X134517675Y-47192819D01*
X134517672Y-47192818D01*
X134517296Y-47192601D01*
X134469080Y-47142034D01*
X134455856Y-47073428D01*
X134481824Y-47008562D01*
X134500633Y-46989358D01*
X134516409Y-46976411D01*
X134531084Y-46958529D01*
X134647685Y-46816450D01*
X134745232Y-46633954D01*
X134805300Y-46435934D01*
X134825583Y-46230000D01*
X135254417Y-46230000D01*
X135274699Y-46435932D01*
X135274700Y-46435934D01*
X135334768Y-46633954D01*
X135432315Y-46816450D01*
X135432317Y-46816452D01*
X135563589Y-46976410D01*
X135627492Y-47028853D01*
X135723550Y-47107685D01*
X135906046Y-47205232D01*
X136104066Y-47265300D01*
X136104065Y-47265300D01*
X136122529Y-47267118D01*
X136310000Y-47285583D01*
X136515934Y-47265300D01*
X136713954Y-47205232D01*
X136896450Y-47107685D01*
X137056410Y-46976410D01*
X137187685Y-46816450D01*
X137285232Y-46633954D01*
X137345300Y-46435934D01*
X137365583Y-46230000D01*
X137794417Y-46230000D01*
X137814699Y-46435932D01*
X137814700Y-46435934D01*
X137874768Y-46633954D01*
X137972315Y-46816450D01*
X137972317Y-46816452D01*
X138103589Y-46976410D01*
X138167492Y-47028853D01*
X138263550Y-47107685D01*
X138446046Y-47205232D01*
X138644066Y-47265300D01*
X138644065Y-47265300D01*
X138662529Y-47267118D01*
X138850000Y-47285583D01*
X139055934Y-47265300D01*
X139253954Y-47205232D01*
X139436450Y-47107685D01*
X139596410Y-46976410D01*
X139727685Y-46816450D01*
X139825232Y-46633954D01*
X139885300Y-46435934D01*
X139905583Y-46230000D01*
X140334417Y-46230000D01*
X140354699Y-46435932D01*
X140354700Y-46435934D01*
X140414768Y-46633954D01*
X140512315Y-46816450D01*
X140512317Y-46816452D01*
X140643589Y-46976410D01*
X140707492Y-47028853D01*
X140803550Y-47107685D01*
X140986046Y-47205232D01*
X141184066Y-47265300D01*
X141184065Y-47265300D01*
X141202529Y-47267118D01*
X141390000Y-47285583D01*
X141595934Y-47265300D01*
X141793954Y-47205232D01*
X141976450Y-47107685D01*
X142136410Y-46976410D01*
X142267685Y-46816450D01*
X142365232Y-46633954D01*
X142425300Y-46435934D01*
X142445583Y-46230000D01*
X142874417Y-46230000D01*
X142894699Y-46435932D01*
X142894700Y-46435934D01*
X142954768Y-46633954D01*
X143052315Y-46816450D01*
X143052317Y-46816452D01*
X143183589Y-46976410D01*
X143247492Y-47028853D01*
X143343550Y-47107685D01*
X143526046Y-47205232D01*
X143724066Y-47265300D01*
X143724065Y-47265300D01*
X143742529Y-47267118D01*
X143930000Y-47285583D01*
X144135934Y-47265300D01*
X144333954Y-47205232D01*
X144516450Y-47107685D01*
X144676410Y-46976410D01*
X144807685Y-46816450D01*
X144905232Y-46633954D01*
X144965300Y-46435934D01*
X144985583Y-46230000D01*
X144965300Y-46024066D01*
X144905232Y-45826046D01*
X144807685Y-45643550D01*
X144732897Y-45552420D01*
X144676410Y-45483589D01*
X144558677Y-45386969D01*
X144516450Y-45352315D01*
X144333954Y-45254768D01*
X144135934Y-45194700D01*
X144135932Y-45194699D01*
X144135934Y-45194699D01*
X143930000Y-45174417D01*
X143724067Y-45194699D01*
X143526043Y-45254769D01*
X143455586Y-45292430D01*
X143343550Y-45352315D01*
X143343548Y-45352316D01*
X143343547Y-45352317D01*
X143183589Y-45483589D01*
X143052317Y-45643547D01*
X142954769Y-45826043D01*
X142894699Y-46024067D01*
X142874417Y-46230000D01*
X142445583Y-46230000D01*
X142425300Y-46024066D01*
X142365232Y-45826046D01*
X142267685Y-45643550D01*
X142192897Y-45552420D01*
X142136410Y-45483589D01*
X142018677Y-45386969D01*
X141976450Y-45352315D01*
X141793954Y-45254768D01*
X141595934Y-45194700D01*
X141595932Y-45194699D01*
X141595934Y-45194699D01*
X141390000Y-45174417D01*
X141184067Y-45194699D01*
X140986043Y-45254769D01*
X140915586Y-45292430D01*
X140803550Y-45352315D01*
X140803548Y-45352316D01*
X140803547Y-45352317D01*
X140643589Y-45483589D01*
X140512317Y-45643547D01*
X140414769Y-45826043D01*
X140354699Y-46024067D01*
X140334417Y-46230000D01*
X139905583Y-46230000D01*
X139885300Y-46024066D01*
X139825232Y-45826046D01*
X139727685Y-45643550D01*
X139652897Y-45552420D01*
X139596410Y-45483589D01*
X139478677Y-45386969D01*
X139436450Y-45352315D01*
X139253954Y-45254768D01*
X139055934Y-45194700D01*
X139055932Y-45194699D01*
X139055934Y-45194699D01*
X138850000Y-45174417D01*
X138644067Y-45194699D01*
X138446043Y-45254769D01*
X138375586Y-45292430D01*
X138263550Y-45352315D01*
X138263548Y-45352316D01*
X138263547Y-45352317D01*
X138103589Y-45483589D01*
X137972317Y-45643547D01*
X137874769Y-45826043D01*
X137814699Y-46024067D01*
X137794417Y-46230000D01*
X137365583Y-46230000D01*
X137345300Y-46024066D01*
X137285232Y-45826046D01*
X137187685Y-45643550D01*
X137112897Y-45552420D01*
X137056410Y-45483589D01*
X136938677Y-45386969D01*
X136896450Y-45352315D01*
X136713954Y-45254768D01*
X136515934Y-45194700D01*
X136515932Y-45194699D01*
X136515934Y-45194699D01*
X136310000Y-45174417D01*
X136104067Y-45194699D01*
X135906043Y-45254769D01*
X135835586Y-45292430D01*
X135723550Y-45352315D01*
X135723548Y-45352316D01*
X135723547Y-45352317D01*
X135563589Y-45483589D01*
X135432317Y-45643547D01*
X135334769Y-45826043D01*
X135274699Y-46024067D01*
X135254417Y-46230000D01*
X134825583Y-46230000D01*
X134805300Y-46024066D01*
X134745232Y-45826046D01*
X134647685Y-45643550D01*
X134572897Y-45552420D01*
X134516410Y-45483589D01*
X134398677Y-45386969D01*
X134356450Y-45352315D01*
X134173954Y-45254768D01*
X133975934Y-45194700D01*
X133975932Y-45194699D01*
X133975934Y-45194699D01*
X133770000Y-45174417D01*
X133564067Y-45194699D01*
X133366043Y-45254769D01*
X133295586Y-45292430D01*
X133183550Y-45352315D01*
X133183548Y-45352316D01*
X133183547Y-45352317D01*
X133023589Y-45483589D01*
X132892317Y-45643547D01*
X132794769Y-45826043D01*
X132734699Y-46024067D01*
X132714417Y-46230000D01*
X132734699Y-46435932D01*
X132734700Y-46435934D01*
X132794768Y-46633954D01*
X132892315Y-46816450D01*
X132921585Y-46852116D01*
X133016553Y-46967836D01*
X133043865Y-47032146D01*
X133032074Y-47101013D01*
X132984921Y-47152573D01*
X132920699Y-47170500D01*
X132079301Y-47170500D01*
X132012262Y-47150815D01*
X131966507Y-47098011D01*
X131956563Y-47028853D01*
X131983447Y-46967836D01*
X132019533Y-46923864D01*
X132107685Y-46816450D01*
X132205232Y-46633954D01*
X132265300Y-46435934D01*
X132285583Y-46230000D01*
X132265300Y-46024066D01*
X132205232Y-45826046D01*
X132107685Y-45643550D01*
X132032897Y-45552420D01*
X131976410Y-45483589D01*
X131858677Y-45386969D01*
X131816450Y-45352315D01*
X131633954Y-45254768D01*
X131435934Y-45194700D01*
X131435932Y-45194699D01*
X131435934Y-45194699D01*
X131230000Y-45174417D01*
X131024067Y-45194699D01*
X130826043Y-45254769D01*
X130755586Y-45292430D01*
X130643550Y-45352315D01*
X130643548Y-45352316D01*
X130643547Y-45352317D01*
X130483589Y-45483590D01*
X130414353Y-45567955D01*
X130356608Y-45607289D01*
X130286763Y-45609160D01*
X130226995Y-45572973D01*
X130196279Y-45510217D01*
X130194500Y-45489290D01*
X130194500Y-45343620D01*
X130194500Y-45343619D01*
X130172181Y-45260325D01*
X130129065Y-45185645D01*
X130068090Y-45124670D01*
X129973592Y-45030172D01*
X129940107Y-44968849D01*
X129945091Y-44899157D01*
X129986963Y-44843224D01*
X130052427Y-44818807D01*
X130061847Y-44818494D01*
X148151632Y-44908047D01*
X148218571Y-44928063D01*
X148264064Y-44981093D01*
X148273665Y-45050299D01*
X148244326Y-45113711D01*
X148222140Y-45133620D01*
X148138922Y-45191890D01*
X148138920Y-45191891D01*
X147971891Y-45358920D01*
X147971886Y-45358926D01*
X147836400Y-45552420D01*
X147836399Y-45552422D01*
X147736570Y-45766507D01*
X147736567Y-45766514D01*
X147703841Y-45888650D01*
X147667476Y-45948310D01*
X147604629Y-45978839D01*
X147535253Y-45970544D01*
X147481375Y-45926059D01*
X147465406Y-45892552D01*
X147445232Y-45826046D01*
X147347685Y-45643550D01*
X147272897Y-45552420D01*
X147216410Y-45483589D01*
X147098677Y-45386969D01*
X147056450Y-45352315D01*
X146873954Y-45254768D01*
X146675934Y-45194700D01*
X146675932Y-45194699D01*
X146675934Y-45194699D01*
X146470000Y-45174417D01*
X146264067Y-45194699D01*
X146066043Y-45254769D01*
X145995586Y-45292430D01*
X145883550Y-45352315D01*
X145883548Y-45352316D01*
X145883547Y-45352317D01*
X145723589Y-45483589D01*
X145592317Y-45643547D01*
X145494769Y-45826043D01*
X145434699Y-46024067D01*
X145414417Y-46230000D01*
X145434699Y-46435932D01*
X145434700Y-46435934D01*
X145494768Y-46633954D01*
X145592315Y-46816450D01*
X145592317Y-46816452D01*
X145723589Y-46976410D01*
X145787492Y-47028853D01*
X145883550Y-47107685D01*
X146066046Y-47205232D01*
X146264066Y-47265300D01*
X146264065Y-47265300D01*
X146282529Y-47267118D01*
X146470000Y-47285583D01*
X146675934Y-47265300D01*
X146873954Y-47205232D01*
X147056450Y-47107685D01*
X147216410Y-46976410D01*
X147347685Y-46816450D01*
X147445232Y-46633954D01*
X147465406Y-46567446D01*
X147503702Y-46509010D01*
X147567514Y-46480553D01*
X147636581Y-46491112D01*
X147688975Y-46537336D01*
X147703841Y-46571349D01*
X147736567Y-46693486D01*
X147736570Y-46693492D01*
X147836399Y-46907578D01*
X147971894Y-47101082D01*
X148138917Y-47268105D01*
X148332421Y-47403600D01*
X148546507Y-47503429D01*
X148546516Y-47503433D01*
X148668649Y-47536158D01*
X148728310Y-47572523D01*
X148758839Y-47635369D01*
X148750545Y-47704745D01*
X148706059Y-47758623D01*
X148672552Y-47774593D01*
X148606046Y-47794767D01*
X148518112Y-47841770D01*
X148423550Y-47892315D01*
X148423548Y-47892316D01*
X148423547Y-47892317D01*
X148263589Y-48023589D01*
X148132317Y-48183547D01*
X148034769Y-48366043D01*
X147974699Y-48564067D01*
X147954417Y-48770000D01*
X147974699Y-48975932D01*
X147974700Y-48975934D01*
X148034768Y-49173954D01*
X148132315Y-49356450D01*
X148142037Y-49368296D01*
X148263589Y-49516410D01*
X148330826Y-49571589D01*
X148423550Y-49647685D01*
X148606046Y-49745232D01*
X148804066Y-49805300D01*
X148804065Y-49805300D01*
X148822529Y-49807118D01*
X149010000Y-49825583D01*
X149215934Y-49805300D01*
X149413954Y-49745232D01*
X149596450Y-49647685D01*
X149756410Y-49516410D01*
X149887685Y-49356450D01*
X149985232Y-49173954D01*
X150045300Y-48975934D01*
X150065583Y-48770000D01*
X150494417Y-48770000D01*
X150514699Y-48975932D01*
X150514700Y-48975934D01*
X150574768Y-49173954D01*
X150672315Y-49356450D01*
X150682037Y-49368296D01*
X150803589Y-49516410D01*
X150870826Y-49571589D01*
X150963550Y-49647685D01*
X151146046Y-49745232D01*
X151344066Y-49805300D01*
X151344065Y-49805300D01*
X151362529Y-49807118D01*
X151550000Y-49825583D01*
X151755934Y-49805300D01*
X151953954Y-49745232D01*
X152136450Y-49647685D01*
X152296410Y-49516410D01*
X152427685Y-49356450D01*
X152525232Y-49173954D01*
X152585300Y-48975934D01*
X152605583Y-48770000D01*
X152585300Y-48564066D01*
X152525232Y-48366046D01*
X152427685Y-48183550D01*
X152352897Y-48092420D01*
X152296410Y-48023589D01*
X152150536Y-47903875D01*
X152136450Y-47892315D01*
X151953954Y-47794768D01*
X151755934Y-47734700D01*
X151755932Y-47734699D01*
X151755934Y-47734699D01*
X151550000Y-47714417D01*
X151344067Y-47734699D01*
X151209736Y-47775448D01*
X151146050Y-47794767D01*
X151146043Y-47794769D01*
X151058114Y-47841769D01*
X150963550Y-47892315D01*
X150963548Y-47892316D01*
X150963547Y-47892317D01*
X150803589Y-48023589D01*
X150672317Y-48183547D01*
X150574769Y-48366043D01*
X150514699Y-48564067D01*
X150494417Y-48770000D01*
X150065583Y-48770000D01*
X150045300Y-48564066D01*
X149985232Y-48366046D01*
X149887685Y-48183550D01*
X149812897Y-48092420D01*
X149756410Y-48023589D01*
X149610536Y-47903875D01*
X149596450Y-47892315D01*
X149413954Y-47794768D01*
X149347447Y-47774593D01*
X149289009Y-47736296D01*
X149260553Y-47672484D01*
X149271113Y-47603417D01*
X149317337Y-47551023D01*
X149351350Y-47536158D01*
X149473483Y-47503433D01*
X149473492Y-47503429D01*
X149687578Y-47403600D01*
X149881082Y-47268105D01*
X150048105Y-47101082D01*
X150183600Y-46907578D01*
X150283429Y-46693492D01*
X150283433Y-46693483D01*
X150316158Y-46571350D01*
X150352522Y-46511690D01*
X150415369Y-46481160D01*
X150484745Y-46489454D01*
X150538623Y-46533939D01*
X150554593Y-46567447D01*
X150574768Y-46633954D01*
X150672315Y-46816450D01*
X150672317Y-46816452D01*
X150803589Y-46976410D01*
X150867492Y-47028853D01*
X150963550Y-47107685D01*
X151146046Y-47205232D01*
X151344066Y-47265300D01*
X151344065Y-47265300D01*
X151362529Y-47267118D01*
X151550000Y-47285583D01*
X151755934Y-47265300D01*
X151953954Y-47205232D01*
X152136450Y-47107685D01*
X152296410Y-46976410D01*
X152427685Y-46816450D01*
X152525232Y-46633954D01*
X152585300Y-46435934D01*
X152605583Y-46230000D01*
X153034417Y-46230000D01*
X153054699Y-46435932D01*
X153054700Y-46435934D01*
X153114768Y-46633954D01*
X153212315Y-46816450D01*
X153212317Y-46816452D01*
X153343589Y-46976410D01*
X153407492Y-47028853D01*
X153503550Y-47107685D01*
X153686046Y-47205232D01*
X153884066Y-47265300D01*
X153884065Y-47265300D01*
X153902529Y-47267118D01*
X154090000Y-47285583D01*
X154295934Y-47265300D01*
X154493954Y-47205232D01*
X154676450Y-47107685D01*
X154836410Y-46976410D01*
X154967685Y-46816450D01*
X155065232Y-46633954D01*
X155125300Y-46435934D01*
X155145583Y-46230000D01*
X155125300Y-46024066D01*
X155065232Y-45826046D01*
X154967685Y-45643550D01*
X154892897Y-45552420D01*
X154836410Y-45483589D01*
X154718677Y-45386969D01*
X154676450Y-45352315D01*
X154493954Y-45254768D01*
X154295934Y-45194700D01*
X154295932Y-45194699D01*
X154295934Y-45194699D01*
X154202169Y-45185464D01*
X154137382Y-45159302D01*
X154097023Y-45102268D01*
X154096363Y-45087487D01*
X154070885Y-45142555D01*
X154011920Y-45180038D01*
X153989730Y-45184292D01*
X153884067Y-45194699D01*
X153686043Y-45254769D01*
X153615586Y-45292430D01*
X153503550Y-45352315D01*
X153503548Y-45352316D01*
X153503547Y-45352317D01*
X153343589Y-45483589D01*
X153212317Y-45643547D01*
X153114769Y-45826043D01*
X153054699Y-46024067D01*
X153034417Y-46230000D01*
X152605583Y-46230000D01*
X152585300Y-46024066D01*
X152525232Y-45826046D01*
X152427685Y-45643550D01*
X152352897Y-45552420D01*
X152296410Y-45483589D01*
X152178677Y-45386969D01*
X152136450Y-45352315D01*
X151953954Y-45254768D01*
X151755934Y-45194700D01*
X151755932Y-45194699D01*
X151755934Y-45194699D01*
X151550000Y-45174417D01*
X151344067Y-45194699D01*
X151146043Y-45254769D01*
X151075586Y-45292430D01*
X150963550Y-45352315D01*
X150963548Y-45352316D01*
X150963547Y-45352317D01*
X150803589Y-45483589D01*
X150672317Y-45643547D01*
X150574767Y-45826046D01*
X150554593Y-45892552D01*
X150516296Y-45950990D01*
X150452483Y-45979447D01*
X150383416Y-45968886D01*
X150331023Y-45922661D01*
X150316158Y-45888649D01*
X150283433Y-45766516D01*
X150283429Y-45766507D01*
X150183600Y-45552422D01*
X150183599Y-45552420D01*
X150048113Y-45358926D01*
X150048108Y-45358920D01*
X149881078Y-45191890D01*
X149810091Y-45142184D01*
X149766466Y-45087607D01*
X149759274Y-45018109D01*
X149790796Y-44955754D01*
X149851027Y-44920341D01*
X149881820Y-44916612D01*
X153978192Y-44936892D01*
X154045130Y-44956907D01*
X154090623Y-45009937D01*
X154093982Y-45034150D01*
X154093907Y-45032467D01*
X154129022Y-44972063D01*
X154191220Y-44940232D01*
X154214927Y-44938063D01*
X156401475Y-44948888D01*
X156468415Y-44968904D01*
X156513908Y-45021934D01*
X156523509Y-45091140D01*
X156494170Y-45154552D01*
X156435205Y-45192035D01*
X156425061Y-45194501D01*
X156424077Y-45194696D01*
X156226043Y-45254769D01*
X156155586Y-45292430D01*
X156043550Y-45352315D01*
X156043548Y-45352316D01*
X156043547Y-45352317D01*
X155883589Y-45483589D01*
X155752317Y-45643547D01*
X155654769Y-45826043D01*
X155594699Y-46024067D01*
X155574417Y-46230000D01*
X155594699Y-46435932D01*
X155594700Y-46435934D01*
X155654768Y-46633954D01*
X155752315Y-46816450D01*
X155752317Y-46816452D01*
X155883589Y-46976410D01*
X155947492Y-47028853D01*
X156043550Y-47107685D01*
X156226046Y-47205232D01*
X156292551Y-47225405D01*
X156350989Y-47263702D01*
X156379446Y-47327514D01*
X156368887Y-47396581D01*
X156322663Y-47448975D01*
X156288650Y-47463841D01*
X156166514Y-47496567D01*
X156166507Y-47496570D01*
X155952422Y-47596399D01*
X155952420Y-47596400D01*
X155758926Y-47731886D01*
X155758920Y-47731891D01*
X155591891Y-47898920D01*
X155591886Y-47898926D01*
X155456400Y-48092420D01*
X155456399Y-48092422D01*
X155356570Y-48306507D01*
X155356567Y-48306514D01*
X155323841Y-48428650D01*
X155287476Y-48488310D01*
X155224629Y-48518839D01*
X155155253Y-48510544D01*
X155101375Y-48466059D01*
X155085406Y-48432553D01*
X155065232Y-48366046D01*
X154967685Y-48183550D01*
X154892897Y-48092420D01*
X154836410Y-48023589D01*
X154690536Y-47903875D01*
X154676450Y-47892315D01*
X154493954Y-47794768D01*
X154295934Y-47734700D01*
X154295932Y-47734699D01*
X154295934Y-47734699D01*
X154090000Y-47714417D01*
X153884067Y-47734699D01*
X153749736Y-47775448D01*
X153686050Y-47794767D01*
X153686043Y-47794769D01*
X153598114Y-47841769D01*
X153503550Y-47892315D01*
X153503548Y-47892316D01*
X153503547Y-47892317D01*
X153343589Y-48023589D01*
X153212317Y-48183547D01*
X153114769Y-48366043D01*
X153054699Y-48564067D01*
X153034417Y-48770000D01*
X153054699Y-48975932D01*
X153054700Y-48975934D01*
X153114768Y-49173954D01*
X153212315Y-49356450D01*
X153222037Y-49368296D01*
X153343589Y-49516410D01*
X153410826Y-49571589D01*
X153503550Y-49647685D01*
X153686046Y-49745232D01*
X153884066Y-49805300D01*
X153884065Y-49805300D01*
X153902529Y-49807118D01*
X154090000Y-49825583D01*
X154295934Y-49805300D01*
X154493954Y-49745232D01*
X154676450Y-49647685D01*
X154836410Y-49516410D01*
X154967685Y-49356450D01*
X155065232Y-49173954D01*
X155085406Y-49107446D01*
X155123702Y-49049010D01*
X155187514Y-49020553D01*
X155256581Y-49031112D01*
X155308975Y-49077336D01*
X155323841Y-49111349D01*
X155356567Y-49233486D01*
X155356570Y-49233492D01*
X155456399Y-49447578D01*
X155591894Y-49641082D01*
X155758917Y-49808105D01*
X155952421Y-49943600D01*
X156166507Y-50043429D01*
X156166516Y-50043433D01*
X156380000Y-50100634D01*
X156380000Y-49203012D01*
X156437007Y-49235925D01*
X156564174Y-49270000D01*
X156695826Y-49270000D01*
X156822993Y-49235925D01*
X156880000Y-49203012D01*
X156880000Y-50100633D01*
X157093483Y-50043433D01*
X157093492Y-50043429D01*
X157307578Y-49943600D01*
X157501082Y-49808105D01*
X157668105Y-49641082D01*
X157803600Y-49447578D01*
X157903429Y-49233492D01*
X157903432Y-49233486D01*
X157960636Y-49020000D01*
X157063012Y-49020000D01*
X157095925Y-48962993D01*
X157130000Y-48835826D01*
X157130000Y-48704174D01*
X157095925Y-48577007D01*
X157063012Y-48520000D01*
X157960636Y-48520000D01*
X157960635Y-48519999D01*
X157903432Y-48306513D01*
X157903429Y-48306507D01*
X157803600Y-48092422D01*
X157803599Y-48092420D01*
X157668113Y-47898926D01*
X157668108Y-47898920D01*
X157501082Y-47731894D01*
X157307578Y-47596399D01*
X157093492Y-47496570D01*
X157093486Y-47496567D01*
X156971349Y-47463841D01*
X156911689Y-47427476D01*
X156881160Y-47364629D01*
X156889455Y-47295253D01*
X156933940Y-47241375D01*
X156967444Y-47225407D01*
X157033954Y-47205232D01*
X157216450Y-47107685D01*
X157376410Y-46976410D01*
X157507685Y-46816450D01*
X157605232Y-46633954D01*
X157665300Y-46435934D01*
X157685583Y-46230000D01*
X157665300Y-46024066D01*
X157605232Y-45826046D01*
X157507685Y-45643550D01*
X157432897Y-45552420D01*
X157376410Y-45483589D01*
X157258677Y-45386969D01*
X157216450Y-45352315D01*
X157033954Y-45254768D01*
X156945213Y-45227849D01*
X156833183Y-45193865D01*
X156774744Y-45155567D01*
X156746288Y-45091755D01*
X156756848Y-45022688D01*
X156803072Y-44970294D01*
X156869788Y-44951206D01*
X158118614Y-44957389D01*
X158185555Y-44977405D01*
X158231048Y-45030435D01*
X158242000Y-45081387D01*
X158242000Y-51562000D01*
X163706000Y-51562000D01*
X163773039Y-51581685D01*
X163818794Y-51634489D01*
X163830000Y-51686000D01*
X163830000Y-92332000D01*
X163810315Y-92399039D01*
X163757511Y-92444794D01*
X163706000Y-92456000D01*
X156972000Y-92456000D01*
X156972000Y-98936000D01*
X156952315Y-99003039D01*
X156899511Y-99048794D01*
X156848000Y-99060000D01*
X107312000Y-99060000D01*
X107244961Y-99040315D01*
X107199206Y-98987511D01*
X107188000Y-98936000D01*
X107188000Y-93980000D01*
X143520659Y-93980000D01*
X143539975Y-94176129D01*
X143597188Y-94364733D01*
X143690086Y-94538532D01*
X143690090Y-94538539D01*
X143815116Y-94690883D01*
X143967460Y-94815909D01*
X143967467Y-94815913D01*
X144141266Y-94908811D01*
X144141269Y-94908811D01*
X144141273Y-94908814D01*
X144329868Y-94966024D01*
X144526000Y-94985341D01*
X144722132Y-94966024D01*
X144910727Y-94908814D01*
X145084538Y-94815910D01*
X145236883Y-94690883D01*
X145361910Y-94538538D01*
X145454814Y-94364727D01*
X145512024Y-94176132D01*
X145531341Y-93980000D01*
X145512024Y-93783868D01*
X145454814Y-93595273D01*
X145454811Y-93595269D01*
X145454811Y-93595266D01*
X145361913Y-93421467D01*
X145361909Y-93421460D01*
X145236883Y-93269116D01*
X145084539Y-93144090D01*
X145084532Y-93144086D01*
X144910733Y-93051188D01*
X144910727Y-93051186D01*
X144722132Y-92993976D01*
X144722129Y-92993975D01*
X144526000Y-92974659D01*
X144329870Y-92993975D01*
X144141266Y-93051188D01*
X143967467Y-93144086D01*
X143967460Y-93144090D01*
X143815116Y-93269116D01*
X143690090Y-93421460D01*
X143690086Y-93421467D01*
X143597188Y-93595266D01*
X143539975Y-93783870D01*
X143520659Y-93980000D01*
X107188000Y-93980000D01*
X107188000Y-92202000D01*
X100962000Y-92202000D01*
X100894961Y-92182315D01*
X100849206Y-92129511D01*
X100838000Y-92078000D01*
X100838000Y-86613994D01*
X107561202Y-86613994D01*
X107561202Y-86614005D01*
X107580361Y-86845218D01*
X107637317Y-87070135D01*
X107730516Y-87282609D01*
X107814811Y-87411633D01*
X108523861Y-86702584D01*
X108546667Y-86787694D01*
X108605910Y-86890306D01*
X108689694Y-86974090D01*
X108792306Y-87033333D01*
X108877414Y-87056138D01*
X108167201Y-87766351D01*
X108197649Y-87790050D01*
X108401697Y-87900476D01*
X108401706Y-87900479D01*
X108621139Y-87975811D01*
X108849993Y-88014000D01*
X109082007Y-88014000D01*
X109310860Y-87975811D01*
X109530293Y-87900479D01*
X109530301Y-87900476D01*
X109734355Y-87790047D01*
X109764797Y-87766351D01*
X109764798Y-87766350D01*
X109054585Y-87056137D01*
X109139694Y-87033333D01*
X109242306Y-86974090D01*
X109326090Y-86890306D01*
X109385333Y-86787694D01*
X109408137Y-86702585D01*
X110117186Y-87411634D01*
X110201484Y-87282606D01*
X110294682Y-87070135D01*
X110351638Y-86845218D01*
X110370798Y-86614005D01*
X110370798Y-86613994D01*
X110351638Y-86382781D01*
X110336753Y-86323999D01*
X150992357Y-86323999D01*
X150992357Y-86324000D01*
X151012884Y-86545535D01*
X151012885Y-86545537D01*
X151073769Y-86759523D01*
X151073775Y-86759538D01*
X151172938Y-86958683D01*
X151172943Y-86958691D01*
X151307020Y-87136238D01*
X151471437Y-87286123D01*
X151471439Y-87286125D01*
X151660595Y-87403245D01*
X151660596Y-87403245D01*
X151660599Y-87403247D01*
X151868060Y-87483618D01*
X152086757Y-87524500D01*
X152086759Y-87524500D01*
X152309241Y-87524500D01*
X152309243Y-87524500D01*
X152527940Y-87483618D01*
X152735401Y-87403247D01*
X152924562Y-87286124D01*
X153088981Y-87136236D01*
X153223058Y-86958689D01*
X153322229Y-86759528D01*
X153383115Y-86545536D01*
X153403643Y-86324000D01*
X153388248Y-86157864D01*
X153383115Y-86102464D01*
X153383114Y-86102462D01*
X153338423Y-85945390D01*
X153322229Y-85888472D01*
X153322224Y-85888461D01*
X153223061Y-85689316D01*
X153223056Y-85689308D01*
X153088979Y-85511761D01*
X152924562Y-85361876D01*
X152924560Y-85361874D01*
X152735404Y-85244754D01*
X152735398Y-85244752D01*
X152527940Y-85164382D01*
X152309243Y-85123500D01*
X152086757Y-85123500D01*
X151868060Y-85164382D01*
X151821339Y-85182482D01*
X151660601Y-85244752D01*
X151660595Y-85244754D01*
X151471439Y-85361874D01*
X151471437Y-85361876D01*
X151307020Y-85511761D01*
X151172943Y-85689308D01*
X151172938Y-85689316D01*
X151073775Y-85888461D01*
X151073769Y-85888476D01*
X151012885Y-86102462D01*
X151012884Y-86102464D01*
X150992357Y-86323999D01*
X110336753Y-86323999D01*
X110294682Y-86157864D01*
X110201483Y-85945390D01*
X110117186Y-85816364D01*
X109408137Y-86525413D01*
X109385333Y-86440306D01*
X109326090Y-86337694D01*
X109242306Y-86253910D01*
X109139694Y-86194667D01*
X109054584Y-86171861D01*
X109764797Y-85461647D01*
X109764797Y-85461645D01*
X109734360Y-85437955D01*
X109734349Y-85437948D01*
X109678187Y-85407555D01*
X109628596Y-85358336D01*
X109613488Y-85290119D01*
X109637658Y-85224563D01*
X109693434Y-85182482D01*
X109737204Y-85174500D01*
X109885750Y-85174500D01*
X109885751Y-85174499D01*
X109900568Y-85171552D01*
X109944229Y-85162868D01*
X109944229Y-85162867D01*
X109944231Y-85162867D01*
X110010552Y-85118552D01*
X110054867Y-85052231D01*
X110054867Y-85052229D01*
X110054868Y-85052229D01*
X110066499Y-84993752D01*
X110066500Y-84993750D01*
X110066500Y-83591255D01*
X110086185Y-83524216D01*
X110102819Y-83503574D01*
X111782394Y-81823999D01*
X150992357Y-81823999D01*
X150992357Y-81824000D01*
X151012884Y-82045535D01*
X151012885Y-82045537D01*
X151073769Y-82259523D01*
X151073775Y-82259538D01*
X151172938Y-82458683D01*
X151172943Y-82458691D01*
X151307020Y-82636238D01*
X151471437Y-82786123D01*
X151471439Y-82786125D01*
X151660595Y-82903245D01*
X151660596Y-82903245D01*
X151660599Y-82903247D01*
X151868060Y-82983618D01*
X152086757Y-83024500D01*
X152086759Y-83024500D01*
X152309241Y-83024500D01*
X152309243Y-83024500D01*
X152527940Y-82983618D01*
X152735401Y-82903247D01*
X152924562Y-82786124D01*
X153088981Y-82636236D01*
X153223058Y-82458689D01*
X153322229Y-82259528D01*
X153383115Y-82045536D01*
X153403643Y-81824000D01*
X153383115Y-81602464D01*
X153322229Y-81388472D01*
X153322224Y-81388461D01*
X153223061Y-81189316D01*
X153223056Y-81189308D01*
X153088979Y-81011761D01*
X152924562Y-80861876D01*
X152924560Y-80861874D01*
X152735404Y-80744754D01*
X152735398Y-80744752D01*
X152527940Y-80664382D01*
X152309243Y-80623500D01*
X152086757Y-80623500D01*
X151868060Y-80664382D01*
X151798608Y-80691288D01*
X151660601Y-80744752D01*
X151660595Y-80744754D01*
X151471439Y-80861874D01*
X151471437Y-80861876D01*
X151307020Y-81011761D01*
X151172943Y-81189308D01*
X151172938Y-81189316D01*
X151073775Y-81388461D01*
X151073769Y-81388476D01*
X151012885Y-81602462D01*
X151012884Y-81602464D01*
X150992357Y-81823999D01*
X111782394Y-81823999D01*
X113769574Y-79836819D01*
X113830897Y-79803334D01*
X113857255Y-79800500D01*
X120042725Y-79800500D01*
X120042727Y-79800500D01*
X120144588Y-79773207D01*
X120235913Y-79720480D01*
X125900678Y-74055713D01*
X125961999Y-74022230D01*
X126031691Y-74027214D01*
X126087624Y-74069086D01*
X126112041Y-74134550D01*
X126109975Y-74167585D01*
X126099500Y-74220250D01*
X126099500Y-75859752D01*
X126111131Y-75918229D01*
X126111132Y-75918230D01*
X126155447Y-75984552D01*
X126221769Y-76028867D01*
X126221770Y-76028868D01*
X126280247Y-76040499D01*
X126280250Y-76040500D01*
X126280252Y-76040500D01*
X127746745Y-76040500D01*
X127813784Y-76060185D01*
X127834426Y-76076819D01*
X131247179Y-79489571D01*
X131247189Y-79489582D01*
X131251519Y-79493912D01*
X131251520Y-79493913D01*
X131326087Y-79568480D01*
X131417413Y-79621207D01*
X131519273Y-79648501D01*
X131519275Y-79648501D01*
X131632323Y-79648501D01*
X131632339Y-79648500D01*
X148388725Y-79648500D01*
X148388727Y-79648500D01*
X148490588Y-79621207D01*
X148581913Y-79568480D01*
X151704480Y-76445913D01*
X151757207Y-76354588D01*
X151784500Y-76252727D01*
X151784500Y-76147273D01*
X151784500Y-71182729D01*
X151784501Y-71182716D01*
X151784501Y-71067275D01*
X151784501Y-71067273D01*
X151774842Y-71031226D01*
X151776505Y-70961379D01*
X151815667Y-70903516D01*
X151879895Y-70876011D01*
X151948797Y-70887597D01*
X151982298Y-70911453D01*
X155436181Y-74365336D01*
X155469666Y-74426659D01*
X155472500Y-74453017D01*
X155472500Y-75648884D01*
X155472500Y-75735116D01*
X155483060Y-75774526D01*
X155494819Y-75818410D01*
X155537934Y-75893088D01*
X155537936Y-75893091D01*
X158334181Y-78689336D01*
X158367666Y-78750659D01*
X158370500Y-78777017D01*
X158370500Y-80578494D01*
X158350815Y-80645533D01*
X158298011Y-80691288D01*
X158291294Y-80694120D01*
X158160610Y-80744747D01*
X158160595Y-80744754D01*
X157971439Y-80861874D01*
X157971437Y-80861876D01*
X157807020Y-81011761D01*
X157672943Y-81189308D01*
X157672938Y-81189316D01*
X157573775Y-81388461D01*
X157573769Y-81388476D01*
X157512885Y-81602462D01*
X157512884Y-81602464D01*
X157492357Y-81823999D01*
X157492357Y-81824000D01*
X157512884Y-82045535D01*
X157512885Y-82045537D01*
X157573769Y-82259523D01*
X157573775Y-82259538D01*
X157672938Y-82458683D01*
X157672943Y-82458691D01*
X157807020Y-82636238D01*
X157971437Y-82786123D01*
X157971439Y-82786125D01*
X158160595Y-82903245D01*
X158160596Y-82903245D01*
X158160599Y-82903247D01*
X158368060Y-82983618D01*
X158586757Y-83024500D01*
X158586759Y-83024500D01*
X158809241Y-83024500D01*
X158809243Y-83024500D01*
X159027940Y-82983618D01*
X159235401Y-82903247D01*
X159424562Y-82786124D01*
X159588981Y-82636236D01*
X159723058Y-82458689D01*
X159822229Y-82259528D01*
X159883115Y-82045536D01*
X159903643Y-81824000D01*
X159883115Y-81602464D01*
X159822229Y-81388472D01*
X159822224Y-81388461D01*
X159723061Y-81189316D01*
X159723056Y-81189308D01*
X159588979Y-81011761D01*
X159424562Y-80861876D01*
X159424560Y-80861874D01*
X159235404Y-80744754D01*
X159235389Y-80744747D01*
X159104706Y-80694120D01*
X159049304Y-80651548D01*
X159025714Y-80585781D01*
X159025500Y-80578494D01*
X159025500Y-78546885D01*
X159025500Y-78546884D01*
X159003181Y-78463590D01*
X158960065Y-78388910D01*
X158899090Y-78327935D01*
X156163819Y-75592664D01*
X156130334Y-75531341D01*
X156127500Y-75504983D01*
X156127500Y-74222885D01*
X156127500Y-74222884D01*
X156105181Y-74139590D01*
X156062065Y-74064910D01*
X156001090Y-74003935D01*
X133297090Y-51299935D01*
X133222410Y-51256819D01*
X133222411Y-51256819D01*
X133194645Y-51249379D01*
X133139116Y-51234500D01*
X133139114Y-51234500D01*
X125349017Y-51234500D01*
X125281978Y-51214815D01*
X125261336Y-51198181D01*
X123998215Y-49935060D01*
X123964730Y-49873737D01*
X123969714Y-49804045D01*
X124011586Y-49748112D01*
X124027434Y-49738026D01*
X124196450Y-49647685D01*
X124356410Y-49516410D01*
X124487685Y-49356450D01*
X124585232Y-49173954D01*
X124645300Y-48975934D01*
X124665583Y-48770000D01*
X124645300Y-48564066D01*
X124635564Y-48531973D01*
X124634942Y-48462109D01*
X124672190Y-48402996D01*
X124735484Y-48373405D01*
X124804728Y-48382730D01*
X124841907Y-48408299D01*
X125062736Y-48629128D01*
X125096221Y-48690451D01*
X125098458Y-48728961D01*
X125094417Y-48769997D01*
X125094417Y-48769999D01*
X125114699Y-48975932D01*
X125114700Y-48975934D01*
X125174768Y-49173954D01*
X125272315Y-49356450D01*
X125282037Y-49368296D01*
X125403589Y-49516410D01*
X125470826Y-49571589D01*
X125563550Y-49647685D01*
X125746046Y-49745232D01*
X125944066Y-49805300D01*
X125944065Y-49805300D01*
X125962529Y-49807118D01*
X126150000Y-49825583D01*
X126355934Y-49805300D01*
X126553954Y-49745232D01*
X126736450Y-49647685D01*
X126896410Y-49516410D01*
X127027685Y-49356450D01*
X127125232Y-49173954D01*
X127185300Y-48975934D01*
X127205583Y-48770000D01*
X127185300Y-48564066D01*
X127125232Y-48366046D01*
X127027685Y-48183550D01*
X126952897Y-48092420D01*
X126896410Y-48023589D01*
X126750536Y-47903875D01*
X126736450Y-47892315D01*
X126553954Y-47794768D01*
X126355934Y-47734700D01*
X126355932Y-47734699D01*
X126355934Y-47734699D01*
X126150000Y-47714417D01*
X125944067Y-47734699D01*
X125746041Y-47794769D01*
X125576331Y-47885482D01*
X125507928Y-47899724D01*
X125442685Y-47874724D01*
X125430197Y-47863805D01*
X125117415Y-47551023D01*
X124743913Y-47177520D01*
X124672865Y-47136500D01*
X124652589Y-47124793D01*
X124592157Y-47108601D01*
X124550727Y-47097500D01*
X124550726Y-47097500D01*
X124519210Y-47097500D01*
X124452171Y-47077815D01*
X124406416Y-47025011D01*
X124396472Y-46955853D01*
X124423356Y-46894836D01*
X124436405Y-46878934D01*
X124487685Y-46816450D01*
X124585232Y-46633954D01*
X124645300Y-46435934D01*
X124665583Y-46230000D01*
X124645300Y-46024066D01*
X124585232Y-45826046D01*
X124487685Y-45643550D01*
X124412897Y-45552420D01*
X124356410Y-45483589D01*
X124238677Y-45386969D01*
X124196450Y-45352315D01*
X124013954Y-45254768D01*
X123815934Y-45194700D01*
X123815932Y-45194699D01*
X123815934Y-45194699D01*
X123610000Y-45174417D01*
X123404067Y-45194699D01*
X123206043Y-45254769D01*
X123135586Y-45292430D01*
X123023550Y-45352315D01*
X123023548Y-45352316D01*
X123023547Y-45352317D01*
X122863589Y-45483589D01*
X122732317Y-45643547D01*
X122634769Y-45826043D01*
X122574699Y-46024067D01*
X122554417Y-46230000D01*
X122574699Y-46435932D01*
X122574700Y-46435934D01*
X122634768Y-46633954D01*
X122732315Y-46816450D01*
X122732317Y-46816452D01*
X122820466Y-46923864D01*
X122847778Y-46988174D01*
X122835987Y-47057041D01*
X122788834Y-47108601D01*
X122756709Y-47122302D01*
X122747411Y-47124793D01*
X122727138Y-47136499D01*
X122727135Y-47136500D01*
X122656093Y-47177515D01*
X122656085Y-47177521D01*
X122021059Y-47812547D01*
X122021057Y-47812550D01*
X121968330Y-47903874D01*
X121964424Y-47918451D01*
X121928057Y-47978111D01*
X121865209Y-48008638D01*
X121795834Y-48000341D01*
X121765986Y-47982208D01*
X121688297Y-47918451D01*
X121656450Y-47892315D01*
X121473954Y-47794768D01*
X121275934Y-47734700D01*
X121275932Y-47734699D01*
X121275934Y-47734699D01*
X121070000Y-47714417D01*
X120864067Y-47734699D01*
X120729736Y-47775448D01*
X120666050Y-47794767D01*
X120666043Y-47794769D01*
X120578114Y-47841769D01*
X120483550Y-47892315D01*
X120483548Y-47892316D01*
X120483547Y-47892317D01*
X120323589Y-48023589D01*
X120192317Y-48183547D01*
X120094769Y-48366043D01*
X120034699Y-48564067D01*
X120014417Y-48770000D01*
X120034699Y-48975932D01*
X120096537Y-49179784D01*
X120095404Y-49180127D01*
X120102197Y-49243334D01*
X120070920Y-49305812D01*
X120067850Y-49308994D01*
X119940910Y-49435935D01*
X119879936Y-49496908D01*
X119879934Y-49496911D01*
X119836819Y-49571589D01*
X119814500Y-49654885D01*
X119814500Y-54423166D01*
X119794815Y-54490205D01*
X119742011Y-54535960D01*
X119730763Y-54540447D01*
X119577504Y-54593061D01*
X119577495Y-54593064D01*
X119373371Y-54703531D01*
X119373365Y-54703535D01*
X119190222Y-54846081D01*
X119190219Y-54846084D01*
X119190216Y-54846086D01*
X119190216Y-54846087D01*
X119157236Y-54881913D01*
X119033016Y-55016852D01*
X118906075Y-55211151D01*
X118812842Y-55423699D01*
X118755866Y-55648691D01*
X118755864Y-55648702D01*
X118736700Y-55879993D01*
X118736700Y-55880006D01*
X118755864Y-56111297D01*
X118755866Y-56111308D01*
X118812842Y-56336300D01*
X118906075Y-56548848D01*
X119033016Y-56743147D01*
X119033019Y-56743151D01*
X119033021Y-56743153D01*
X119190216Y-56913913D01*
X119190219Y-56913915D01*
X119190222Y-56913918D01*
X119373365Y-57056464D01*
X119373371Y-57056468D01*
X119373374Y-57056470D01*
X119577497Y-57166936D01*
X119664048Y-57196649D01*
X119797015Y-57242297D01*
X119797017Y-57242297D01*
X119797019Y-57242298D01*
X120025951Y-57280500D01*
X120025952Y-57280500D01*
X120258048Y-57280500D01*
X120258049Y-57280500D01*
X120486981Y-57242298D01*
X120706503Y-57166936D01*
X120910626Y-57056470D01*
X121093784Y-56913913D01*
X121250979Y-56743153D01*
X121377924Y-56548849D01*
X121471157Y-56336300D01*
X121528134Y-56111305D01*
X121547300Y-55880000D01*
X121547300Y-55879993D01*
X121528135Y-55648702D01*
X121528133Y-55648691D01*
X121471157Y-55423699D01*
X121377924Y-55211151D01*
X121250983Y-55016852D01*
X121250980Y-55016849D01*
X121250979Y-55016847D01*
X121093784Y-54846087D01*
X121093779Y-54846083D01*
X121093777Y-54846081D01*
X120910634Y-54703535D01*
X120910628Y-54703531D01*
X120706504Y-54593064D01*
X120706495Y-54593061D01*
X120553237Y-54540447D01*
X120496222Y-54500061D01*
X120470091Y-54435262D01*
X120469500Y-54423166D01*
X120469500Y-49885017D01*
X120489185Y-49817978D01*
X120505814Y-49797340D01*
X120531005Y-49772149D01*
X120592324Y-49738665D01*
X120660199Y-49743518D01*
X120660216Y-49743463D01*
X120660458Y-49743536D01*
X120662016Y-49743648D01*
X120666022Y-49745224D01*
X120666042Y-49745230D01*
X120666046Y-49745232D01*
X120864066Y-49805300D01*
X120864065Y-49805300D01*
X120882529Y-49807118D01*
X121070000Y-49825583D01*
X121275934Y-49805300D01*
X121473954Y-49745232D01*
X121656450Y-49647685D01*
X121738372Y-49580454D01*
X121802682Y-49553141D01*
X121871550Y-49564932D01*
X121923110Y-49612084D01*
X121941037Y-49676307D01*
X121941037Y-51194263D01*
X121968330Y-51296126D01*
X121970530Y-51299936D01*
X122021057Y-51387450D01*
X122021058Y-51387451D01*
X122021059Y-51387452D01*
X123875179Y-53241571D01*
X123875189Y-53241582D01*
X123879519Y-53245912D01*
X123879520Y-53245913D01*
X123954087Y-53320480D01*
X124045413Y-53373207D01*
X124147273Y-53400501D01*
X124147275Y-53400501D01*
X124260323Y-53400501D01*
X124260339Y-53400500D01*
X131582745Y-53400500D01*
X131649784Y-53420185D01*
X131670426Y-53436819D01*
X146754087Y-68520480D01*
X146845412Y-68573207D01*
X146947273Y-68600500D01*
X148246745Y-68600500D01*
X148313784Y-68620185D01*
X148334426Y-68636819D01*
X150947181Y-71249573D01*
X150980666Y-71310896D01*
X150983500Y-71337254D01*
X150983500Y-75982745D01*
X150963815Y-76049784D01*
X150947181Y-76070426D01*
X148206426Y-78811181D01*
X148145103Y-78844666D01*
X148118745Y-78847500D01*
X131789254Y-78847500D01*
X131722215Y-78827815D01*
X131701573Y-78811181D01*
X128922420Y-76032028D01*
X128888935Y-75970705D01*
X128888484Y-75920154D01*
X128892176Y-75901597D01*
X128900500Y-75859748D01*
X128900500Y-75127500D01*
X128920185Y-75060461D01*
X128972989Y-75014706D01*
X129024500Y-75003500D01*
X131383713Y-75003500D01*
X131450752Y-75023185D01*
X131496507Y-75075989D01*
X131503919Y-75097060D01*
X131512843Y-75132300D01*
X131606075Y-75344848D01*
X131733016Y-75539147D01*
X131733019Y-75539151D01*
X131733021Y-75539153D01*
X131890216Y-75709913D01*
X131890219Y-75709915D01*
X131890222Y-75709918D01*
X132073365Y-75852464D01*
X132073371Y-75852468D01*
X132073374Y-75852470D01*
X132277497Y-75962936D01*
X132391429Y-76002049D01*
X132497015Y-76038297D01*
X132497017Y-76038297D01*
X132497019Y-76038298D01*
X132725951Y-76076500D01*
X132725952Y-76076500D01*
X132958048Y-76076500D01*
X132958049Y-76076500D01*
X133186981Y-76038298D01*
X133406503Y-75962936D01*
X133610626Y-75852470D01*
X133624595Y-75841598D01*
X133761403Y-75735116D01*
X133793784Y-75709913D01*
X133847101Y-75651995D01*
X137049317Y-75651995D01*
X137049317Y-75652004D01*
X137068021Y-75901597D01*
X137068021Y-75901599D01*
X137123714Y-76145607D01*
X137123720Y-76145626D01*
X137215163Y-76378618D01*
X137340311Y-76595382D01*
X137378800Y-76643645D01*
X138122958Y-75899487D01*
X138147978Y-75959890D01*
X138219112Y-76066351D01*
X138309649Y-76156888D01*
X138416110Y-76228022D01*
X138476510Y-76253041D01*
X137732402Y-76997148D01*
X137886651Y-77102313D01*
X137886664Y-77102320D01*
X138112167Y-77210916D01*
X138112165Y-77210916D01*
X138351346Y-77284694D01*
X138351352Y-77284696D01*
X138598843Y-77321999D01*
X138598852Y-77322000D01*
X138849148Y-77322000D01*
X138849156Y-77321999D01*
X139096647Y-77284696D01*
X139096653Y-77284694D01*
X139335833Y-77210916D01*
X139561334Y-77102322D01*
X139561335Y-77102321D01*
X139715596Y-76997148D01*
X138971488Y-76253041D01*
X139031890Y-76228022D01*
X139138351Y-76156888D01*
X139228888Y-76066351D01*
X139300022Y-75959890D01*
X139325041Y-75899489D01*
X140069198Y-76643646D01*
X140069199Y-76643645D01*
X140107681Y-76595392D01*
X140107688Y-76595381D01*
X140232836Y-76378618D01*
X140324279Y-76145626D01*
X140324285Y-76145607D01*
X140379978Y-75901599D01*
X140379978Y-75901597D01*
X140398683Y-75652004D01*
X140398683Y-75651995D01*
X140379978Y-75402402D01*
X140379978Y-75402400D01*
X140324285Y-75158392D01*
X140324279Y-75158373D01*
X140232836Y-74925381D01*
X140107685Y-74708613D01*
X140069199Y-74660352D01*
X139325041Y-75404510D01*
X139300022Y-75344110D01*
X139228888Y-75237649D01*
X139138351Y-75147112D01*
X139031890Y-75075978D01*
X138971487Y-75050958D01*
X139715596Y-74306850D01*
X139561342Y-74201682D01*
X139561334Y-74201677D01*
X139335832Y-74093083D01*
X139335834Y-74093083D01*
X139096653Y-74019305D01*
X139096647Y-74019303D01*
X138849156Y-73982000D01*
X138598843Y-73982000D01*
X138351352Y-74019303D01*
X138351346Y-74019305D01*
X138112166Y-74093083D01*
X137886661Y-74201680D01*
X137886660Y-74201681D01*
X137732402Y-74306849D01*
X138476511Y-75050958D01*
X138416110Y-75075978D01*
X138309649Y-75147112D01*
X138219112Y-75237649D01*
X138147978Y-75344110D01*
X138122958Y-75404511D01*
X137378800Y-74660353D01*
X137340308Y-74708621D01*
X137215163Y-74925381D01*
X137123720Y-75158373D01*
X137123714Y-75158392D01*
X137068021Y-75402400D01*
X137068021Y-75402402D01*
X137049317Y-75651995D01*
X133847101Y-75651995D01*
X133950979Y-75539153D01*
X134077924Y-75344849D01*
X134171157Y-75132300D01*
X134228134Y-74907305D01*
X134231458Y-74867190D01*
X134247300Y-74676006D01*
X134247300Y-74675993D01*
X134228135Y-74444702D01*
X134228133Y-74444691D01*
X134171157Y-74219699D01*
X134080270Y-74012499D01*
X134071367Y-73943199D01*
X134101344Y-73880087D01*
X134106125Y-73875028D01*
X134465336Y-73515819D01*
X134526659Y-73482334D01*
X134553017Y-73479500D01*
X139796660Y-73479500D01*
X139863699Y-73499185D01*
X139909454Y-73551989D01*
X139916866Y-73573060D01*
X139923315Y-73598526D01*
X140014550Y-73806521D01*
X140138776Y-73996663D01*
X140292604Y-74163765D01*
X140292607Y-74163767D01*
X140292610Y-74163770D01*
X140471830Y-74303263D01*
X140471836Y-74303267D01*
X140471839Y-74303269D01*
X140671590Y-74411369D01*
X140886409Y-74485116D01*
X141110437Y-74522500D01*
X141110438Y-74522500D01*
X141337562Y-74522500D01*
X141337563Y-74522500D01*
X141561591Y-74485116D01*
X141776410Y-74411369D01*
X141976161Y-74303269D01*
X142155396Y-74163765D01*
X142309224Y-73996663D01*
X142433450Y-73806521D01*
X142524685Y-73598526D01*
X142531134Y-73573060D01*
X142566674Y-73512904D01*
X142629094Y-73481512D01*
X142651340Y-73479500D01*
X144592983Y-73479500D01*
X144660022Y-73499185D01*
X144680664Y-73515819D01*
X145808910Y-74644065D01*
X145883590Y-74687181D01*
X145966884Y-74709500D01*
X146053116Y-74709500D01*
X148064275Y-74709500D01*
X148131314Y-74729185D01*
X148173633Y-74775047D01*
X148262086Y-74940532D01*
X148262090Y-74940539D01*
X148387116Y-75092883D01*
X148539460Y-75217909D01*
X148539467Y-75217913D01*
X148713266Y-75310811D01*
X148713269Y-75310811D01*
X148713273Y-75310814D01*
X148901868Y-75368024D01*
X149098000Y-75387341D01*
X149294132Y-75368024D01*
X149482727Y-75310814D01*
X149656538Y-75217910D01*
X149808883Y-75092883D01*
X149933910Y-74940538D01*
X150026814Y-74766727D01*
X150084024Y-74578132D01*
X150103341Y-74382000D01*
X150084024Y-74185868D01*
X150026814Y-73997273D01*
X150026811Y-73997269D01*
X150026811Y-73997266D01*
X149933913Y-73823467D01*
X149933909Y-73823460D01*
X149808883Y-73671116D01*
X149656539Y-73546090D01*
X149656532Y-73546086D01*
X149482733Y-73453188D01*
X149482727Y-73453186D01*
X149294132Y-73395976D01*
X149294129Y-73395975D01*
X149098000Y-73376659D01*
X148901870Y-73395975D01*
X148713266Y-73453188D01*
X148539467Y-73546086D01*
X148539460Y-73546090D01*
X148387116Y-73671116D01*
X148262090Y-73823460D01*
X148262086Y-73823467D01*
X148173633Y-73988953D01*
X148124671Y-74038797D01*
X148064275Y-74054500D01*
X146197017Y-74054500D01*
X146129978Y-74034815D01*
X146109336Y-74018181D01*
X144981091Y-72889936D01*
X144981090Y-72889935D01*
X144906410Y-72846819D01*
X144906411Y-72846819D01*
X144878645Y-72839379D01*
X144823116Y-72824500D01*
X144823114Y-72824500D01*
X142651340Y-72824500D01*
X142584301Y-72804815D01*
X142538546Y-72752011D01*
X142531134Y-72730940D01*
X142525681Y-72709407D01*
X142524685Y-72705474D01*
X142433450Y-72497479D01*
X142309224Y-72307337D01*
X142155396Y-72140235D01*
X142155391Y-72140231D01*
X142155389Y-72140229D01*
X141976169Y-72000736D01*
X141976163Y-72000732D01*
X141776411Y-71892631D01*
X141776406Y-71892629D01*
X141561593Y-71818884D01*
X141412239Y-71793961D01*
X141337563Y-71781500D01*
X141110437Y-71781500D01*
X141054430Y-71790846D01*
X140886406Y-71818884D01*
X140671593Y-71892629D01*
X140671588Y-71892631D01*
X140471836Y-72000732D01*
X140471830Y-72000736D01*
X140292610Y-72140229D01*
X140292607Y-72140232D01*
X140292604Y-72140234D01*
X140292604Y-72140235D01*
X140230075Y-72208160D01*
X140138776Y-72307337D01*
X140014548Y-72497482D01*
X139923314Y-72705476D01*
X139916866Y-72730940D01*
X139881326Y-72791096D01*
X139818906Y-72822488D01*
X139796660Y-72824500D01*
X134409116Y-72824500D01*
X134322884Y-72824500D01*
X134239589Y-72846819D01*
X134239587Y-72846819D01*
X134239587Y-72846820D01*
X134164910Y-72889935D01*
X134164907Y-72889937D01*
X133640117Y-73414726D01*
X133578794Y-73448211D01*
X133509102Y-73443227D01*
X133493419Y-73436100D01*
X133406509Y-73389067D01*
X133406506Y-73389065D01*
X133406503Y-73389064D01*
X133406500Y-73389063D01*
X133406498Y-73389062D01*
X133186984Y-73313702D01*
X133015282Y-73285050D01*
X132958049Y-73275500D01*
X132725951Y-73275500D01*
X132680164Y-73283140D01*
X132497015Y-73313702D01*
X132277504Y-73389061D01*
X132277495Y-73389064D01*
X132073371Y-73499531D01*
X132073365Y-73499535D01*
X131890222Y-73642081D01*
X131890219Y-73642084D01*
X131733016Y-73812852D01*
X131606075Y-74007151D01*
X131512843Y-74219699D01*
X131503919Y-74254940D01*
X131468379Y-74315096D01*
X131405959Y-74346488D01*
X131383713Y-74348500D01*
X129024500Y-74348500D01*
X128957461Y-74328815D01*
X128911706Y-74276011D01*
X128900500Y-74224500D01*
X128900500Y-74220249D01*
X128900499Y-74220247D01*
X128888868Y-74161770D01*
X128888867Y-74161769D01*
X128844552Y-74095447D01*
X128778230Y-74051132D01*
X128778229Y-74051131D01*
X128719752Y-74039500D01*
X128719748Y-74039500D01*
X126280252Y-74039500D01*
X126280251Y-74039500D01*
X126227585Y-74049975D01*
X126157994Y-74043746D01*
X126102817Y-74000882D01*
X126079574Y-73934992D01*
X126095643Y-73866995D01*
X126115711Y-73840680D01*
X126527672Y-73428719D01*
X126588993Y-73395236D01*
X126658685Y-73400220D01*
X126662803Y-73401841D01*
X126808160Y-73462049D01*
X126808165Y-73462051D01*
X126808169Y-73462051D01*
X126808170Y-73462052D01*
X127001456Y-73500500D01*
X127001459Y-73500500D01*
X127998543Y-73500500D01*
X128128582Y-73474632D01*
X128191835Y-73462051D01*
X128341109Y-73400220D01*
X128373907Y-73386635D01*
X128373907Y-73386634D01*
X128373914Y-73386632D01*
X128537782Y-73277139D01*
X128677139Y-73137782D01*
X128786632Y-72973914D01*
X128815571Y-72904047D01*
X128859411Y-72849644D01*
X128925705Y-72827579D01*
X128930132Y-72827500D01*
X129981114Y-72827500D01*
X129981116Y-72827500D01*
X130064410Y-72805181D01*
X130139090Y-72762065D01*
X132043883Y-70857270D01*
X132105204Y-70823787D01*
X132174895Y-70828771D01*
X132190580Y-70835899D01*
X132277497Y-70882936D01*
X132360564Y-70911453D01*
X132497015Y-70958297D01*
X132497017Y-70958297D01*
X132497019Y-70958298D01*
X132725951Y-70996500D01*
X132725952Y-70996500D01*
X132958048Y-70996500D01*
X132958049Y-70996500D01*
X133186981Y-70958298D01*
X133406503Y-70882936D01*
X133610626Y-70772470D01*
X133656020Y-70737139D01*
X133765400Y-70652005D01*
X133765414Y-70651994D01*
X137348803Y-70651994D01*
X137348803Y-70652005D01*
X137367558Y-70878346D01*
X137423314Y-71098524D01*
X137503979Y-71282423D01*
X137514550Y-71306521D01*
X137638776Y-71496663D01*
X137792604Y-71663765D01*
X137792607Y-71663767D01*
X137792610Y-71663770D01*
X137971830Y-71803263D01*
X137971836Y-71803267D01*
X137971839Y-71803269D01*
X138171590Y-71911369D01*
X138386409Y-71985116D01*
X138610437Y-72022500D01*
X138610438Y-72022500D01*
X138837562Y-72022500D01*
X138837563Y-72022500D01*
X139061591Y-71985116D01*
X139276410Y-71911369D01*
X139476161Y-71803269D01*
X139655396Y-71663765D01*
X139809224Y-71496663D01*
X139933450Y-71306521D01*
X140024685Y-71098526D01*
X140080441Y-70878350D01*
X140092142Y-70737139D01*
X140099197Y-70652005D01*
X140099197Y-70651994D01*
X140080441Y-70425653D01*
X140080441Y-70425650D01*
X140024685Y-70205474D01*
X139933450Y-69997479D01*
X139809224Y-69807337D01*
X139655396Y-69640235D01*
X139655391Y-69640231D01*
X139655389Y-69640229D01*
X139476169Y-69500736D01*
X139476163Y-69500732D01*
X139276411Y-69392631D01*
X139276406Y-69392629D01*
X139061593Y-69318884D01*
X138912239Y-69293961D01*
X138837563Y-69281500D01*
X138610437Y-69281500D01*
X138554430Y-69290846D01*
X138386406Y-69318884D01*
X138171593Y-69392629D01*
X138171588Y-69392631D01*
X137971836Y-69500732D01*
X137971830Y-69500736D01*
X137792610Y-69640229D01*
X137792607Y-69640232D01*
X137792604Y-69640234D01*
X137792604Y-69640235D01*
X137766897Y-69668160D01*
X137638776Y-69807337D01*
X137514548Y-69997482D01*
X137423314Y-70205475D01*
X137367558Y-70425653D01*
X137348803Y-70651994D01*
X133765414Y-70651994D01*
X133793784Y-70629913D01*
X133950979Y-70459153D01*
X134077924Y-70264849D01*
X134171157Y-70052300D01*
X134228134Y-69827305D01*
X134241320Y-69668170D01*
X134247300Y-69596006D01*
X134247300Y-69595993D01*
X134228135Y-69364702D01*
X134228133Y-69364691D01*
X134171157Y-69139699D01*
X134080270Y-68932499D01*
X134071367Y-68863199D01*
X134101344Y-68800087D01*
X134106126Y-68795027D01*
X135481336Y-67419819D01*
X135542659Y-67386334D01*
X135569017Y-67383500D01*
X143576983Y-67383500D01*
X143644022Y-67403185D01*
X143664664Y-67419819D01*
X148057550Y-71812705D01*
X148091035Y-71874028D01*
X148093272Y-71888232D01*
X148111975Y-72078129D01*
X148169187Y-72266730D01*
X148192316Y-72310000D01*
X148260176Y-72436958D01*
X148270590Y-72463309D01*
X148284819Y-72516410D01*
X148327935Y-72591090D01*
X148388910Y-72652065D01*
X148463590Y-72695181D01*
X148516685Y-72709407D01*
X148543042Y-72719824D01*
X148702734Y-72805181D01*
X148713273Y-72810814D01*
X148901868Y-72868024D01*
X149098000Y-72887341D01*
X149294132Y-72868024D01*
X149482727Y-72810814D01*
X149493268Y-72805180D01*
X149573730Y-72762172D01*
X149656538Y-72717910D01*
X149808883Y-72592883D01*
X149933910Y-72440538D01*
X150003684Y-72310000D01*
X150026811Y-72266733D01*
X150026812Y-72266730D01*
X150026814Y-72266727D01*
X150084024Y-72078132D01*
X150103341Y-71882000D01*
X150084024Y-71685868D01*
X150026814Y-71497273D01*
X150026811Y-71497269D01*
X150026811Y-71497266D01*
X149933913Y-71323467D01*
X149933909Y-71323460D01*
X149808883Y-71171116D01*
X149656539Y-71046090D01*
X149656532Y-71046086D01*
X149482733Y-70953188D01*
X149482727Y-70953186D01*
X149294132Y-70895976D01*
X149294129Y-70895975D01*
X149098000Y-70876659D01*
X148901870Y-70895975D01*
X148713266Y-70953188D01*
X148539467Y-71046086D01*
X148539460Y-71046090D01*
X148449362Y-71120033D01*
X148385052Y-71147346D01*
X148316184Y-71135555D01*
X148283016Y-71111861D01*
X143965091Y-66793936D01*
X143965090Y-66793935D01*
X143890410Y-66750819D01*
X143890411Y-66750819D01*
X143862645Y-66743379D01*
X143807116Y-66728500D01*
X135425116Y-66728500D01*
X135338884Y-66728500D01*
X135255589Y-66750819D01*
X135255587Y-66750819D01*
X135255587Y-66750820D01*
X135180910Y-66793935D01*
X135180907Y-66793937D01*
X133640117Y-68334726D01*
X133578794Y-68368211D01*
X133509102Y-68363227D01*
X133493419Y-68356100D01*
X133406509Y-68309067D01*
X133406506Y-68309065D01*
X133406503Y-68309064D01*
X133406500Y-68309063D01*
X133406498Y-68309062D01*
X133186984Y-68233702D01*
X133015282Y-68205050D01*
X132958049Y-68195500D01*
X132725951Y-68195500D01*
X132680164Y-68203140D01*
X132497015Y-68233702D01*
X132277504Y-68309061D01*
X132277495Y-68309064D01*
X132073371Y-68419531D01*
X132073365Y-68419535D01*
X131890222Y-68562081D01*
X131890219Y-68562084D01*
X131890216Y-68562086D01*
X131890216Y-68562087D01*
X131838234Y-68618555D01*
X131733016Y-68732852D01*
X131606075Y-68927151D01*
X131512842Y-69139699D01*
X131455866Y-69364691D01*
X131455864Y-69364702D01*
X131436700Y-69595993D01*
X131436700Y-69596006D01*
X131455864Y-69827297D01*
X131455866Y-69827308D01*
X131512842Y-70052300D01*
X131603728Y-70259499D01*
X131612631Y-70328799D01*
X131582654Y-70391911D01*
X131577853Y-70396990D01*
X129838664Y-72136181D01*
X129777341Y-72169666D01*
X129750983Y-72172500D01*
X128930132Y-72172500D01*
X128863093Y-72152815D01*
X128817338Y-72100011D01*
X128815571Y-72095952D01*
X128786635Y-72026093D01*
X128786634Y-72026092D01*
X128786632Y-72026086D01*
X128759256Y-71985115D01*
X128677139Y-71862217D01*
X128537785Y-71722863D01*
X128537781Y-71722860D01*
X128373920Y-71613371D01*
X128373907Y-71613364D01*
X128191839Y-71537950D01*
X128191829Y-71537947D01*
X128010937Y-71501965D01*
X127949026Y-71469580D01*
X127914452Y-71408864D01*
X127918192Y-71339095D01*
X127959059Y-71282423D01*
X128015731Y-71257875D01*
X128204417Y-71227990D01*
X128399031Y-71164755D01*
X128581349Y-71071859D01*
X128746894Y-70951582D01*
X128746895Y-70951582D01*
X128891582Y-70806895D01*
X128891582Y-70806894D01*
X129011859Y-70641349D01*
X129104755Y-70459029D01*
X129167990Y-70264413D01*
X129176609Y-70210000D01*
X127815686Y-70210000D01*
X127820080Y-70205606D01*
X127872741Y-70114394D01*
X127900000Y-70012661D01*
X127900000Y-69907339D01*
X127872741Y-69805606D01*
X127820080Y-69714394D01*
X127815686Y-69710000D01*
X129176609Y-69710000D01*
X129167990Y-69655586D01*
X129104755Y-69460970D01*
X129011859Y-69278650D01*
X128891582Y-69113105D01*
X128891582Y-69113104D01*
X128746895Y-68968417D01*
X128581349Y-68848140D01*
X128487820Y-68800485D01*
X128437024Y-68752511D01*
X128420229Y-68684690D01*
X128442766Y-68618555D01*
X128487820Y-68579515D01*
X128581349Y-68531859D01*
X128746894Y-68411582D01*
X128746895Y-68411582D01*
X128891582Y-68266895D01*
X128891582Y-68266894D01*
X129011859Y-68101349D01*
X129104755Y-67919029D01*
X129167990Y-67724413D01*
X129176609Y-67670000D01*
X127815686Y-67670000D01*
X127820080Y-67665606D01*
X127872741Y-67574394D01*
X127900000Y-67472661D01*
X127900000Y-67367339D01*
X127872741Y-67265606D01*
X127820080Y-67174394D01*
X127815686Y-67170000D01*
X129176609Y-67170000D01*
X129167990Y-67115586D01*
X129104755Y-66920970D01*
X129011859Y-66738650D01*
X128891582Y-66573105D01*
X128891582Y-66573104D01*
X128746895Y-66428417D01*
X128581349Y-66308140D01*
X128399031Y-66215244D01*
X128204417Y-66152009D01*
X128002317Y-66120000D01*
X127750000Y-66120000D01*
X127750000Y-67104314D01*
X127745606Y-67099920D01*
X127654394Y-67047259D01*
X127552661Y-67020000D01*
X127447339Y-67020000D01*
X127345606Y-67047259D01*
X127254394Y-67099920D01*
X127250000Y-67104314D01*
X127250000Y-66120000D01*
X126997683Y-66120000D01*
X126795582Y-66152009D01*
X126600968Y-66215244D01*
X126418650Y-66308140D01*
X126253105Y-66428417D01*
X126253104Y-66428417D01*
X126108417Y-66573104D01*
X126108417Y-66573105D01*
X125988140Y-66738650D01*
X125895244Y-66920970D01*
X125832009Y-67115586D01*
X125823391Y-67170000D01*
X127184314Y-67170000D01*
X127179920Y-67174394D01*
X127127259Y-67265606D01*
X127100000Y-67367339D01*
X127100000Y-67472661D01*
X127127259Y-67574394D01*
X127179920Y-67665606D01*
X127184314Y-67670000D01*
X125823391Y-67670000D01*
X125832009Y-67724413D01*
X125895244Y-67919029D01*
X125988140Y-68101349D01*
X126108417Y-68266894D01*
X126108417Y-68266895D01*
X126253104Y-68411582D01*
X126418650Y-68531859D01*
X126512179Y-68579515D01*
X126562975Y-68627490D01*
X126579770Y-68695311D01*
X126557232Y-68761446D01*
X126512179Y-68800485D01*
X126418650Y-68848140D01*
X126253105Y-68968417D01*
X126253104Y-68968417D01*
X126108417Y-69113104D01*
X126108417Y-69113105D01*
X125988140Y-69278650D01*
X125895244Y-69460970D01*
X125832009Y-69655586D01*
X125823391Y-69710000D01*
X127184314Y-69710000D01*
X127179920Y-69714394D01*
X127127259Y-69805606D01*
X127100000Y-69907339D01*
X127100000Y-70012661D01*
X127127259Y-70114394D01*
X127179920Y-70205606D01*
X127184314Y-70210000D01*
X125823391Y-70210000D01*
X125832009Y-70264413D01*
X125895244Y-70459029D01*
X125988140Y-70641349D01*
X126108417Y-70806894D01*
X126108417Y-70806895D01*
X126253104Y-70951582D01*
X126418650Y-71071859D01*
X126600968Y-71164755D01*
X126795582Y-71227990D01*
X126984268Y-71257875D01*
X127047403Y-71287804D01*
X127084334Y-71347116D01*
X127083336Y-71416978D01*
X127044726Y-71475211D01*
X126989062Y-71501965D01*
X126808170Y-71537947D01*
X126808160Y-71537950D01*
X126626092Y-71613364D01*
X126626079Y-71613371D01*
X126462218Y-71722860D01*
X126462214Y-71722863D01*
X126322863Y-71862214D01*
X126322860Y-71862218D01*
X126213371Y-72026079D01*
X126213364Y-72026092D01*
X126137950Y-72208160D01*
X126137947Y-72208170D01*
X126099500Y-72401456D01*
X126099500Y-72598543D01*
X126107402Y-72638267D01*
X126101175Y-72707858D01*
X126073466Y-72750140D01*
X119860426Y-78963181D01*
X119799103Y-78996666D01*
X119772745Y-78999500D01*
X113587273Y-78999500D01*
X113485410Y-79026793D01*
X113394087Y-79079520D01*
X113394084Y-79079522D01*
X109536426Y-82937181D01*
X109475103Y-82970666D01*
X109448745Y-82973500D01*
X108046247Y-82973500D01*
X107987770Y-82985131D01*
X107987769Y-82985132D01*
X107921447Y-83029447D01*
X107877132Y-83095769D01*
X107877131Y-83095770D01*
X107865500Y-83154247D01*
X107865500Y-84993752D01*
X107877131Y-85052229D01*
X107877132Y-85052230D01*
X107921447Y-85118552D01*
X107987769Y-85162867D01*
X107987770Y-85162868D01*
X108046247Y-85174499D01*
X108046250Y-85174500D01*
X108194796Y-85174500D01*
X108261835Y-85194185D01*
X108307590Y-85246989D01*
X108317534Y-85316147D01*
X108288509Y-85379703D01*
X108253813Y-85407555D01*
X108197652Y-85437947D01*
X108167200Y-85461647D01*
X108877415Y-86171861D01*
X108792306Y-86194667D01*
X108689694Y-86253910D01*
X108605910Y-86337694D01*
X108546667Y-86440306D01*
X108523861Y-86525414D01*
X107814812Y-85816365D01*
X107730516Y-85945391D01*
X107730514Y-85945395D01*
X107637317Y-86157864D01*
X107580361Y-86382781D01*
X107561202Y-86613994D01*
X100838000Y-86613994D01*
X100838000Y-51178000D01*
X100857685Y-51110961D01*
X100910489Y-51065206D01*
X100962000Y-51054000D01*
X106505535Y-51054000D01*
X106572574Y-51073685D01*
X106618329Y-51126489D01*
X106628273Y-51195647D01*
X106599248Y-51259203D01*
X106593216Y-51265681D01*
X104033513Y-53825383D01*
X104033509Y-53825389D01*
X103974201Y-53928112D01*
X103974200Y-53928117D01*
X103943500Y-54042691D01*
X103943500Y-60765308D01*
X103967712Y-60855672D01*
X103974200Y-60879885D01*
X103974200Y-60879886D01*
X103974201Y-60879887D01*
X104033511Y-60982614D01*
X104033513Y-60982616D01*
X107513181Y-64462284D01*
X107546666Y-64523607D01*
X107549500Y-64549965D01*
X107549500Y-65420145D01*
X107529815Y-65487184D01*
X107477011Y-65532939D01*
X107470301Y-65535769D01*
X107462598Y-65538753D01*
X107462595Y-65538755D01*
X107273439Y-65655874D01*
X107273437Y-65655876D01*
X107109020Y-65805761D01*
X106974943Y-65983308D01*
X106974938Y-65983316D01*
X106875775Y-66182461D01*
X106875769Y-66182476D01*
X106814885Y-66396462D01*
X106814884Y-66396464D01*
X106794357Y-66617999D01*
X106794357Y-66618000D01*
X106814884Y-66839535D01*
X106814885Y-66839537D01*
X106875769Y-67053523D01*
X106875775Y-67053538D01*
X106974938Y-67252683D01*
X106974943Y-67252691D01*
X107109020Y-67430238D01*
X107273437Y-67580123D01*
X107273439Y-67580125D01*
X107313241Y-67604769D01*
X107462599Y-67697247D01*
X107470289Y-67700226D01*
X107525692Y-67742795D01*
X107549285Y-67808561D01*
X107549500Y-67815854D01*
X107549500Y-71483309D01*
X107557532Y-71513284D01*
X107580201Y-71597887D01*
X107639511Y-71700614D01*
X107639513Y-71700616D01*
X110003181Y-74064284D01*
X110036666Y-74125607D01*
X110039500Y-74151965D01*
X110039500Y-75375500D01*
X110019815Y-75442539D01*
X109967011Y-75488294D01*
X109915500Y-75499500D01*
X109670247Y-75499500D01*
X109611770Y-75511131D01*
X109611769Y-75511132D01*
X109545447Y-75555447D01*
X109501132Y-75621769D01*
X109501131Y-75621770D01*
X109489500Y-75680247D01*
X109489500Y-76131519D01*
X109469815Y-76198558D01*
X109417011Y-76244313D01*
X109347853Y-76254257D01*
X109284297Y-76225232D01*
X109246523Y-76166454D01*
X109245725Y-76163613D01*
X109216268Y-76053679D01*
X109216264Y-76053668D01*
X109120136Y-75847521D01*
X109120132Y-75847513D01*
X109069025Y-75774526D01*
X108390000Y-76453551D01*
X108390000Y-76447339D01*
X108362741Y-76345606D01*
X108310080Y-76254394D01*
X108235606Y-76179920D01*
X108144394Y-76127259D01*
X108042661Y-76100000D01*
X108036445Y-76100000D01*
X108715472Y-75420974D01*
X108642478Y-75369863D01*
X108436331Y-75273735D01*
X108436317Y-75273730D01*
X108216610Y-75214860D01*
X108216599Y-75214858D01*
X107990002Y-75195034D01*
X107989998Y-75195034D01*
X107763400Y-75214858D01*
X107763389Y-75214860D01*
X107543682Y-75273730D01*
X107543673Y-75273734D01*
X107337516Y-75369866D01*
X107337512Y-75369868D01*
X107264526Y-75420973D01*
X107264526Y-75420974D01*
X107943553Y-76100000D01*
X107937339Y-76100000D01*
X107835606Y-76127259D01*
X107744394Y-76179920D01*
X107669920Y-76254394D01*
X107617259Y-76345606D01*
X107590000Y-76447339D01*
X107590000Y-76453552D01*
X106910974Y-75774526D01*
X106910973Y-75774526D01*
X106859868Y-75847512D01*
X106859866Y-75847516D01*
X106763734Y-76053673D01*
X106763730Y-76053682D01*
X106704860Y-76273389D01*
X106704858Y-76273400D01*
X106685034Y-76499997D01*
X106685034Y-76500002D01*
X106704858Y-76726599D01*
X106704860Y-76726610D01*
X106763730Y-76946317D01*
X106763735Y-76946331D01*
X106859863Y-77152478D01*
X106910974Y-77225472D01*
X107590000Y-76546446D01*
X107590000Y-76552661D01*
X107617259Y-76654394D01*
X107669920Y-76745606D01*
X107744394Y-76820080D01*
X107835606Y-76872741D01*
X107937339Y-76900000D01*
X107943553Y-76900000D01*
X107264526Y-77579025D01*
X107337513Y-77630132D01*
X107337521Y-77630136D01*
X107543668Y-77726264D01*
X107543682Y-77726269D01*
X107763389Y-77785139D01*
X107763400Y-77785141D01*
X107989998Y-77804966D01*
X107990002Y-77804966D01*
X108216599Y-77785141D01*
X108216610Y-77785139D01*
X108436317Y-77726269D01*
X108436331Y-77726264D01*
X108642478Y-77630136D01*
X108715471Y-77579024D01*
X108036447Y-76900000D01*
X108042661Y-76900000D01*
X108144394Y-76872741D01*
X108235606Y-76820080D01*
X108310080Y-76745606D01*
X108362741Y-76654394D01*
X108390000Y-76552661D01*
X108390000Y-76546447D01*
X109069024Y-77225471D01*
X109120136Y-77152478D01*
X109216264Y-76946331D01*
X109216269Y-76946317D01*
X109245725Y-76836387D01*
X109282090Y-76776726D01*
X109344937Y-76746197D01*
X109414312Y-76754492D01*
X109468190Y-76798977D01*
X109489465Y-76865529D01*
X109489500Y-76868480D01*
X109489500Y-77319752D01*
X109501131Y-77378229D01*
X109501132Y-77378230D01*
X109545447Y-77444552D01*
X109611769Y-77488867D01*
X109611770Y-77488868D01*
X109670247Y-77500499D01*
X109670250Y-77500500D01*
X109670252Y-77500500D01*
X111309750Y-77500500D01*
X111309751Y-77500499D01*
X111324568Y-77497552D01*
X111368229Y-77488868D01*
X111368229Y-77488867D01*
X111368231Y-77488867D01*
X111434552Y-77444552D01*
X111478867Y-77378231D01*
X111478867Y-77378229D01*
X111478868Y-77378229D01*
X111490499Y-77319752D01*
X111490500Y-77319750D01*
X111490500Y-77074500D01*
X111510185Y-77007461D01*
X111562989Y-76961706D01*
X111614500Y-76950500D01*
X118479308Y-76950500D01*
X118479309Y-76950500D01*
X118569673Y-76926286D01*
X118593887Y-76919799D01*
X118696614Y-76860489D01*
X119480285Y-76076819D01*
X119541608Y-76043334D01*
X119567966Y-76040500D01*
X120378543Y-76040500D01*
X120554229Y-76005553D01*
X120571835Y-76002051D01*
X120753914Y-75926632D01*
X120917782Y-75817139D01*
X121057139Y-75677782D01*
X121166632Y-75513914D01*
X121242051Y-75331835D01*
X121264712Y-75217913D01*
X121280500Y-75138543D01*
X121280500Y-74941456D01*
X121242052Y-74748170D01*
X121242051Y-74748169D01*
X121242051Y-74748165D01*
X121226036Y-74709500D01*
X121166635Y-74566092D01*
X121166628Y-74566079D01*
X121057139Y-74402218D01*
X121057136Y-74402214D01*
X120917785Y-74262863D01*
X120917781Y-74262860D01*
X120753920Y-74153371D01*
X120753907Y-74153364D01*
X120571839Y-74077950D01*
X120571829Y-74077947D01*
X120378543Y-74039500D01*
X120378541Y-74039500D01*
X119381459Y-74039500D01*
X119381457Y-74039500D01*
X119188170Y-74077947D01*
X119188160Y-74077950D01*
X119006092Y-74153364D01*
X119006079Y-74153371D01*
X118842218Y-74262860D01*
X118842214Y-74262863D01*
X118702863Y-74402214D01*
X118702860Y-74402218D01*
X118593371Y-74566079D01*
X118593364Y-74566092D01*
X118517950Y-74748160D01*
X118517947Y-74748170D01*
X118479500Y-74941456D01*
X118479500Y-74941459D01*
X118479500Y-75138541D01*
X118479500Y-75138543D01*
X118479499Y-75138543D01*
X118517947Y-75331829D01*
X118517950Y-75331839D01*
X118593366Y-75513912D01*
X118607173Y-75534576D01*
X118628049Y-75601254D01*
X118609563Y-75668633D01*
X118591750Y-75691145D01*
X118269714Y-76013182D01*
X118208393Y-76046666D01*
X118182035Y-76049500D01*
X111614500Y-76049500D01*
X111547461Y-76029815D01*
X111501706Y-75977011D01*
X111490500Y-75925500D01*
X111490500Y-75680249D01*
X111490499Y-75680247D01*
X111478868Y-75621770D01*
X111478867Y-75621769D01*
X111434552Y-75555447D01*
X111368230Y-75511132D01*
X111368229Y-75511131D01*
X111309752Y-75499500D01*
X111309748Y-75499500D01*
X111064500Y-75499500D01*
X110997461Y-75479815D01*
X110951706Y-75427011D01*
X110940500Y-75375500D01*
X110940500Y-73854693D01*
X110940500Y-73854691D01*
X110909799Y-73740114D01*
X110909799Y-73740113D01*
X110909799Y-73740112D01*
X110850492Y-73637389D01*
X110850488Y-73637384D01*
X108486819Y-71273715D01*
X108453334Y-71212392D01*
X108450500Y-71186034D01*
X108450500Y-67815854D01*
X108470185Y-67748815D01*
X108522989Y-67703060D01*
X108529692Y-67700233D01*
X108537401Y-67697247D01*
X108726562Y-67580124D01*
X108890981Y-67430236D01*
X109025058Y-67252689D01*
X109124229Y-67053528D01*
X109185115Y-66839536D01*
X109205643Y-66618000D01*
X109205642Y-66617994D01*
X113994859Y-66617994D01*
X113994859Y-66618005D01*
X114015385Y-66865729D01*
X114015387Y-66865738D01*
X114076412Y-67106717D01*
X114176267Y-67334367D01*
X114276562Y-67487881D01*
X115017037Y-66747408D01*
X115034075Y-66810993D01*
X115099901Y-66925007D01*
X115192993Y-67018099D01*
X115307007Y-67083925D01*
X115370591Y-67100962D01*
X114629943Y-67841609D01*
X114676768Y-67878055D01*
X114676771Y-67878057D01*
X114895385Y-67996364D01*
X114895396Y-67996369D01*
X115130506Y-68077083D01*
X115375707Y-68118000D01*
X115624293Y-68118000D01*
X115869493Y-68077083D01*
X116104603Y-67996369D01*
X116104614Y-67996364D01*
X116323230Y-67878056D01*
X116323236Y-67878051D01*
X116370055Y-67841610D01*
X116370056Y-67841609D01*
X115629408Y-67100962D01*
X115692993Y-67083925D01*
X115807007Y-67018099D01*
X115900099Y-66925007D01*
X115965925Y-66810993D01*
X115982962Y-66747408D01*
X116723435Y-67487882D01*
X116823733Y-67334364D01*
X116895829Y-67170000D01*
X118203391Y-67170000D01*
X119564314Y-67170000D01*
X119559920Y-67174394D01*
X119507259Y-67265606D01*
X119480000Y-67367339D01*
X119480000Y-67472661D01*
X119507259Y-67574394D01*
X119559920Y-67665606D01*
X119564314Y-67670000D01*
X118203391Y-67670000D01*
X118212009Y-67724413D01*
X118275244Y-67919029D01*
X118368140Y-68101349D01*
X118488417Y-68266894D01*
X118488417Y-68266895D01*
X118633104Y-68411582D01*
X118798650Y-68531859D01*
X118980968Y-68624755D01*
X119175582Y-68687990D01*
X119364268Y-68717875D01*
X119427403Y-68747804D01*
X119464334Y-68807116D01*
X119463336Y-68876978D01*
X119424726Y-68935211D01*
X119369062Y-68961965D01*
X119188170Y-68997947D01*
X119188160Y-68997950D01*
X119006092Y-69073364D01*
X119006079Y-69073371D01*
X118842218Y-69182860D01*
X118842214Y-69182863D01*
X118702863Y-69322214D01*
X118702860Y-69322218D01*
X118593371Y-69486079D01*
X118593364Y-69486092D01*
X118517950Y-69668160D01*
X118517947Y-69668170D01*
X118479500Y-69861456D01*
X118479500Y-69861459D01*
X118479500Y-70058541D01*
X118479500Y-70058543D01*
X118479499Y-70058543D01*
X118517947Y-70251829D01*
X118517950Y-70251839D01*
X118593364Y-70433907D01*
X118593371Y-70433920D01*
X118702860Y-70597781D01*
X118702863Y-70597785D01*
X118842214Y-70737136D01*
X118842218Y-70737139D01*
X119006079Y-70846628D01*
X119006092Y-70846635D01*
X119188160Y-70922049D01*
X119188165Y-70922051D01*
X119188169Y-70922051D01*
X119188170Y-70922052D01*
X119381456Y-70960500D01*
X119381459Y-70960500D01*
X119428500Y-70960500D01*
X119495539Y-70980185D01*
X119541294Y-71032989D01*
X119552500Y-71084500D01*
X119552500Y-71375500D01*
X119532815Y-71442539D01*
X119480011Y-71488294D01*
X119428500Y-71499500D01*
X119381457Y-71499500D01*
X119188170Y-71537947D01*
X119188160Y-71537950D01*
X119006092Y-71613364D01*
X119006079Y-71613371D01*
X118842218Y-71722860D01*
X118842214Y-71722863D01*
X118702863Y-71862214D01*
X118702860Y-71862218D01*
X118593371Y-72026079D01*
X118593364Y-72026092D01*
X118517950Y-72208160D01*
X118517947Y-72208170D01*
X118479500Y-72401456D01*
X118479500Y-72401459D01*
X118479500Y-72598541D01*
X118479500Y-72598543D01*
X118479499Y-72598543D01*
X118517947Y-72791829D01*
X118517950Y-72791839D01*
X118593364Y-72973907D01*
X118593371Y-72973920D01*
X118702860Y-73137781D01*
X118702863Y-73137785D01*
X118842214Y-73277136D01*
X118842218Y-73277139D01*
X119006079Y-73386628D01*
X119006092Y-73386635D01*
X119188160Y-73462049D01*
X119188165Y-73462051D01*
X119188169Y-73462051D01*
X119188170Y-73462052D01*
X119381456Y-73500500D01*
X119381459Y-73500500D01*
X120378543Y-73500500D01*
X120508582Y-73474632D01*
X120571835Y-73462051D01*
X120721109Y-73400220D01*
X120753907Y-73386635D01*
X120753907Y-73386634D01*
X120753914Y-73386632D01*
X120917782Y-73277139D01*
X121057139Y-73137782D01*
X121166632Y-72973914D01*
X121242051Y-72791835D01*
X121259229Y-72705476D01*
X121280500Y-72598543D01*
X121280500Y-72401456D01*
X121242052Y-72208170D01*
X121242051Y-72208169D01*
X121242051Y-72208165D01*
X121226104Y-72169666D01*
X121166635Y-72026092D01*
X121166628Y-72026079D01*
X121057139Y-71862218D01*
X121057136Y-71862214D01*
X120917785Y-71722863D01*
X120917781Y-71722860D01*
X120753920Y-71613371D01*
X120753907Y-71613364D01*
X120571839Y-71537950D01*
X120571829Y-71537947D01*
X120378543Y-71499500D01*
X120378541Y-71499500D01*
X120331500Y-71499500D01*
X120264461Y-71479815D01*
X120218706Y-71427011D01*
X120207500Y-71375500D01*
X120207500Y-71084500D01*
X120227185Y-71017461D01*
X120279989Y-70971706D01*
X120331500Y-70960500D01*
X120378543Y-70960500D01*
X120508582Y-70934632D01*
X120571835Y-70922051D01*
X120753914Y-70846632D01*
X120917782Y-70737139D01*
X121057139Y-70597782D01*
X121166632Y-70433914D01*
X121242051Y-70251835D01*
X121275297Y-70084699D01*
X121280500Y-70058543D01*
X121280500Y-69861456D01*
X121242052Y-69668170D01*
X121242051Y-69668169D01*
X121242051Y-69668165D01*
X121195273Y-69555232D01*
X121166635Y-69486092D01*
X121166628Y-69486079D01*
X121057139Y-69322218D01*
X121057136Y-69322214D01*
X120917785Y-69182863D01*
X120917781Y-69182860D01*
X120753920Y-69073371D01*
X120753907Y-69073364D01*
X120571839Y-68997950D01*
X120571829Y-68997947D01*
X120390937Y-68961965D01*
X120329026Y-68929580D01*
X120294452Y-68868864D01*
X120298192Y-68799095D01*
X120339059Y-68742423D01*
X120395731Y-68717875D01*
X120584417Y-68687990D01*
X120779031Y-68624755D01*
X120961349Y-68531859D01*
X121126894Y-68411582D01*
X121126895Y-68411582D01*
X121271582Y-68266895D01*
X121271582Y-68266894D01*
X121391859Y-68101349D01*
X121484755Y-67919029D01*
X121547990Y-67724413D01*
X121556609Y-67670000D01*
X120195686Y-67670000D01*
X120200080Y-67665606D01*
X120252741Y-67574394D01*
X120280000Y-67472661D01*
X120280000Y-67367339D01*
X120252741Y-67265606D01*
X120200080Y-67174394D01*
X120195686Y-67170000D01*
X121556609Y-67170000D01*
X121547990Y-67115586D01*
X121484755Y-66920970D01*
X121391859Y-66738650D01*
X121271582Y-66573105D01*
X121271582Y-66573104D01*
X121126895Y-66428417D01*
X120961349Y-66308140D01*
X120779031Y-66215244D01*
X120584417Y-66152009D01*
X120382317Y-66120000D01*
X120130000Y-66120000D01*
X120130000Y-67104314D01*
X120125606Y-67099920D01*
X120034394Y-67047259D01*
X119932661Y-67020000D01*
X119827339Y-67020000D01*
X119725606Y-67047259D01*
X119634394Y-67099920D01*
X119630000Y-67104314D01*
X119630000Y-66120000D01*
X119377683Y-66120000D01*
X119175582Y-66152009D01*
X118980968Y-66215244D01*
X118798650Y-66308140D01*
X118633105Y-66428417D01*
X118633104Y-66428417D01*
X118488417Y-66573104D01*
X118488417Y-66573105D01*
X118368140Y-66738650D01*
X118275244Y-66920970D01*
X118212009Y-67115586D01*
X118203391Y-67170000D01*
X116895829Y-67170000D01*
X116923587Y-67106717D01*
X116984612Y-66865738D01*
X116984614Y-66865729D01*
X117005141Y-66618005D01*
X117005141Y-66617994D01*
X116984614Y-66370270D01*
X116984612Y-66370261D01*
X116923587Y-66129282D01*
X116823732Y-65901632D01*
X116723435Y-65748116D01*
X115982962Y-66488590D01*
X115965925Y-66425007D01*
X115900099Y-66310993D01*
X115807007Y-66217901D01*
X115692993Y-66152075D01*
X115629409Y-66135037D01*
X116370055Y-65394389D01*
X116370055Y-65394388D01*
X116323236Y-65357947D01*
X116323231Y-65357944D01*
X116104614Y-65239635D01*
X116104603Y-65239630D01*
X115869493Y-65158916D01*
X115624293Y-65118000D01*
X115375707Y-65118000D01*
X115130506Y-65158916D01*
X114895396Y-65239630D01*
X114895385Y-65239635D01*
X114676770Y-65357943D01*
X114629943Y-65394389D01*
X115370591Y-66135037D01*
X115307007Y-66152075D01*
X115192993Y-66217901D01*
X115099901Y-66310993D01*
X115034075Y-66425007D01*
X115017037Y-66488591D01*
X114276563Y-65748117D01*
X114176267Y-65901633D01*
X114176265Y-65901637D01*
X114076412Y-66129282D01*
X114015387Y-66370261D01*
X114015385Y-66370270D01*
X113994859Y-66617994D01*
X109205642Y-66617994D01*
X109185115Y-66396464D01*
X109185114Y-66396462D01*
X109177659Y-66370261D01*
X109124229Y-66182472D01*
X109109093Y-66152075D01*
X109025061Y-65983316D01*
X109025056Y-65983308D01*
X108890979Y-65805761D01*
X108726562Y-65655876D01*
X108726560Y-65655874D01*
X108537404Y-65538755D01*
X108537401Y-65538753D01*
X108529699Y-65535769D01*
X108474300Y-65493193D01*
X108450714Y-65427425D01*
X108450500Y-65420145D01*
X108450500Y-64252693D01*
X108450500Y-64252691D01*
X108419799Y-64138114D01*
X108419799Y-64138113D01*
X108360489Y-64035386D01*
X104880819Y-60555716D01*
X104847334Y-60494393D01*
X104844500Y-60468035D01*
X104844500Y-57592155D01*
X106600000Y-57592155D01*
X106600000Y-58290000D01*
X107624722Y-58290000D01*
X107580667Y-58366306D01*
X107550000Y-58480756D01*
X107550000Y-58599244D01*
X107580667Y-58713694D01*
X107624722Y-58790000D01*
X106600000Y-58790000D01*
X106600000Y-59487844D01*
X106606401Y-59547372D01*
X106606403Y-59547379D01*
X106656645Y-59682086D01*
X106656649Y-59682093D01*
X106742809Y-59797187D01*
X106742812Y-59797190D01*
X106857906Y-59883350D01*
X106857913Y-59883354D01*
X106992620Y-59933596D01*
X106992627Y-59933598D01*
X107052155Y-59939999D01*
X107052172Y-59940000D01*
X107750000Y-59940000D01*
X107750000Y-58915277D01*
X107826306Y-58959333D01*
X107940756Y-58990000D01*
X108059244Y-58990000D01*
X108173694Y-58959333D01*
X108250000Y-58915277D01*
X108250000Y-59940000D01*
X108947828Y-59940000D01*
X108947844Y-59939999D01*
X109007372Y-59933598D01*
X109007379Y-59933596D01*
X109142086Y-59883354D01*
X109142093Y-59883350D01*
X109257187Y-59797190D01*
X109257190Y-59797187D01*
X109343350Y-59682093D01*
X109343354Y-59682086D01*
X109393596Y-59547379D01*
X109393598Y-59547372D01*
X109399999Y-59487844D01*
X109400000Y-59487827D01*
X109400000Y-58790000D01*
X108375278Y-58790000D01*
X108419333Y-58713694D01*
X108450000Y-58599244D01*
X108450000Y-58480756D01*
X108419333Y-58366306D01*
X108375278Y-58290000D01*
X109400000Y-58290000D01*
X109400000Y-57592172D01*
X109399999Y-57592155D01*
X109393598Y-57532627D01*
X109393596Y-57532620D01*
X109343354Y-57397913D01*
X109343350Y-57397906D01*
X109257190Y-57282812D01*
X109257187Y-57282809D01*
X109142093Y-57196649D01*
X109142086Y-57196645D01*
X109007379Y-57146403D01*
X109007372Y-57146401D01*
X108947844Y-57140000D01*
X108685141Y-57140000D01*
X108618102Y-57120315D01*
X108572347Y-57067511D01*
X108562403Y-56998353D01*
X108591428Y-56934797D01*
X108619864Y-56910573D01*
X108666039Y-56881982D01*
X108666038Y-56881982D01*
X108666041Y-56881981D01*
X108816764Y-56744579D01*
X108939673Y-56581821D01*
X108972495Y-56515906D01*
X109032087Y-56396229D01*
X109079590Y-56344991D01*
X109143087Y-56327500D01*
X109891114Y-56327500D01*
X109891116Y-56327500D01*
X109974410Y-56305181D01*
X110049090Y-56262065D01*
X110829336Y-55481819D01*
X110890659Y-55448334D01*
X110917017Y-55445500D01*
X113568007Y-55445500D01*
X113635046Y-55465185D01*
X113680801Y-55517989D01*
X113690745Y-55587147D01*
X113688212Y-55599941D01*
X113675865Y-55648692D01*
X113675865Y-55648695D01*
X113656700Y-55879993D01*
X113656700Y-55880006D01*
X113675864Y-56111297D01*
X113675866Y-56111308D01*
X113732842Y-56336300D01*
X113826075Y-56548848D01*
X113953016Y-56743147D01*
X113953019Y-56743151D01*
X113953021Y-56743153D01*
X114110216Y-56913913D01*
X114110219Y-56913915D01*
X114110222Y-56913918D01*
X114293365Y-57056464D01*
X114293371Y-57056468D01*
X114293374Y-57056470D01*
X114497497Y-57166936D01*
X114584048Y-57196649D01*
X114717015Y-57242297D01*
X114717017Y-57242297D01*
X114717019Y-57242298D01*
X114945951Y-57280500D01*
X114945952Y-57280500D01*
X115178048Y-57280500D01*
X115178049Y-57280500D01*
X115406981Y-57242298D01*
X115626503Y-57166936D01*
X115830626Y-57056470D01*
X116013784Y-56913913D01*
X116170979Y-56743153D01*
X116297924Y-56548849D01*
X116391157Y-56336300D01*
X116448134Y-56111305D01*
X116467300Y-55880000D01*
X116467300Y-55879993D01*
X116448135Y-55648702D01*
X116448133Y-55648691D01*
X116391157Y-55423699D01*
X116297924Y-55211151D01*
X116170983Y-55016852D01*
X116170980Y-55016849D01*
X116170979Y-55016847D01*
X116013784Y-54846087D01*
X116013779Y-54846083D01*
X116013777Y-54846081D01*
X115830634Y-54703535D01*
X115830628Y-54703531D01*
X115626504Y-54593064D01*
X115626495Y-54593061D01*
X115406984Y-54517702D01*
X115235282Y-54489050D01*
X115178049Y-54479500D01*
X114945951Y-54479500D01*
X114900164Y-54487140D01*
X114717015Y-54517702D01*
X114497504Y-54593061D01*
X114497495Y-54593064D01*
X114293372Y-54703531D01*
X114215227Y-54764354D01*
X114150233Y-54789996D01*
X114139065Y-54790500D01*
X110773116Y-54790500D01*
X110686884Y-54790500D01*
X110631354Y-54805379D01*
X110603589Y-54812819D01*
X110528911Y-54855934D01*
X110528908Y-54855936D01*
X109748664Y-55636181D01*
X109687341Y-55669666D01*
X109660983Y-55672500D01*
X109143087Y-55672500D01*
X109076048Y-55652815D01*
X109032087Y-55603771D01*
X108939674Y-55418180D01*
X108816762Y-55255418D01*
X108666041Y-55118019D01*
X108666039Y-55118017D01*
X108492642Y-55010655D01*
X108492635Y-55010651D01*
X108397546Y-54973814D01*
X108302456Y-54936976D01*
X108101976Y-54899500D01*
X107898024Y-54899500D01*
X107697544Y-54936976D01*
X107697541Y-54936976D01*
X107697541Y-54936977D01*
X107507364Y-55010651D01*
X107507357Y-55010655D01*
X107333960Y-55118017D01*
X107333958Y-55118019D01*
X107183237Y-55255418D01*
X107060327Y-55418178D01*
X106969422Y-55600739D01*
X106969417Y-55600752D01*
X106913602Y-55796917D01*
X106894785Y-55999999D01*
X106894785Y-56000000D01*
X106913602Y-56203082D01*
X106969417Y-56399247D01*
X106969422Y-56399260D01*
X107060327Y-56581821D01*
X107183237Y-56744581D01*
X107333958Y-56881980D01*
X107333960Y-56881982D01*
X107380136Y-56910573D01*
X107426772Y-56962601D01*
X107437876Y-57031583D01*
X107409923Y-57095617D01*
X107351788Y-57134373D01*
X107314859Y-57140000D01*
X107052155Y-57140000D01*
X106992627Y-57146401D01*
X106992620Y-57146403D01*
X106857913Y-57196645D01*
X106857906Y-57196649D01*
X106742812Y-57282809D01*
X106742809Y-57282812D01*
X106656649Y-57397906D01*
X106656645Y-57397913D01*
X106606403Y-57532620D01*
X106606401Y-57532627D01*
X106600000Y-57592155D01*
X104844500Y-57592155D01*
X104844500Y-54339965D01*
X104864185Y-54272926D01*
X104880819Y-54252284D01*
X106685603Y-52447500D01*
X108730489Y-50402614D01*
X108789799Y-50299887D01*
X108802435Y-50252727D01*
X108820500Y-50185309D01*
X108820500Y-49944500D01*
X108840185Y-49877461D01*
X108892989Y-49831706D01*
X108944500Y-49820500D01*
X109239750Y-49820500D01*
X109239751Y-49820499D01*
X109254568Y-49817552D01*
X109298229Y-49808868D01*
X109298229Y-49808867D01*
X109298231Y-49808867D01*
X109364552Y-49764552D01*
X109408867Y-49698231D01*
X109408867Y-49698229D01*
X109408868Y-49698229D01*
X109418922Y-49647682D01*
X109420500Y-49639748D01*
X109420500Y-48770000D01*
X109854417Y-48770000D01*
X109874699Y-48975932D01*
X109874700Y-48975934D01*
X109934768Y-49173954D01*
X110032315Y-49356450D01*
X110042037Y-49368296D01*
X110163589Y-49516410D01*
X110230826Y-49571589D01*
X110323550Y-49647685D01*
X110506046Y-49745232D01*
X110704066Y-49805300D01*
X110704065Y-49805300D01*
X110722529Y-49807118D01*
X110910000Y-49825583D01*
X111115934Y-49805300D01*
X111313954Y-49745232D01*
X111496450Y-49647685D01*
X111656410Y-49516410D01*
X111787685Y-49356450D01*
X111885232Y-49173954D01*
X111945300Y-48975934D01*
X111965583Y-48770000D01*
X112394417Y-48770000D01*
X112414699Y-48975932D01*
X112414700Y-48975934D01*
X112474768Y-49173954D01*
X112572315Y-49356450D01*
X112582037Y-49368296D01*
X112703589Y-49516410D01*
X112770826Y-49571589D01*
X112863550Y-49647685D01*
X113046046Y-49745232D01*
X113244066Y-49805300D01*
X113244065Y-49805300D01*
X113262529Y-49807118D01*
X113450000Y-49825583D01*
X113655934Y-49805300D01*
X113853954Y-49745232D01*
X114036450Y-49647685D01*
X114196410Y-49516410D01*
X114327685Y-49356450D01*
X114425232Y-49173954D01*
X114485300Y-48975934D01*
X114505583Y-48770000D01*
X114934417Y-48770000D01*
X114954699Y-48975932D01*
X114954700Y-48975934D01*
X115014768Y-49173954D01*
X115112315Y-49356450D01*
X115122037Y-49368296D01*
X115243589Y-49516410D01*
X115310826Y-49571589D01*
X115403550Y-49647685D01*
X115586046Y-49745232D01*
X115784066Y-49805300D01*
X115784065Y-49805300D01*
X115802529Y-49807118D01*
X115990000Y-49825583D01*
X116195934Y-49805300D01*
X116393954Y-49745232D01*
X116576450Y-49647685D01*
X116736410Y-49516410D01*
X116867685Y-49356450D01*
X116965232Y-49173954D01*
X117025300Y-48975934D01*
X117045583Y-48770000D01*
X117474417Y-48770000D01*
X117494699Y-48975932D01*
X117494700Y-48975934D01*
X117554768Y-49173954D01*
X117652315Y-49356450D01*
X117662037Y-49368296D01*
X117783589Y-49516410D01*
X117850826Y-49571589D01*
X117943550Y-49647685D01*
X118126046Y-49745232D01*
X118324066Y-49805300D01*
X118324065Y-49805300D01*
X118342529Y-49807118D01*
X118530000Y-49825583D01*
X118735934Y-49805300D01*
X118933954Y-49745232D01*
X119116450Y-49647685D01*
X119276410Y-49516410D01*
X119407685Y-49356450D01*
X119505232Y-49173954D01*
X119565300Y-48975934D01*
X119585583Y-48770000D01*
X119565300Y-48564066D01*
X119505232Y-48366046D01*
X119407685Y-48183550D01*
X119332897Y-48092420D01*
X119276410Y-48023589D01*
X119130536Y-47903875D01*
X119116450Y-47892315D01*
X118933954Y-47794768D01*
X118735934Y-47734700D01*
X118735932Y-47734699D01*
X118735934Y-47734699D01*
X118530000Y-47714417D01*
X118324067Y-47734699D01*
X118189736Y-47775448D01*
X118126050Y-47794767D01*
X118126043Y-47794769D01*
X118038114Y-47841769D01*
X117943550Y-47892315D01*
X117943548Y-47892316D01*
X117943547Y-47892317D01*
X117783589Y-48023589D01*
X117652317Y-48183547D01*
X117554769Y-48366043D01*
X117494699Y-48564067D01*
X117474417Y-48770000D01*
X117045583Y-48770000D01*
X117025300Y-48564066D01*
X116965232Y-48366046D01*
X116867685Y-48183550D01*
X116792897Y-48092420D01*
X116736410Y-48023589D01*
X116590536Y-47903875D01*
X116576450Y-47892315D01*
X116393954Y-47794768D01*
X116195934Y-47734700D01*
X116195932Y-47734699D01*
X116195934Y-47734699D01*
X115990000Y-47714417D01*
X115784067Y-47734699D01*
X115649736Y-47775448D01*
X115586050Y-47794767D01*
X115586043Y-47794769D01*
X115498114Y-47841769D01*
X115403550Y-47892315D01*
X115403548Y-47892316D01*
X115403547Y-47892317D01*
X115243589Y-48023589D01*
X115112317Y-48183547D01*
X115014769Y-48366043D01*
X114954699Y-48564067D01*
X114934417Y-48770000D01*
X114505583Y-48770000D01*
X114485300Y-48564066D01*
X114425232Y-48366046D01*
X114327685Y-48183550D01*
X114252897Y-48092420D01*
X114196410Y-48023589D01*
X114050536Y-47903875D01*
X114036450Y-47892315D01*
X113853954Y-47794768D01*
X113655934Y-47734700D01*
X113655932Y-47734699D01*
X113655934Y-47734699D01*
X113450000Y-47714417D01*
X113244067Y-47734699D01*
X113109736Y-47775448D01*
X113046050Y-47794767D01*
X113046043Y-47794769D01*
X112958114Y-47841769D01*
X112863550Y-47892315D01*
X112863548Y-47892316D01*
X112863547Y-47892317D01*
X112703589Y-48023589D01*
X112572317Y-48183547D01*
X112474769Y-48366043D01*
X112414699Y-48564067D01*
X112394417Y-48770000D01*
X111965583Y-48770000D01*
X111945300Y-48564066D01*
X111885232Y-48366046D01*
X111787685Y-48183550D01*
X111712897Y-48092420D01*
X111656410Y-48023589D01*
X111510536Y-47903875D01*
X111496450Y-47892315D01*
X111313954Y-47794768D01*
X111115934Y-47734700D01*
X111115932Y-47734699D01*
X111115934Y-47734699D01*
X110910000Y-47714417D01*
X110704067Y-47734699D01*
X110569736Y-47775448D01*
X110506050Y-47794767D01*
X110506043Y-47794769D01*
X110418114Y-47841769D01*
X110323550Y-47892315D01*
X110323548Y-47892316D01*
X110323547Y-47892317D01*
X110163589Y-48023589D01*
X110032317Y-48183547D01*
X109934769Y-48366043D01*
X109874699Y-48564067D01*
X109854417Y-48770000D01*
X109420500Y-48770000D01*
X109420500Y-47900252D01*
X109420500Y-47900249D01*
X109420499Y-47900247D01*
X109408868Y-47841770D01*
X109408867Y-47841769D01*
X109364552Y-47775447D01*
X109298230Y-47731132D01*
X109298229Y-47731131D01*
X109239752Y-47719500D01*
X109239748Y-47719500D01*
X107500252Y-47719500D01*
X107500247Y-47719500D01*
X107441770Y-47731131D01*
X107441769Y-47731132D01*
X107375447Y-47775447D01*
X107331132Y-47841769D01*
X107331131Y-47841770D01*
X107319500Y-47900247D01*
X107319500Y-49639752D01*
X107331131Y-49698229D01*
X107331132Y-49698230D01*
X107375447Y-49764552D01*
X107441769Y-49808867D01*
X107441770Y-49808868D01*
X107500247Y-49820499D01*
X107500250Y-49820500D01*
X107500252Y-49820500D01*
X107739035Y-49820500D01*
X107806074Y-49840185D01*
X107851829Y-49892989D01*
X107861773Y-49962147D01*
X107832748Y-50025703D01*
X107826716Y-50032181D01*
X107145681Y-50713216D01*
X107084358Y-50746701D01*
X107014666Y-50741717D01*
X106958733Y-50699845D01*
X106934316Y-50634381D01*
X106934000Y-50625535D01*
X106934000Y-46230000D01*
X107314417Y-46230000D01*
X107334699Y-46435932D01*
X107334700Y-46435934D01*
X107394768Y-46633954D01*
X107492315Y-46816450D01*
X107492317Y-46816452D01*
X107623589Y-46976410D01*
X107687492Y-47028853D01*
X107783550Y-47107685D01*
X107966046Y-47205232D01*
X108164066Y-47265300D01*
X108164065Y-47265300D01*
X108182529Y-47267118D01*
X108370000Y-47285583D01*
X108575934Y-47265300D01*
X108773954Y-47205232D01*
X108956450Y-47107685D01*
X109116410Y-46976410D01*
X109247685Y-46816450D01*
X109345232Y-46633954D01*
X109405300Y-46435934D01*
X109425583Y-46230000D01*
X109854417Y-46230000D01*
X109874699Y-46435932D01*
X109874700Y-46435934D01*
X109934768Y-46633954D01*
X110032315Y-46816450D01*
X110032317Y-46816452D01*
X110163589Y-46976410D01*
X110227492Y-47028853D01*
X110323550Y-47107685D01*
X110506046Y-47205232D01*
X110704066Y-47265300D01*
X110704065Y-47265300D01*
X110722529Y-47267118D01*
X110910000Y-47285583D01*
X111115934Y-47265300D01*
X111313954Y-47205232D01*
X111496450Y-47107685D01*
X111656410Y-46976410D01*
X111787685Y-46816450D01*
X111885232Y-46633954D01*
X111945300Y-46435934D01*
X111965583Y-46230000D01*
X112394417Y-46230000D01*
X112414699Y-46435932D01*
X112414700Y-46435934D01*
X112474768Y-46633954D01*
X112572315Y-46816450D01*
X112572317Y-46816452D01*
X112703589Y-46976410D01*
X112767492Y-47028853D01*
X112863550Y-47107685D01*
X113046046Y-47205232D01*
X113244066Y-47265300D01*
X113244065Y-47265300D01*
X113262529Y-47267118D01*
X113450000Y-47285583D01*
X113655934Y-47265300D01*
X113853954Y-47205232D01*
X114036450Y-47107685D01*
X114196410Y-46976410D01*
X114327685Y-46816450D01*
X114425232Y-46633954D01*
X114485300Y-46435934D01*
X114505583Y-46230000D01*
X114934417Y-46230000D01*
X114954699Y-46435932D01*
X114954700Y-46435934D01*
X115014768Y-46633954D01*
X115112315Y-46816450D01*
X115112317Y-46816452D01*
X115243589Y-46976410D01*
X115307492Y-47028853D01*
X115403550Y-47107685D01*
X115586046Y-47205232D01*
X115784066Y-47265300D01*
X115784065Y-47265300D01*
X115802529Y-47267118D01*
X115990000Y-47285583D01*
X116195934Y-47265300D01*
X116393954Y-47205232D01*
X116576450Y-47107685D01*
X116736410Y-46976410D01*
X116867685Y-46816450D01*
X116965232Y-46633954D01*
X117025300Y-46435934D01*
X117045583Y-46230000D01*
X117474417Y-46230000D01*
X117494699Y-46435932D01*
X117494700Y-46435934D01*
X117554768Y-46633954D01*
X117652315Y-46816450D01*
X117652317Y-46816452D01*
X117783589Y-46976410D01*
X117847492Y-47028853D01*
X117943550Y-47107685D01*
X118126046Y-47205232D01*
X118324066Y-47265300D01*
X118324065Y-47265300D01*
X118342529Y-47267118D01*
X118530000Y-47285583D01*
X118735934Y-47265300D01*
X118933954Y-47205232D01*
X119116450Y-47107685D01*
X119276410Y-46976410D01*
X119407685Y-46816450D01*
X119505232Y-46633954D01*
X119565300Y-46435934D01*
X119585583Y-46230000D01*
X120014417Y-46230000D01*
X120034699Y-46435932D01*
X120034700Y-46435934D01*
X120094768Y-46633954D01*
X120192315Y-46816450D01*
X120192317Y-46816452D01*
X120323589Y-46976410D01*
X120387492Y-47028853D01*
X120483550Y-47107685D01*
X120666046Y-47205232D01*
X120864066Y-47265300D01*
X120864065Y-47265300D01*
X120882529Y-47267118D01*
X121070000Y-47285583D01*
X121275934Y-47265300D01*
X121473954Y-47205232D01*
X121656450Y-47107685D01*
X121816410Y-46976410D01*
X121947685Y-46816450D01*
X122045232Y-46633954D01*
X122105300Y-46435934D01*
X122125583Y-46230000D01*
X122105300Y-46024066D01*
X122045232Y-45826046D01*
X121947685Y-45643550D01*
X121872897Y-45552420D01*
X121816410Y-45483589D01*
X121698677Y-45386969D01*
X121656450Y-45352315D01*
X121473954Y-45254768D01*
X121275934Y-45194700D01*
X121275932Y-45194699D01*
X121275934Y-45194699D01*
X121070000Y-45174417D01*
X120864067Y-45194699D01*
X120666043Y-45254769D01*
X120595586Y-45292430D01*
X120483550Y-45352315D01*
X120483548Y-45352316D01*
X120483547Y-45352317D01*
X120323589Y-45483589D01*
X120192317Y-45643547D01*
X120094769Y-45826043D01*
X120034699Y-46024067D01*
X120014417Y-46230000D01*
X119585583Y-46230000D01*
X119565300Y-46024066D01*
X119505232Y-45826046D01*
X119407685Y-45643550D01*
X119332897Y-45552420D01*
X119276410Y-45483589D01*
X119158677Y-45386969D01*
X119116450Y-45352315D01*
X118933954Y-45254768D01*
X118735934Y-45194700D01*
X118735932Y-45194699D01*
X118735934Y-45194699D01*
X118530000Y-45174417D01*
X118324067Y-45194699D01*
X118126043Y-45254769D01*
X118055586Y-45292430D01*
X117943550Y-45352315D01*
X117943548Y-45352316D01*
X117943547Y-45352317D01*
X117783589Y-45483589D01*
X117652317Y-45643547D01*
X117554769Y-45826043D01*
X117494699Y-46024067D01*
X117474417Y-46230000D01*
X117045583Y-46230000D01*
X117025300Y-46024066D01*
X116965232Y-45826046D01*
X116867685Y-45643550D01*
X116792897Y-45552420D01*
X116736410Y-45483589D01*
X116618677Y-45386969D01*
X116576450Y-45352315D01*
X116393954Y-45254768D01*
X116195934Y-45194700D01*
X116195932Y-45194699D01*
X116195934Y-45194699D01*
X115990000Y-45174417D01*
X115784067Y-45194699D01*
X115586043Y-45254769D01*
X115515586Y-45292430D01*
X115403550Y-45352315D01*
X115403548Y-45352316D01*
X115403547Y-45352317D01*
X115243589Y-45483589D01*
X115112317Y-45643547D01*
X115014769Y-45826043D01*
X114954699Y-46024067D01*
X114934417Y-46230000D01*
X114505583Y-46230000D01*
X114485300Y-46024066D01*
X114425232Y-45826046D01*
X114327685Y-45643550D01*
X114252897Y-45552420D01*
X114196410Y-45483589D01*
X114078677Y-45386969D01*
X114036450Y-45352315D01*
X113853954Y-45254768D01*
X113655934Y-45194700D01*
X113655932Y-45194699D01*
X113655934Y-45194699D01*
X113450000Y-45174417D01*
X113244067Y-45194699D01*
X113046043Y-45254769D01*
X112975586Y-45292430D01*
X112863550Y-45352315D01*
X112863548Y-45352316D01*
X112863547Y-45352317D01*
X112703589Y-45483589D01*
X112572317Y-45643547D01*
X112474769Y-45826043D01*
X112414699Y-46024067D01*
X112394417Y-46230000D01*
X111965583Y-46230000D01*
X111945300Y-46024066D01*
X111885232Y-45826046D01*
X111787685Y-45643550D01*
X111712897Y-45552420D01*
X111656410Y-45483589D01*
X111538677Y-45386969D01*
X111496450Y-45352315D01*
X111313954Y-45254768D01*
X111115934Y-45194700D01*
X111115932Y-45194699D01*
X111115934Y-45194699D01*
X110910000Y-45174417D01*
X110704067Y-45194699D01*
X110506043Y-45254769D01*
X110435586Y-45292430D01*
X110323550Y-45352315D01*
X110323548Y-45352316D01*
X110323547Y-45352317D01*
X110163589Y-45483589D01*
X110032317Y-45643547D01*
X109934769Y-45826043D01*
X109874699Y-46024067D01*
X109854417Y-46230000D01*
X109425583Y-46230000D01*
X109405300Y-46024066D01*
X109345232Y-45826046D01*
X109247685Y-45643550D01*
X109172897Y-45552420D01*
X109116410Y-45483589D01*
X108998677Y-45386969D01*
X108956450Y-45352315D01*
X108773954Y-45254768D01*
X108575934Y-45194700D01*
X108575932Y-45194699D01*
X108575934Y-45194699D01*
X108370000Y-45174417D01*
X108164067Y-45194699D01*
X107966043Y-45254769D01*
X107895586Y-45292430D01*
X107783550Y-45352315D01*
X107783548Y-45352316D01*
X107783547Y-45352317D01*
X107623589Y-45483589D01*
X107492317Y-45643547D01*
X107394769Y-45826043D01*
X107334699Y-46024067D01*
X107314417Y-46230000D01*
X106934000Y-46230000D01*
X106934000Y-44828614D01*
X106953685Y-44761575D01*
X107006489Y-44715820D01*
X107058609Y-44704616D01*
X126815677Y-44802424D01*
G37*
%TD.AperFunction*%
M02*
