M48
; DRILL file {KiCad 8.0.8} date 2025-05-07T16:47:28+0300
; FORMAT={-:-/ absolute / metric / decimal}
; #@! TF.CreationDate,2025-05-07T16:47:28+03:00
; #@! TF.GenerationSoftware,Kicad,Pcbnew,8.0.8
; #@! TF.FileFunction,Plated,1,2,PTH
FMAT,2
METRIC
; #@! TA.AperFunction,Plated,PTH,ComponentDrill
T1C0.800
; #@! TA.AperFunction,Plated,PTH,ComponentDrill
T2C0.900
; #@! TA.AperFunction,Plated,PTH,ComponentDrill
T3C1.000
; #@! TA.AperFunction,Plated,PTH,ComponentDrill
T4C1.100
; #@! TA.AperFunction,Plated,PTH,ComponentDrill
T5C1.300
%
G90
G05
T1
X107.99Y-76.5
X110.49Y-76.5
X113.538Y-55.88
X118.618Y-67.42
X118.618Y-69.96
X118.618Y-72.5
X118.618Y-75.04
X121.158Y-55.88
X126.238Y-67.42
X126.238Y-69.96
X126.238Y-72.5
X126.238Y-75.04
X130.302Y-66.802
X130.302Y-74.422
X144.526Y-93.98
X146.558Y-53.34
X146.939Y-72.644
X146.939Y-75.144
X147.066Y-93.98
X149.606Y-93.98
X154.178Y-53.34
T2
X108.0Y-56.0
X108.0Y-58.54
X108.966Y-84.074
X108.966Y-86.614
X158.755Y-55.372
X161.295Y-55.372
T3
X107.308Y-67.056
X108.37Y-46.23
X108.37Y-48.77
X110.91Y-46.23
X110.91Y-48.77
X113.45Y-46.23
X113.45Y-48.77
X114.808Y-67.056
X115.99Y-46.23
X115.99Y-48.77
X118.53Y-46.23
X118.53Y-48.77
X121.07Y-46.23
X121.07Y-48.77
X123.61Y-46.23
X123.61Y-48.77
X126.15Y-46.23
X126.15Y-48.77
X128.69Y-46.23
X128.69Y-48.77
X131.23Y-46.23
X131.23Y-48.77
X133.77Y-46.23
X133.77Y-48.77
X136.31Y-46.23
X136.31Y-48.77
X138.85Y-46.23
X138.85Y-48.77
X141.39Y-46.23
X141.39Y-48.77
X143.93Y-46.23
X143.93Y-48.77
X146.47Y-46.23
X146.47Y-48.77
X149.01Y-46.23
X149.01Y-48.77
X151.55Y-46.23
X151.55Y-48.77
X154.09Y-46.23
X154.09Y-48.77
X156.63Y-46.23
X156.63Y-48.77
X160.782Y-66.04
X160.782Y-68.58
X160.782Y-71.12
X160.782Y-73.66
T4
X148.948Y-82.804
X148.948Y-87.304
X155.448Y-82.804
X155.448Y-87.304
T5
X135.462Y-70.525
X135.462Y-75.525
X140.462Y-73.025
M30
