%TF.GenerationSoftware,KiCad,Pcbnew,8.0.8*%
%TF.CreationDate,2025-05-07T16:47:24+03:00*%
%TF.ProjectId,Adacel,41646163-656c-42e6-9b69-6361645f7063,rev?*%
%TF.SameCoordinates,Original*%
%TF.FileFunction,Soldermask,Top*%
%TF.FilePolarity,Negative*%
%FSLAX46Y46*%
G04 Gerber Fmt 4.6, Leading zero omitted, Abs format (unit mm)*
G04 Created by KiCad (PCBNEW 8.0.8) date 2025-05-07 16:47:24*
%MOMM*%
%LPD*%
G01*
G04 APERTURE LIST*
%ADD10C,2.700000*%
%ADD11R,1.800000X1.800000*%
%ADD12C,1.800000*%
%ADD13C,1.600000*%
%ADD14O,1.600000X1.600000*%
%ADD15C,2.000000*%
%ADD16R,1.600000X1.600000*%
%ADD17R,2.400000X1.600000*%
%ADD18O,2.400000X1.600000*%
%ADD19C,2.340000*%
%ADD20R,1.500000X1.500000*%
%ADD21R,1.700000X1.700000*%
%ADD22O,1.700000X1.700000*%
G04 APERTURE END LIST*
D10*
X161500000Y-47500000D03*
D11*
X108966000Y-84074000D03*
D12*
X108966000Y-86614000D03*
D13*
X113538000Y-55880000D03*
D14*
X121158000Y-55880000D03*
D11*
X161295000Y-55372000D03*
D12*
X158755000Y-55372000D03*
D13*
X146939000Y-72644000D03*
X146939000Y-75144000D03*
D10*
X103500000Y-96500000D03*
D11*
X108000000Y-58540000D03*
D12*
X108000000Y-56000000D03*
D10*
X103500000Y-47500000D03*
D15*
X107308000Y-67056000D03*
X114808000Y-67056000D03*
D16*
X110490000Y-76500000D03*
D13*
X107990000Y-76500000D03*
D17*
X126238000Y-75040000D03*
D18*
X126238000Y-72500000D03*
X126238000Y-69960000D03*
X126238000Y-67420000D03*
X118618000Y-67420000D03*
X118618000Y-69960000D03*
X118618000Y-72500000D03*
X118618000Y-75040000D03*
D10*
X161500000Y-96500000D03*
D13*
X130302000Y-66802000D03*
D14*
X130302000Y-74422000D03*
D19*
X135462000Y-75525000D03*
X140462000Y-73025000D03*
X135462000Y-70525000D03*
D13*
X144526000Y-93980000D03*
D20*
X147066000Y-93980000D03*
D13*
X149606000Y-93980000D03*
D15*
X155448000Y-87304000D03*
X148948000Y-87304000D03*
X155448000Y-82804000D03*
X148948000Y-82804000D03*
D21*
X160782000Y-73660000D03*
D22*
X160782000Y-71120000D03*
X160782000Y-68580000D03*
X160782000Y-66040000D03*
D13*
X146558000Y-53340000D03*
D14*
X154178000Y-53340000D03*
D21*
X108370000Y-48770000D03*
D22*
X108370000Y-46230000D03*
X110910000Y-48770000D03*
X110910000Y-46230000D03*
X113450000Y-48770000D03*
X113450000Y-46230000D03*
X115990000Y-48770000D03*
X115990000Y-46230000D03*
X118530000Y-48770000D03*
X118530000Y-46230000D03*
X121070000Y-48770000D03*
X121070000Y-46230000D03*
X123610000Y-48770000D03*
X123610000Y-46230000D03*
X126150000Y-48770000D03*
X126150000Y-46230000D03*
X128690000Y-48770000D03*
X128690000Y-46230000D03*
X131230000Y-48770000D03*
X131230000Y-46230000D03*
X133770000Y-48770000D03*
X133770000Y-46230000D03*
X136310000Y-48770000D03*
X136310000Y-46230000D03*
X138850000Y-48770000D03*
X138850000Y-46230000D03*
X141390000Y-48770000D03*
X141390000Y-46230000D03*
X143930000Y-48770000D03*
X143930000Y-46230000D03*
X146470000Y-48770000D03*
X146470000Y-46230000D03*
X149010000Y-48770000D03*
X149010000Y-46230000D03*
X151550000Y-48770000D03*
X151550000Y-46230000D03*
X154090000Y-48770000D03*
X154090000Y-46230000D03*
X156630000Y-48770000D03*
X156630000Y-46230000D03*
M02*
