%TF.GenerationSoftware,KiCad,Pcbnew,8.0.8*%
%TF.CreationDate,2025-03-21T11:13:22+02:00*%
%TF.ProjectId,Adacel,41646163-656c-42e6-9b69-6361645f7063,rev?*%
%TF.SameCoordinates,Original*%
%TF.FileFunction,Legend,Top*%
%TF.FilePolarity,Positive*%
%FSLAX46Y46*%
G04 Gerber Fmt 4.6, Leading zero omitted, Abs format (unit mm)*
G04 Created by KiCad (PCBNEW 8.0.8) date 2025-03-21 11:13:22*
%MOMM*%
%LPD*%
G01*
G04 APERTURE LIST*
%ADD10C,0.150000*%
%ADD11C,0.120000*%
%ADD12C,2.000000*%
%ADD13R,1.700000X1.700000*%
%ADD14O,1.700000X1.700000*%
%ADD15C,2.700000*%
%ADD16R,1.800000X1.800000*%
%ADD17C,1.800000*%
%ADD18C,2.400000*%
%ADD19O,2.400000X2.400000*%
%ADD20C,1.600000*%
%ADD21R,1.600000X1.600000*%
%ADD22R,2.400000X1.600000*%
%ADD23O,2.400000X1.600000*%
%ADD24C,2.340000*%
%ADD25R,1.500000X1.500000*%
G04 APERTURE END LIST*
D10*
X111583333Y-63477580D02*
X111535714Y-63525200D01*
X111535714Y-63525200D02*
X111392857Y-63572819D01*
X111392857Y-63572819D02*
X111297619Y-63572819D01*
X111297619Y-63572819D02*
X111154762Y-63525200D01*
X111154762Y-63525200D02*
X111059524Y-63429961D01*
X111059524Y-63429961D02*
X111011905Y-63334723D01*
X111011905Y-63334723D02*
X110964286Y-63144247D01*
X110964286Y-63144247D02*
X110964286Y-63001390D01*
X110964286Y-63001390D02*
X111011905Y-62810914D01*
X111011905Y-62810914D02*
X111059524Y-62715676D01*
X111059524Y-62715676D02*
X111154762Y-62620438D01*
X111154762Y-62620438D02*
X111297619Y-62572819D01*
X111297619Y-62572819D02*
X111392857Y-62572819D01*
X111392857Y-62572819D02*
X111535714Y-62620438D01*
X111535714Y-62620438D02*
X111583333Y-62668057D01*
X111964286Y-62668057D02*
X112011905Y-62620438D01*
X112011905Y-62620438D02*
X112107143Y-62572819D01*
X112107143Y-62572819D02*
X112345238Y-62572819D01*
X112345238Y-62572819D02*
X112440476Y-62620438D01*
X112440476Y-62620438D02*
X112488095Y-62668057D01*
X112488095Y-62668057D02*
X112535714Y-62763295D01*
X112535714Y-62763295D02*
X112535714Y-62858533D01*
X112535714Y-62858533D02*
X112488095Y-63001390D01*
X112488095Y-63001390D02*
X111916667Y-63572819D01*
X111916667Y-63572819D02*
X112535714Y-63572819D01*
X159615333Y-76361009D02*
X159758190Y-76408628D01*
X159758190Y-76408628D02*
X159805809Y-76456247D01*
X159805809Y-76456247D02*
X159853428Y-76551485D01*
X159853428Y-76551485D02*
X159853428Y-76694342D01*
X159853428Y-76694342D02*
X159805809Y-76789580D01*
X159805809Y-76789580D02*
X159758190Y-76837200D01*
X159758190Y-76837200D02*
X159662952Y-76884819D01*
X159662952Y-76884819D02*
X159282000Y-76884819D01*
X159282000Y-76884819D02*
X159282000Y-75884819D01*
X159282000Y-75884819D02*
X159615333Y-75884819D01*
X159615333Y-75884819D02*
X159710571Y-75932438D01*
X159710571Y-75932438D02*
X159758190Y-75980057D01*
X159758190Y-75980057D02*
X159805809Y-76075295D01*
X159805809Y-76075295D02*
X159805809Y-76170533D01*
X159805809Y-76170533D02*
X159758190Y-76265771D01*
X159758190Y-76265771D02*
X159710571Y-76313390D01*
X159710571Y-76313390D02*
X159615333Y-76361009D01*
X159615333Y-76361009D02*
X159282000Y-76361009D01*
X160282000Y-76884819D02*
X160282000Y-76218152D01*
X160282000Y-76408628D02*
X160329619Y-76313390D01*
X160329619Y-76313390D02*
X160377238Y-76265771D01*
X160377238Y-76265771D02*
X160472476Y-76218152D01*
X160472476Y-76218152D02*
X160567714Y-76218152D01*
X161329619Y-76884819D02*
X161329619Y-75884819D01*
X161329619Y-76837200D02*
X161234381Y-76884819D01*
X161234381Y-76884819D02*
X161043905Y-76884819D01*
X161043905Y-76884819D02*
X160948667Y-76837200D01*
X160948667Y-76837200D02*
X160901048Y-76789580D01*
X160901048Y-76789580D02*
X160853429Y-76694342D01*
X160853429Y-76694342D02*
X160853429Y-76408628D01*
X160853429Y-76408628D02*
X160901048Y-76313390D01*
X160901048Y-76313390D02*
X160948667Y-76265771D01*
X160948667Y-76265771D02*
X161043905Y-76218152D01*
X161043905Y-76218152D02*
X161234381Y-76218152D01*
X161234381Y-76218152D02*
X161329619Y-76265771D01*
X162329619Y-76884819D02*
X161758191Y-76884819D01*
X162043905Y-76884819D02*
X162043905Y-75884819D01*
X162043905Y-75884819D02*
X161948667Y-76027676D01*
X161948667Y-76027676D02*
X161853429Y-76122914D01*
X161853429Y-76122914D02*
X161758191Y-76170533D01*
X113380819Y-86082094D02*
X112380819Y-86082094D01*
X112380819Y-86082094D02*
X112380819Y-85843999D01*
X112380819Y-85843999D02*
X112428438Y-85701142D01*
X112428438Y-85701142D02*
X112523676Y-85605904D01*
X112523676Y-85605904D02*
X112618914Y-85558285D01*
X112618914Y-85558285D02*
X112809390Y-85510666D01*
X112809390Y-85510666D02*
X112952247Y-85510666D01*
X112952247Y-85510666D02*
X113142723Y-85558285D01*
X113142723Y-85558285D02*
X113237961Y-85605904D01*
X113237961Y-85605904D02*
X113333200Y-85701142D01*
X113333200Y-85701142D02*
X113380819Y-85843999D01*
X113380819Y-85843999D02*
X113380819Y-86082094D01*
X113380819Y-84558285D02*
X113380819Y-85129713D01*
X113380819Y-84843999D02*
X112380819Y-84843999D01*
X112380819Y-84843999D02*
X112523676Y-84939237D01*
X112523676Y-84939237D02*
X112618914Y-85034475D01*
X112618914Y-85034475D02*
X112666533Y-85129713D01*
X117435333Y-52964819D02*
X117102000Y-52488628D01*
X116863905Y-52964819D02*
X116863905Y-51964819D01*
X116863905Y-51964819D02*
X117244857Y-51964819D01*
X117244857Y-51964819D02*
X117340095Y-52012438D01*
X117340095Y-52012438D02*
X117387714Y-52060057D01*
X117387714Y-52060057D02*
X117435333Y-52155295D01*
X117435333Y-52155295D02*
X117435333Y-52298152D01*
X117435333Y-52298152D02*
X117387714Y-52393390D01*
X117387714Y-52393390D02*
X117340095Y-52441009D01*
X117340095Y-52441009D02*
X117244857Y-52488628D01*
X117244857Y-52488628D02*
X116863905Y-52488628D01*
X118340095Y-51964819D02*
X117863905Y-51964819D01*
X117863905Y-51964819D02*
X117816286Y-52441009D01*
X117816286Y-52441009D02*
X117863905Y-52393390D01*
X117863905Y-52393390D02*
X117959143Y-52345771D01*
X117959143Y-52345771D02*
X118197238Y-52345771D01*
X118197238Y-52345771D02*
X118292476Y-52393390D01*
X118292476Y-52393390D02*
X118340095Y-52441009D01*
X118340095Y-52441009D02*
X118387714Y-52536247D01*
X118387714Y-52536247D02*
X118387714Y-52774342D01*
X118387714Y-52774342D02*
X118340095Y-52869580D01*
X118340095Y-52869580D02*
X118292476Y-52917200D01*
X118292476Y-52917200D02*
X118197238Y-52964819D01*
X118197238Y-52964819D02*
X117959143Y-52964819D01*
X117959143Y-52964819D02*
X117863905Y-52917200D01*
X117863905Y-52917200D02*
X117816286Y-52869580D01*
X158773905Y-62072819D02*
X158773905Y-61072819D01*
X158773905Y-61072819D02*
X159012000Y-61072819D01*
X159012000Y-61072819D02*
X159154857Y-61120438D01*
X159154857Y-61120438D02*
X159250095Y-61215676D01*
X159250095Y-61215676D02*
X159297714Y-61310914D01*
X159297714Y-61310914D02*
X159345333Y-61501390D01*
X159345333Y-61501390D02*
X159345333Y-61644247D01*
X159345333Y-61644247D02*
X159297714Y-61834723D01*
X159297714Y-61834723D02*
X159250095Y-61929961D01*
X159250095Y-61929961D02*
X159154857Y-62025200D01*
X159154857Y-62025200D02*
X159012000Y-62072819D01*
X159012000Y-62072819D02*
X158773905Y-62072819D01*
X159726286Y-61168057D02*
X159773905Y-61120438D01*
X159773905Y-61120438D02*
X159869143Y-61072819D01*
X159869143Y-61072819D02*
X160107238Y-61072819D01*
X160107238Y-61072819D02*
X160202476Y-61120438D01*
X160202476Y-61120438D02*
X160250095Y-61168057D01*
X160250095Y-61168057D02*
X160297714Y-61263295D01*
X160297714Y-61263295D02*
X160297714Y-61358533D01*
X160297714Y-61358533D02*
X160250095Y-61501390D01*
X160250095Y-61501390D02*
X159678667Y-62072819D01*
X159678667Y-62072819D02*
X160297714Y-62072819D01*
X152759580Y-73826666D02*
X152807200Y-73874285D01*
X152807200Y-73874285D02*
X152854819Y-74017142D01*
X152854819Y-74017142D02*
X152854819Y-74112380D01*
X152854819Y-74112380D02*
X152807200Y-74255237D01*
X152807200Y-74255237D02*
X152711961Y-74350475D01*
X152711961Y-74350475D02*
X152616723Y-74398094D01*
X152616723Y-74398094D02*
X152426247Y-74445713D01*
X152426247Y-74445713D02*
X152283390Y-74445713D01*
X152283390Y-74445713D02*
X152092914Y-74398094D01*
X152092914Y-74398094D02*
X151997676Y-74350475D01*
X151997676Y-74350475D02*
X151902438Y-74255237D01*
X151902438Y-74255237D02*
X151854819Y-74112380D01*
X151854819Y-74112380D02*
X151854819Y-74017142D01*
X151854819Y-74017142D02*
X151902438Y-73874285D01*
X151902438Y-73874285D02*
X151950057Y-73826666D01*
X152188152Y-72969523D02*
X152854819Y-72969523D01*
X151807200Y-73207618D02*
X152521485Y-73445713D01*
X152521485Y-73445713D02*
X152521485Y-72826666D01*
X107211905Y-61668819D02*
X107211905Y-60668819D01*
X107211905Y-60668819D02*
X107450000Y-60668819D01*
X107450000Y-60668819D02*
X107592857Y-60716438D01*
X107592857Y-60716438D02*
X107688095Y-60811676D01*
X107688095Y-60811676D02*
X107735714Y-60906914D01*
X107735714Y-60906914D02*
X107783333Y-61097390D01*
X107783333Y-61097390D02*
X107783333Y-61240247D01*
X107783333Y-61240247D02*
X107735714Y-61430723D01*
X107735714Y-61430723D02*
X107688095Y-61525961D01*
X107688095Y-61525961D02*
X107592857Y-61621200D01*
X107592857Y-61621200D02*
X107450000Y-61668819D01*
X107450000Y-61668819D02*
X107211905Y-61668819D01*
X108116667Y-60668819D02*
X108735714Y-60668819D01*
X108735714Y-60668819D02*
X108402381Y-61049771D01*
X108402381Y-61049771D02*
X108545238Y-61049771D01*
X108545238Y-61049771D02*
X108640476Y-61097390D01*
X108640476Y-61097390D02*
X108688095Y-61145009D01*
X108688095Y-61145009D02*
X108735714Y-61240247D01*
X108735714Y-61240247D02*
X108735714Y-61478342D01*
X108735714Y-61478342D02*
X108688095Y-61573580D01*
X108688095Y-61573580D02*
X108640476Y-61621200D01*
X108640476Y-61621200D02*
X108545238Y-61668819D01*
X108545238Y-61668819D02*
X108259524Y-61668819D01*
X108259524Y-61668819D02*
X108164286Y-61621200D01*
X108164286Y-61621200D02*
X108116667Y-61573580D01*
X105039333Y-77413580D02*
X104991714Y-77461200D01*
X104991714Y-77461200D02*
X104848857Y-77508819D01*
X104848857Y-77508819D02*
X104753619Y-77508819D01*
X104753619Y-77508819D02*
X104610762Y-77461200D01*
X104610762Y-77461200D02*
X104515524Y-77365961D01*
X104515524Y-77365961D02*
X104467905Y-77270723D01*
X104467905Y-77270723D02*
X104420286Y-77080247D01*
X104420286Y-77080247D02*
X104420286Y-76937390D01*
X104420286Y-76937390D02*
X104467905Y-76746914D01*
X104467905Y-76746914D02*
X104515524Y-76651676D01*
X104515524Y-76651676D02*
X104610762Y-76556438D01*
X104610762Y-76556438D02*
X104753619Y-76508819D01*
X104753619Y-76508819D02*
X104848857Y-76508819D01*
X104848857Y-76508819D02*
X104991714Y-76556438D01*
X104991714Y-76556438D02*
X105039333Y-76604057D01*
X105372667Y-76508819D02*
X105991714Y-76508819D01*
X105991714Y-76508819D02*
X105658381Y-76889771D01*
X105658381Y-76889771D02*
X105801238Y-76889771D01*
X105801238Y-76889771D02*
X105896476Y-76937390D01*
X105896476Y-76937390D02*
X105944095Y-76985009D01*
X105944095Y-76985009D02*
X105991714Y-77080247D01*
X105991714Y-77080247D02*
X105991714Y-77318342D01*
X105991714Y-77318342D02*
X105944095Y-77413580D01*
X105944095Y-77413580D02*
X105896476Y-77461200D01*
X105896476Y-77461200D02*
X105801238Y-77508819D01*
X105801238Y-77508819D02*
X105515524Y-77508819D01*
X105515524Y-77508819D02*
X105420286Y-77461200D01*
X105420286Y-77461200D02*
X105372667Y-77413580D01*
X122928095Y-76824819D02*
X122928095Y-77634342D01*
X122928095Y-77634342D02*
X122975714Y-77729580D01*
X122975714Y-77729580D02*
X123023333Y-77777200D01*
X123023333Y-77777200D02*
X123118571Y-77824819D01*
X123118571Y-77824819D02*
X123309047Y-77824819D01*
X123309047Y-77824819D02*
X123404285Y-77777200D01*
X123404285Y-77777200D02*
X123451904Y-77729580D01*
X123451904Y-77729580D02*
X123499523Y-77634342D01*
X123499523Y-77634342D02*
X123499523Y-76824819D01*
X123928095Y-76920057D02*
X123975714Y-76872438D01*
X123975714Y-76872438D02*
X124070952Y-76824819D01*
X124070952Y-76824819D02*
X124309047Y-76824819D01*
X124309047Y-76824819D02*
X124404285Y-76872438D01*
X124404285Y-76872438D02*
X124451904Y-76920057D01*
X124451904Y-76920057D02*
X124499523Y-77015295D01*
X124499523Y-77015295D02*
X124499523Y-77110533D01*
X124499523Y-77110533D02*
X124451904Y-77253390D01*
X124451904Y-77253390D02*
X123880476Y-77824819D01*
X123880476Y-77824819D02*
X124499523Y-77824819D01*
X131772819Y-73064666D02*
X131296628Y-73397999D01*
X131772819Y-73636094D02*
X130772819Y-73636094D01*
X130772819Y-73636094D02*
X130772819Y-73255142D01*
X130772819Y-73255142D02*
X130820438Y-73159904D01*
X130820438Y-73159904D02*
X130868057Y-73112285D01*
X130868057Y-73112285D02*
X130963295Y-73064666D01*
X130963295Y-73064666D02*
X131106152Y-73064666D01*
X131106152Y-73064666D02*
X131201390Y-73112285D01*
X131201390Y-73112285D02*
X131249009Y-73159904D01*
X131249009Y-73159904D02*
X131296628Y-73255142D01*
X131296628Y-73255142D02*
X131296628Y-73636094D01*
X130772819Y-72731332D02*
X130772819Y-72112285D01*
X130772819Y-72112285D02*
X131153771Y-72445618D01*
X131153771Y-72445618D02*
X131153771Y-72302761D01*
X131153771Y-72302761D02*
X131201390Y-72207523D01*
X131201390Y-72207523D02*
X131249009Y-72159904D01*
X131249009Y-72159904D02*
X131344247Y-72112285D01*
X131344247Y-72112285D02*
X131582342Y-72112285D01*
X131582342Y-72112285D02*
X131677580Y-72159904D01*
X131677580Y-72159904D02*
X131725200Y-72207523D01*
X131725200Y-72207523D02*
X131772819Y-72302761D01*
X131772819Y-72302761D02*
X131772819Y-72588475D01*
X131772819Y-72588475D02*
X131725200Y-72683713D01*
X131725200Y-72683713D02*
X131677580Y-72731332D01*
X141136761Y-77670819D02*
X140803428Y-77194628D01*
X140565333Y-77670819D02*
X140565333Y-76670819D01*
X140565333Y-76670819D02*
X140946285Y-76670819D01*
X140946285Y-76670819D02*
X141041523Y-76718438D01*
X141041523Y-76718438D02*
X141089142Y-76766057D01*
X141089142Y-76766057D02*
X141136761Y-76861295D01*
X141136761Y-76861295D02*
X141136761Y-77004152D01*
X141136761Y-77004152D02*
X141089142Y-77099390D01*
X141089142Y-77099390D02*
X141041523Y-77147009D01*
X141041523Y-77147009D02*
X140946285Y-77194628D01*
X140946285Y-77194628D02*
X140565333Y-77194628D01*
X141422476Y-76670819D02*
X141755809Y-77670819D01*
X141755809Y-77670819D02*
X142089142Y-76670819D01*
X142946285Y-77670819D02*
X142374857Y-77670819D01*
X142660571Y-77670819D02*
X142660571Y-76670819D01*
X142660571Y-76670819D02*
X142565333Y-76813676D01*
X142565333Y-76813676D02*
X142470095Y-76908914D01*
X142470095Y-76908914D02*
X142374857Y-76956533D01*
X147764667Y-91847200D02*
X147907524Y-91894819D01*
X147907524Y-91894819D02*
X148145619Y-91894819D01*
X148145619Y-91894819D02*
X148240857Y-91847200D01*
X148240857Y-91847200D02*
X148288476Y-91799580D01*
X148288476Y-91799580D02*
X148336095Y-91704342D01*
X148336095Y-91704342D02*
X148336095Y-91609104D01*
X148336095Y-91609104D02*
X148288476Y-91513866D01*
X148288476Y-91513866D02*
X148240857Y-91466247D01*
X148240857Y-91466247D02*
X148145619Y-91418628D01*
X148145619Y-91418628D02*
X147955143Y-91371009D01*
X147955143Y-91371009D02*
X147859905Y-91323390D01*
X147859905Y-91323390D02*
X147812286Y-91275771D01*
X147812286Y-91275771D02*
X147764667Y-91180533D01*
X147764667Y-91180533D02*
X147764667Y-91085295D01*
X147764667Y-91085295D02*
X147812286Y-90990057D01*
X147812286Y-90990057D02*
X147859905Y-90942438D01*
X147859905Y-90942438D02*
X147955143Y-90894819D01*
X147955143Y-90894819D02*
X148193238Y-90894819D01*
X148193238Y-90894819D02*
X148336095Y-90942438D01*
X148669429Y-90894819D02*
X148907524Y-91894819D01*
X148907524Y-91894819D02*
X149098000Y-91180533D01*
X149098000Y-91180533D02*
X149288476Y-91894819D01*
X149288476Y-91894819D02*
X149526572Y-90894819D01*
X149859905Y-90990057D02*
X149907524Y-90942438D01*
X149907524Y-90942438D02*
X150002762Y-90894819D01*
X150002762Y-90894819D02*
X150240857Y-90894819D01*
X150240857Y-90894819D02*
X150336095Y-90942438D01*
X150336095Y-90942438D02*
X150383714Y-90990057D01*
X150383714Y-90990057D02*
X150431333Y-91085295D01*
X150431333Y-91085295D02*
X150431333Y-91180533D01*
X150431333Y-91180533D02*
X150383714Y-91323390D01*
X150383714Y-91323390D02*
X149812286Y-91894819D01*
X149812286Y-91894819D02*
X150431333Y-91894819D01*
X154114667Y-88731200D02*
X154257524Y-88778819D01*
X154257524Y-88778819D02*
X154495619Y-88778819D01*
X154495619Y-88778819D02*
X154590857Y-88731200D01*
X154590857Y-88731200D02*
X154638476Y-88683580D01*
X154638476Y-88683580D02*
X154686095Y-88588342D01*
X154686095Y-88588342D02*
X154686095Y-88493104D01*
X154686095Y-88493104D02*
X154638476Y-88397866D01*
X154638476Y-88397866D02*
X154590857Y-88350247D01*
X154590857Y-88350247D02*
X154495619Y-88302628D01*
X154495619Y-88302628D02*
X154305143Y-88255009D01*
X154305143Y-88255009D02*
X154209905Y-88207390D01*
X154209905Y-88207390D02*
X154162286Y-88159771D01*
X154162286Y-88159771D02*
X154114667Y-88064533D01*
X154114667Y-88064533D02*
X154114667Y-87969295D01*
X154114667Y-87969295D02*
X154162286Y-87874057D01*
X154162286Y-87874057D02*
X154209905Y-87826438D01*
X154209905Y-87826438D02*
X154305143Y-87778819D01*
X154305143Y-87778819D02*
X154543238Y-87778819D01*
X154543238Y-87778819D02*
X154686095Y-87826438D01*
X155019429Y-87778819D02*
X155257524Y-88778819D01*
X155257524Y-88778819D02*
X155448000Y-88064533D01*
X155448000Y-88064533D02*
X155638476Y-88778819D01*
X155638476Y-88778819D02*
X155876572Y-87778819D01*
X156781333Y-88778819D02*
X156209905Y-88778819D01*
X156495619Y-88778819D02*
X156495619Y-87778819D01*
X156495619Y-87778819D02*
X156400381Y-87921676D01*
X156400381Y-87921676D02*
X156305143Y-88016914D01*
X156305143Y-88016914D02*
X156209905Y-88064533D01*
X150455333Y-50932819D02*
X150122000Y-50456628D01*
X149883905Y-50932819D02*
X149883905Y-49932819D01*
X149883905Y-49932819D02*
X150264857Y-49932819D01*
X150264857Y-49932819D02*
X150360095Y-49980438D01*
X150360095Y-49980438D02*
X150407714Y-50028057D01*
X150407714Y-50028057D02*
X150455333Y-50123295D01*
X150455333Y-50123295D02*
X150455333Y-50266152D01*
X150455333Y-50266152D02*
X150407714Y-50361390D01*
X150407714Y-50361390D02*
X150360095Y-50409009D01*
X150360095Y-50409009D02*
X150264857Y-50456628D01*
X150264857Y-50456628D02*
X149883905Y-50456628D01*
X151312476Y-50266152D02*
X151312476Y-50932819D01*
X151074381Y-49885200D02*
X150836286Y-50599485D01*
X150836286Y-50599485D02*
X151455333Y-50599485D01*
D11*
X106480000Y-64248000D02*
X106480000Y-68988000D01*
X106480000Y-64248000D02*
X117020000Y-64248000D01*
X106480000Y-68988000D02*
X117020000Y-68988000D01*
X117020000Y-64248000D02*
X117020000Y-68988000D01*
X162112000Y-72390000D02*
X162112000Y-64710000D01*
X162112000Y-72390000D02*
X159452000Y-72390000D01*
X162112000Y-64710000D02*
X159452000Y-64710000D01*
X160782000Y-74990000D02*
X159452000Y-74990000D01*
X159452000Y-74990000D02*
X159452000Y-73660000D01*
X159452000Y-72390000D02*
X159452000Y-64710000D01*
X110511000Y-82784000D02*
X107421000Y-82784000D01*
X108965952Y-88334000D02*
G75*
G02*
X107421170Y-82784000I48J2990000D01*
G01*
X110510830Y-82784000D02*
G75*
G02*
X108966048Y-88334000I-1544830J-2560000D01*
G01*
X111466000Y-85344000D02*
G75*
G02*
X106466000Y-85344000I-2500000J0D01*
G01*
X106466000Y-85344000D02*
G75*
G02*
X111466000Y-85344000I2500000J0D01*
G01*
X117432000Y-55880000D02*
X118642000Y-55880000D01*
X117432000Y-55880000D02*
G75*
G02*
X112692000Y-55880000I-2370000J0D01*
G01*
X112692000Y-55880000D02*
G75*
G02*
X117432000Y-55880000I2370000J0D01*
G01*
X162072000Y-59203000D02*
X162072000Y-56113000D01*
X156522000Y-57657952D02*
G75*
G02*
X162072000Y-56113170I2990000J-48D01*
G01*
X162072000Y-59202830D02*
G75*
G02*
X156522000Y-57658048I-2560000J1544830D01*
G01*
X162012000Y-57658000D02*
G75*
G02*
X157012000Y-57658000I-2500000J0D01*
G01*
X157012000Y-57658000D02*
G75*
G02*
X162012000Y-57658000I2500000J0D01*
G01*
X147728000Y-70512000D02*
X147728000Y-75752000D01*
X150468000Y-70512000D02*
X147728000Y-70512000D01*
X150468000Y-70512000D02*
X150468000Y-75752000D01*
X150468000Y-75752000D02*
X147728000Y-75752000D01*
X106455000Y-59830000D02*
X109545000Y-59830000D01*
X106455170Y-59830000D02*
G75*
G02*
X107999952Y-54280000I1544830J2560000D01*
G01*
X108000048Y-54280000D02*
G75*
G02*
X109544830Y-59830000I-48J-2990000D01*
G01*
X110500000Y-57270000D02*
G75*
G02*
X105500000Y-57270000I-2500000J0D01*
G01*
X105500000Y-57270000D02*
G75*
G02*
X110500000Y-57270000I2500000J0D01*
G01*
X106639000Y-76784000D02*
X106639000Y-76216000D01*
X106679000Y-77018000D02*
X106679000Y-75982000D01*
X106719000Y-77177000D02*
X106719000Y-75823000D01*
X106759000Y-77305000D02*
X106759000Y-75695000D01*
X106799000Y-77415000D02*
X106799000Y-75585000D01*
X106839000Y-77511000D02*
X106839000Y-75489000D01*
X106879000Y-77598000D02*
X106879000Y-75402000D01*
X106919000Y-77678000D02*
X106919000Y-75322000D01*
X106959000Y-75460000D02*
X106959000Y-75249000D01*
X106959000Y-77751000D02*
X106959000Y-77540000D01*
X106999000Y-75460000D02*
X106999000Y-75181000D01*
X106999000Y-77819000D02*
X106999000Y-77540000D01*
X107039000Y-75460000D02*
X107039000Y-75117000D01*
X107039000Y-77883000D02*
X107039000Y-77540000D01*
X107079000Y-75460000D02*
X107079000Y-75057000D01*
X107079000Y-77943000D02*
X107079000Y-77540000D01*
X107119000Y-75460000D02*
X107119000Y-75000000D01*
X107119000Y-78000000D02*
X107119000Y-77540000D01*
X107159000Y-75460000D02*
X107159000Y-74946000D01*
X107159000Y-78054000D02*
X107159000Y-77540000D01*
X107199000Y-75460000D02*
X107199000Y-74895000D01*
X107199000Y-78105000D02*
X107199000Y-77540000D01*
X107239000Y-75460000D02*
X107239000Y-74847000D01*
X107239000Y-78153000D02*
X107239000Y-77540000D01*
X107279000Y-75460000D02*
X107279000Y-74801000D01*
X107279000Y-78199000D02*
X107279000Y-77540000D01*
X107319000Y-75460000D02*
X107319000Y-74757000D01*
X107319000Y-78243000D02*
X107319000Y-77540000D01*
X107359000Y-75460000D02*
X107359000Y-74715000D01*
X107359000Y-78285000D02*
X107359000Y-77540000D01*
X107399000Y-75460000D02*
X107399000Y-74674000D01*
X107399000Y-78326000D02*
X107399000Y-77540000D01*
X107439000Y-75460000D02*
X107439000Y-74636000D01*
X107439000Y-78364000D02*
X107439000Y-77540000D01*
X107479000Y-75460000D02*
X107479000Y-74599000D01*
X107479000Y-78401000D02*
X107479000Y-77540000D01*
X107519000Y-75460000D02*
X107519000Y-74563000D01*
X107519000Y-78437000D02*
X107519000Y-77540000D01*
X107559000Y-75460000D02*
X107559000Y-74529000D01*
X107559000Y-78471000D02*
X107559000Y-77540000D01*
X107599000Y-75460000D02*
X107599000Y-74496000D01*
X107599000Y-78504000D02*
X107599000Y-77540000D01*
X107639000Y-75460000D02*
X107639000Y-74465000D01*
X107639000Y-78535000D02*
X107639000Y-77540000D01*
X107679000Y-75460000D02*
X107679000Y-74435000D01*
X107679000Y-78565000D02*
X107679000Y-77540000D01*
X107719000Y-75460000D02*
X107719000Y-74405000D01*
X107719000Y-78595000D02*
X107719000Y-77540000D01*
X107759000Y-75460000D02*
X107759000Y-74378000D01*
X107759000Y-78622000D02*
X107759000Y-77540000D01*
X107799000Y-75460000D02*
X107799000Y-74351000D01*
X107799000Y-78649000D02*
X107799000Y-77540000D01*
X107839000Y-75460000D02*
X107839000Y-74325000D01*
X107839000Y-78675000D02*
X107839000Y-77540000D01*
X107879000Y-75460000D02*
X107879000Y-74300000D01*
X107879000Y-78700000D02*
X107879000Y-77540000D01*
X107919000Y-75460000D02*
X107919000Y-74276000D01*
X107919000Y-78724000D02*
X107919000Y-77540000D01*
X107959000Y-75460000D02*
X107959000Y-74253000D01*
X107959000Y-78747000D02*
X107959000Y-77540000D01*
X107999000Y-75460000D02*
X107999000Y-74232000D01*
X107999000Y-78768000D02*
X107999000Y-77540000D01*
X108039000Y-75460000D02*
X108039000Y-74210000D01*
X108039000Y-78790000D02*
X108039000Y-77540000D01*
X108079000Y-75460000D02*
X108079000Y-74190000D01*
X108079000Y-78810000D02*
X108079000Y-77540000D01*
X108119000Y-75460000D02*
X108119000Y-74171000D01*
X108119000Y-78829000D02*
X108119000Y-77540000D01*
X108159000Y-75460000D02*
X108159000Y-74152000D01*
X108159000Y-78848000D02*
X108159000Y-77540000D01*
X108199000Y-75460000D02*
X108199000Y-74135000D01*
X108199000Y-78865000D02*
X108199000Y-77540000D01*
X108239000Y-75460000D02*
X108239000Y-74118000D01*
X108239000Y-78882000D02*
X108239000Y-77540000D01*
X108279000Y-75460000D02*
X108279000Y-74102000D01*
X108279000Y-78898000D02*
X108279000Y-77540000D01*
X108319000Y-75460000D02*
X108319000Y-74086000D01*
X108319000Y-78914000D02*
X108319000Y-77540000D01*
X108359000Y-75460000D02*
X108359000Y-74072000D01*
X108359000Y-78928000D02*
X108359000Y-77540000D01*
X108399000Y-75460000D02*
X108399000Y-74058000D01*
X108399000Y-78942000D02*
X108399000Y-77540000D01*
X108439000Y-75460000D02*
X108439000Y-74045000D01*
X108439000Y-78955000D02*
X108439000Y-77540000D01*
X108479000Y-75460000D02*
X108479000Y-74032000D01*
X108479000Y-78968000D02*
X108479000Y-77540000D01*
X108519000Y-75460000D02*
X108519000Y-74020000D01*
X108519000Y-78980000D02*
X108519000Y-77540000D01*
X108560000Y-75460000D02*
X108560000Y-74009000D01*
X108560000Y-78991000D02*
X108560000Y-77540000D01*
X108600000Y-75460000D02*
X108600000Y-73999000D01*
X108600000Y-79001000D02*
X108600000Y-77540000D01*
X108640000Y-75460000D02*
X108640000Y-73989000D01*
X108640000Y-79011000D02*
X108640000Y-77540000D01*
X108680000Y-75460000D02*
X108680000Y-73980000D01*
X108680000Y-79020000D02*
X108680000Y-77540000D01*
X108720000Y-75460000D02*
X108720000Y-73972000D01*
X108720000Y-79028000D02*
X108720000Y-77540000D01*
X108760000Y-75460000D02*
X108760000Y-73964000D01*
X108760000Y-79036000D02*
X108760000Y-77540000D01*
X108800000Y-75460000D02*
X108800000Y-73957000D01*
X108800000Y-79043000D02*
X108800000Y-77540000D01*
X108840000Y-75460000D02*
X108840000Y-73950000D01*
X108840000Y-79050000D02*
X108840000Y-77540000D01*
X108880000Y-75460000D02*
X108880000Y-73944000D01*
X108880000Y-79056000D02*
X108880000Y-77540000D01*
X108920000Y-75460000D02*
X108920000Y-73939000D01*
X108920000Y-79061000D02*
X108920000Y-77540000D01*
X108960000Y-75460000D02*
X108960000Y-73935000D01*
X108960000Y-79065000D02*
X108960000Y-77540000D01*
X109000000Y-75460000D02*
X109000000Y-73931000D01*
X109000000Y-79069000D02*
X109000000Y-77540000D01*
X109040000Y-79073000D02*
X109040000Y-73927000D01*
X109080000Y-79076000D02*
X109080000Y-73924000D01*
X109120000Y-79078000D02*
X109120000Y-73922000D01*
X109160000Y-79079000D02*
X109160000Y-73921000D01*
X109200000Y-79080000D02*
X109200000Y-73920000D01*
X109240000Y-79080000D02*
X109240000Y-73920000D01*
X111794775Y-78225000D02*
X111794775Y-77725000D01*
X112044775Y-77975000D02*
X111544775Y-77975000D01*
X111860000Y-76500000D02*
G75*
G02*
X106620000Y-76500000I-2620000J0D01*
G01*
X106620000Y-76500000D02*
G75*
G02*
X111860000Y-76500000I2620000J0D01*
G01*
X118440000Y-66030000D02*
X118440000Y-76430000D01*
X118440000Y-76430000D02*
X128940000Y-76430000D01*
X121440000Y-66090000D02*
X121440000Y-76370000D01*
X121440000Y-76370000D02*
X122690000Y-76370000D01*
X124690000Y-76370000D02*
X125940000Y-76370000D01*
X125940000Y-66090000D02*
X121440000Y-66090000D01*
X125940000Y-76370000D02*
X125940000Y-66090000D01*
X128940000Y-66030000D02*
X118440000Y-66030000D01*
X128940000Y-76430000D02*
X128940000Y-66030000D01*
X122690000Y-76370000D02*
G75*
G02*
X124690000Y-76370000I1000000J0D01*
G01*
X132842000Y-71966000D02*
X132842000Y-73176000D01*
X135212000Y-69596000D02*
G75*
G02*
X130472000Y-69596000I-2370000J0D01*
G01*
X130472000Y-69596000D02*
G75*
G02*
X135212000Y-69596000I2370000J0D01*
G01*
X138603000Y-67881000D02*
X138603000Y-69226000D01*
X138603000Y-67881000D02*
X143644000Y-67881000D01*
X138603000Y-72078000D02*
X138603000Y-74227000D01*
X138603000Y-72078000D02*
X138603000Y-74227000D01*
X138603000Y-77077000D02*
X138603000Y-78422000D01*
X138603000Y-78422000D02*
X143644000Y-78422000D01*
X140105000Y-71282000D02*
X143644000Y-71282000D01*
X140105000Y-75022000D02*
X143644000Y-75022000D01*
X143644000Y-67881000D02*
X143644000Y-78422000D01*
X143644000Y-71282000D02*
X143644000Y-75022000D01*
X141956000Y-92620000D02*
X152176000Y-92620000D01*
X152176000Y-95340000D01*
X141956000Y-95340000D01*
X141956000Y-92620000D01*
X151948000Y-83324000D02*
X151948000Y-84824000D01*
X153198000Y-87324000D02*
X157698000Y-87324000D01*
X157698000Y-80824000D02*
X153198000Y-80824000D01*
X158948000Y-84824000D02*
X158948000Y-83324000D01*
X150452000Y-53848000D02*
X151662000Y-53848000D01*
X150452000Y-53848000D02*
G75*
G02*
X145712000Y-53848000I-2370000J0D01*
G01*
X145712000Y-53848000D02*
G75*
G02*
X150452000Y-53848000I2370000J0D01*
G01*
%LPC*%
D12*
X108000000Y-66618000D03*
X115500000Y-66618000D03*
D13*
X160782000Y-73660000D03*
D14*
X160782000Y-71120000D03*
X160782000Y-68580000D03*
X160782000Y-66040000D03*
D15*
X161500000Y-47500000D03*
D16*
X108966000Y-84074000D03*
D17*
X108966000Y-86614000D03*
D18*
X115062000Y-55880000D03*
D19*
X120142000Y-55880000D03*
D16*
X160782000Y-57658000D03*
D17*
X158242000Y-57658000D03*
D20*
X149098000Y-71882000D03*
X149098000Y-74382000D03*
D15*
X103500000Y-96500000D03*
D16*
X108000000Y-58540000D03*
D17*
X108000000Y-56000000D03*
D15*
X103500000Y-47500000D03*
D21*
X110490000Y-76500000D03*
D20*
X107990000Y-76500000D03*
D22*
X127500000Y-75040000D03*
D23*
X127500000Y-72500000D03*
X127500000Y-69960000D03*
X127500000Y-67420000D03*
X119880000Y-67420000D03*
X119880000Y-69960000D03*
X119880000Y-72500000D03*
X119880000Y-75040000D03*
D15*
X161500000Y-96500000D03*
D18*
X132842000Y-69596000D03*
D19*
X132842000Y-74676000D03*
D24*
X138724000Y-70652000D03*
X141224000Y-73152000D03*
X138724000Y-75652000D03*
D20*
X144526000Y-93980000D03*
D25*
X147066000Y-93980000D03*
D20*
X149606000Y-93980000D03*
D12*
X158698000Y-86324000D03*
X152198000Y-86324000D03*
X158698000Y-81824000D03*
X152198000Y-81824000D03*
D18*
X148082000Y-53848000D03*
D19*
X153162000Y-53848000D03*
D13*
X108370000Y-48770000D03*
D14*
X108370000Y-46230000D03*
X110910000Y-48770000D03*
X110910000Y-46230000D03*
X113450000Y-48770000D03*
X113450000Y-46230000D03*
X115990000Y-48770000D03*
X115990000Y-46230000D03*
X118530000Y-48770000D03*
X118530000Y-46230000D03*
X121070000Y-48770000D03*
X121070000Y-46230000D03*
X123610000Y-48770000D03*
X123610000Y-46230000D03*
X126150000Y-48770000D03*
X126150000Y-46230000D03*
X128690000Y-48770000D03*
X128690000Y-46230000D03*
X131230000Y-48770000D03*
X131230000Y-46230000D03*
X133770000Y-48770000D03*
X133770000Y-46230000D03*
X136310000Y-48770000D03*
X136310000Y-46230000D03*
X138850000Y-48770000D03*
X138850000Y-46230000D03*
X141390000Y-48770000D03*
X141390000Y-46230000D03*
X143930000Y-48770000D03*
X143930000Y-46230000D03*
X146470000Y-48770000D03*
X146470000Y-46230000D03*
X149010000Y-48770000D03*
X149010000Y-46230000D03*
X151550000Y-48770000D03*
X151550000Y-46230000D03*
X154090000Y-48770000D03*
X154090000Y-46230000D03*
X156630000Y-48770000D03*
X156630000Y-46230000D03*
%LPD*%
M02*
